<?xml version="1.0" standalone="no"?>
<!DOCTYPE svg PUBLIC "-//W3C//DTD SVG 1.1//EN" "http://www.w3.org/Graphics/SVG/1.1/DTD/svg11.dtd" >
<svg xmlns="http://www.w3.org/2000/svg">
<metadata></metadata>
<defs>
<font id="allstate_sans_wregular" horiz-adv-x="600" >
<font-face units-per-em="1000" ascent="800" descent="-200" />
<missing-glyph horiz-adv-x="270" />
<glyph unicode="ff" horiz-adv-x="637" d="M619 642q-11 3 -24.5 6t-32.5 3q-29 0 -47 -15t-18 -53v-63h118v-74h-118v-446h-87v446h-213v-446h-87v446h-85v74h85v61q0 73 41 108.5t107 35.5q43 0 73 -11l-12 -72q-11 3 -24 6t-33 3q-29 0 -47 -15t-18 -53v-63h213v61q0 73 41 108.5t107 35.5q43 0 73 -11z" />
<glyph unicode="fi" horiz-adv-x="579" d="M319 642q-11 3 -24 6t-33 3q-29 0 -47 -15t-18 -53v-63h118v-74h-118v-446h-87v446h-85v74h85v61q0 73 41 108.5t107 35.5q43 0 73 -11zM414 0v520h87v-520h-87zM404 668q0 23 15 38.5t38 15.5t38.5 -15.5t15.5 -38.5t-15.5 -38t-38.5 -15t-38 15t-15 38z" />
<glyph unicode="fl" horiz-adv-x="587" d="M319 642q-11 3 -24 6t-33 3q-29 0 -47 -15t-18 -53v-63h118v-74h-118v-446h-87v446h-85v74h85v61q0 73 41 108.5t107 35.5q43 0 73 -11zM418 0v714h87v-714h-87z" />
<glyph horiz-adv-x="0" />
<glyph horiz-adv-x="0" />
<glyph horiz-adv-x="270" />
<glyph unicode=" "  horiz-adv-x="270" />
<glyph unicode="&#x09;" horiz-adv-x="270" />
<glyph unicode="&#xa0;" horiz-adv-x="270" />
<glyph unicode="!" horiz-adv-x="268" d="M157 201h-46l-31 513h108zM71 53q0 26 18.5 44.5t44.5 18.5t44.5 -18.5t18.5 -44.5t-18.5 -44.5t-44.5 -18.5t-44.5 18.5t-18.5 44.5z" />
<glyph unicode="&#x22;" horiz-adv-x="375" d="M127 446h-57v268h95zM297 446h-57v268h95z" />
<glyph unicode="#" d="M460 465l-38 -216h123v-56h-132l-34 -193h-60l34 193h-167l-34 -193h-61l33 193h-76v56h86l37 216h-123v55h133l33 194h61l-33 -194h167l34 194h60l-34 -194h76v-55h-85zM232 465l-37 -216h167l38 216h-168z" />
<glyph unicode="$" d="M270 -70v60q-42 3 -77.5 14.5t-65.5 29t-54 40.5t-42 48l59 55q65 -98 180 -110v258q-38 11 -75 25t-66 36t-47.5 54t-18.5 79q0 42 15.5 77t43.5 60.5t65.5 40.5t82.5 17v56h54v-59q61 -9 115 -39.5t92 -76.5l-59 -54q-29 37 -66 60.5t-82 31.5v-231q46 -15 85 -31.5 t67.5 -40t44.5 -55.5t16 -77q0 -44 -15.5 -80.5t-43.5 -63.5t-67.5 -43t-86.5 -20v-61h-54zM450 187q0 27 -9.5 46.5t-26 33.5t-40 23.5t-50.5 18.5v-242q63 5 94.5 38t31.5 82zM150 529q0 -26 9 -43.5t25 -29.5t38 -21t48 -17v217q-54 -3 -87 -29.5t-33 -76.5z" />
<glyph unicode="%" horiz-adv-x="750" d="M347 576q0 -31 -12 -58t-32.5 -47.5t-47.5 -32.5t-58 -12t-58.5 12t-48 32.5t-32.5 47.5t-12 58t12 58.5t32.5 48t48 32.5t58.5 12t58 -12t47.5 -32.5t32.5 -48t12 -58.5zM281 576q0 18 -6.5 33.5t-18 27t-27 18t-32.5 6.5q-35 0 -60 -25t-25 -60q0 -17 6.5 -32.5t18 -27 t27 -18t33.5 -6.5q35 0 59.5 24.5t24.5 59.5zM181 0h-74l478 714h74zM708 137q0 -31 -12 -58t-32.5 -47.5t-47.5 -32.5t-58 -12t-58.5 12t-48 32.5t-32.5 47.5t-12 58t12 58.5t32.5 48t48 32.5t58.5 12t58 -12t47.5 -32.5t32.5 -48t12 -58.5zM642 137q0 18 -6.5 33.5t-18 27 t-27 18t-32.5 6.5q-35 0 -60 -25t-25 -60q0 -17 6.5 -32.5t18 -27t27 -18t33.5 -6.5q35 0 59.5 24.5t24.5 59.5z" />
<glyph unicode="&#x26;" horiz-adv-x="656" d="M633 326q-2 -29 -10 -58.5t-20 -58t-27.5 -54t-31.5 -44.5l96 -111h-112l-47 57q-42 -33 -94 -51.5t-111 -18.5q-50 0 -94 13.5t-77 39t-52 63t-19 84.5q0 40 13.5 72t36 57t52 44t62.5 33q-18 21 -33 40t-26 39t-17 42t-6 48q0 39 14.5 69.5t40 52t60.5 32.5t75 11 q42 0 76 -12t57.5 -33.5t36.5 -51t13 -64.5q0 -63 -41.5 -111.5t-123.5 -86.5l168 -196q14 18 25 39t19 43t12.5 43.5t6.5 40.5zM283 66q33 0 75 10.5t73 38.5l-189 223q-24 -11 -45.5 -24t-37 -30t-25 -38t-9.5 -48q0 -30 12 -54.5t33.5 -42t50.5 -26.5t62 -9zM408 562 q0 46 -30.5 68.5t-69.5 22.5q-42 0 -74 -23t-32 -69q0 -40 23 -72t54 -66q24 12 47 25t41.5 29.5t29.5 37t11 47.5z" />
<glyph unicode="'" horiz-adv-x="205" d="M127 446h-57v268h95z" />
<glyph unicode="(" horiz-adv-x="283" d="M207 -133q-88 106 -126.5 225.5t-38.5 240.5t38.5 240t126.5 225l56 -44q-77 -95 -109 -200.5t-32 -220.5t32 -220.5t109 -201.5z" />
<glyph unicode=")" horiz-adv-x="281" d="M75 798q88 -106 126 -225t38 -240t-38 -240.5t-126 -225.5l-56 44q76 96 108.5 201.5t32.5 220.5t-32.5 220.5t-108.5 200.5z" />
<glyph unicode="*" horiz-adv-x="363" d="M195 548q4 -21 7 -36t5 -28.5t2.5 -27t0.5 -29.5h-58q0 16 1 29.5t2.5 27t4.5 28.5t8 36q-15 -15 -27 -25t-22.5 -18.5t-21.5 -15.5t-25 -15l-28 50q14 8 25.5 14t23.5 11t27 10t35 11q-20 6 -35 11.5t-27 10.5t-23.5 11t-25.5 14l28 50q14 -8 25 -15t21.5 -15.5 t22.5 -18.5t27 -25q-5 21 -8 36t-4.5 28.5t-2.5 26.5t-1 30h58q0 -17 -0.5 -30t-2.5 -26.5t-5 -28.5t-7 -36q15 15 27 25t22.5 18.5t21.5 15.5t25 15l28 -50q-14 -8 -25.5 -14t-24 -11t-27 -10.5t-35.5 -11.5q21 -6 35.5 -11t27 -10t24 -11t25.5 -14l-28 -50q-14 8 -25 15 t-21.5 15.5t-22.5 18.5t-27 25z" />
<glyph unicode="+" d="M337 266v-200h-77v200h-199v76h199v200h77v-200h200v-76h-200z" />
<glyph unicode="," horiz-adv-x="251" d="M125 -6q-26 0 -45 17t-19 43q0 23 15.5 42.5t45.5 19.5q28 0 46.5 -21t18.5 -66q0 -50 -28 -92t-68 -71l-30 36q27 17 45.5 43t18.5 49z" />
<glyph unicode="-" horiz-adv-x="382" d="M62 266v76h258v-76h-258z" />
<glyph unicode="." horiz-adv-x="251" d="M62 53q0 26 18.5 44.5t44.5 18.5t44.5 -18.5t18.5 -44.5t-18.5 -44.5t-44.5 -18.5t-44.5 18.5t-18.5 44.5z" />
<glyph unicode="/" horiz-adv-x="353" d="M103 0h-71l220 714h71z" />
<glyph unicode="0" horiz-adv-x="629" d="M575 357q0 -69 -12.5 -135.5t-42.5 -118.5t-80 -84t-125 -32t-125.5 32t-80.5 84t-42.5 118.5t-12.5 135.5t12.5 135.5t42.5 118.5t80.5 84t125.5 32t125 -32t80 -84t42.5 -118.5t12.5 -135.5zM478 357q0 59 -8 111.5t-27 91.5t-50.5 62t-77.5 23q-47 0 -78 -23 t-50.5 -62t-27.5 -91.5t-8 -111.5t8 -111.5t27.5 -92t50.5 -62.5t78 -23q46 0 77.5 23t50.5 62.5t27 92t8 111.5z" />
<glyph unicode="1" horiz-adv-x="417" d="M306 0h-95v602q-11 -7 -30 -15t-41.5 -15.5t-47 -13.5t-48.5 -9l-16 73q71 15 122 37.5t81 54.5h75v-714z" />
<glyph unicode="2" horiz-adv-x="582" d="M57 0v73q103 84 173 147t113 113t61.5 91t18.5 80q0 33 -12 58.5t-31.5 42.5t-45.5 25.5t-54 8.5q-51 0 -92 -24.5t-66 -65.5l-74 48q40 61 100 95.5t139 34.5q51 0 94 -14.5t74.5 -42.5t49.5 -68.5t18 -91.5q0 -50 -18.5 -96.5t-58 -96t-101 -105.5t-148.5 -125h335v-87 h-475z" />
<glyph unicode="3" horiz-adv-x="587" d="M281 727q55 0 97.5 -15t71.5 -40.5t44.5 -60t15.5 -74.5q0 -50 -25.5 -89.5t-83.5 -64.5q66 -21 100 -68.5t34 -109.5q0 -44 -17 -83.5t-50 -69.5t-80.5 -47.5t-108.5 -17.5q-49 0 -88.5 11t-71 28.5t-55 39.5t-38.5 45l69 56q67 -93 187 -93q78 0 116.5 36.5t38.5 96.5 q0 57 -37 92.5t-120 35.5h-71v81h70q26 0 50.5 6t43.5 19.5t30.5 35t11.5 51.5t-11 51t-30 34.5t-44 20t-53 6.5q-50 0 -93 -19t-74 -57l-59 64q19 20 42 38t51.5 31.5t62.5 21.5t74 8z" />
<glyph unicode="4" d="M460 169v-169h-92v169h-329v74q30 31 64 72.5t68 87.5t66 93t58.5 89t46 75.5t28.5 53.5h90v-463h100v-82h-100zM368 251v314q-14 -28 -40 -69.5t-57.5 -86t-64.5 -86.5t-59 -72h221z" />
<glyph unicode="5" horiz-adv-x="584" d="M540 231q0 -50 -18 -94t-52 -77.5t-83 -53t-111 -19.5q-48 0 -87.5 11t-71 29t-54 40t-37.5 44l69 56q67 -93 183 -93q80 0 122 42t42 111q0 72 -42 112t-114 40q-49 0 -87 -18.5t-64 -50.5l-58 27l23 377h401v-87h-324l-15 -212q32 25 71 35t75 10q50 0 92.5 -17 t73.5 -47.5t48.5 -72.5t17.5 -92z" />
<glyph unicode="6" horiz-adv-x="581" d="M422 714q-33 -28 -69.5 -64.5t-71 -77t-62.5 -83t-44 -82.5q14 16 32.5 27.5t39 18.5t41.5 10t39 3q46 0 86.5 -16.5t70.5 -47t47 -74t17 -96.5q0 -54 -18 -99t-51 -77.5t-79 -50.5t-102 -18t-102 17.5t-79 51t-51 83t-18 112.5q0 66 19 127.5t52 119t77.5 111.5 t95.5 105h130zM145 229q0 -70 40.5 -114t112.5 -44q74 0 112.5 44t38.5 114q0 71 -38.5 114t-112.5 43q-72 0 -112.5 -43.5t-40.5 -113.5z" />
<glyph unicode="7" horiz-adv-x="534" d="M512 636q-38 -47 -86 -116t-90.5 -152t-73.5 -177t-35 -191h-102q5 88 33.5 177.5t70 172t89 154t89.5 123.5h-387v87h492v-78z" />
<glyph unicode="8" horiz-adv-x="611" d="M306 70q76 0 116 37t40 101q0 60 -37.5 96t-118.5 36q-82 0 -119.5 -37.5t-37.5 -96.5q0 -64 41 -100t116 -36zM306 418q25 0 48.5 5.5t42.5 18.5t30.5 34.5t11.5 53.5q0 30 -11 51.5t-29.5 35t-42.5 20t-50 6.5t-50.5 -6.5t-43 -20t-29.5 -35t-11 -51.5 q0 -32 11.5 -53.5t30.5 -34.5t43 -18.5t49 -5.5zM306 -13q-60 0 -107.5 16t-80 44.5t-50 67.5t-17.5 85q0 57 30.5 107t96.5 78q-48 21 -75.5 62t-27.5 95q0 43 18 77.5t49 58.5t73.5 36.5t90.5 12.5t90 -12.5t73 -36.5t49 -58.5t18 -77.5q0 -54 -27.5 -95t-75.5 -62 q67 -28 97 -78t30 -107q0 -46 -17.5 -85t-50 -67.5t-79.5 -44.5t-107 -16z" />
<glyph unicode="9" horiz-adv-x="580" d="M158 0q33 27 70 63.5t71 77t62.5 83t44.5 82.5q-14 -16 -32.5 -27t-39.5 -18t-42 -10t-39 -3q-47 0 -87 16.5t-69.5 47t-46.5 73.5t-17 96q0 54 18 99.5t50.5 78t78.5 50.5t103 18q56 0 102 -17.5t78.5 -51.5t50.5 -83.5t18 -112.5q0 -66 -19 -127.5t-52 -118.5t-77 -111 t-95 -105h-131zM435 484q0 70 -40 114t-113 44q-74 0 -112.5 -44t-38.5 -114q0 -71 38.5 -113.5t112.5 -42.5q73 0 113 43.5t40 112.5z" />
<glyph unicode=":" horiz-adv-x="295" d="M85 467q0 26 18.5 44.5t44.5 18.5t44.5 -18.5t18.5 -44.5t-18.5 -44.5t-44.5 -18.5t-44.5 18.5t-18.5 44.5zM85 53q0 26 18.5 44.5t44.5 18.5t44.5 -18.5t18.5 -44.5t-18.5 -44.5t-44.5 -18.5t-44.5 18.5t-18.5 44.5z" />
<glyph unicode=";" horiz-adv-x="295" d="M85 467q0 26 18.5 44.5t44.5 18.5t44.5 -18.5t18.5 -44.5t-18.5 -44.5t-44.5 -18.5t-44.5 18.5t-18.5 44.5zM149 -6q-27 0 -45.5 17t-18.5 43q0 23 15.5 42.5t45.5 19.5q28 0 46.5 -21t18.5 -66q0 -50 -28.5 -92t-67.5 -71l-30 36q27 17 45.5 43t18.5 49z" />
<glyph unicode="&#x3c;" d="M400 26l-281 279l281 280l52 -53l-226 -227l226 -227z" />
<glyph unicode="=" d="M62 364v76h476v-76h-476zM62 168v77h476v-77h-476z" />
<glyph unicode="&#x3e;" d="M200 26l-52 52l227 227l-227 227l52 53l281 -280z" />
<glyph unicode="?" horiz-adv-x="511" d="M466 527q0 -45 -15.5 -77.5t-38.5 -56.5t-50.5 -42t-50.5 -35.5t-38.5 -36.5t-15.5 -44v-34h-84v36q0 38 14.5 65t36.5 47.5t47.5 37.5t47.5 36.5t36.5 43.5t14.5 58q0 24 -8 45t-24.5 36.5t-41 25t-58.5 9.5q-48 0 -85.5 -17t-70.5 -46l-52 63q45 39 97.5 61.5 t115.5 22.5q47 0 88 -14t71 -39.5t47 -62.5t17 -82zM154 53q0 26 18.5 44.5t44.5 18.5t44.5 -18.5t18.5 -44.5t-18.5 -44.5t-44.5 -18.5t-44.5 18.5t-18.5 44.5z" />
<glyph unicode="@" horiz-adv-x="842" d="M534 222q-24 -35 -58.5 -52.5t-75.5 -17.5q-39 0 -70.5 15t-53.5 41t-34 62t-12 77t12 76.5t34 62t54 41.5t72 15q33 0 62.5 -13t54.5 -42v47h75v-263q0 -26 12 -44.5t45 -18.5q47 0 70 40t23 102q0 67 -23 125.5t-64.5 101.5t-100 67.5t-129.5 24.5t-129.5 -25.5 t-100.5 -69.5t-65 -102t-23 -123q0 -66 23 -124t65 -101.5t100 -68.5t129 -25q43 0 83.5 10t75.5 32l28 -51q-42 -23 -89 -36t-101 -13q-84 0 -153.5 29t-120 80t-78.5 120t-28 148q0 78 28 147t78.5 120.5t121 81t155.5 29.5t155 -29.5t120 -80t77.5 -117.5t27.5 -142 q0 -47 -11.5 -84.5t-32 -63.5t-50 -40.5t-65.5 -14.5q-32 0 -64 14.5t-49 52.5zM519 347q0 27 -7 50t-20.5 40.5t-33.5 27.5t-47 10q-26 0 -45.5 -10t-32 -27.5t-19 -40.5t-6.5 -50t6.5 -50t19.5 -40.5t32.5 -27.5t45.5 -10q27 0 47 10t33.5 27.5t20 41t6.5 49.5z" />
<glyph unicode="A" horiz-adv-x="680" d="M564 0l-74 203h-304l-75 -203h-100l277 714h105l277 -714h-106zM340 618l-125 -332h245z" />
<glyph unicode="B" horiz-adv-x="683" d="M634 203q0 -41 -15 -78t-46 -65t-78 -44t-110 -16h-295v714h275q115 0 177.5 -46t62.5 -127q0 -57 -28.5 -94.5t-71.5 -60.5q63 -23 96 -71.5t33 -111.5zM510 528q0 30 -11.5 49.5t-31.5 31t-47 15.5t-58 4h-179v-212h179q32 0 59 6t47 19.5t31 35t11 51.5zM537 210 q0 60 -42 92t-121 32h-191v-249h199q75 0 115 33t40 92z" />
<glyph unicode="C" horiz-adv-x="698" d="M586 534q-32 51 -82.5 78.5t-115.5 27.5q-56 0 -100.5 -20.5t-76 -57.5t-48 -89.5t-16.5 -115.5q0 -64 17 -116.5t49 -89.5t77 -57t102 -20q66 0 114 28t84 85l72 -57q-49 -70 -115 -106.5t-155 -36.5q-78 0 -141.5 27.5t-108.5 76.5t-69.5 116.5t-24.5 148.5t24.5 149 t69 117.5t107 77t138.5 27.5q88 0 157.5 -37t115.5 -104z" />
<glyph unicode="D" horiz-adv-x="746" d="M359 87q58 0 103 19.5t75 54.5t45.5 85t15.5 111t-15.5 111t-45.5 85t-75 54.5t-103 19.5h-176v-540h176zM90 0v714h269q81 0 144 -27t106 -75t65.5 -113.5t22.5 -141.5q0 -77 -22.5 -142t-65.5 -113t-106 -75t-144 -27h-269z" />
<glyph unicode="E" horiz-adv-x="632" d="M90 0v714h484v-87h-391v-211h348v-82h-348v-247h401v-87h-494z" />
<glyph unicode="F" horiz-adv-x="603" d="M183 627v-211h347v-82h-347v-334h-93v714h482v-87h-389z" />
<glyph unicode="G" horiz-adv-x="751" d="M392 640q-57 0 -102.5 -20.5t-77 -57.5t-48.5 -89.5t-17 -115.5q0 -64 17 -116t48 -89t75.5 -57.5t100.5 -20.5q46 0 87 14.5t71.5 42t49 68.5t21.5 94h-208v83h298q5 -22 5 -54q0 -67 -21.5 -127.5t-63 -106.5t-101.5 -73.5t-137 -27.5q-78 0 -141 28t-107.5 78 t-68.5 117.5t-24 147.5q0 81 25 149t70 116.5t108.5 76t140.5 27.5q92 0 160 -37.5t113 -102.5l-77 -51q-31 51 -80.5 77.5t-115.5 26.5z" />
<glyph unicode="H" horiz-adv-x="750" d="M567 0v334h-384v-334h-93v714h93v-294h384v294h93v-714h-93z" />
<glyph unicode="I" horiz-adv-x="273" d="M90 0v714h93v-714h-93z" />
<glyph unicode="J" horiz-adv-x="510" d="M334 714h93v-473q0 -52 -8 -94t-30 -75q-29 -45 -75 -65t-103 -20q-63 0 -112.5 26.5t-78.5 77.5l74 48q23 -38 54.5 -52.5t63.5 -14.5q34 0 57 11t37.5 30.5t21 47.5t6.5 62v491z" />
<glyph unicode="K" horiz-adv-x="669" d="M553 0l-242 348l-128 -145v-203h-93v714h93v-388l340 388h117l-265 -297l293 -417h-115z" />
<glyph unicode="L" horiz-adv-x="588" d="M90 0v714h93v-627h390v-87h-483z" />
<glyph unicode="M" horiz-adv-x="896" d="M713 0v597l-227 -597h-77l-229 598v-598h-90v714h138l220 -585l223 585h135v-714h-93z" />
<glyph unicode="N" horiz-adv-x="750" d="M660 0h-90l-391 582v-582h-89v714h102l378 -562v562h90v-714z" />
<glyph unicode="O" horiz-adv-x="775" d="M728 357q0 -79 -24 -146.5t-68 -117t-107 -78t-141 -28.5t-141 28.5t-107.5 78t-68.5 117t-24 146.5t24 147t68.5 117.5t107.5 77.5t141 28t141 -28t107 -77.5t68 -117.5t24 -147zM630 357q0 62 -16.5 114t-48 89t-76.5 57.5t-101 20.5q-57 0 -101.5 -20.5t-76 -57.5 t-48 -89t-16.5 -114t16.5 -114t48 -89t76 -57.5t101.5 -20.5q56 0 101 20.5t76.5 57.5t48 89t16.5 114z" />
<glyph unicode="P" horiz-adv-x="645" d="M360 374q84 0 121.5 35t37.5 93t-37.5 91.5t-121.5 33.5h-177v-253h177zM183 287v-287h-93v714h270q127 0 191.5 -58t64.5 -154q0 -48 -16 -87.5t-48.5 -68t-80.5 -44t-111 -15.5h-177z" />
<glyph unicode="Q" horiz-adv-x="775" d="M728 357q0 -88 -29.5 -161t-83.5 -124l54 -66l-63 -52l-59 71q-70 -38 -159 -38q-78 0 -141 28.5t-107.5 78t-68.5 117t-24 146.5t24 146.5t68.5 117t107.5 78t141 28.5t141 -28.5t107 -78t68 -117t24 -146.5zM630 357q0 62 -16.5 114t-48 89t-76.5 57.5t-101 20.5 q-57 0 -101.5 -20.5t-76 -57.5t-48 -89t-16.5 -114t16.5 -114t48 -89.5t76 -58t101.5 -20.5q54 0 100 22l-82 103l62 51l86 -108q37 38 56.5 92t19.5 122z" />
<glyph unicode="R" horiz-adv-x="674" d="M530 0l-172 291h-175v-291h-93v714h295q57 0 101.5 -15t76 -42t48 -65t16.5 -84q0 -78 -45.5 -131t-124.5 -74l179 -303h-106zM530 504q0 55 -37 89t-111 34h-199v-253h187q75 0 117.5 35t42.5 95z" />
<glyph unicode="S" horiz-adv-x="625" d="M306 727q79 0 149 -31.5t115 -91.5l-68 -55q-34 48 -87 70.5t-113 22.5q-29 0 -55 -5.5t-45.5 -18.5t-31 -33t-11.5 -49q0 -31 13 -50.5t35 -32t51.5 -21t62.5 -16.5q52 -13 98.5 -28t82 -38.5t56.5 -59t21 -87.5q0 -48 -18.5 -88t-53 -68.5t-83.5 -44t-110 -15.5 q-97 0 -168 37.5t-113 100.5l71 58q38 -60 96.5 -86t120.5 -26q75 0 119 32.5t44 92.5q0 35 -15.5 56t-41 34.5t-60 22t-71.5 17.5q-42 10 -83 23.5t-74 36t-53.5 56.5t-20.5 85q0 47 18 84.5t50.5 63t76.5 39t96 13.5z" />
<glyph unicode="T" horiz-adv-x="625" d="M359 627v-627h-93v627h-240v87h573v-87h-240z" />
<glyph unicode="U" horiz-adv-x="717" d="M635 259q0 -62 -21 -112.5t-58 -86t-88 -54.5t-111 -19t-110.5 19t-87 54.5t-57 86t-20.5 112.5v455h93v-455q0 -84 48.5 -134t133.5 -50q42 0 76 13t58 37t37 58t13 76v455h94v-455z" />
<glyph unicode="V" horiz-adv-x="636" d="M624 714l-256 -714h-99l-257 714h101l205 -603l209 603h97z" />
<glyph unicode="W" horiz-adv-x="955" d="M744 0h-99l-168 572l-168 -572h-99l-184 714h99l140 -574l170 574h87l170 -575l140 575h98z" />
<glyph unicode="X" horiz-adv-x="654" d="M533 0l-206 300l-208 -300h-112l261 372l-241 342h111l190 -275l189 275h110l-241 -342l261 -372h-114z" />
<glyph unicode="Y" horiz-adv-x="614" d="M356 299v-299h-96v298l-254 416h109l195 -327l194 327h106z" />
<glyph unicode="Z" horiz-adv-x="626" d="M41 0v81l411 546h-394v87h515v-79l-411 -548h420v-87h-541z" />
<glyph unicode="[" horiz-adv-x="317" d="M90 -118v902h197v-71h-117v-761h117v-70h-197z" />
<glyph unicode="\" horiz-adv-x="353" d="M250 0l-220 714h71l220 -714h-71z" />
<glyph unicode="]" horiz-adv-x="317" d="M30 -118v70h117v761h-117v71h197v-902h-197z" />
<glyph unicode="^" d="M513 431l-212 213l-213 -213l-53 54l229 229h73l229 -229z" />
<glyph unicode="_" horiz-adv-x="607" d="M5 -125v50h597v-50h-597z" />
<glyph unicode="`" horiz-adv-x="320" d="M154 590l-83 118l65 32l93 -150h-75z" />
<glyph unicode="a" horiz-adv-x="567" d="M390 280q-12 -12 -29.5 -19.5t-37.5 -12t-41.5 -7t-41.5 -5.5q-23 -3 -42.5 -8.5t-34 -15.5t-23 -25.5t-8.5 -38.5q0 -47 31.5 -67.5t76.5 -20.5q28 0 55 8t48 25t34 43.5t13 63.5v80zM228 -13q-42 0 -76 11t-58 31.5t-37.5 50t-13.5 67.5q0 45 18 73.5t45 45.5 t58.5 24.5t58.5 11.5q30 4 60 7t53.5 10.5t38.5 21t15 39.5q0 38 -33 56.5t-84 18.5q-92 0 -165 -55l-40 66q46 32 96 49t112 17q44 0 81 -9.5t63.5 -30.5t41.5 -53t15 -77v-246q0 -56 38 -56q18 0 29 8l11 -66q-9 -5 -27 -8t-32 -3q-36 0 -63.5 20t-33.5 59 q-26 -38 -68 -60.5t-103 -22.5z" />
<glyph unicode="b" horiz-adv-x="637" d="M167 714v-279q37 53 84.5 75t100.5 22q55 0 99.5 -21t76 -57.5t48 -86t16.5 -106.5q0 -58 -16.5 -108t-48 -86.5t-76 -57.5t-99.5 -21q-54 0 -101 22.5t-84 75.5v-86h-87v714h87zM167 260q0 -40 11 -75t32.5 -61t53 -41t72.5 -15t71.5 15t51 41t31 61t10.5 75 q0 39 -10 74t-30.5 61.5t-51.5 41.5t-72 15t-72.5 -15t-53 -41t-32.5 -61t-11 -75z" />
<glyph unicode="c" horiz-adv-x="536" d="M295 532q72 0 123 -30.5t81 -74.5l-62 -49q-24 37 -57 56t-80 19q-38 0 -68 -14.5t-51 -40t-32.5 -61t-11.5 -77.5t11.5 -77.5t32.5 -61t51.5 -40t68.5 -14.5q51 0 86 23t57 55l62 -49q-35 -47 -86.5 -77.5t-123.5 -30.5q-57 0 -103.5 20.5t-79.5 57t-50.5 86.5 t-17.5 108t18 108t50.5 86.5t78.5 57t103 20.5z" />
<glyph unicode="d" horiz-adv-x="637" d="M470 0v85q-37 -53 -84.5 -75t-100.5 -22q-56 0 -100 21t-75.5 57.5t-48 86t-16.5 106.5q0 58 16.5 107.5t48 86.5t75.5 58t100 21q54 0 101 -22.5t84 -75.5v280h87v-714h-87zM470 260q0 40 -11 75t-32.5 61t-53 41t-72.5 15t-71.5 -15t-51 -41t-31 -61t-10.5 -75 q0 -39 10 -74t30.5 -61.5t51.5 -41.5t72 -15t72.5 15t53 41t32.5 61t11 75z" />
<glyph unicode="e" horiz-adv-x="584" d="M455 306q-2 39 -15.5 67t-35 47t-49 28t-57.5 9q-34 0 -62 -11t-48.5 -31.5t-32.5 -48t-15 -60.5h315zM45 258q0 58 17.5 108t50 87t79.5 58t107 21q57 0 102.5 -19.5t77.5 -53.5t49 -80t17 -99q0 -13 -1 -23t-2 -18h-404q1 -41 14 -72.5t36 -53.5t54.5 -33t69.5 -11 q48 0 89 19t67 55l64 -50q-16 -21 -37.5 -40t-49 -33.5t-61.5 -23t-76 -8.5q-63 0 -112 20.5t-82.5 56.5t-51 85.5t-17.5 107.5z" />
<glyph unicode="f" horiz-adv-x="337" d="M319 642q-11 3 -24 6t-33 3q-29 0 -47 -15t-18 -53v-63h118v-74h-118v-446h-87v446h-85v74h85v61q0 73 41 108.5t107 35.5q43 0 73 -11z" />
<glyph unicode="g" horiz-adv-x="637" d="M557 84q0 -57 -12 -104.5t-42 -82.5q-19 -23 -43.5 -38t-52.5 -25t-58.5 -14t-61.5 -4q-123 0 -212 62l44 71q34 -25 76 -39.5t93 -14.5q39 0 72 9.5t57.5 30t38.5 53t14 78.5v54q-29 -44 -76 -72t-112 -28q-53 0 -97 20t-75 54.5t-48 81t-17 98.5q0 53 17.5 100t49.5 82 t76 55.5t98 20.5t103 -22.5t81 -72.5v83h87v-436zM470 277q0 34 -11 66t-32 56t-52.5 38.5t-73.5 14.5t-72.5 -14.5t-51 -39t-30.5 -56.5t-10 -66q0 -35 10 -67t30.5 -56.5t51.5 -39.5t72 -15t72.5 14.5t53 39.5t32.5 57.5t11 67.5z" />
<glyph unicode="h" horiz-adv-x="604" d="M80 0v714h87v-280q32 48 76.5 73t101.5 25q85 0 133.5 -51.5t48.5 -145.5v-335h-87v315q0 23 -4.5 47t-17 43.5t-35.5 32t-59 12.5q-33 0 -62 -11.5t-50 -33t-33 -51.5t-12 -66v-288h-87z" />
<glyph unicode="i" horiz-adv-x="247" d="M80 0v520h87v-520h-87zM70 668q0 23 15 38.5t38 15.5t38.5 -15.5t15.5 -38.5t-15.5 -38t-38.5 -15t-38 15t-15 38z" />
<glyph unicode="j" horiz-adv-x="255" d="M177 -7q0 -89 -45 -132.5t-115 -43.5q-20 0 -41 4t-35 12l16 74q10 -5 23 -10t32 -5q42 0 60 26t18 71v531h87v-527zM80 668q0 23 15 38.5t38 15.5t38.5 -15.5t15.5 -38.5t-16 -38t-38 -15q-23 0 -38 15t-15 38z" />
<glyph unicode="k" horiz-adv-x="558" d="M416 520h109l-203 -213l230 -307h-110l-181 249l-96 -101v-148h-87v714h87v-463z" />
<glyph unicode="l" horiz-adv-x="247" d="M80 0v714h87v-714h-87z" />
<glyph unicode="m" horiz-adv-x="924" d="M80 520h87v-84q32 47 72 71.5t95 24.5q58 0 98 -27t58 -78q32 49 77 77t106 28q81 0 127.5 -51t46.5 -142v-339h-87v318q0 24 -4 47.5t-16 42t-33 30.5t-54 12q-65 0 -105.5 -43.5t-40.5 -115.5v-291h-87v318q0 24 -4 47.5t-16 42t-33 30.5t-55 12q-32 0 -59 -11.5 t-46 -32t-29.5 -50t-10.5 -65.5v-291h-87v520z" />
<glyph unicode="n" horiz-adv-x="604" d="M80 0v520h87v-86q32 48 76.5 73t101.5 25q85 0 133.5 -51.5t48.5 -145.5v-335h-87v315q0 23 -4.5 47t-17 43.5t-35.5 32t-59 12.5q-33 0 -62 -11.5t-50 -33t-33 -51.5t-12 -66v-288h-87z" />
<glyph unicode="o" horiz-adv-x="601" d="M556 259q0 -59 -18 -108.5t-51 -85.5t-80.5 -56.5t-106.5 -20.5t-106.5 20.5t-80.5 56.5t-50.5 85.5t-17.5 108.5t17.5 109t50.5 86.5t80.5 57t106.5 20.5t106.5 -20.5t80.5 -57t51 -86.5t18 -109zM463 259q0 41 -11 76.5t-31.5 61.5t-51 41t-69.5 15t-69.5 -15t-51 -41 t-31.5 -61.5t-11 -76.5t11 -76t31.5 -61t51 -41t69.5 -15t69.5 15t51 41t31.5 61t11 76z" />
<glyph unicode="p" horiz-adv-x="637" d="M167 520v-85q37 53 84.5 75t100.5 22q55 0 99.5 -21t76 -57.5t48 -86t16.5 -106.5q0 -58 -16.5 -108t-48 -86.5t-76 -57.5t-99.5 -21q-54 0 -101 22.5t-84 75.5v-260h-87v694h87zM167 260q0 -40 11 -75t32.5 -61t53 -41t72.5 -15t71.5 15t51 41t31 61t10.5 75 q0 39 -10 74t-30.5 61.5t-51.5 41.5t-72 15t-72.5 -15t-53 -41t-32.5 -61t-11 -75z" />
<glyph unicode="q" horiz-adv-x="637" d="M470 -174v259q-37 -53 -84.5 -75t-100.5 -22q-56 0 -100 21t-75.5 57.5t-48 86t-16.5 106.5q0 58 16.5 107.5t48 86.5t75.5 58t100 21q54 0 101 -22.5t84 -75.5v86h87v-694h-87zM470 260q0 40 -11 75t-32.5 61t-53 41t-72.5 15t-71.5 -15t-51 -41t-31 -61t-10.5 -75 q0 -39 10 -74t30.5 -61.5t51.5 -41.5t72 -15t72.5 15t53 41t32.5 61t11 75z" />
<glyph unicode="r" horiz-adv-x="378" d="M354 436q-21 8 -48 8q-29 0 -54.5 -12t-44 -34.5t-29.5 -56t-11 -76.5v-265h-87v520h87v-90q24 45 63.5 72t87.5 27q15 0 30.5 -2.5t23.5 -7.5z" />
<glyph unicode="s" horiz-adv-x="510" d="M466 157q0 -37 -15 -68t-43 -53.5t-66.5 -35t-86.5 -12.5q-77 0 -133.5 30t-90.5 75l63 51q56 -81 165 -81q62 0 91.5 23t29.5 59q0 24 -12 38t-32 22t-46.5 13t-55.5 11q-34 7 -65.5 17.5t-56 28t-39 42.5t-14.5 61q0 34 13.5 62.5t38 48.5t59.5 31.5t78 11.5 q71 0 122 -28t85 -70l-61 -48q-18 26 -54 48.5t-96 22.5q-51 0 -76.5 -19t-25.5 -51q0 -19 8.5 -31.5t24.5 -21t38.5 -14t49.5 -11.5q40 -8 76.5 -18t64.5 -26.5t45 -42t17 -65.5z" />
<glyph unicode="t" horiz-adv-x="403" d="M387 24q-44 -36 -114 -36q-41 0 -74.5 15t-56.5 51q-12 19 -17 42.5t-5 60.5v289h-96v64q27 3 47.5 9t35 21.5t22 44t9.5 75.5h69v-140h164v-74h-164v-290q0 -90 77 -90q23 0 41.5 6.5t32.5 17.5z" />
<glyph unicode="u" horiz-adv-x="604" d="M524 520v-520h-87v85q-33 -47 -77 -72t-101 -25q-85 0 -133.5 51.5t-48.5 144.5v336h87v-316q0 -23 4.5 -47t17 -43.5t35 -32t58.5 -12.5q34 0 63 11.5t50 33t33 51.5t12 66v289h87z" />
<glyph unicode="v" horiz-adv-x="535" d="M313 0h-91l-208 520h98l157 -416l157 416h95z" />
<glyph unicode="w" horiz-adv-x="788" d="M616 0h-95l-126 408l-128 -408h-95l-144 520h93l105 -415l130 415h80l129 -415l106 415h89z" />
<glyph unicode="x" horiz-adv-x="538" d="M416 0l-148 210l-148 -210h-106l201 271l-183 249h105l134 -191l132 191h103l-182 -249l198 -271h-106z" />
<glyph unicode="y" horiz-adv-x="535" d="M312 -24q-15 -38 -31 -68t-37 -50.5t-48.5 -31t-63.5 -10.5q-27 0 -52 6t-44 19l30 70q11 -9 27 -14t33 -5q37 0 57.5 23t35.5 56l14 31l-220 518h100l166 -404l147 404h94z" />
<glyph unicode="z" horiz-adv-x="508" d="M40 0v71l302 371h-289v78h404v-70l-304 -373h313v-77h-426z" />
<glyph unicode="{" horiz-adv-x="330" d="M20 298v68h17q47 0 65 27.5t18 71.5v147q0 83 42 127t110 44h28v-69h-16q-48 0 -66.5 -27.5t-18.5 -72.5v-144q0 -54 -21.5 -88.5t-62.5 -49.5q41 -15 62.5 -49.5t21.5 -89.5v-144q0 -45 18.5 -72.5t66.5 -27.5h16v-68h-28q-68 0 -110 43t-42 127v147q0 44 -18 72t-65 28 h-17z" />
<glyph unicode="|" horiz-adv-x="227" d="M80 -108v822h67v-822h-67z" />
<glyph unicode="}" horiz-adv-x="330" d="M293 298q-47 0 -65 -28t-18 -72v-147q0 -84 -42 -127t-110 -43h-28v68h16q48 0 66.5 27.5t18.5 72.5v144q0 55 21.5 89.5t62.5 49.5q-41 15 -62.5 49.5t-21.5 88.5v144q0 45 -18.5 72.5t-66.5 27.5h-16v69h28q68 0 110 -44t42 -127v-147q0 -44 18 -71.5t65 -27.5h17v-68 h-17z" />
<glyph unicode="~" d="M46 286q11 15 25 31t31.5 29.5t39 22t47.5 8.5t51 -9t63 -25q38 -17 62 -25t48 -8q32 0 58 13.5t49 34.5l34 -36q-11 -14 -24.5 -30t-31 -29.5t-39.5 -22.5t-48 -9t-51 9t-63 25q-35 15 -60.5 24t-49.5 9q-31 0 -57.5 -14t-49.5 -35z" />
<glyph unicode="&#xa1;" horiz-adv-x="266" d="M70 467q0 26 18.5 44.5t44.5 18.5t44.5 -18.5t18.5 -44.5t-18.5 -44.5t-44.5 -18.5t-44.5 18.5t-18.5 44.5zM110 319h46l31 -493h-108z" />
<glyph unicode="&#xa2;" d="M447 379q-20 29 -47.5 47.5t-62.5 23.5v-382q38 5 66 25.5t48 49.5l65 -50q-30 -42 -74.5 -70t-104.5 -34v-83h-54v84q-52 4 -93.5 26.5t-70.5 58.5t-44.5 83t-15.5 102q0 54 15.5 101.5t44.5 83t70.5 58t93.5 27.5v83h54v-83q60 -6 104.5 -34.5t73.5 -71.5zM151 260 q0 -76 34.5 -127.5t97.5 -62.5v379q-31 -5 -55.5 -21.5t-41.5 -41t-26 -57t-9 -69.5z" />
<glyph unicode="&#xa3;" d="M569 109q-19 -55 -57 -88t-91 -33q-27 0 -52.5 7t-50.5 15.5t-50 15.5t-52 7q-29 0 -69 -10.5t-84 -35.5l-34 67q64 38 87.5 78.5t23.5 80.5q0 42 -18 89h-94v67h69q-17 38 -28 73.5t-11 76.5q0 48 18.5 86.5t50.5 65.5t76 42t94 15q79 0 139 -34.5t101 -97.5l-78 -46 q-25 40 -64.5 65t-96.5 25q-30 0 -56 -8t-45.5 -24t-31 -40t-11.5 -56q0 -37 12 -71t29 -72h212v-67h-193q10 -30 10 -65q0 -38 -12 -74t-44 -70q13 6 27 9.5t27 5.5t22.5 2.5t14.5 0.5q25 0 47.5 -5.5t42.5 -12.5t38 -12.5t36 -5.5q26 0 42.5 15t30.5 47z" />
<glyph unicode="&#xa4;" horiz-adv-x="576" d="M165 304q0 -26 9.5 -48.5t26 -39t39 -26t48.5 -9.5q25 0 47.5 9.5t39 26t26 39t9.5 48.5q0 25 -9.5 47.5t-26 39t-39 26t-47.5 9.5q-26 0 -48.5 -9.5t-39 -26t-26 -39t-9.5 -47.5zM99 304q0 29 8.5 55t22.5 49l-71 72l53 53l71 -73q44 32 105 32q59 0 103 -32l72 73 l52 -53l-71 -72q15 -23 23.5 -49t8.5 -55t-8.5 -55.5t-23.5 -48.5l71 -71l-52 -54l-72 72q-22 -15 -48 -23.5t-55 -8.5t-56 8.5t-49 23.5l-71 -72l-53 54l71 70q-14 23 -22.5 49.5t-8.5 55.5z" />
<glyph unicode="&#xa5;" d="M389 372h146v-54h-174l-15 -27v-67h189v-55h-189v-169h-94v169h-190v55h190v66l-15 28h-175v54h148l-174 342h108l158 -339l155 339h107z" />
<glyph unicode="&#xa6;" horiz-adv-x="303" d="M121 448v314h59v-314h-59zM121 -60v314h59v-314h-59z" />
<glyph unicode="&#xa7;" horiz-adv-x="538" d="M249 161q-43 27 -81.5 56.5t-67.5 65.5t-46 79.5t-17 97.5q0 56 18.5 104.5t53.5 84.5t84 57t111 21q52 0 97.5 -15t80.5 -43l-51 -65q-24 22 -55.5 34t-72.5 12q-102 0 -151 -80l141 -89q44 -28 81.5 -57.5t64.5 -64.5t42.5 -77.5t15.5 -94.5q0 -56 -18.5 -105t-53 -85 t-83.5 -57t-111 -21q-51 0 -96.5 14.5t-80.5 43.5l49 65q25 -22 56.5 -34t72.5 -12q102 0 151 81zM415 186q0 42 -13 74t-38 60.5t-61.5 56t-84.5 60.5l-93 64q-3 -8 -4 -17.5t-1 -20.5q0 -42 12 -74.5t36 -61t61 -56.5t88 -62l94 -63q3 16 3.5 25.5t0.5 14.5z" />
<glyph unicode="&#xa8;" horiz-adv-x="320" d="M17 640q0 20 14 34t33 14q20 0 34 -14t14 -34q0 -19 -14 -33t-34 -14q-19 0 -33 13.5t-14 33.5zM207 640q0 20 14 34t33 14q20 0 34 -14t14 -34q0 -19 -14 -33t-34 -14q-19 0 -33 13.5t-14 33.5z" />
<glyph unicode="&#xa9;" horiz-adv-x="831" d="M595 249q-29 -48 -76 -75.5t-103 -27.5q-44 0 -82 16.5t-66 45.5t-44.5 67t-16.5 82t16.5 82.5t44.5 67t66 45t82 16.5q55 0 101.5 -26.5t75.5 -75.5l-53 -36q-20 35 -53 54.5t-71 19.5q-30 0 -56 -11.5t-45.5 -32t-30.5 -47t-11 -56.5t11 -56.5t30.5 -46.5t45.5 -31.5 t56 -11.5q39 0 71.5 19.5t53.5 53.5zM39 357q0 78 29.5 146.5t80.5 119.5t119.5 80.5t146.5 29.5t146.5 -29.5t119.5 -80.5t80.5 -119.5t29.5 -146.5t-29.5 -146.5t-80.5 -119.5t-119.5 -80.5t-146.5 -29.5t-146.5 29.5t-119.5 80.5t-80.5 119.5t-29.5 146.5zM90 357 q0 -68 25.5 -127t70 -103.5t103.5 -70t126 -25.5t126.5 25.5t104 70t70 103.5t25.5 127q0 67 -25.5 126t-70 103.5t-104 70t-126.5 25.5t-126 -25.5t-103.5 -70t-70 -103.5t-25.5 -126z" />
<glyph unicode="&#xaa;" horiz-adv-x="441" d="M393 386q-9 -5 -22 -6t-21 -1q-25 0 -44 10t-25 36q-24 -29 -54 -39t-63 -10q-50 0 -83 27t-33 75q0 38 16.5 58.5t41.5 30t54 12.5t54 6.5t41.5 11t16.5 26.5q0 12 -6.5 20t-17 13t-24 7t-26.5 2q-27 0 -54.5 -8.5t-50.5 -25.5l-31 47q31 22 66.5 33.5t72.5 11.5 q72 0 104.5 -31t32.5 -100v-131q0 -16 5 -23t19 -7q4 0 10 1.5t11 3.5zM274 562q-15 -14 -34 -19.5t-50 -10.5q-33 -5 -55 -13.5t-22 -37.5q0 -26 19.5 -38t45.5 -12q18 0 35.5 5t31 15t21.5 25.5t8 36.5v49z" />
<glyph unicode="&#xab;" horiz-adv-x="448" d="M32 301l150 206l53 -42l-129 -178l129 -179l-53 -40l-150 204v29zM198 301l150 206l52 -42l-128 -178l128 -179l-52 -40l-150 204v29z" />
<glyph unicode="&#xac;" horiz-adv-x="576" d="M448 67v200h-401v74h474v-274h-73z" />
<glyph unicode="&#xad;" horiz-adv-x="393" d="M62 242v78h269v-78h-269z" />
<glyph unicode="&#xae;" horiz-adv-x="390" d="M348 572q0 -32 -12 -59.5t-32.5 -48.5t-48.5 -33t-59 -12q-32 0 -60 12t-49 33t-33 48.5t-12 59.5t12 60t33 49t49 33t60 12q31 0 59 -12t48.5 -33t32.5 -49t12 -60zM327 572q0 28 -10.5 52t-28.5 42t-41.5 28t-50.5 10q-28 0 -52 -10t-42 -28t-28 -42t-10 -52 q0 -27 10 -51t28 -41.5t42 -28t52 -10.5q27 0 50.5 10.5t41.5 28t28.5 41.5t10.5 51zM271 489h-35l-34 62h-39v-62h-31v169h77q25 0 41 -14.5t16 -38.5q0 -18 -9.5 -31t-24.5 -18zM233 604q0 11 -7 18.5t-17 7.5h-46v-52h46q10 0 17 7t7 19z" />
<glyph unicode="&#xaf;" horiz-adv-x="328" d="M13 608v58h300v-58h-300z" />
<glyph unicode="&#xb0;" horiz-adv-x="383" d="M342 576q0 -31 -12 -58t-32.5 -47.5t-47.5 -32.5t-58 -12t-58.5 12t-48 32.5t-32.5 47.5t-12 58t12 58.5t32.5 48t48 32.5t58.5 12t58 -12t47.5 -32.5t32.5 -48t12 -58.5zM276 576q0 18 -6.5 33.5t-18 27t-27 18t-32.5 6.5q-35 0 -60 -25t-25 -60q0 -17 6.5 -32.5t18 -27 t27 -18t33.5 -6.5q35 0 59.5 24.5t24.5 59.5z" />
<glyph unicode="&#xb1;" d="M61 0v76h476v-76h-476zM337 337v-192h-77v192h-199v76h199v194h77v-194h200v-76h-200z" />
<glyph unicode="&#xb2;" horiz-adv-x="384" d="M40 377v54q52 39 93 71t69.5 59.5t44 54t15.5 55.5q0 36 -22.5 54t-56.5 18q-36 0 -63 -17t-42 -41l-51 37q26 35 63.5 60.5t94.5 25.5q34 0 61.5 -10t47 -28t30.5 -43t11 -55q0 -29 -10.5 -54.5t-33 -52.5t-57.5 -57t-85 -67h202v-64h-311z" />
<glyph unicode="&#xb3;" horiz-adv-x="390" d="M351 499q0 -29 -11.5 -53t-32.5 -41t-50.5 -26.5t-65.5 -9.5q-57 0 -98.5 21.5t-65.5 52.5l49 43q17 -23 45.5 -37.5t68.5 -14.5q46 0 67.5 19t21.5 48q0 28 -19.5 43.5t-54.5 15.5h-55v63h52q10 0 22 3t22 10t16.5 18t6.5 27q0 31 -23.5 46.5t-58.5 15.5 q-33 0 -59.5 -13t-43.5 -33l-47 44q31 33 68 50t84 17q67 0 108 -32.5t41 -86.5q0 -28 -12 -51t-39 -39q37 -14 50.5 -43t13.5 -57z" />
<glyph unicode="&#xb4;" horiz-adv-x="320" d="M102 590l93 150l65 -32l-83 -118h-75z" />
<glyph unicode="&#xb6;" horiz-adv-x="556" d="M426 -91v749h-64v-749h-63v396h-59q-44 0 -81 14.5t-65 41t-43.5 64.5t-15.5 85t16.5 84.5t44 64t65 41t79.5 14.5h237v-805h-51z" />
<glyph unicode="&#xb7;" horiz-adv-x="255" d="M190 304q0 -26 -18 -44.5t-44 -18.5t-44.5 18.5t-18.5 44.5t18.5 45t44.5 19t44 -19t18 -45z" />
<glyph unicode="&#xb8;" horiz-adv-x="320" d="M118 -200q-23 0 -44 3.5t-32 7.5v51q14 -9 34 -11.5t31 -2.5q29 0 45.5 9.5t16.5 30.5q0 11 -4.5 16t-11.5 10h-57l14 53q8 3 18.5 6t24.5 3q35 0 60.5 -21.5t25.5 -61.5q0 -45 -34 -69t-87 -24z" />
<glyph unicode="&#xb9;" horiz-adv-x="367" d="M249 377h-69v341q-18 -8 -48 -15t-60 -11l-10 54q48 9 81 21.5t54 32.5h52v-423z" />
<glyph unicode="&#xba;" horiz-adv-x="425" d="M383 550q0 -37 -12 -69t-34 -55t-54 -36.5t-71 -13.5t-70.5 13.5t-53.5 36.5t-34 55t-12 69t12 69t34 55t53.5 36t70.5 13t71 -13t54 -36t34 -55t12 -69zM314 550q0 48 -26 80.5t-76 32.5q-48 0 -75 -32.5t-27 -80.5t27 -80.5t75 -32.5q50 0 76 32.5t26 80.5z" />
<glyph unicode="&#xbb;" horiz-adv-x="449" d="M416 272l-150 -204l-52 40l128 179l-128 178l52 42l150 -206v-29zM250 272l-149 -204l-53 40l129 179l-129 178l53 42l149 -206v-29z" />
<glyph unicode="&#xbc;" horiz-adv-x="954" d="M249 291h-69v341q-18 -8 -48 -15t-60 -11l-10 54q48 9 81 21.5t54 32.5h52v-423zM276 0h-74l478 714h74zM838 97v-97h-67v97h-209v57q22 22 52.5 58.5t60.5 76t54.5 76t36.5 58.5h72v-264h66v-62h-66zM771 159v176q-26 -43 -61 -87t-73 -89h134z" />
<glyph unicode="&#xbd;" horiz-adv-x="962" d="M249 291h-69v341q-18 -8 -48 -15t-60 -11l-10 54q48 9 81 21.5t54 32.5h52v-423zM276 0h-74l478 714h74zM618 0v54q52 39 93 71t69.5 59.5t44 54t15.5 55.5q0 36 -22.5 54t-56.5 18q-36 0 -63 -17t-42 -41l-51 37q26 35 63.5 60.5t94.5 25.5q34 0 61.5 -10t47 -28 t30.5 -43t11 -55q0 -29 -10.5 -54.5t-33 -52.5t-57.5 -57t-85 -67h202v-64h-311z" />
<glyph unicode="&#xbe;" horiz-adv-x="918" d="M351 413q0 -29 -11.5 -53t-32.5 -41t-50.5 -26.5t-65.5 -9.5q-57 0 -98.5 21.5t-65.5 52.5l49 43q17 -23 45.5 -37.5t68.5 -14.5q46 0 67.5 19t21.5 48q0 28 -19.5 43.5t-54.5 15.5h-55v63h52q10 0 22 3t22 10t16.5 18t6.5 27q0 31 -23.5 46.5t-58.5 15.5 q-33 0 -59.5 -13t-43.5 -33l-47 44q31 33 68 50t84 17q67 0 108 -32.5t41 -86.5q0 -28 -12 -51t-39 -39q37 -14 50.5 -43t13.5 -57zM288 0h-74l478 714h74zM830 97v-97h-67v97h-209v57q22 22 52.5 58.5t60.5 76t54.5 76t36.5 58.5h72v-264h66v-62h-66zM763 159v176 q-26 -43 -61 -87t-73 -89h134z" />
<glyph unicode="&#xbf;" horiz-adv-x="512" d="M55 13q0 44 15.5 75.5t38.5 55t50.5 41t50.5 34t38.5 34.5t15.5 43v23h84v-25q0 -37 -14.5 -63t-36.5 -46t-47.5 -36.5t-47.5 -35t-36.5 -42t-14.5 -56.5q0 -23 8 -44t24.5 -37t41.5 -25t59 -9q47 0 84.5 17t70.5 46l52 -63q-45 -39 -97.5 -61.5t-114.5 -22.5 q-48 0 -89 14t-71 39.5t-47 62t-17 81.5zM367 467q0 -26 -18.5 -44.5t-44.5 -18.5t-44.5 18.5t-18.5 44.5t18.5 44.5t44.5 18.5t44.5 -18.5t18.5 -44.5z" />
<glyph unicode="&#xc0;" horiz-adv-x="680" d="M564 0l-74 203h-304l-75 -203h-100l277 714h105l277 -714h-106zM340 618l-125 -332h245zM304 758l-83 118l65 32l93 -150h-75z" />
<glyph unicode="&#xc1;" horiz-adv-x="680" d="M564 0l-74 203h-304l-75 -203h-100l277 714h105l277 -714h-106zM340 618l-125 -332h245zM296 758l93 150l65 -32l-83 -118h-75z" />
<glyph unicode="&#xc2;" horiz-adv-x="680" d="M564 0l-74 203h-304l-75 -203h-100l277 714h105l277 -714h-106zM340 618l-125 -332h245zM375 900q26 -24 56 -47.5t65 -47.5l-32 -48l-123 73l-122 -73l-33 48q35 24 65 47.5t56 47.5h68z" />
<glyph unicode="&#xc3;" horiz-adv-x="680" d="M564 0l-74 203h-304l-75 -203h-100l277 714h105l277 -714h-106zM340 618l-125 -332h245zM503 847q-14 -35 -40.5 -59t-61.5 -24q-20 0 -37 7t-32.5 15t-29.5 15t-27 7q-18 0 -29 -13.5t-19 -30.5l-50 24q15 36 41 59.5t59 23.5q19 0 35.5 -7t32 -15t29.5 -15t28 -7 q18 0 31 12.5t20 31.5z" />
<glyph unicode="&#xc4;" horiz-adv-x="680" d="M564 0l-74 203h-304l-75 -203h-100l277 714h105l277 -714h-106zM340 618l-125 -332h245zM201 808q0 20 14 34t33 14q20 0 34 -14t14 -34q0 -19 -14 -33t-34 -14q-19 0 -33 13.5t-14 33.5zM391 808q0 20 14 34t33 14q20 0 34 -14t14 -34q0 -19 -14 -33t-34 -14 q-19 0 -33 13.5t-14 33.5z" />
<glyph unicode="&#xc5;" horiz-adv-x="680" d="M339 627l-127 -341h248zM290 764q0 -21 14.5 -35.5t35.5 -14.5q20 0 35 14.5t15 35.5t-15 35.5t-35 14.5q-21 0 -35.5 -14.5t-14.5 -35.5zM243 764q0 20 7.5 37.5t20.5 31t31 21t38 7.5t37.5 -7.5t30.5 -21t20.5 -31t7.5 -37.5q0 -23 -9.5 -41.5t-25.5 -31.5l267 -691 h-103l-75 205h-307l-76 -205h-96l267 691q-16 13 -25.5 31.5t-9.5 41.5z" />
<glyph unicode="&#xc6;" horiz-adv-x="937" d="M455 0v205h-249l-119 -205h-97l420 714h464v-84h-327v-213h286v-80h-286v-253h337v-84h-429zM455 635l-202 -349h202v349z" />
<glyph unicode="&#xc7;" horiz-adv-x="698" d="M586 534q-32 51 -82.5 78.5t-115.5 27.5q-56 0 -100.5 -20.5t-76 -57.5t-48 -89.5t-16.5 -115.5q0 -64 17 -116.5t49 -89.5t77 -57t102 -20q66 0 114 28t84 85l72 -57q-49 -70 -115 -106.5t-155 -36.5q-78 0 -141.5 27.5t-108.5 76.5t-69.5 116.5t-24.5 148.5t24.5 149 t69 117.5t107 77t138.5 27.5q88 0 157.5 -37t115.5 -104zM320 -200q-23 0 -44 3.5t-32 7.5v51q14 -9 34 -11.5t31 -2.5q29 0 45.5 9.5t16.5 30.5q0 11 -4.5 16t-11.5 10h-57l14 53q8 3 18.5 6t24.5 3q35 0 60.5 -21.5t25.5 -61.5q0 -45 -34 -69t-87 -24z" />
<glyph unicode="&#xc8;" horiz-adv-x="632" d="M90 0v714h484v-87h-391v-211h348v-82h-348v-247h401v-87h-494zM297 758l-83 118l65 32l93 -150h-75z" />
<glyph unicode="&#xc9;" horiz-adv-x="632" d="M90 0v714h484v-87h-391v-211h348v-82h-348v-247h401v-87h-494zM293 758l93 150l65 -32l-83 -118h-75z" />
<glyph unicode="&#xca;" horiz-adv-x="632" d="M90 0v714h484v-87h-391v-211h348v-82h-348v-247h401v-87h-494zM359 902q26 -24 56 -47.5t65 -47.5l-32 -48l-123 73l-122 -73l-33 48q35 24 65 47.5t56 47.5h68z" />
<glyph unicode="&#xcb;" horiz-adv-x="632" d="M90 0v714h484v-87h-391v-211h348v-82h-348v-247h401v-87h-494zM187 808q0 20 14 34t33 14q20 0 34 -14t14 -34q0 -19 -14 -33t-34 -14q-19 0 -33 13.5t-14 33.5zM377 808q0 20 14 34t33 14q20 0 34 -14t14 -34q0 -19 -14 -33t-34 -14q-19 0 -33 13.5t-14 33.5z" />
<glyph unicode="&#xcc;" horiz-adv-x="273" d="M90 0v714h93v-714h-93zM109 758l-83 118l65 32l93 -150h-75z" />
<glyph unicode="&#xcd;" horiz-adv-x="273" d="M90 0v714h93v-714h-93zM93 758l93 150l65 -32l-83 -118h-75z" />
<glyph unicode="&#xce;" horiz-adv-x="273" d="M90 0v714h93v-714h-93zM170 893q26 -24 56 -47.5t65 -47.5l-32 -48l-123 73l-122 -73l-33 48q35 24 65 47.5t56 47.5h68z" />
<glyph unicode="&#xcf;" horiz-adv-x="273" d="M90 0v714h93v-714h-93zM-6 808q0 20 14 34t33 14q20 0 34 -14t14 -34q0 -19 -14 -33t-34 -14q-19 0 -33 13.5t-14 33.5zM184 808q0 20 14 34t33 14q20 0 34 -14t14 -34q0 -19 -14 -33t-34 -14q-19 0 -33 13.5t-14 33.5z" />
<glyph unicode="&#xd0;" horiz-adv-x="750" d="M94 0v334h-74v58h74v322h269q81 0 144 -27t106 -75t65.5 -113.5t22.5 -141.5q0 -77 -22.5 -142t-65.5 -113t-106 -75t-144 -27h-269zM363 87q58 0 103 19.5t75 54.5t45.5 85t15.5 111t-15.5 111t-45.5 85t-75 54.5t-103 19.5h-176v-235h193v-58h-193v-247h176z" />
<glyph unicode="&#xd1;" horiz-adv-x="750" d="M660 0h-90l-391 582v-582h-89v714h102l378 -562v562h90v-714zM519 847q-14 -35 -40.5 -59t-61.5 -24q-20 0 -37 7t-32.5 15t-29.5 15t-27 7q-18 0 -29 -13.5t-19 -30.5l-50 24q15 36 41 59.5t59 23.5q19 0 35.5 -7t32 -15t29.5 -15t28 -7q18 0 31 12.5t20 31.5z" />
<glyph unicode="&#xd2;" horiz-adv-x="775" d="M728 357q0 -79 -24 -146.5t-68 -117t-107 -78t-141 -28.5t-141 28.5t-107.5 78t-68.5 117t-24 146.5t24 147t68.5 117.5t107.5 77.5t141 28t141 -28t107 -77.5t68 -117.5t24 -147zM630 357q0 62 -16.5 114t-48 89t-76.5 57.5t-101 20.5q-57 0 -101.5 -20.5t-76 -57.5 t-48 -89t-16.5 -114t16.5 -114t48 -89t76 -57.5t101.5 -20.5q56 0 101 20.5t76.5 57.5t48 89t16.5 114zM365 758l-83 118l65 32l93 -150h-75z" />
<glyph unicode="&#xd3;" horiz-adv-x="775" d="M728 357q0 -79 -24 -146.5t-68 -117t-107 -78t-141 -28.5t-141 28.5t-107.5 78t-68.5 117t-24 146.5t24 147t68.5 117.5t107.5 77.5t141 28t141 -28t107 -77.5t68 -117.5t24 -147zM630 357q0 62 -16.5 114t-48 89t-76.5 57.5t-101 20.5q-57 0 -101.5 -20.5t-76 -57.5 t-48 -89t-16.5 -114t16.5 -114t48 -89t76 -57.5t101.5 -20.5q56 0 101 20.5t76.5 57.5t48 89t16.5 114zM332 758l93 150l65 -32l-83 -118h-75z" />
<glyph unicode="&#xd4;" horiz-adv-x="775" d="M728 357q0 -79 -24 -146.5t-68 -117t-107 -78t-141 -28.5t-141 28.5t-107.5 78t-68.5 117t-24 146.5t24 147t68.5 117.5t107.5 77.5t141 28t141 -28t107 -77.5t68 -117.5t24 -147zM630 357q0 62 -16.5 114t-48 89t-76.5 57.5t-101 20.5q-57 0 -101.5 -20.5t-76 -57.5 t-48 -89t-16.5 -114t16.5 -114t48 -89t76 -57.5t101.5 -20.5q56 0 101 20.5t76.5 57.5t48 89t16.5 114zM422 902q26 -24 56 -47.5t65 -47.5l-32 -48l-123 73l-122 -73l-33 48q35 24 65 47.5t56 47.5h68z" />
<glyph unicode="&#xd5;" horiz-adv-x="775" d="M728 357q0 -79 -24 -146.5t-68 -117t-107 -78t-141 -28.5t-141 28.5t-107.5 78t-68.5 117t-24 146.5t24 147t68.5 117.5t107.5 77.5t141 28t141 -28t107 -77.5t68 -117.5t24 -147zM630 357q0 62 -16.5 114t-48 89t-76.5 57.5t-101 20.5q-57 0 -101.5 -20.5t-76 -57.5 t-48 -89t-16.5 -114t16.5 -114t48 -89t76 -57.5t101.5 -20.5q56 0 101 20.5t76.5 57.5t48 89t16.5 114zM550 847q-14 -35 -40.5 -59t-61.5 -24q-20 0 -37 7t-32.5 15t-29.5 15t-27 7q-18 0 -29 -13.5t-19 -30.5l-50 24q15 36 41 59.5t59 23.5q19 0 35.5 -7t32 -15t29.5 -15 t28 -7q18 0 31 12.5t20 31.5z" />
<glyph unicode="&#xd6;" horiz-adv-x="775" d="M728 357q0 -79 -24 -146.5t-68 -117t-107 -78t-141 -28.5t-141 28.5t-107.5 78t-68.5 117t-24 146.5t24 147t68.5 117.5t107.5 77.5t141 28t141 -28t107 -77.5t68 -117.5t24 -147zM630 357q0 62 -16.5 114t-48 89t-76.5 57.5t-101 20.5q-57 0 -101.5 -20.5t-76 -57.5 t-48 -89t-16.5 -114t16.5 -114t48 -89t76 -57.5t101.5 -20.5q56 0 101 20.5t76.5 57.5t48 89t16.5 114zM245 808q0 20 14 34t33 14q20 0 34 -14t14 -34q0 -19 -14 -33t-34 -14q-19 0 -33 13.5t-14 33.5zM435 808q0 20 14 34t33 14q20 0 34 -14t14 -34q0 -19 -14 -33t-34 -14 q-19 0 -33 13.5t-14 33.5z" />
<glyph unicode="&#xd7;" d="M475 74l-175 176l-176 -176l-54 55l176 175l-176 175l54 55l176 -176l175 176l54 -55l-175 -175l175 -175z" />
<glyph unicode="&#xd8;" horiz-adv-x="775" d="M615 642q54 -51 83.5 -124t29.5 -161q0 -79 -24 -146.5t-68 -117t-107 -78t-141 -28.5q-52 0 -97 12.5t-83 35.5l-23 -35h-74l48 72q-54 51 -83 124t-29 161q0 79 24 147t68.5 117.5t107.5 77.5t141 28q51 0 95.5 -12t82.5 -35l23 34h74zM630 357q0 64 -17.5 116.5 t-50.5 89.5l-303 -452q53 -35 129 -35q56 0 101 20.5t76.5 57.5t48 89t16.5 114zM146 357q0 -130 66 -205l303 451q-55 35 -127 35q-57 0 -101.5 -20.5t-76 -57.5t-48 -89t-16.5 -114z" />
<glyph unicode="&#xd9;" horiz-adv-x="717" d="M635 259q0 -62 -21 -112.5t-58 -86t-88 -54.5t-111 -19t-110.5 19t-87 54.5t-57 86t-20.5 112.5v455h93v-455q0 -84 48.5 -134t133.5 -50q42 0 76 13t58 37t37 58t13 76v455h94v-455zM334 758l-83 118l65 32l93 -150h-75z" />
<glyph unicode="&#xda;" horiz-adv-x="717" d="M635 259q0 -62 -21 -112.5t-58 -86t-88 -54.5t-111 -19t-110.5 19t-87 54.5t-57 86t-20.5 112.5v455h93v-455q0 -84 48.5 -134t133.5 -50q42 0 76 13t58 37t37 58t13 76v455h94v-455zM302 758l93 150l65 -32l-83 -118h-75z" />
<glyph unicode="&#xdb;" horiz-adv-x="717" d="M635 259q0 -62 -21 -112.5t-58 -86t-88 -54.5t-111 -19t-110.5 19t-87 54.5t-57 86t-20.5 112.5v455h93v-455q0 -84 48.5 -134t133.5 -50q42 0 76 13t58 37t37 58t13 76v455h94v-455zM392 902q26 -24 56 -47.5t65 -47.5l-32 -48l-123 73l-122 -73l-33 48q35 24 65 47.5 t56 47.5h68z" />
<glyph unicode="&#xdc;" horiz-adv-x="717" d="M635 259q0 -62 -21 -112.5t-58 -86t-88 -54.5t-111 -19t-110.5 19t-87 54.5t-57 86t-20.5 112.5v455h93v-455q0 -84 48.5 -134t133.5 -50q42 0 76 13t58 37t37 58t13 76v455h94v-455zM215 808q0 20 14 34t33 14q20 0 34 -14t14 -34q0 -19 -14 -33t-34 -14q-19 0 -33 13.5 t-14 33.5zM405 808q0 20 14 34t33 14q20 0 34 -14t14 -34q0 -19 -14 -33t-34 -14q-19 0 -33 13.5t-14 33.5z" />
<glyph unicode="&#xdd;" horiz-adv-x="614" d="M356 299v-299h-96v298l-254 416h109l195 -327l194 327h106zM254 758l93 150l65 -32l-83 -118h-75z" />
<glyph unicode="&#xde;" horiz-adv-x="642" d="M180 193v-193h-90v714h90v-97h188q60 0 105.5 -15.5t76.5 -43t47 -66.5t16 -87t-16 -87t-47 -66.5t-76.5 -43t-105.5 -15.5h-188zM369 277q77 0 113.5 34.5t36.5 93.5q0 58 -36.5 93t-113.5 35h-189v-256h189z" />
<glyph unicode="&#xdf;" d="M557 205q0 -49 -16.5 -88.5t-46.5 -67.5t-72.5 -43.5t-94.5 -15.5q-31 0 -61 5t-49 16l24 76q16 -9 38 -14t46 -5q66 0 103.5 39t37.5 103q0 71 -45 102.5t-118 31.5h-51v76h53q27 0 51.5 7t43 21.5t29 36.5t10.5 51q0 31 -11.5 52.5t-30.5 35t-43 19.5t-49 6 q-61 0 -100.5 -34.5t-39.5 -102.5v-512h-87v513q0 49 16.5 88.5t46.5 67t72 42t93 14.5q45 0 85.5 -12t70.5 -35t47.5 -57t17.5 -77q0 -46 -23 -86.5t-75 -69.5q24 -8 47 -22.5t41 -36.5t29 -52.5t11 -71.5z" />
<glyph unicode="&#xe0;" horiz-adv-x="567" d="M390 280q-12 -12 -29.5 -19.5t-37.5 -12t-41.5 -7t-41.5 -5.5q-23 -3 -42.5 -8.5t-34 -15.5t-23 -25.5t-8.5 -38.5q0 -47 31.5 -67.5t76.5 -20.5q28 0 55 8t48 25t34 43.5t13 63.5v80zM228 -13q-42 0 -76 11t-58 31.5t-37.5 50t-13.5 67.5q0 45 18 73.5t45 45.5 t58.5 24.5t58.5 11.5q30 4 60 7t53.5 10.5t38.5 21t15 39.5q0 38 -33 56.5t-84 18.5q-92 0 -165 -55l-40 66q46 32 96 49t112 17q44 0 81 -9.5t63.5 -30.5t41.5 -53t15 -77v-246q0 -56 38 -56q18 0 29 8l11 -66q-9 -5 -27 -8t-32 -3q-36 0 -63.5 20t-33.5 59 q-26 -38 -68 -60.5t-103 -22.5zM244 590l-83 118l65 32l93 -150h-75z" />
<glyph unicode="&#xe1;" horiz-adv-x="567" d="M390 280q-12 -12 -29.5 -19.5t-37.5 -12t-41.5 -7t-41.5 -5.5q-23 -3 -42.5 -8.5t-34 -15.5t-23 -25.5t-8.5 -38.5q0 -47 31.5 -67.5t76.5 -20.5q28 0 55 8t48 25t34 43.5t13 63.5v80zM228 -13q-42 0 -76 11t-58 31.5t-37.5 50t-13.5 67.5q0 45 18 73.5t45 45.5 t58.5 24.5t58.5 11.5q30 4 60 7t53.5 10.5t38.5 21t15 39.5q0 38 -33 56.5t-84 18.5q-92 0 -165 -55l-40 66q46 32 96 49t112 17q44 0 81 -9.5t63.5 -30.5t41.5 -53t15 -77v-246q0 -56 38 -56q18 0 29 8l11 -66q-9 -5 -27 -8t-32 -3q-36 0 -63.5 20t-33.5 59 q-26 -38 -68 -60.5t-103 -22.5zM225 590l93 150l65 -32l-83 -118h-75z" />
<glyph unicode="&#xe2;" horiz-adv-x="567" d="M390 280q-12 -12 -29.5 -19.5t-37.5 -12t-41.5 -7t-41.5 -5.5q-23 -3 -42.5 -8.5t-34 -15.5t-23 -25.5t-8.5 -38.5q0 -47 31.5 -67.5t76.5 -20.5q28 0 55 8t48 25t34 43.5t13 63.5v80zM228 -13q-42 0 -76 11t-58 31.5t-37.5 50t-13.5 67.5q0 45 18 73.5t45 45.5 t58.5 24.5t58.5 11.5q30 4 60 7t53.5 10.5t38.5 21t15 39.5q0 38 -33 56.5t-84 18.5q-92 0 -165 -55l-40 66q46 32 96 49t112 17q44 0 81 -9.5t63.5 -30.5t41.5 -53t15 -77v-246q0 -56 38 -56q18 0 29 8l11 -66q-9 -5 -27 -8t-32 -3q-36 0 -63.5 20t-33.5 59 q-26 -38 -68 -60.5t-103 -22.5zM297 725q26 -24 56 -47.5t65 -47.5l-32 -48l-123 73l-122 -73l-33 48q35 24 65 47.5t56 47.5h68z" />
<glyph unicode="&#xe3;" horiz-adv-x="567" d="M390 280q-12 -12 -29.5 -19.5t-37.5 -12t-41.5 -7t-41.5 -5.5q-23 -3 -42.5 -8.5t-34 -15.5t-23 -25.5t-8.5 -38.5q0 -47 31.5 -67.5t76.5 -20.5q28 0 55 8t48 25t34 43.5t13 63.5v80zM228 -13q-42 0 -76 11t-58 31.5t-37.5 50t-13.5 67.5q0 45 18 73.5t45 45.5 t58.5 24.5t58.5 11.5q30 4 60 7t53.5 10.5t38.5 21t15 39.5q0 38 -33 56.5t-84 18.5q-92 0 -165 -55l-40 66q46 32 96 49t112 17q44 0 81 -9.5t63.5 -30.5t41.5 -53t15 -77v-246q0 -56 38 -56q18 0 29 8l11 -66q-9 -5 -27 -8t-32 -3q-36 0 -63.5 20t-33.5 59 q-26 -38 -68 -60.5t-103 -22.5zM430 679q-14 -35 -40.5 -59t-61.5 -24q-20 0 -37 7t-32.5 15t-29.5 15t-27 7q-18 0 -29 -13.5t-19 -30.5l-50 24q15 36 41 59.5t59 23.5q19 0 35.5 -7t32 -15t29.5 -15t28 -7q18 0 31 12.5t20 31.5z" />
<glyph unicode="&#xe4;" horiz-adv-x="567" d="M390 280q-12 -12 -29.5 -19.5t-37.5 -12t-41.5 -7t-41.5 -5.5q-23 -3 -42.5 -8.5t-34 -15.5t-23 -25.5t-8.5 -38.5q0 -47 31.5 -67.5t76.5 -20.5q28 0 55 8t48 25t34 43.5t13 63.5v80zM228 -13q-42 0 -76 11t-58 31.5t-37.5 50t-13.5 67.5q0 45 18 73.5t45 45.5 t58.5 24.5t58.5 11.5q30 4 60 7t53.5 10.5t38.5 21t15 39.5q0 38 -33 56.5t-84 18.5q-92 0 -165 -55l-40 66q46 32 96 49t112 17q44 0 81 -9.5t63.5 -30.5t41.5 -53t15 -77v-246q0 -56 38 -56q18 0 29 8l11 -66q-9 -5 -27 -8t-32 -3q-36 0 -63.5 20t-33.5 59 q-26 -38 -68 -60.5t-103 -22.5zM125 640q0 20 14 34t33 14q20 0 34 -14t14 -34q0 -19 -14 -33t-34 -14q-19 0 -33 13.5t-14 33.5zM315 640q0 20 14 34t33 14q20 0 34 -14t14 -34q0 -19 -14 -33t-34 -14q-19 0 -33 13.5t-14 33.5z" />
<glyph unicode="&#xe5;" horiz-adv-x="567" d="M390 280q-12 -12 -29.5 -19.5t-37.5 -12t-41.5 -7t-41.5 -5.5q-23 -3 -42.5 -8.5t-34 -15.5t-23 -25.5t-8.5 -38.5q0 -47 31.5 -67.5t76.5 -20.5q28 0 55 8t48 25t34 43.5t13 63.5v80zM228 -13q-42 0 -76 11t-58 31.5t-37.5 50t-13.5 67.5q0 45 18 73.5t45 45.5 t58.5 24.5t58.5 11.5q30 4 60 7t53.5 10.5t38.5 21t15 39.5q0 38 -33 56.5t-84 18.5q-92 0 -165 -55l-40 66q46 32 96 49t112 17q44 0 81 -9.5t63.5 -30.5t41.5 -53t15 -77v-246q0 -56 38 -56q18 0 29 8l11 -66q-9 -5 -27 -8t-32 -3q-36 0 -63.5 20t-33.5 59 q-26 -38 -68 -60.5t-103 -22.5zM373 679q0 -21 -8 -39.5t-22.5 -32.5t-34 -22t-41.5 -8q-23 0 -42 8t-33.5 22t-22.5 32.5t-8 39.5t8 39.5t22.5 33t33.5 22.5t42 8q22 0 41.5 -8t34 -22.5t22.5 -33t8 -39.5zM323 679q0 23 -16.5 40t-39.5 17t-40 -17t-17 -40q0 -24 17 -40.5 t40 -16.5t39.5 16.5t16.5 40.5z" />
<glyph unicode="&#xe6;" horiz-adv-x="917" d="M385 290q-13 -17 -29 -25.5t-35 -13.5t-40.5 -8t-45.5 -7q-22 -4 -41.5 -9t-34.5 -14.5t-23.5 -25t-8.5 -39.5q0 -47 31.5 -67.5t76.5 -20.5q28 0 55 8t48 25t34 43.5t13 63.5v90zM856 79q-41 -43 -93 -67t-121 -24t-123.5 26.5t-88.5 80.5q-30 -52 -80 -79.5t-119 -27.5 q-43 0 -78.5 10.5t-61 30.5t-39.5 49.5t-14 68.5q0 45 17.5 73t44.5 45t58.5 25t59.5 12q31 4 61 7.5t53 11t37 21t14 37.5q0 22 -10.5 36.5t-27.5 23.5t-38 12.5t-41 3.5q-43 0 -85 -14t-78 -41l-40 66q44 31 94.5 48.5t109.5 17.5q57 0 105.5 -19.5t74.5 -69.5 q38 48 84 68.5t100 20.5q57 0 102.5 -20t78 -55t49.5 -82.5t17 -101.5q0 -12 -0.5 -20.5t-1.5 -13.5h-408q4 -81 51.5 -126t123.5 -45q47 0 85.5 17.5t68.5 50.5zM789 306q-7 75 -52 113t-108 38q-34 0 -62 -11t-49 -31.5t-33 -48t-15 -60.5h319z" />
<glyph unicode="&#xe7;" horiz-adv-x="536" d="M295 532q72 0 123 -30.5t81 -74.5l-62 -49q-24 37 -57 56t-80 19q-38 0 -68 -14.5t-51 -40t-32.5 -61t-11.5 -77.5t11.5 -77.5t32.5 -61t51.5 -40t68.5 -14.5q51 0 86 23t57 55l62 -49q-35 -47 -86.5 -77.5t-123.5 -30.5q-57 0 -103.5 20.5t-79.5 57t-50.5 86.5 t-17.5 108t18 108t50.5 86.5t78.5 57t103 20.5zM259 -200q-23 0 -44 3.5t-32 7.5v51q14 -9 34 -11.5t31 -2.5q29 0 45.5 9.5t16.5 30.5q0 11 -4.5 16t-11.5 10h-57l14 53q8 3 18.5 6t24.5 3q35 0 60.5 -21.5t25.5 -61.5q0 -45 -34 -69t-87 -24z" />
<glyph unicode="&#xe8;" horiz-adv-x="584" d="M454 306q-2 39 -15.5 67t-35 47t-49 28t-57.5 9q-34 0 -62 -11t-48.5 -31.5t-32.5 -48t-15 -60.5h315zM44 258q0 58 17.5 108t50 87t79.5 58t107 21q57 0 102.5 -19.5t77.5 -53.5t49 -80t17 -99q0 -13 -1 -23t-2 -18h-404q1 -41 14 -72.5t36 -53.5t54.5 -33t69.5 -11 q48 0 89 19t67 55l64 -50q-16 -21 -37.5 -40t-49 -33.5t-61.5 -23t-76 -8.5q-63 0 -112 20.5t-82.5 56.5t-51 85.5t-17.5 107.5zM270 590l-83 118l65 32l93 -150h-75z" />
<glyph unicode="&#xe9;" horiz-adv-x="584" d="M454 306q-2 39 -15.5 67t-35 47t-49 28t-57.5 9q-34 0 -62 -11t-48.5 -31.5t-32.5 -48t-15 -60.5h315zM44 258q0 58 17.5 108t50 87t79.5 58t107 21q57 0 102.5 -19.5t77.5 -53.5t49 -80t17 -99q0 -13 -1 -23t-2 -18h-404q1 -41 14 -72.5t36 -53.5t54.5 -33t69.5 -11 q48 0 89 19t67 55l64 -50q-16 -21 -37.5 -40t-49 -33.5t-61.5 -23t-76 -8.5q-63 0 -112 20.5t-82.5 56.5t-51 85.5t-17.5 107.5zM250 590l93 150l65 -32l-83 -118h-75z" />
<glyph unicode="&#xea;" horiz-adv-x="584" d="M454 306q-2 39 -15.5 67t-35 47t-49 28t-57.5 9q-34 0 -62 -11t-48.5 -31.5t-32.5 -48t-15 -60.5h315zM44 258q0 58 17.5 108t50 87t79.5 58t107 21q57 0 102.5 -19.5t77.5 -53.5t49 -80t17 -99q0 -13 -1 -23t-2 -18h-404q1 -41 14 -72.5t36 -53.5t54.5 -33t69.5 -11 q48 0 89 19t67 55l64 -50q-16 -21 -37.5 -40t-49 -33.5t-61.5 -23t-76 -8.5q-63 0 -112 20.5t-82.5 56.5t-51 85.5t-17.5 107.5zM329 725q26 -24 56 -47.5t65 -47.5l-32 -48l-123 73l-122 -73l-33 48q35 24 65 47.5t56 47.5h68z" />
<glyph unicode="&#xeb;" horiz-adv-x="584" d="M454 306q-2 39 -15.5 67t-35 47t-49 28t-57.5 9q-34 0 -62 -11t-48.5 -31.5t-32.5 -48t-15 -60.5h315zM44 258q0 58 17.5 108t50 87t79.5 58t107 21q57 0 102.5 -19.5t77.5 -53.5t49 -80t17 -99q0 -13 -1 -23t-2 -18h-404q1 -41 14 -72.5t36 -53.5t54.5 -33t69.5 -11 q48 0 89 19t67 55l64 -50q-16 -21 -37.5 -40t-49 -33.5t-61.5 -23t-76 -8.5q-63 0 -112 20.5t-82.5 56.5t-51 85.5t-17.5 107.5zM154 640q0 20 14 34t33 14q20 0 34 -14t14 -34q0 -19 -14 -33t-34 -14q-19 0 -33 13.5t-14 33.5zM344 640q0 20 14 34t33 14q20 0 34 -14 t14 -34q0 -19 -14 -33t-34 -14q-19 0 -33 13.5t-14 33.5z" />
<glyph unicode="&#xec;" horiz-adv-x="247" d="M80 0v520h87v-520h-87zM91 590l-83 118l65 32l93 -150h-75z" />
<glyph unicode="&#xed;" horiz-adv-x="247" d="M75 590l93 150l65 -32l-83 -118h-75zM80 0v520h87v-520h-87z" />
<glyph unicode="&#xee;" horiz-adv-x="247" d="M80 0v520h87v-520h-87zM155 725q26 -24 56 -47.5t65 -47.5l-32 -48l-123 73l-122 -73l-33 48q35 24 65 47.5t56 47.5h68z" />
<glyph unicode="&#xef;" horiz-adv-x="247" d="M-11 630q0 20 14 34t33 14q20 0 34 -14t14 -34t-14 -33.5t-34 -13.5t-33.5 13.5t-13.5 33.5zM159 630q0 20 14 34t33 14q20 0 34 -14t14 -34t-14 -33.5t-34 -13.5q-19 0 -33 13.5t-14 33.5zM80 0v520h87v-520h-87z" />
<glyph unicode="&#xf0;" horiz-adv-x="616" d="M282 494q44 0 85.5 -15t72.5 -47q-19 41 -48 78t-65 71l-126 -60l-18 42l102 49q-40 31 -86 54l59 59q29 -17 57 -35t54 -41l120 56l19 -41l-101 -48q67 -66 110 -152t43 -192q0 -57 -15 -112t-55 -97q-36 -37 -84 -56t-104 -19q-59 0 -106 19.5t-80.5 53t-51.5 80 t-18 100.5q0 55 17 101.5t48.5 80t74.5 52.5t96 19zM472 241q0 36 -11.5 68t-33 56t-53.5 37.5t-73 13.5t-71.5 -14t-51 -38t-30.5 -56t-10 -67q0 -36 10 -67.5t30.5 -55t51.5 -37.5t72 -14q42 0 74 13.5t53 37.5t32 55.5t11 67.5z" />
<glyph unicode="&#xf1;" horiz-adv-x="597" d="M80 0v520h87v-86q32 48 76.5 73t101.5 25q85 0 133.5 -51.5t48.5 -145.5v-335h-87v315q0 23 -4.5 47t-17 43.5t-35.5 32t-59 12.5q-33 0 -62 -11.5t-50 -33t-33 -51.5t-12 -66v-288h-87zM480 679q-14 -35 -40.5 -59t-61.5 -24q-20 0 -37 7t-32.5 15t-29.5 15t-27 7 q-18 0 -29 -13.5t-19 -30.5l-50 24q15 36 41 59.5t59 23.5q19 0 35.5 -7t32 -15t29.5 -15t28 -7q18 0 31 12.5t20 31.5z" />
<glyph unicode="&#xf2;" horiz-adv-x="601" d="M269 590l-83 118l65 32l93 -150h-75zM556 259q0 -59 -18 -108.5t-51 -85.5t-80.5 -56.5t-106.5 -20.5t-106.5 20.5t-80.5 56.5t-50.5 85.5t-17.5 108.5t17.5 109t50.5 86.5t80.5 57t106.5 20.5t106.5 -20.5t80.5 -57t51 -86.5t18 -109zM463 259q0 41 -11 76.5t-31.5 61.5 t-51 41t-69.5 15t-69.5 -15t-51 -41t-31.5 -61.5t-11 -76.5t11 -76t31.5 -61t51 -41t69.5 -15t69.5 15t51 41t31.5 61t11 76z" />
<glyph unicode="&#xf3;" horiz-adv-x="601" d="M245 590l93 150l65 -32l-83 -118h-75zM556 259q0 -59 -18 -108.5t-51 -85.5t-80.5 -56.5t-106.5 -20.5t-106.5 20.5t-80.5 56.5t-50.5 85.5t-17.5 108.5t17.5 109t50.5 86.5t80.5 57t106.5 20.5t106.5 -20.5t80.5 -57t51 -86.5t18 -109zM463 259q0 41 -11 76.5 t-31.5 61.5t-51 41t-69.5 15t-69.5 -15t-51 -41t-31.5 -61.5t-11 -76.5t11 -76t31.5 -61t51 -41t69.5 -15t69.5 15t51 41t31.5 61t11 76z" />
<glyph unicode="&#xf4;" horiz-adv-x="601" d="M334 725q26 -24 56 -47.5t65 -47.5l-32 -48l-123 73l-122 -73l-33 48q35 24 65 47.5t56 47.5h68zM556 259q0 -59 -18 -108.5t-51 -85.5t-80.5 -56.5t-106.5 -20.5t-106.5 20.5t-80.5 56.5t-50.5 85.5t-17.5 108.5t17.5 109t50.5 86.5t80.5 57t106.5 20.5t106.5 -20.5 t80.5 -57t51 -86.5t18 -109zM463 259q0 41 -11 76.5t-31.5 61.5t-51 41t-69.5 15t-69.5 -15t-51 -41t-31.5 -61.5t-11 -76.5t11 -76t31.5 -61t51 -41t69.5 -15t69.5 15t51 41t31.5 61t11 76z" />
<glyph unicode="&#xf5;" horiz-adv-x="601" d="M556 259q0 -59 -18 -108.5t-51 -85.5t-80.5 -56.5t-106.5 -20.5t-106.5 20.5t-80.5 56.5t-50.5 85.5t-17.5 108.5t17.5 109t50.5 86.5t80.5 57t106.5 20.5t106.5 -20.5t80.5 -57t51 -86.5t18 -109zM463 259q0 41 -11 76.5t-31.5 61.5t-51 41t-69.5 15t-69.5 -15t-51 -41 t-31.5 -61.5t-11 -76.5t11 -76t31.5 -61t51 -41t69.5 -15t69.5 15t51 41t31.5 61t11 76zM462 679q-14 -35 -40.5 -59t-61.5 -24q-20 0 -37 7t-32.5 15t-29.5 15t-27 7q-18 0 -29 -13.5t-19 -30.5l-50 24q15 36 41 59.5t59 23.5q19 0 35.5 -7t32 -15t29.5 -15t28 -7 q18 0 31 12.5t20 31.5z" />
<glyph unicode="&#xf6;" horiz-adv-x="601" d="M556 259q0 -59 -18 -108.5t-51 -85.5t-80.5 -56.5t-106.5 -20.5t-106.5 20.5t-80.5 56.5t-50.5 85.5t-17.5 108.5t17.5 109t50.5 86.5t80.5 57t106.5 20.5t106.5 -20.5t80.5 -57t51 -86.5t18 -109zM463 259q0 41 -11 76.5t-31.5 61.5t-51 41t-69.5 15t-69.5 -15t-51 -41 t-31.5 -61.5t-11 -76.5t11 -76t31.5 -61t51 -41t69.5 -15t69.5 15t51 41t31.5 61t11 76zM158 640q0 20 14 34t33 14q20 0 34 -14t14 -34q0 -19 -14 -33t-34 -14q-19 0 -33 13.5t-14 33.5zM348 640q0 20 14 34t33 14q20 0 34 -14t14 -34q0 -19 -14 -33t-34 -14 q-19 0 -33 13.5t-14 33.5z" />
<glyph unicode="&#xf7;" d="M362 491q0 -26 -18 -44.5t-44 -18.5t-44 18.5t-18 44.5q0 25 18 43.5t44 18.5t44 -18.5t18 -43.5zM62 266v76h476v-76h-476zM362 117q0 -25 -18 -43.5t-44 -18.5t-44 18.5t-18 43.5t18 44t44 19t44 -19t18 -44z" />
<glyph unicode="&#xf8;" horiz-adv-x="601" d="M483 459q35 -37 54 -88t19 -112q0 -59 -18 -108.5t-51 -85.5t-80.5 -56.5t-106.5 -20.5q-85 0 -145 40l-21 -28h-62l46 60q-35 37 -54 87.5t-19 111.5q0 59 17.5 109t50.5 86.5t80.5 57t106.5 20.5q42 0 79 -11t66 -31l23 30h61zM137 259q0 -75 35 -127l222 291 q-39 30 -94 30q-39 0 -69.5 -15t-51 -41t-31.5 -61.5t-11 -76.5zM463 259q0 76 -35 128l-222 -292q38 -29 94 -29q39 0 69.5 15t51 41t31.5 61t11 76z" />
<glyph unicode="&#xf9;" horiz-adv-x="604" d="M524 520v-520h-87v85q-33 -47 -77 -72t-101 -25q-85 0 -133.5 51.5t-48.5 144.5v336h87v-316q0 -23 4.5 -47t17 -43.5t35 -32t58.5 -12.5q34 0 63 11.5t50 33t33 51.5t12 66v289h87zM259 590l-83 118l65 32l93 -150h-75z" />
<glyph unicode="&#xfa;" horiz-adv-x="604" d="M524 520v-520h-87v85q-33 -47 -77 -72t-101 -25q-85 0 -133.5 51.5t-48.5 144.5v336h87v-316q0 -23 4.5 -47t17 -43.5t35 -32t58.5 -12.5q34 0 63 11.5t50 33t33 51.5t12 66v289h87zM263 590l93 150l65 -32l-83 -118h-75z" />
<glyph unicode="&#xfb;" horiz-adv-x="604" d="M524 520v-520h-87v85q-33 -47 -77 -72t-101 -25q-85 0 -133.5 51.5t-48.5 144.5v336h87v-316q0 -23 4.5 -47t17 -43.5t35 -32t58.5 -12.5q34 0 63 11.5t50 33t33 51.5t12 66v289h87zM329 725q26 -24 56 -47.5t65 -47.5l-32 -48l-123 73l-122 -73l-33 48q35 24 65 47.5 t56 47.5h68z" />
<glyph unicode="&#xfc;" horiz-adv-x="604" d="M524 520v-520h-87v85q-33 -47 -77 -72t-101 -25q-85 0 -133.5 51.5t-48.5 144.5v336h87v-316q0 -23 4.5 -47t17 -43.5t35 -32t58.5 -12.5q34 0 63 11.5t50 33t33 51.5t12 66v289h87zM152 640q0 20 14 34t33 14q20 0 34 -14t14 -34q0 -19 -14 -33t-34 -14q-19 0 -33 13.5 t-14 33.5zM342 640q0 20 14 34t33 14q20 0 34 -14t14 -34q0 -19 -14 -33t-34 -14q-19 0 -33 13.5t-14 33.5z" />
<glyph unicode="&#xfd;" horiz-adv-x="535" d="M312 -24q-15 -38 -31 -68t-37 -50.5t-48.5 -31t-63.5 -10.5q-27 0 -52 6t-44 19l30 70q11 -9 27 -14t33 -5q37 0 57.5 23t35.5 56l14 31l-220 518h100l166 -404l147 404h94zM231 590l93 150l65 -32l-83 -118h-75z" />
<glyph unicode="&#xfe;" horiz-adv-x="633" d="M165 714v-280q37 54 84 76t100 22q56 0 100.5 -21t75.5 -57.5t47.5 -86.5t16.5 -107q0 -58 -16.5 -107.5t-47.5 -86t-75.5 -57.5t-100.5 -21q-53 0 -100 22t-84 75v-259h-87v888h87zM165 259q0 -40 11 -74.5t32.5 -60.5t53 -41t72.5 -15t71.5 15t50.5 41t30 60.5t10 74.5 t-10 75t-30 61t-50.5 41t-71.5 15q-42 0 -73.5 -15t-53 -41t-32 -61t-10.5 -75z" />
<glyph unicode="&#xff;" horiz-adv-x="535" d="M312 -24q-15 -38 -31 -68t-37 -50.5t-48.5 -31t-63.5 -10.5q-27 0 -52 6t-44 19l30 70q11 -9 27 -14t33 -5q37 0 57.5 23t35.5 56l14 31l-220 518h100l166 -404l147 404h94zM129 640q0 20 14 34t33 14q20 0 34 -14t14 -34q0 -19 -14 -33t-34 -14q-19 0 -33 13.5t-14 33.5 zM319 640q0 20 14 34t33 14q20 0 34 -14t14 -34q0 -19 -14 -33t-34 -14q-19 0 -33 13.5t-14 33.5z" />
<glyph unicode="&#x100;" horiz-adv-x="680" d="M564 0l-74 203h-304l-75 -203h-100l277 714h105l277 -714h-106zM340 618l-125 -332h245zM191 776v58h300v-58h-300z" />
<glyph unicode="&#x101;" horiz-adv-x="567" d="M390 280q-12 -12 -29.5 -19.5t-37.5 -12t-41.5 -7t-41.5 -5.5q-23 -3 -42.5 -8.5t-34 -15.5t-23 -25.5t-8.5 -38.5q0 -47 31.5 -67.5t76.5 -20.5q28 0 55 8t48 25t34 43.5t13 63.5v80zM228 -13q-42 0 -76 11t-58 31.5t-37.5 50t-13.5 67.5q0 45 18 73.5t45 45.5 t58.5 24.5t58.5 11.5q30 4 60 7t53.5 10.5t38.5 21t15 39.5q0 38 -33 56.5t-84 18.5q-92 0 -165 -55l-40 66q46 32 96 49t112 17q44 0 81 -9.5t63.5 -30.5t41.5 -53t15 -77v-246q0 -56 38 -56q18 0 29 8l11 -66q-9 -5 -27 -8t-32 -3q-36 0 -63.5 20t-33.5 59 q-26 -38 -68 -60.5t-103 -22.5zM118 608v58h300v-58h-300z" />
<glyph unicode="&#x102;" horiz-adv-x="680" d="M564 0l-74 203h-304l-75 -203h-100l277 714h105l277 -714h-106zM340 618l-125 -332h245zM341 759q-67 0 -108 33.5t-49 83.5l61 15q8 -29 32 -48.5t64 -19.5t64 19.5t32 48.5l60 -15q-4 -25 -16.5 -46.5t-32.5 -37t-47 -24.5t-60 -9z" />
<glyph unicode="&#x103;" horiz-adv-x="567" d="M390 280q-12 -12 -29.5 -19.5t-37.5 -12t-41.5 -7t-41.5 -5.5q-23 -3 -42.5 -8.5t-34 -15.5t-23 -25.5t-8.5 -38.5q0 -47 31.5 -67.5t76.5 -20.5q28 0 55 8t48 25t34 43.5t13 63.5v80zM228 -13q-42 0 -76 11t-58 31.5t-37.5 50t-13.5 67.5q0 45 18 73.5t45 45.5 t58.5 24.5t58.5 11.5q30 4 60 7t53.5 10.5t38.5 21t15 39.5q0 38 -33 56.5t-84 18.5q-92 0 -165 -55l-40 66q46 32 96 49t112 17q44 0 81 -9.5t63.5 -30.5t41.5 -53t15 -77v-246q0 -56 38 -56q18 0 29 8l11 -66q-9 -5 -27 -8t-32 -3q-36 0 -63.5 20t-33.5 59 q-26 -38 -68 -60.5t-103 -22.5zM267 591q-67 0 -108 33.5t-49 83.5l61 15q8 -29 32 -48.5t64 -19.5t64 19.5t32 48.5l60 -15q-4 -25 -16.5 -46.5t-32.5 -37t-47 -24.5t-60 -9z" />
<glyph unicode="&#x104;" horiz-adv-x="680" d="M613 0q-20 -17 -34 -36t-14 -40q0 -18 11 -28t31 -10q17 0 33 7t26 18v-67q-11 -11 -31 -19.5t-46 -8.5q-40 0 -67 22.5t-27 63.5q0 26 14.5 53.5t50.5 54.5l-70 193h-304l-75 -203h-100l277 714h105l277 -714h-57zM340 618l-125 -332h245z" />
<glyph unicode="&#x105;" horiz-adv-x="567" d="M228 -13q-42 0 -76 11t-58 31.5t-37.5 50t-13.5 67.5q0 45 18 73.5t45 45.5t58.5 24.5t58.5 11.5q30 4 60 7t53.5 10.5t38.5 21t15 39.5q0 38 -33 56.5t-84 18.5q-92 0 -165 -55l-40 66q46 32 96 49t112 17q44 0 81 -9.5t63.5 -30.5t41.5 -53t15 -77v-246q0 -56 38 -56 q18 0 29 8l11 -66q-9 -5 -27 -8t-32 -3q-8 0 -12 1q-17 -16 -28 -32.5t-11 -35.5q0 -18 11 -28t31 -10q17 0 33 7t26 18v-67q-11 -11 -31 -19.5t-46 -8.5q-40 0 -67 22.5t-27 63.5q0 25 13.5 52t47.5 54q-14 10 -24 25.5t-13 36.5q-26 -38 -68 -60.5t-103 -22.5zM390 280 q-12 -12 -29.5 -19.5t-37.5 -12t-41.5 -7t-41.5 -5.5q-23 -3 -42.5 -8.5t-34 -15.5t-23 -25.5t-8.5 -38.5q0 -47 31.5 -67.5t76.5 -20.5q28 0 55 8t48 25t34 43.5t13 63.5v80z" />
<glyph unicode="&#x106;" horiz-adv-x="698" d="M586 534q-32 51 -82.5 78.5t-115.5 27.5q-56 0 -100.5 -20.5t-76 -57.5t-48 -89.5t-16.5 -115.5q0 -64 17 -116.5t49 -89.5t77 -57t102 -20q66 0 114 28t84 85l72 -57q-49 -70 -115 -106.5t-155 -36.5q-78 0 -141.5 27.5t-108.5 76.5t-69.5 116.5t-24.5 148.5t24.5 149 t69 117.5t107 77t138.5 27.5q88 0 157.5 -37t115.5 -104zM335 758l93 150l65 -32l-83 -118h-75z" />
<glyph unicode="&#x107;" horiz-adv-x="536" d="M294 532q72 0 123 -30.5t81 -74.5l-62 -49q-24 37 -57 56t-80 19q-38 0 -68 -14.5t-51 -40t-32.5 -61t-11.5 -77.5t11.5 -77.5t32.5 -61t51.5 -40t68.5 -14.5q51 0 86 23t57 55l62 -49q-35 -47 -86.5 -77.5t-123.5 -30.5q-57 0 -103.5 20.5t-79.5 57t-50.5 86.5 t-17.5 108t18 108t50.5 86.5t78.5 57t103 20.5zM229 590l93 150l65 -32l-83 -118h-75z" />
<glyph unicode="&#x108;" horiz-adv-x="698" d="M586 534q-32 51 -82.5 78.5t-115.5 27.5q-56 0 -100.5 -20.5t-76 -57.5t-48 -89.5t-16.5 -115.5q0 -64 17 -116.5t49 -89.5t77 -57t102 -20q66 0 114 28t84 85l72 -57q-49 -70 -115 -106.5t-155 -36.5q-78 0 -141.5 27.5t-108.5 76.5t-69.5 116.5t-24.5 148.5t24.5 149 t69 117.5t107 77t138.5 27.5q88 0 157.5 -37t115.5 -104zM414 902q26 -24 56 -47.5t65 -47.5l-32 -48l-123 73l-122 -73l-33 48q35 24 65 47.5t56 47.5h68z" />
<glyph unicode="&#x109;" horiz-adv-x="536" d="M294 532q72 0 123 -30.5t81 -74.5l-62 -49q-24 37 -57 56t-80 19q-38 0 -68 -14.5t-51 -40t-32.5 -61t-11.5 -77.5t11.5 -77.5t32.5 -61t51.5 -40t68.5 -14.5q51 0 86 23t57 55l62 -49q-35 -47 -86.5 -77.5t-123.5 -30.5q-57 0 -103.5 20.5t-79.5 57t-50.5 86.5 t-17.5 108t18 108t50.5 86.5t78.5 57t103 20.5zM318 725q26 -24 56 -47.5t65 -47.5l-32 -48l-123 73l-122 -73l-33 48q35 24 65 47.5t56 47.5h68z" />
<glyph unicode="&#x10a;" horiz-adv-x="698" d="M586 534q-32 51 -82.5 78.5t-115.5 27.5q-56 0 -100.5 -20.5t-76 -57.5t-48 -89.5t-16.5 -115.5q0 -64 17 -116.5t49 -89.5t77 -57t102 -20q66 0 114 28t84 85l72 -57q-49 -70 -115 -106.5t-155 -36.5q-78 0 -141.5 27.5t-108.5 76.5t-69.5 116.5t-24.5 148.5t24.5 149 t69 117.5t107 77t138.5 27.5q88 0 157.5 -37t115.5 -104zM336 808q0 20 14 34t33 14q20 0 34 -14t14 -34q0 -19 -14 -33t-34 -14q-19 0 -33 13.5t-14 33.5z" />
<glyph unicode="&#x10b;" horiz-adv-x="536" d="M294 532q72 0 123 -30.5t81 -74.5l-62 -49q-24 37 -57 56t-80 19q-38 0 -68 -14.5t-51 -40t-32.5 -61t-11.5 -77.5t11.5 -77.5t32.5 -61t51.5 -40t68.5 -14.5q51 0 86 23t57 55l62 -49q-35 -47 -86.5 -77.5t-123.5 -30.5q-57 0 -103.5 20.5t-79.5 57t-50.5 86.5 t-17.5 108t18 108t50.5 86.5t78.5 57t103 20.5zM233 640q0 20 14 34t33 14q20 0 34 -14t14 -34q0 -19 -14 -33t-34 -14q-19 0 -33 13.5t-14 33.5z" />
<glyph unicode="&#x10c;" horiz-adv-x="698" d="M586 534q-32 51 -82.5 78.5t-115.5 27.5q-56 0 -100.5 -20.5t-76 -57.5t-48 -89.5t-16.5 -115.5q0 -64 17 -116.5t49 -89.5t77 -57t102 -20q66 0 114 28t84 85l72 -57q-49 -70 -115 -106.5t-155 -36.5q-78 0 -141.5 27.5t-108.5 76.5t-69.5 116.5t-24.5 148.5t24.5 149 t69 117.5t107 77t138.5 27.5q88 0 157.5 -37t115.5 -104zM349 752q-26 24 -56 47.5t-65 47.5l32 48l123 -73l122 73l33 -48q-35 -24 -65 -47.5t-56 -47.5h-68z" />
<glyph unicode="&#x10d;" horiz-adv-x="536" d="M294 532q72 0 123 -30.5t81 -74.5l-62 -49q-24 37 -57 56t-80 19q-38 0 -68 -14.5t-51 -40t-32.5 -61t-11.5 -77.5t11.5 -77.5t32.5 -61t51.5 -40t68.5 -14.5q51 0 86 23t57 55l62 -49q-35 -47 -86.5 -77.5t-123.5 -30.5q-57 0 -103.5 20.5t-79.5 57t-50.5 86.5 t-17.5 108t18 108t50.5 86.5t78.5 57t103 20.5zM247 584q-26 24 -56 47.5t-65 47.5l32 48l123 -73l122 73l33 -48q-35 -24 -65 -47.5t-56 -47.5h-68z" />
<glyph unicode="&#x10e;" horiz-adv-x="746" d="M359 87q58 0 103 19.5t75 54.5t45.5 85t15.5 111t-15.5 111t-45.5 85t-75 54.5t-103 19.5h-176v-540h176zM90 0v714h269q81 0 144 -27t106 -75t65.5 -113.5t22.5 -141.5q0 -77 -22.5 -142t-65.5 -113t-106 -75t-144 -27h-269zM317 752q-26 24 -56 47.5t-65 47.5l32 48 l123 -73l122 73l33 -48q-35 -24 -65 -47.5t-56 -47.5h-68z" />
<glyph unicode="&#x10f;" horiz-adv-x="670" d="M470 0v85q-37 -53 -84.5 -75t-100.5 -22q-56 0 -100 21t-75.5 57.5t-48 86t-16.5 106.5q0 58 16.5 107.5t48 86.5t75.5 58t100 21q54 0 101 -22.5t84 -75.5v280h87v-714h-87zM470 260q0 40 -11 75t-32.5 61t-53 41t-72.5 15t-71.5 -15t-51 -41t-31 -61t-10.5 -75 q0 -39 10 -74t30.5 -61.5t51.5 -41.5t72 -15t72.5 15t53 41t32.5 61t11 75zM735 640q0 -49 -17.5 -87t-50.5 -73l-42 33q20 20 31.5 45.5t11.5 49.5q0 14 -3.5 24.5t-7.5 20t-7.5 20t-3.5 24.5v17h89v-74z" />
<glyph unicode="&#x110;" horiz-adv-x="766" d="M110 0v334h-74v58h74v322h269q81 0 144 -27t106 -75t65.5 -113.5t22.5 -141.5q0 -77 -22.5 -142t-65.5 -113t-106 -75t-144 -27h-269zM379 87q58 0 103 19.5t75 54.5t45.5 85t15.5 111t-15.5 111t-45.5 85t-75 54.5t-103 19.5h-176v-235h193v-58h-193v-247h176z" />
<glyph unicode="&#x111;" horiz-adv-x="634" d="M469 0v85q-37 -53 -84.5 -75t-99.5 -22q-56 0 -100.5 21t-75.5 57.5t-47.5 86t-16.5 106.5q0 58 16.5 108t47.5 86.5t75.5 57.5t100.5 21q52 0 99.5 -22.5t84.5 -75.5v178h-139v54h139v48h87v-48h75v-54h-75v-612h-87zM469 260q0 40 -11 75t-32.5 60.5t-53 40.5t-73.5 15 q-41 0 -71 -15t-50.5 -41t-30.5 -60.5t-10 -74.5t10 -75t30.5 -61t50.5 -41t71 -15q42 0 74 15t53 41t32 61t11 75z" />
<glyph unicode="&#x112;" horiz-adv-x="632" d="M90 0v714h484v-87h-391v-211h348v-82h-348v-247h401v-87h-494zM175 776v58h300v-58h-300z" />
<glyph unicode="&#x113;" horiz-adv-x="584" d="M454 306q-2 39 -15.5 67t-35 47t-49 28t-57.5 9q-34 0 -62 -11t-48.5 -31.5t-32.5 -48t-15 -60.5h315zM44 258q0 58 17.5 108t50 87t79.5 58t107 21q57 0 102.5 -19.5t77.5 -53.5t49 -80t17 -99q0 -13 -1 -23t-2 -18h-404q1 -41 14 -72.5t36 -53.5t54.5 -33t69.5 -11 q48 0 89 19t67 55l64 -50q-16 -21 -37.5 -40t-49 -33.5t-61.5 -23t-76 -8.5q-63 0 -112 20.5t-82.5 56.5t-51 85.5t-17.5 107.5zM148 608v58h300v-58h-300z" />
<glyph unicode="&#x114;" horiz-adv-x="632" d="M90 0v714h484v-87h-391v-211h348v-82h-348v-247h401v-87h-494zM325 759q-67 0 -108 33.5t-49 83.5l61 15q8 -29 32 -48.5t64 -19.5t64 19.5t32 48.5l60 -15q-4 -25 -16.5 -46.5t-32.5 -37t-47 -24.5t-60 -9z" />
<glyph unicode="&#x115;" horiz-adv-x="584" d="M454 306q-2 39 -15.5 67t-35 47t-49 28t-57.5 9q-34 0 -62 -11t-48.5 -31.5t-32.5 -48t-15 -60.5h315zM44 258q0 58 17.5 108t50 87t79.5 58t107 21q57 0 102.5 -19.5t77.5 -53.5t49 -80t17 -99q0 -13 -1 -23t-2 -18h-404q1 -41 14 -72.5t36 -53.5t54.5 -33t69.5 -11 q48 0 89 19t67 55l64 -50q-16 -21 -37.5 -40t-49 -33.5t-61.5 -23t-76 -8.5q-63 0 -112 20.5t-82.5 56.5t-51 85.5t-17.5 107.5zM296 591q-67 0 -108 33.5t-49 83.5l61 15q8 -29 32 -48.5t64 -19.5t64 19.5t32 48.5l60 -15q-4 -25 -16.5 -46.5t-32.5 -37t-47 -24.5t-60 -9z " />
<glyph unicode="&#x116;" horiz-adv-x="632" d="M90 0v714h484v-87h-391v-211h348v-82h-348v-247h401v-87h-494zM282 808q0 20 14 34t33 14q20 0 34 -14t14 -34q0 -19 -14 -33t-34 -14q-19 0 -33 13.5t-14 33.5z" />
<glyph unicode="&#x117;" horiz-adv-x="584" d="M454 306q-2 39 -15.5 67t-35 47t-49 28t-57.5 9q-34 0 -62 -11t-48.5 -31.5t-32.5 -48t-15 -60.5h315zM44 258q0 58 17.5 108t50 87t79.5 58t107 21q57 0 102.5 -19.5t77.5 -53.5t49 -80t17 -99q0 -13 -1 -23t-2 -18h-404q1 -41 14 -72.5t36 -53.5t54.5 -33t69.5 -11 q48 0 89 19t67 55l64 -50q-16 -21 -37.5 -40t-49 -33.5t-61.5 -23t-76 -8.5q-63 0 -112 20.5t-82.5 56.5t-51 85.5t-17.5 107.5zM247 640q0 20 14 34t33 14q20 0 34 -14t14 -34q0 -19 -14 -33t-34 -14q-19 0 -33 13.5t-14 33.5z" />
<glyph unicode="&#x118;" horiz-adv-x="632" d="M531 0q-20 -17 -34 -36t-14 -40q0 -18 11 -28t31 -10q17 0 33 7t26 18v-67q-11 -11 -31 -19.5t-46 -8.5q-40 0 -67 22.5t-27 63.5q0 23 11.5 48t40.5 50h-375v714h484v-87h-391v-211h348v-82h-348v-247h401v-87h-53z" />
<glyph unicode="&#x119;" horiz-adv-x="584" d="M45 258q0 58 17.5 108t50 87t79.5 58t107 21q57 0 102.5 -19.5t77.5 -53.5t49 -79.5t17 -97.5q0 -15 -1 -25t-2 -18h-404q2 -82 50 -126t123 -44q48 0 89.5 19t67.5 55l64 -50q-17 -22 -37 -38t-41 -31q-31 -23 -54.5 -46.5t-23.5 -52.5q0 -19 11 -29t31 -10q17 0 33 7 t26 18v-67q-11 -11 -31 -19.5t-46 -8.5q-40 0 -67 22.5t-27 63.5q0 21 9 43t32 45q-9 -1 -20 -1.5t-22 -0.5q-62 0 -110 20.5t-81.5 56.5t-51 85.5t-17.5 107.5zM455 306q-2 39 -15.5 67t-34.5 47t-48.5 28t-57.5 9q-35 0 -63 -11t-48.5 -31.5t-32.5 -48t-15 -60.5h315z" />
<glyph unicode="&#x11a;" horiz-adv-x="632" d="M90 0v714h484v-87h-391v-211h348v-82h-348v-247h401v-87h-494zM291 752q-26 24 -56 47.5t-65 47.5l32 48l123 -73l122 73l33 -48q-35 -24 -65 -47.5t-56 -47.5h-68z" />
<glyph unicode="&#x11b;" horiz-adv-x="584" d="M454 306q-2 39 -15.5 67t-35 47t-49 28t-57.5 9q-34 0 -62 -11t-48.5 -31.5t-32.5 -48t-15 -60.5h315zM44 258q0 58 17.5 108t50 87t79.5 58t107 21q57 0 102.5 -19.5t77.5 -53.5t49 -80t17 -99q0 -13 -1 -23t-2 -18h-404q1 -41 14 -72.5t36 -53.5t54.5 -33t69.5 -11 q48 0 89 19t67 55l64 -50q-16 -21 -37.5 -40t-49 -33.5t-61.5 -23t-76 -8.5q-63 0 -112 20.5t-82.5 56.5t-51 85.5t-17.5 107.5zM262 584q-26 24 -56 47.5t-65 47.5l32 48l123 -73l122 73l33 -48q-35 -24 -65 -47.5t-56 -47.5h-68z" />
<glyph unicode="&#x11c;" horiz-adv-x="751" d="M392 640q-57 0 -102.5 -20.5t-77 -57.5t-48.5 -89.5t-17 -115.5q0 -64 17 -116t48 -89t75.5 -57.5t100.5 -20.5q46 0 87 14.5t71.5 42t49 68.5t21.5 94h-208v83h298q5 -22 5 -54q0 -67 -21.5 -127.5t-63 -106.5t-101.5 -73.5t-137 -27.5q-78 0 -141 28t-107.5 78 t-68.5 117.5t-24 147.5q0 81 25 149t70 116.5t108.5 76t140.5 27.5q92 0 160 -37.5t113 -102.5l-77 -51q-31 51 -80.5 77.5t-115.5 26.5zM423 893q26 -24 56 -47.5t65 -47.5l-32 -48l-123 73l-122 -73l-33 48q35 24 65 47.5t56 47.5h68z" />
<glyph unicode="&#x11d;" horiz-adv-x="636" d="M557 84q0 -57 -12 -104.5t-42 -82.5q-19 -23 -43.5 -38t-52.5 -25t-58.5 -14t-61.5 -4q-123 0 -212 62l44 71q34 -25 76 -39.5t93 -14.5q39 0 72 9.5t57.5 30t38.5 53t14 78.5v54q-29 -44 -76 -72t-112 -28q-53 0 -97 20t-75 54.5t-48 81t-17 98.5q0 53 17.5 100t49.5 82 t76 55.5t98 20.5t103 -22.5t81 -72.5v83h87v-436zM470 277q0 34 -11 66t-32 56t-52.5 38.5t-73.5 14.5t-72.5 -14.5t-51 -39t-30.5 -56.5t-10 -66q0 -35 10 -67t30.5 -56.5t51.5 -39.5t72 -15t72.5 14.5t53 39.5t32.5 57.5t11 67.5zM336 725q26 -24 56 -47.5t65 -47.5 l-32 -48l-123 73l-122 -73l-33 48q35 24 65 47.5t56 47.5h68z" />
<glyph unicode="&#x11e;" horiz-adv-x="751" d="M392 640q-57 0 -102.5 -20.5t-77 -57.5t-48.5 -89.5t-17 -115.5q0 -64 17 -116t48 -89t75.5 -57.5t100.5 -20.5q46 0 87 14.5t71.5 42t49 68.5t21.5 94h-208v83h298q5 -22 5 -54q0 -67 -21.5 -127.5t-63 -106.5t-101.5 -73.5t-137 -27.5q-78 0 -141 28t-107.5 78 t-68.5 117.5t-24 147.5q0 81 25 149t70 116.5t108.5 76t140.5 27.5q92 0 160 -37.5t113 -102.5l-77 -51q-31 51 -80.5 77.5t-115.5 26.5zM389 759q-67 0 -108 33.5t-49 83.5l61 15q8 -29 32 -48.5t64 -19.5t64 19.5t32 48.5l60 -15q-4 -25 -16.5 -46.5t-32.5 -37t-47 -24.5 t-60 -9z" />
<glyph unicode="&#x11f;" horiz-adv-x="636" d="M557 84q0 -57 -12 -104.5t-42 -82.5q-19 -23 -43.5 -38t-52.5 -25t-58.5 -14t-61.5 -4q-123 0 -212 62l44 71q34 -25 76 -39.5t93 -14.5q39 0 72 9.5t57.5 30t38.5 53t14 78.5v54q-29 -44 -76 -72t-112 -28q-53 0 -97 20t-75 54.5t-48 81t-17 98.5q0 53 17.5 100t49.5 82 t76 55.5t98 20.5t103 -22.5t81 -72.5v83h87v-436zM470 277q0 34 -11 66t-32 56t-52.5 38.5t-73.5 14.5t-72.5 -14.5t-51 -39t-30.5 -56.5t-10 -66q0 -35 10 -67t30.5 -56.5t51.5 -39.5t72 -15t72.5 14.5t53 39.5t32.5 57.5t11 67.5zM301 591q-67 0 -108 33.5t-49 83.5l61 15 q8 -29 32 -48.5t64 -19.5t64 19.5t32 48.5l60 -15q-4 -25 -16.5 -46.5t-32.5 -37t-47 -24.5t-60 -9z" />
<glyph unicode="&#x120;" horiz-adv-x="751" d="M392 640q-57 0 -102.5 -20.5t-77 -57.5t-48.5 -89.5t-17 -115.5q0 -64 17 -116t48 -89t75.5 -57.5t100.5 -20.5q46 0 87 14.5t71.5 42t49 68.5t21.5 94h-208v83h298q5 -22 5 -54q0 -67 -21.5 -127.5t-63 -106.5t-101.5 -73.5t-137 -27.5q-78 0 -141 28t-107.5 78 t-68.5 117.5t-24 147.5q0 81 25 149t70 116.5t108.5 76t140.5 27.5q92 0 160 -37.5t113 -102.5l-77 -51q-31 51 -80.5 77.5t-115.5 26.5zM340 808q0 20 14 34t33 14q20 0 34 -14t14 -34q0 -19 -14 -33t-34 -14q-19 0 -33 13.5t-14 33.5z" />
<glyph unicode="&#x121;" horiz-adv-x="636" d="M557 84q0 -57 -12 -104.5t-42 -82.5q-19 -23 -43.5 -38t-52.5 -25t-58.5 -14t-61.5 -4q-123 0 -212 62l44 71q34 -25 76 -39.5t93 -14.5q39 0 72 9.5t57.5 30t38.5 53t14 78.5v54q-29 -44 -76 -72t-112 -28q-53 0 -97 20t-75 54.5t-48 81t-17 98.5q0 53 17.5 100t49.5 82 t76 55.5t98 20.5t103 -22.5t81 -72.5v83h87v-436zM470 277q0 34 -11 66t-32 56t-52.5 38.5t-73.5 14.5t-72.5 -14.5t-51 -39t-30.5 -56.5t-10 -66q0 -35 10 -67t30.5 -56.5t51.5 -39.5t72 -15t72.5 14.5t53 39.5t32.5 57.5t11 67.5zM252 640q0 20 14 34t33 14q20 0 34 -14 t14 -34q0 -19 -14 -33t-34 -14q-19 0 -33 13.5t-14 33.5z" />
<glyph unicode="&#x122;" horiz-adv-x="751" d="M392 640q-57 0 -102.5 -20.5t-77 -57.5t-48.5 -89.5t-17 -115.5q0 -64 17 -116t48 -89t75.5 -57.5t100.5 -20.5q46 0 87 14.5t71.5 42t49 68.5t21.5 94h-208v83h298q5 -22 5 -54q0 -67 -21.5 -127.5t-63 -106.5t-101.5 -73.5t-137 -27.5q-78 0 -141 28t-107.5 78 t-68.5 117.5t-24 147.5q0 81 25 149t70 116.5t108.5 76t140.5 27.5q92 0 160 -37.5t113 -102.5l-77 -51q-31 51 -80.5 77.5t-115.5 26.5zM268 -173l66 117h88l-105 -144z" />
<glyph unicode="&#x123;" horiz-adv-x="636" d="M397 700l-69 -117h-85l115 144zM557 84q0 -57 -12 -104.5t-42 -82.5q-19 -23 -43.5 -38t-52.5 -25t-58.5 -14t-61.5 -4q-123 0 -212 62l44 71q34 -25 76 -39.5t93 -14.5q39 0 72 9.5t57.5 30t38.5 53t14 78.5v54q-29 -44 -76 -72t-112 -28q-53 0 -97 20t-75 54.5t-48 81 t-17 98.5q0 53 17.5 100t49.5 82t76 55.5t98 20.5t103 -22.5t81 -72.5v83h87v-436zM470 277q0 34 -11 66t-32 56t-52.5 38.5t-73.5 14.5t-72.5 -14.5t-51 -39t-30.5 -56.5t-10 -66q0 -35 10 -67t30.5 -56.5t51.5 -39.5t72 -15t72.5 14.5t53 39.5t32.5 57.5t11 67.5z" />
<glyph unicode="&#x124;" horiz-adv-x="750" d="M567 0v334h-384v-334h-93v714h93v-294h384v294h93v-714h-93zM409 893q26 -24 56 -47.5t65 -47.5l-32 -48l-123 73l-122 -73l-33 48q35 24 65 47.5t56 47.5h68z" />
<glyph unicode="&#x125;" horiz-adv-x="604" d="M80 0v714h87v-280q32 48 76.5 73t101.5 25q85 0 133.5 -51.5t48.5 -145.5v-335h-87v315q0 23 -4.5 47t-17 43.5t-35.5 32t-59 12.5q-33 0 -62 -11.5t-50 -33t-33 -51.5t-12 -66v-288h-87zM157 867q26 -24 56 -47.5t65 -47.5l-32 -48l-123 73l-122 -73l-33 48 q35 24 65 47.5t56 47.5h68z" />
<glyph unicode="&#x126;" horiz-adv-x="750" d="M567 0v334h-384v-334h-93v581h-45v58h45v75h93v-75h384v75h93v-75h45v-58h-45v-581h-93zM567 420v161h-384v-161h384z" />
<glyph unicode="&#x127;" horiz-adv-x="604" d="M78 0v611h-75v55h75v48h87v-48h138v-55h-138v-177q32 48 76.5 73t101.5 25q85 0 133.5 -51.5t48.5 -145.5v-335h-87v315q0 23 -4.5 47t-17 43.5t-35.5 32t-59 12.5q-33 0 -62 -11.5t-50 -33t-33 -51.5t-12 -66v-288h-87z" />
<glyph unicode="&#x128;" horiz-adv-x="273" d="M90 0v714h93v-714h-93zM299 847q-14 -35 -40.5 -59t-61.5 -24q-20 0 -37 7t-32.5 15t-29.5 15t-27 7q-18 0 -29 -13.5t-19 -30.5l-50 24q15 36 41 59.5t59 23.5q19 0 35.5 -7t32 -15t29.5 -15t28 -7q18 0 31 12.5t20 31.5z" />
<glyph unicode="&#x129;" horiz-adv-x="247" d="M285 679q-14 -35 -40.5 -59t-61.5 -24q-20 0 -37 7t-32.5 15t-29.5 15t-27 7q-18 0 -29 -13.5t-19 -30.5l-50 24q15 36 41 59.5t59 23.5q19 0 35.5 -7t32 -15t29.5 -15t28 -7q18 0 31 12.5t20 31.5zM80 0v520h87v-520h-87z" />
<glyph unicode="&#x12a;" horiz-adv-x="273" d="M90 0v714h93v-714h-93zM-14 776v58h300v-58h-300z" />
<glyph unicode="&#x12b;" horiz-adv-x="247" d="M-28 608v58h300v-58h-300zM80 0v520h87v-520h-87z" />
<glyph unicode="&#x12c;" horiz-adv-x="273" d="M90 0v714h93v-714h-93zM137 759q-67 0 -108 33.5t-49 83.5l61 15q8 -29 32 -48.5t64 -19.5t64 19.5t32 48.5l60 -15q-4 -25 -16.5 -46.5t-32.5 -37t-47 -24.5t-60 -9z" />
<glyph unicode="&#x12d;" horiz-adv-x="247" d="M80 0v520h87v-520h-87zM122 591q-67 0 -108 33.5t-49 83.5l61 15q8 -29 32 -48.5t64 -19.5t64 19.5t32 48.5l60 -15q-4 -25 -16.5 -46.5t-32.5 -37t-47 -24.5t-60 -9z" />
<glyph unicode="&#x12e;" horiz-adv-x="273" d="M153 0q-20 -17 -34 -36t-14 -40q0 -18 11 -28t31 -10q17 0 33 7t26 18v-67q-11 -11 -31 -19.5t-46 -8.5q-40 0 -67 22.5t-27 63.5q0 24 12 49.5t43 51.5v711h93v-714h-30z" />
<glyph unicode="&#x12f;" horiz-adv-x="247" d="M137 0q-20 -17 -33.5 -36t-13.5 -40q0 -18 11 -28t31 -10q17 0 33 7t26 18v-67q-11 -11 -31 -19.5t-46 -8.5q-40 0 -67 22.5t-27 63.5q0 25 13.5 51.5t46.5 52.5v514h87v-520h-30zM70 668q0 23 15 38.5t38 15.5t38.5 -15.5t15.5 -38.5t-15.5 -38t-38.5 -15t-38 15t-15 38 z" />
<glyph unicode="&#x130;" horiz-adv-x="273" d="M90 0v714h93v-714h-93zM89 808q0 20 14 34t33 14q20 0 34 -14t14 -34q0 -19 -14 -33t-34 -14q-19 0 -33 13.5t-14 33.5z" />
<glyph unicode="&#x131;" horiz-adv-x="247" d="M80 0v520h87v-520h-87z" />
<glyph unicode="&#x134;" horiz-adv-x="510" d="M334 714h93v-473q0 -52 -8 -94t-30 -75q-29 -45 -75 -65t-103 -20q-63 0 -112.5 26.5t-78.5 77.5l74 48q23 -38 54.5 -52.5t63.5 -14.5q34 0 57 11t37.5 30.5t21 47.5t6.5 62v491zM412 893q26 -24 56 -47.5t65 -47.5l-32 -48l-123 73l-122 -73l-33 48q35 24 65 47.5 t56 47.5h68z" />
<glyph unicode="&#x135;" horiz-adv-x="255" d="M167 725q26 -24 56 -47.5t65 -47.5l-32 -48l-123 73l-122 -73l-33 48q35 24 65 47.5t56 47.5h68zM177 -7q0 -89 -45 -132.5t-115 -43.5q-20 0 -41 4t-35 12l16 74q10 -5 23 -10t32 -5q42 0 60 26t18 71v531h87v-527z" />
<glyph unicode="&#x136;" horiz-adv-x="669" d="M553 0l-242 348l-128 -145v-203h-93v714h93v-388l340 388h117l-265 -297l293 -417h-115zM254 -173l66 117h88l-105 -144z" />
<glyph unicode="&#x137;" horiz-adv-x="558" d="M416 520h109l-203 -213l230 -307h-110l-181 249l-96 -101v-148h-87v714h87v-463zM210 -173l66 117h88l-105 -144z" />
<glyph unicode="&#x138;" horiz-adv-x="569" d="M426 520h110l-210 -213l237 -307h-110l-188 249l-100 -101v-148h-87v520h87v-269z" />
<glyph unicode="&#x139;" horiz-adv-x="588" d="M90 0v714h93v-627h390v-87h-483zM108 758l93 150l65 -32l-83 -118h-75z" />
<glyph unicode="&#x13a;" horiz-adv-x="249" d="M80 0v714h87v-714h-87zM79 744l93 150l65 -32l-83 -118h-75z" />
<glyph unicode="&#x13b;" horiz-adv-x="588" d="M90 0v714h93v-627h390v-87h-483zM209 -173l66 117h88l-105 -144z" />
<glyph unicode="&#x13c;" horiz-adv-x="249" d="M80 0v714h87v-714h-87zM14 -173l66 117h88l-105 -144z" />
<glyph unicode="&#x13d;" horiz-adv-x="588" d="M90 0v714h93v-627h390v-87h-483zM413 640q0 -49 -17.5 -87t-50.5 -73l-42 33q20 20 31.5 45.5t11.5 49.5q0 14 -3.5 24.5t-7.5 20t-7.5 20t-3.5 24.5v17h89v-74z" />
<glyph unicode="&#x13e;" horiz-adv-x="291" d="M80 0v714h87v-714h-87zM354 688q0 -49 -17.5 -87t-50.5 -73l-42 33q20 20 31.5 45.5t11.5 49.5q0 14 -3.5 24.5t-7.5 20t-7.5 20t-3.5 24.5v17h89v-74z" />
<glyph unicode="&#x13f;" horiz-adv-x="588" d="M90 0v714h93v-627h390v-87h-483zM480 333q0 -26 -18 -44.5t-44 -18.5t-44.5 18.5t-18.5 44.5t18.5 45t44.5 19t44 -19t18 -45z" />
<glyph unicode="&#x140;" horiz-adv-x="459" d="M80 0v714h87v-714h-87zM416 304q0 -26 -18 -44.5t-44 -18.5t-44.5 18.5t-18.5 44.5t18.5 45t44.5 19t44 -19t18 -45z" />
<glyph unicode="&#x141;" horiz-adv-x="618" d="M120 0v312l-112 -51v76l112 51v326h93v-283l218 101v-77l-218 -100v-268h390v-87h-483z" />
<glyph unicode="&#x142;" horiz-adv-x="307" d="M201 396v-396h-88v360l-112 -52v75l112 51v280h88v-243l114 53v-75z" />
<glyph unicode="&#x143;" horiz-adv-x="750" d="M660 0h-90l-391 582v-582h-89v714h102l378 -562v562h90v-714zM346 758l93 150l65 -32l-83 -118h-75z" />
<glyph unicode="&#x144;" horiz-adv-x="597" d="M80 0v520h87v-86q32 48 76.5 73t101.5 25q85 0 133.5 -51.5t48.5 -145.5v-335h-87v315q0 23 -4.5 47t-17 43.5t-35.5 32t-59 12.5q-33 0 -62 -11.5t-50 -33t-33 -51.5t-12 -66v-288h-87zM266 590l93 150l65 -32l-83 -118h-75z" />
<glyph unicode="&#x145;" horiz-adv-x="750" d="M660 0h-90l-391 582v-582h-89v714h102l378 -562v562h90v-714zM267 -173l66 117h88l-105 -144z" />
<glyph unicode="&#x146;" horiz-adv-x="597" d="M80 0v520h87v-86q32 48 76.5 73t101.5 25q85 0 133.5 -51.5t48.5 -145.5v-335h-87v315q0 23 -4.5 47t-17 43.5t-35.5 32t-59 12.5q-33 0 -62 -11.5t-50 -33t-33 -51.5t-12 -66v-288h-87zM202 -173l66 117h88l-105 -144z" />
<glyph unicode="&#x147;" horiz-adv-x="750" d="M660 0h-90l-391 582v-582h-89v714h102l378 -562v562h90v-714zM342 752q-26 24 -56 47.5t-65 47.5l32 48l123 -73l122 73l33 -48q-35 -24 -65 -47.5t-56 -47.5h-68z" />
<glyph unicode="&#x148;" horiz-adv-x="597" d="M80 0v520h87v-86q32 48 76.5 73t101.5 25q85 0 133.5 -51.5t48.5 -145.5v-335h-87v315q0 23 -4.5 47t-17 43.5t-35.5 32t-59 12.5q-33 0 -62 -11.5t-50 -33t-33 -51.5t-12 -66v-288h-87zM271 584q-26 24 -56 47.5t-65 47.5l32 48l123 -73l122 73l33 -48 q-35 -24 -65 -47.5t-56 -47.5h-68z" />
<glyph unicode="&#x14a;" horiz-adv-x="750" d="M660 4q0 -47 -13 -82.5t-36.5 -58.5t-55 -34.5t-68.5 -11.5q-29 0 -58.5 6t-47.5 20l26 74q13 -9 32 -17t43 -8q48 0 68 29t20 79l-391 582v-582h-89v714h102l378 -562v562h90v-710z" />
<glyph unicode="&#x14b;" horiz-adv-x="597" d="M525 -1q0 -90 -47 -135.5t-128 -45.5q-21 0 -43 4t-38 11l24 72q11 -5 24.5 -8t27.5 -3q52 0 72.5 27.5t20.5 73.5v320q0 23 -4.5 47t-17 43.5t-35.5 32t-59 12.5q-33 0 -62 -11.5t-50 -33t-33 -51.5t-12 -66v-288h-87v520h87v-86q32 48 76.5 73t101.5 25 q85 0 133.5 -51.5t48.5 -145.5v-336z" />
<glyph unicode="&#x14c;" horiz-adv-x="775" d="M728 357q0 -79 -24 -146.5t-68 -117t-107 -78t-141 -28.5t-141 28.5t-107.5 78t-68.5 117t-24 146.5t24 147t68.5 117.5t107.5 77.5t141 28t141 -28t107 -77.5t68 -117.5t24 -147zM630 357q0 62 -16.5 114t-48 89t-76.5 57.5t-101 20.5q-57 0 -101.5 -20.5t-76 -57.5 t-48 -89t-16.5 -114t16.5 -114t48 -89t76 -57.5t101.5 -20.5q56 0 101 20.5t76.5 57.5t48 89t16.5 114zM239 776v58h300v-58h-300z" />
<glyph unicode="&#x14d;" horiz-adv-x="601" d="M556 259q0 -59 -18 -108.5t-51 -85.5t-80.5 -56.5t-106.5 -20.5t-106.5 20.5t-80.5 56.5t-50.5 85.5t-17.5 108.5t17.5 109t50.5 86.5t80.5 57t106.5 20.5t106.5 -20.5t80.5 -57t51 -86.5t18 -109zM463 259q0 41 -11 76.5t-31.5 61.5t-51 41t-69.5 15t-69.5 -15t-51 -41 t-31.5 -61.5t-11 -76.5t11 -76t31.5 -61t51 -41t69.5 -15t69.5 15t51 41t31.5 61t11 76zM150 608v58h300v-58h-300z" />
<glyph unicode="&#x14e;" horiz-adv-x="775" d="M728 357q0 -79 -24 -146.5t-68 -117t-107 -78t-141 -28.5t-141 28.5t-107.5 78t-68.5 117t-24 146.5t24 147t68.5 117.5t107.5 77.5t141 28t141 -28t107 -77.5t68 -117.5t24 -147zM630 357q0 62 -16.5 114t-48 89t-76.5 57.5t-101 20.5q-57 0 -101.5 -20.5t-76 -57.5 t-48 -89t-16.5 -114t16.5 -114t48 -89t76 -57.5t101.5 -20.5q56 0 101 20.5t76.5 57.5t48 89t16.5 114zM388 759q-67 0 -108 33.5t-49 83.5l61 15q8 -29 32 -48.5t64 -19.5t64 19.5t32 48.5l60 -15q-4 -25 -16.5 -46.5t-32.5 -37t-47 -24.5t-60 -9z" />
<glyph unicode="&#x14f;" horiz-adv-x="601" d="M556 259q0 -59 -18 -108.5t-51 -85.5t-80.5 -56.5t-106.5 -20.5t-106.5 20.5t-80.5 56.5t-50.5 85.5t-17.5 108.5t17.5 109t50.5 86.5t80.5 57t106.5 20.5t106.5 -20.5t80.5 -57t51 -86.5t18 -109zM463 259q0 41 -11 76.5t-31.5 61.5t-51 41t-69.5 15t-69.5 -15t-51 -41 t-31.5 -61.5t-11 -76.5t11 -76t31.5 -61t51 -41t69.5 -15t69.5 15t51 41t31.5 61t11 76zM301 591q-67 0 -108 33.5t-49 83.5l61 15q8 -29 32 -48.5t64 -19.5t64 19.5t32 48.5l60 -15q-4 -25 -16.5 -46.5t-32.5 -37t-47 -24.5t-60 -9z" />
<glyph unicode="&#x150;" horiz-adv-x="775" d="M728 357q0 -79 -24 -146.5t-68 -117t-107 -78t-141 -28.5t-141 28.5t-107.5 78t-68.5 117t-24 146.5t24 147t68.5 117.5t107.5 77.5t141 28t141 -28t107 -77.5t68 -117.5t24 -147zM630 357q0 62 -16.5 114t-48 89t-76.5 57.5t-101 20.5q-57 0 -101.5 -20.5t-76 -57.5 t-48 -89t-16.5 -114t16.5 -114t48 -89t76 -57.5t101.5 -20.5q56 0 101 20.5t76.5 57.5t48 89t16.5 114zM256 758l93 150l65 -32l-83 -118h-75zM412 758l93 150l65 -32l-83 -118h-75z" />
<glyph unicode="&#x151;" horiz-adv-x="601" d="M556 259q0 -59 -18 -108.5t-51 -85.5t-80.5 -56.5t-106.5 -20.5t-106.5 20.5t-80.5 56.5t-50.5 85.5t-17.5 108.5t17.5 109t50.5 86.5t80.5 57t106.5 20.5t106.5 -20.5t80.5 -57t51 -86.5t18 -109zM463 259q0 41 -11 76.5t-31.5 61.5t-51 41t-69.5 15t-69.5 -15t-51 -41 t-31.5 -61.5t-11 -76.5t11 -76t31.5 -61t51 -41t69.5 -15t69.5 15t51 41t31.5 61t11 76zM183 590l93 150l65 -32l-83 -118h-75zM339 590l93 150l65 -32l-83 -118h-75z" />
<glyph unicode="&#x152;" horiz-adv-x="1028" d="M370 0q-81 0 -144 27t-106 75t-65.5 113t-22.5 142q0 76 22.5 141.5t65.5 113.5t106 75t144 27h600v-87h-361v-211h318v-82h-318v-247h371v-87h-610zM516 87v540h-146q-59 0 -103.5 -19.5t-74.5 -54.5t-45.5 -85t-15.5 -111t15.5 -111t45.5 -85t74.5 -54.5t103.5 -19.5 h146z" />
<glyph unicode="&#x153;" horiz-adv-x="1001" d="M962 270q0 -11 -0.5 -18.5t-1.5 -12.5h-408q4 -81 51.5 -126t124.5 -45q47 0 84.5 17t66.5 49l61 -55q-41 -43 -93.5 -67t-121.5 -24q-78 0 -132.5 31.5t-86.5 85.5q-31 -54 -84 -85.5t-125 -31.5q-59 0 -106 20.5t-79.5 57t-50 86t-17.5 107.5t17.5 108t50 87t79.5 57.5 t106 20.5q72 0 125.5 -32t84.5 -86q30 54 83 86t125 32q57 0 102.5 -20t78 -55t49.5 -83t17 -104zM460 259q0 41 -11 76.5t-31.5 61.5t-50.5 41t-69 15t-69 -15t-50.5 -41t-31.5 -61.5t-11 -76.5t11 -76t31.5 -61t50.5 -41t69 -15t69 15t50.5 41t31.5 61t11 76zM872 306 q-7 75 -51.5 113t-107.5 38q-34 0 -62 -11t-49 -31.5t-33 -48t-15 -60.5h318z" />
<glyph unicode="&#x154;" horiz-adv-x="674" d="M530 0l-172 291h-175v-291h-93v714h295q57 0 101.5 -15t76 -42t48 -65t16.5 -84q0 -78 -45.5 -131t-124.5 -74l179 -303h-106zM530 504q0 55 -37 89t-111 34h-199v-253h187q75 0 117.5 35t42.5 95zM300 758l93 150l65 -32l-83 -118h-75z" />
<glyph unicode="&#x155;" horiz-adv-x="378" d="M352 436q-21 8 -48 8q-29 0 -54.5 -12t-44 -34.5t-29.5 -56t-11 -76.5v-265h-87v520h87v-90q24 45 63.5 72t87.5 27q15 0 30.5 -2.5t23.5 -7.5zM164 583l93 150l65 -32l-83 -118h-75z" />
<glyph unicode="&#x156;" horiz-adv-x="674" d="M530 0l-172 291h-175v-291h-93v714h295q57 0 101.5 -15t76 -42t48 -65t16.5 -84q0 -78 -45.5 -131t-124.5 -74l179 -303h-106zM530 504q0 55 -37 89t-111 34h-199v-253h187q75 0 117.5 35t42.5 95zM228 -173l66 117h88l-105 -144z" />
<glyph unicode="&#x157;" horiz-adv-x="378" d="M352 436q-21 8 -48 8q-29 0 -54.5 -12t-44 -34.5t-29.5 -56t-11 -76.5v-265h-87v520h87v-90q24 45 63.5 72t87.5 27q15 0 30.5 -2.5t23.5 -7.5zM17 -173l66 117h88l-105 -144z" />
<glyph unicode="&#x158;" horiz-adv-x="674" d="M530 0l-172 291h-175v-291h-93v714h295q57 0 101.5 -15t76 -42t48 -65t16.5 -84q0 -78 -45.5 -131t-124.5 -74l179 -303h-106zM530 504q0 55 -37 89t-111 34h-199v-253h187q75 0 117.5 35t42.5 95zM307 752q-26 24 -56 47.5t-65 47.5l32 48l123 -73l122 73l33 -48 q-35 -24 -65 -47.5t-56 -47.5h-68z" />
<glyph unicode="&#x159;" horiz-adv-x="378" d="M352 436q-21 8 -48 8q-29 0 -54.5 -12t-44 -34.5t-29.5 -56t-11 -76.5v-265h-87v520h87v-90q24 45 63.5 72t87.5 27q15 0 30.5 -2.5t23.5 -7.5zM175 584q-26 24 -56 47.5t-65 47.5l32 48l123 -73l122 73l33 -48q-35 -24 -65 -47.5t-56 -47.5h-68z" />
<glyph unicode="&#x15a;" horiz-adv-x="625" d="M306 727q79 0 149 -31.5t115 -91.5l-68 -55q-34 48 -87 70.5t-113 22.5q-29 0 -55 -5.5t-45.5 -18.5t-31 -33t-11.5 -49q0 -31 13 -50.5t35 -32t51.5 -21t62.5 -16.5q52 -13 98.5 -28t82 -38.5t56.5 -59t21 -87.5q0 -48 -18.5 -88t-53 -68.5t-83.5 -44t-110 -15.5 q-97 0 -168 37.5t-113 100.5l71 58q38 -60 96.5 -86t120.5 -26q75 0 119 32.5t44 92.5q0 35 -15.5 56t-41 34.5t-60 22t-71.5 17.5q-42 10 -83 23.5t-74 36t-53.5 56.5t-20.5 85q0 47 18 84.5t50.5 63t76.5 39t96 13.5zM258 758l93 150l65 -32l-83 -118h-75z" />
<glyph unicode="&#x15b;" horiz-adv-x="510" d="M466 157q0 -37 -15 -68t-43 -53.5t-66.5 -35t-86.5 -12.5q-77 0 -133.5 30t-90.5 75l63 51q56 -81 165 -81q62 0 91.5 23t29.5 59q0 24 -12 38t-32 22t-46.5 13t-55.5 11q-34 7 -65.5 17.5t-56 28t-39 42.5t-14.5 61q0 34 13.5 62.5t38 48.5t59.5 31.5t78 11.5 q71 0 122 -28t85 -70l-61 -48q-18 26 -54 48.5t-96 22.5q-51 0 -76.5 -19t-25.5 -51q0 -19 8.5 -31.5t24.5 -21t38.5 -14t49.5 -11.5q40 -8 76.5 -18t64.5 -26.5t45 -42t17 -65.5zM198 590l93 150l65 -32l-83 -118h-75z" />
<glyph unicode="&#x15c;" horiz-adv-x="625" d="M306 727q79 0 149 -31.5t115 -91.5l-68 -55q-34 48 -87 70.5t-113 22.5q-29 0 -55 -5.5t-45.5 -18.5t-31 -33t-11.5 -49q0 -31 13 -50.5t35 -32t51.5 -21t62.5 -16.5q52 -13 98.5 -28t82 -38.5t56.5 -59t21 -87.5q0 -48 -18.5 -88t-53 -68.5t-83.5 -44t-110 -15.5 q-97 0 -168 37.5t-113 100.5l71 58q38 -60 96.5 -86t120.5 -26q75 0 119 32.5t44 92.5q0 35 -15.5 56t-41 34.5t-60 22t-71.5 17.5q-42 10 -83 23.5t-74 36t-53.5 56.5t-20.5 85q0 47 18 84.5t50.5 63t76.5 39t96 13.5zM346 902q26 -24 56 -47.5t65 -47.5l-32 -48l-123 73 l-122 -73l-33 48q35 24 65 47.5t56 47.5h68z" />
<glyph unicode="&#x15d;" horiz-adv-x="510" d="M466 157q0 -37 -15 -68t-43 -53.5t-66.5 -35t-86.5 -12.5q-77 0 -133.5 30t-90.5 75l63 51q56 -81 165 -81q62 0 91.5 23t29.5 59q0 24 -12 38t-32 22t-46.5 13t-55.5 11q-34 7 -65.5 17.5t-56 28t-39 42.5t-14.5 61q0 34 13.5 62.5t38 48.5t59.5 31.5t78 11.5 q71 0 122 -28t85 -70l-61 -48q-18 26 -54 48.5t-96 22.5q-51 0 -76.5 -19t-25.5 -51q0 -19 8.5 -31.5t24.5 -21t38.5 -14t49.5 -11.5q40 -8 76.5 -18t64.5 -26.5t45 -42t17 -65.5zM291 725q26 -24 56 -47.5t65 -47.5l-32 -48l-123 73l-122 -73l-33 48q35 24 65 47.5t56 47.5 h68z" />
<glyph unicode="&#x15e;" horiz-adv-x="625" d="M306 727q79 0 149 -31.5t115 -91.5l-68 -55q-34 48 -87 70.5t-113 22.5q-29 0 -55 -5.5t-45.5 -18.5t-31 -33t-11.5 -49q0 -31 13 -50.5t35 -32t51.5 -21t62.5 -16.5q52 -13 98.5 -28t82 -38.5t56.5 -59t21 -87.5q0 -48 -18.5 -88t-53 -68.5t-83.5 -44t-110 -15.5 q-97 0 -168 37.5t-113 100.5l71 58q38 -60 96.5 -86t120.5 -26q75 0 119 32.5t44 92.5q0 35 -15.5 56t-41 34.5t-60 22t-71.5 17.5q-42 10 -83 23.5t-74 36t-53.5 56.5t-20.5 85q0 47 18 84.5t50.5 63t76.5 39t96 13.5zM268 -200q-23 0 -44 3.5t-32 7.5v51q14 -9 34 -11.5 t31 -2.5q29 0 45.5 9.5t16.5 30.5q0 11 -4.5 16t-11.5 10h-57l14 53q8 3 18.5 6t24.5 3q35 0 60.5 -21.5t25.5 -61.5q0 -45 -34 -69t-87 -24z" />
<glyph unicode="&#x15f;" horiz-adv-x="510" d="M466 157q0 -37 -15 -68t-43 -53.5t-66.5 -35t-86.5 -12.5q-77 0 -133.5 30t-90.5 75l63 51q56 -81 165 -81q62 0 91.5 23t29.5 59q0 24 -12 38t-32 22t-46.5 13t-55.5 11q-34 7 -65.5 17.5t-56 28t-39 42.5t-14.5 61q0 34 13.5 62.5t38 48.5t59.5 31.5t78 11.5 q71 0 122 -28t85 -70l-61 -48q-18 26 -54 48.5t-96 22.5q-51 0 -76.5 -19t-25.5 -51q0 -19 8.5 -31.5t24.5 -21t38.5 -14t49.5 -11.5q40 -8 76.5 -18t64.5 -26.5t45 -42t17 -65.5zM212 -200q-23 0 -44 3.5t-32 7.5v51q14 -9 34 -11.5t31 -2.5q29 0 45.5 9.5t16.5 30.5 q0 11 -4.5 16t-11.5 10h-57l14 53q8 3 18.5 6t24.5 3q35 0 60.5 -21.5t25.5 -61.5q0 -45 -34 -69t-87 -24z" />
<glyph unicode="&#x160;" horiz-adv-x="625" d="M306 727q79 0 149 -31.5t115 -91.5l-68 -55q-34 48 -87 70.5t-113 22.5q-29 0 -55 -5.5t-45.5 -18.5t-31 -33t-11.5 -49q0 -31 13 -50.5t35 -32t51.5 -21t62.5 -16.5q52 -13 98.5 -28t82 -38.5t56.5 -59t21 -87.5q0 -48 -18.5 -88t-53 -68.5t-83.5 -44t-110 -15.5 q-97 0 -168 37.5t-113 100.5l71 58q38 -60 96.5 -86t120.5 -26q75 0 119 32.5t44 92.5q0 35 -15.5 56t-41 34.5t-60 22t-71.5 17.5q-42 10 -83 23.5t-74 36t-53.5 56.5t-20.5 85q0 47 18 84.5t50.5 63t76.5 39t96 13.5zM272 752q-26 24 -56 47.5t-65 47.5l32 48l123 -73 l122 73l33 -48q-35 -24 -65 -47.5t-56 -47.5h-68z" />
<glyph unicode="&#x161;" horiz-adv-x="510" d="M209 584q-26 24 -56 47.5t-65 47.5l32 48l123 -73l122 73l33 -48q-35 -24 -65 -47.5t-56 -47.5h-68zM466 157q0 -37 -15 -68t-43 -53.5t-66.5 -35t-86.5 -12.5q-77 0 -133.5 30t-90.5 75l63 51q56 -81 165 -81q62 0 91.5 23t29.5 59q0 24 -12 38t-32 22t-46.5 13 t-55.5 11q-34 7 -65.5 17.5t-56 28t-39 42.5t-14.5 61q0 34 13.5 62.5t38 48.5t59.5 31.5t78 11.5q71 0 122 -28t85 -70l-61 -48q-18 26 -54 48.5t-96 22.5q-51 0 -76.5 -19t-25.5 -51q0 -19 8.5 -31.5t24.5 -21t38.5 -14t49.5 -11.5q40 -8 76.5 -18t64.5 -26.5t45 -42 t17 -65.5z" />
<glyph unicode="&#x162;" horiz-adv-x="625" d="M359 627v-627h-93v627h-240v87h573v-87h-240zM205 -173l66 117h88l-105 -144z" />
<glyph unicode="&#x163;" horiz-adv-x="403" d="M379 24q-44 -36 -114 -36q-41 0 -74.5 15t-56.5 51q-12 19 -17 42.5t-5 60.5v289h-96v64q27 3 47.5 9t35 21.5t22 44t9.5 75.5h69v-140h164v-74h-164v-290q0 -90 77 -90q23 0 41.5 6.5t32.5 17.5zM136 -173l66 117h88l-105 -144z" />
<glyph unicode="&#x164;" horiz-adv-x="625" d="M359 627v-627h-93v627h-240v87h573v-87h-240zM288 752q-26 24 -56 47.5t-65 47.5l32 48l123 -73l122 73l33 -48q-35 -24 -65 -47.5t-56 -47.5h-68z" />
<glyph unicode="&#x165;" horiz-adv-x="403" d="M387 24q-44 -36 -114 -36q-41 0 -74.5 15t-56.5 51q-12 19 -17 42.5t-5 60.5v289h-96v64q27 3 47.5 9t35 21.5t22 44t9.5 75.5h69v-140h164v-74h-164v-290q0 -90 77 -90q23 0 41.5 6.5t32.5 17.5zM350.349 707.328q0 -41.4453 -15.8154 -73.5869 q-15.8164 -32.1416 -45.6396 -61.7451l-37.957 27.9121q18.0742 16.917 28.4678 38.4854q10.3926 21.5684 10.3926 41.8682q0 11.8418 -3.16309 20.7227t-6.77734 16.917q-3.61523 8.03516 -6.77832 16.916t-3.16309 20.7227v14.3789h80.4336v-62.5908z" />
<glyph unicode="&#x166;" horiz-adv-x="624" d="M357 347v-347h-91v347h-112v54h112v229h-240v84h572v-84h-241v-229h113v-54h-113z" />
<glyph unicode="&#x167;" horiz-adv-x="403" d="M387 24q-44 -36 -114 -36q-41 0 -74.5 15t-56.5 51q-12 19 -17 42.5t-5 60.5v109h-90v54h90v126h-96v64q27 3 48.5 9t35.5 21.5t22 44t8 75.5h69v-140h164v-74h-164v-126h124v-54h-124v-110q0 -90 77 -90q23 0 41.5 6.5t32.5 17.5z" />
<glyph unicode="&#x168;" horiz-adv-x="717" d="M635 259q0 -62 -21 -112.5t-58 -86t-88 -54.5t-111 -19t-110.5 19t-87 54.5t-57 86t-20.5 112.5v455h93v-455q0 -84 48.5 -134t133.5 -50q42 0 76 13t58 37t37 58t13 76v455h94v-455zM520 847q-14 -35 -40.5 -59t-61.5 -24q-20 0 -37 7t-32.5 15t-29.5 15t-27 7 q-18 0 -29 -13.5t-19 -30.5l-50 24q15 36 41 59.5t59 23.5q19 0 35.5 -7t32 -15t29.5 -15t28 -7q18 0 31 12.5t20 31.5z" />
<glyph unicode="&#x169;" horiz-adv-x="604" d="M524 520v-520h-87v85q-33 -47 -77 -72t-101 -25q-85 0 -133.5 51.5t-48.5 144.5v336h87v-316q0 -23 4.5 -47t17 -43.5t35 -32t58.5 -12.5q34 0 63 11.5t50 33t33 51.5t12 66v289h87zM460 679q-14 -35 -40.5 -59t-61.5 -24q-20 0 -37 7t-32.5 15t-29.5 15t-27 7 q-18 0 -29 -13.5t-19 -30.5l-50 24q15 36 41 59.5t59 23.5q19 0 35.5 -7t32 -15t29.5 -15t28 -7q18 0 31 12.5t20 31.5z" />
<glyph unicode="&#x16a;" horiz-adv-x="717" d="M635 259q0 -62 -21 -112.5t-58 -86t-88 -54.5t-111 -19t-110.5 19t-87 54.5t-57 86t-20.5 112.5v455h93v-455q0 -84 48.5 -134t133.5 -50q42 0 76 13t58 37t37 58t13 76v455h94v-455zM211 776v58h300v-58h-300z" />
<glyph unicode="&#x16b;" horiz-adv-x="604" d="M524 520v-520h-87v85q-33 -47 -77 -72t-101 -25q-85 0 -133.5 51.5t-48.5 144.5v336h87v-316q0 -23 4.5 -47t17 -43.5t35 -32t58.5 -12.5q34 0 63 11.5t50 33t33 51.5t12 66v289h87zM146 608v58h300v-58h-300z" />
<glyph unicode="&#x16c;" horiz-adv-x="717" d="M635 259q0 -62 -21 -112.5t-58 -86t-88 -54.5t-111 -19t-110.5 19t-87 54.5t-57 86t-20.5 112.5v455h93v-455q0 -84 48.5 -134t133.5 -50q42 0 76 13t58 37t37 58t13 76v455h94v-455zM359 759q-67 0 -108 33.5t-49 83.5l61 15q8 -29 32 -48.5t64 -19.5t64 19.5t32 48.5 l60 -15q-4 -25 -16.5 -46.5t-32.5 -37t-47 -24.5t-60 -9z" />
<glyph unicode="&#x16d;" horiz-adv-x="604" d="M524 520v-520h-87v85q-33 -47 -77 -72t-101 -25q-85 0 -133.5 51.5t-48.5 144.5v336h87v-316q0 -23 4.5 -47t17 -43.5t35 -32t58.5 -12.5q34 0 63 11.5t50 33t33 51.5t12 66v289h87zM296 591q-67 0 -108 33.5t-49 83.5l61 15q8 -29 32 -48.5t64 -19.5t64 19.5t32 48.5 l60 -15q-4 -25 -16.5 -46.5t-32.5 -37t-47 -24.5t-60 -9z" />
<glyph unicode="&#x16e;" horiz-adv-x="717" d="M635 259q0 -62 -21 -112.5t-58 -86t-88 -54.5t-111 -19t-110.5 19t-87 54.5t-57 86t-20.5 112.5v455h93v-455q0 -84 48.5 -134t133.5 -50q42 0 76 13t58 37t37 58t13 76v455h94v-455zM464 847q0 -21 -8 -39.5t-22.5 -32.5t-34 -22t-41.5 -8q-23 0 -42 8t-33.5 22 t-22.5 32.5t-8 39.5t8 39.5t22.5 33t33.5 22.5t42 8q22 0 41.5 -8t34 -22.5t22.5 -33t8 -39.5zM414 847q0 23 -16.5 40t-39.5 17t-40 -17t-17 -40q0 -24 17 -40.5t40 -16.5t39.5 16.5t16.5 40.5z" />
<glyph unicode="&#x16f;" horiz-adv-x="604" d="M524 520v-520h-87v85q-33 -47 -77 -72t-101 -25q-85 0 -133.5 51.5t-48.5 144.5v336h87v-316q0 -23 4.5 -47t17 -43.5t35 -32t58.5 -12.5q34 0 63 11.5t50 33t33 51.5t12 66v289h87zM401 679q0 -21 -8 -39.5t-22.5 -32.5t-34 -22t-41.5 -8q-23 0 -42 8t-33.5 22 t-22.5 32.5t-8 39.5t8 39.5t22.5 33t33.5 22.5t42 8q22 0 41.5 -8t34 -22.5t22.5 -33t8 -39.5zM351 679q0 23 -16.5 40t-39.5 17t-40 -17t-17 -40q0 -24 17 -40.5t40 -16.5t39.5 16.5t16.5 40.5z" />
<glyph unicode="&#x170;" horiz-adv-x="717" d="M635 259q0 -62 -21 -112.5t-58 -86t-88 -54.5t-111 -19t-110.5 19t-87 54.5t-57 86t-20.5 112.5v455h93v-455q0 -84 48.5 -134t133.5 -50q42 0 76 13t58 37t37 58t13 76v455h94v-455zM225 758l93 150l65 -32l-83 -118h-75zM381 758l93 150l65 -32l-83 -118h-75z" />
<glyph unicode="&#x171;" horiz-adv-x="604" d="M524 520v-520h-87v85q-33 -47 -77 -72t-101 -25q-85 0 -133.5 51.5t-48.5 144.5v336h87v-316q0 -23 4.5 -47t17 -43.5t35 -32t58.5 -12.5q34 0 63 11.5t50 33t33 51.5t12 66v289h87zM180 590l93 150l65 -32l-83 -118h-75zM336 590l93 150l65 -32l-83 -118h-75z" />
<glyph unicode="&#x172;" horiz-adv-x="717" d="M635 259q0 -62 -21 -112.5t-58 -86t-88 -54.5t-111 -19t-110.5 19t-87 54.5t-57 86t-20.5 112.5v455h93v-455q0 -84 48.5 -134t133.5 -50q42 0 76 13t58 37t37 58t13 76v455h94v-455zM507 24q-14 -11 -28 -22.5t-25 -24t-18 -26t-7 -27.5q0 -18 11 -28t31 -10q17 0 33 7 t26 18v-67q-11 -11 -31 -19.5t-46 -8.5q-40 0 -67 22.5t-27 63.5q0 29 18 60t66 62h64z" />
<glyph unicode="&#x173;" horiz-adv-x="604" d="M524 520v-520h-29q-20 -17 -34 -36t-14 -40q0 -18 11 -28t31 -10q17 0 33 7t26 18v-67q-11 -11 -31 -19.5t-46 -8.5q-40 0 -67 22.5t-27 63.5q0 25 13.5 51.5t46.5 52.5v79q-33 -47 -77 -72t-101 -25q-85 0 -133.5 51.5t-48.5 144.5v336h87v-316q0 -23 4.5 -47t17 -43.5 t35 -32t58.5 -12.5q34 0 63 11.5t50 33t33 51.5t12 66v289h87z" />
<glyph unicode="&#x174;" horiz-adv-x="992" d="M744 0h-99l-168 572l-168 -572h-99l-184 714h99l140 -574l170 574h87l170 -575l140 575h98zM520 902q26 -24 56 -47.5t65 -47.5l-32 -48l-123 73l-122 -73l-33 48q35 24 65 47.5t56 47.5h68z" />
<glyph unicode="&#x175;" horiz-adv-x="788" d="M616 0h-95l-126 408l-128 -408h-95l-144 520h93l105 -415l130 415h80l129 -415l106 415h89zM430 725q26 -24 56 -47.5t65 -47.5l-32 -48l-123 73l-122 -73l-33 48q35 24 65 47.5t56 47.5h68z" />
<glyph unicode="&#x176;" horiz-adv-x="614" d="M356 299v-299h-96v298l-254 416h109l195 -327l194 327h106zM342 902q26 -24 56 -47.5t65 -47.5l-32 -48l-123 73l-122 -73l-33 48q35 24 65 47.5t56 47.5h68z" />
<glyph unicode="&#x177;" horiz-adv-x="535" d="M312 -24q-15 -38 -31 -68t-37 -50.5t-48.5 -31t-63.5 -10.5q-27 0 -52 6t-44 19l30 70q11 -9 27 -14t33 -5q37 0 57.5 23t35.5 56l14 31l-220 518h100l166 -404l147 404h94zM302 725q26 -24 56 -47.5t65 -47.5l-32 -48l-123 73l-122 -73l-33 48q35 24 65 47.5t56 47.5h68 z" />
<glyph unicode="&#x178;" horiz-adv-x="614" d="M356 299v-299h-96v298l-254 416h109l195 -327l194 327h106zM165 808q0 20 14 34t33 14q20 0 34 -14t14 -34q0 -19 -14 -33t-34 -14q-19 0 -33 13.5t-14 33.5zM355 808q0 20 14 34t33 14q20 0 34 -14t14 -34q0 -19 -14 -33t-34 -14q-19 0 -33 13.5t-14 33.5z" />
<glyph unicode="&#x179;" horiz-adv-x="626" d="M41 0v81l411 546h-394v87h515v-79l-411 -548h420v-87h-541zM263 758l93 150l65 -32l-83 -118h-75z" />
<glyph unicode="&#x17a;" horiz-adv-x="508" d="M40 0v71l302 371h-289v78h404v-70l-304 -373h313v-77h-426zM213 590l93 150l65 -32l-83 -118h-75z" />
<glyph unicode="&#x17b;" horiz-adv-x="626" d="M41 0v81l411 546h-394v87h515v-79l-411 -548h420v-87h-541zM282 808q0 20 14 34t33 14q20 0 34 -14t14 -34q0 -19 -14 -33t-34 -14q-19 0 -33 13.5t-14 33.5z" />
<glyph unicode="&#x17c;" horiz-adv-x="508" d="M40 0v71l302 371h-289v78h404v-70l-304 -373h313v-77h-426zM203 640q0 20 14 34t33 14q20 0 34 -14t14 -34q0 -19 -14 -33t-34 -14q-19 0 -33 13.5t-14 33.5z" />
<glyph unicode="&#x17d;" horiz-adv-x="626" d="M41 0v81l411 546h-394v87h515v-79l-411 -548h420v-87h-541zM279 752q-26 24 -56 47.5t-65 47.5l32 48l123 -73l122 73l33 -48q-35 -24 -65 -47.5t-56 -47.5h-68z" />
<glyph unicode="&#x17e;" horiz-adv-x="508" d="M40 0v71l302 371h-289v78h404v-70l-304 -373h313v-77h-426zM212 584q-26 24 -56 47.5t-65 47.5l32 48l123 -73l122 73l33 -48q-35 -24 -65 -47.5t-56 -47.5h-68z" />
<glyph unicode="&#x192;" d="M513 590q-14 6 -25.5 9t-28.5 3q-49 0 -72.5 -22.5t-30.5 -64.5l-16 -99h130l-13 -70h-130l-50 -294q-6 -37 -20.5 -68t-37 -53t-54 -34.5t-73.5 -12.5q-26 0 -47.5 4.5t-38.5 12.5l28 71q13 -5 27 -8.5t31 -3.5q45 0 68 23t31 65l51 298h-101l12 70h102l16 95 q12 76 57.5 122t127.5 46q26 0 47 -4.5t37 -12.5z" />
<glyph unicode="&#x1fa;" horiz-adv-x="680" d="M385 989l63 -31l-72 -85h-70zM340 627l-127 -341h248zM291 764q0 -21 14.5 -35.5t35.5 -14.5q20 0 35 14.5t15 35.5t-15 35.5t-35 14.5q-21 0 -35.5 -14.5t-14.5 -35.5zM244 764q0 20 7.5 37.5t20.5 31t31 21t38 7.5t37.5 -7.5t30.5 -21t20.5 -31t7.5 -37.5 q0 -23 -9.5 -41.5t-25.5 -31.5l267 -691h-103l-75 205h-307l-76 -205h-96l267 691q-16 13 -25.5 31.5t-9.5 41.5z" />
<glyph unicode="&#x1fb;" horiz-adv-x="567" d="M390 280q-12 -12 -29.5 -19.5t-37.5 -12t-41.5 -7t-41.5 -5.5q-23 -3 -42.5 -8.5t-34 -15.5t-23 -25.5t-8.5 -38.5q0 -47 31.5 -67.5t76.5 -20.5q28 0 55 8t48 25t34 43.5t13 63.5v80zM228 -13q-42 0 -76 11t-58 31.5t-37.5 50t-13.5 67.5q0 45 18 73.5t45 45.5 t58.5 24.5t58.5 11.5q30 4 60 7t53.5 10.5t38.5 21t15 39.5q0 38 -33 56.5t-84 18.5q-92 0 -165 -55l-40 66q46 32 96 49t112 17q44 0 81 -9.5t63.5 -30.5t41.5 -53t15 -77v-246q0 -56 38 -56q18 0 29 8l11 -66q-9 -5 -27 -8t-32 -3q-36 0 -63.5 20t-33.5 59 q-26 -38 -68 -60.5t-103 -22.5zM373 659q0 -21 -8 -39.5t-22.5 -32.5t-34 -22t-41.5 -8q-23 0 -42 8t-33.5 22t-22.5 32.5t-8 39.5t8 39.5t22.5 33t33.5 22.5t42 8q22 0 41.5 -8t34 -22.5t22.5 -33t8 -39.5zM323 659q0 23 -16.5 40t-39.5 17t-40 -17t-17 -40q0 -24 17 -40.5 t40 -16.5t39.5 16.5t16.5 40.5zM219 785l93 150l65 -32l-83 -118h-75z" />
<glyph unicode="&#x1fc;" horiz-adv-x="894" d="M412 0v205h-249l-119 -205h-97l420 714h464v-84h-327v-213h286v-80h-286v-253h337v-84h-429zM412 635l-202 -349h202v349zM393 758l93 150l65 -32l-83 -118h-75z" />
<glyph unicode="&#x1fd;" horiz-adv-x="917" d="M385 290q-13 -17 -29 -25.5t-35 -13.5t-40.5 -8t-45.5 -7q-22 -4 -41.5 -9t-34.5 -14.5t-23.5 -25t-8.5 -39.5q0 -47 31.5 -67.5t76.5 -20.5q28 0 55 8t48 25t34 43.5t13 63.5v90zM856 79q-41 -43 -93 -67t-121 -24t-123.5 26.5t-88.5 80.5q-30 -52 -80 -79.5t-119 -27.5 q-43 0 -78.5 10.5t-61 30.5t-39.5 49.5t-14 68.5q0 45 17.5 73t44.5 45t58.5 25t59.5 12q31 4 61 7.5t53 11t37 21t14 37.5q0 22 -10.5 36.5t-27.5 23.5t-38 12.5t-41 3.5q-43 0 -85 -14t-78 -41l-40 66q44 31 94.5 48.5t109.5 17.5q57 0 105.5 -19.5t74.5 -69.5 q38 48 84 68.5t100 20.5q57 0 102.5 -20t78 -55t49.5 -82.5t17 -101.5q0 -12 -0.5 -20.5t-1.5 -13.5h-408q4 -81 51.5 -126t123.5 -45q47 0 85.5 17.5t68.5 50.5zM789 306q-7 75 -52 113t-108 38q-34 0 -62 -11t-49 -31.5t-33 -48t-15 -60.5h319zM390 590l93 150l65 -32 l-83 -118h-75z" />
<glyph unicode="&#x1fe;" horiz-adv-x="775" d="M338 758l93 150l65 -32l-83 -118h-75zM615 642q54 -51 83.5 -124t29.5 -161q0 -79 -24 -146.5t-68 -117t-107 -78t-141 -28.5q-52 0 -97 12.5t-83 35.5l-23 -35h-74l48 72q-54 51 -83 124t-29 161q0 79 24 147t68.5 117.5t107.5 77.5t141 28q51 0 95.5 -12t82.5 -35 l23 34h74zM630 357q0 64 -17.5 116.5t-50.5 89.5l-303 -452q53 -35 129 -35q56 0 101 20.5t76.5 57.5t48 89t16.5 114zM146 357q0 -130 66 -205l303 451q-55 35 -127 35q-57 0 -101.5 -20.5t-76 -57.5t-48 -89t-16.5 -114z" />
<glyph unicode="&#x1ff;" horiz-adv-x="601" d="M247 590l93 150l65 -32l-83 -118h-75zM483 459q35 -37 54 -88t19 -112q0 -59 -18 -108.5t-51 -85.5t-80.5 -56.5t-106.5 -20.5q-85 0 -145 40l-21 -28h-62l46 60q-35 37 -54 87.5t-19 111.5q0 59 17.5 109t50.5 86.5t80.5 57t106.5 20.5q42 0 79 -11t66 -31l23 30h61z M137 259q0 -75 35 -127l222 291q-39 30 -94 30q-39 0 -69.5 -15t-51 -41t-31.5 -61.5t-11 -76.5zM463 259q0 76 -35 128l-222 -292q38 -29 94 -29q39 0 69.5 15t51 41t31.5 61t11 76z" />
<glyph unicode="&#x218;" horiz-adv-x="625" d="M306 727q79 0 149 -31.5t115 -91.5l-68 -55q-34 48 -87 70.5t-113 22.5q-29 0 -55 -5.5t-45.5 -18.5t-31 -33t-11.5 -49q0 -31 13 -50.5t35 -32t51.5 -21t62.5 -16.5q52 -13 98.5 -28t82 -38.5t56.5 -59t21 -87.5q0 -48 -18.5 -88t-53 -68.5t-83.5 -44t-110 -15.5 q-97 0 -168 37.5t-113 100.5l71 58q38 -60 96.5 -86t120.5 -26q75 0 119 32.5t44 92.5q0 35 -15.5 56t-41 34.5t-60 22t-71.5 17.5q-42 10 -83 23.5t-74 36t-53.5 56.5t-20.5 85q0 47 18 84.5t50.5 63t76.5 39t96 13.5zM199 -173l66 117h88l-105 -144z" />
<glyph unicode="&#x219;" horiz-adv-x="510" d="M466 157q0 -37 -15 -68t-43 -53.5t-66.5 -35t-86.5 -12.5q-77 0 -133.5 30t-90.5 75l63 51q56 -81 165 -81q62 0 91.5 23t29.5 59q0 24 -12 38t-32 22t-46.5 13t-55.5 11q-34 7 -65.5 17.5t-56 28t-39 42.5t-14.5 61q0 34 13.5 62.5t38 48.5t59.5 31.5t78 11.5 q71 0 122 -28t85 -70l-61 -48q-18 26 -54 48.5t-96 22.5q-51 0 -76.5 -19t-25.5 -51q0 -19 8.5 -31.5t24.5 -21t38.5 -14t49.5 -11.5q40 -8 76.5 -18t64.5 -26.5t45 -42t17 -65.5zM167 -173l66 117h88l-105 -144z" />
<glyph unicode="&#x21a;" horiz-adv-x="625" d="M359 627v-627h-93v627h-240v87h573v-87h-240zM272 -200q-23 0 -44 3.5t-32 7.5v51q14 -9 34 -11.5t31 -2.5q29 0 45.5 9.5t16.5 30.5q0 11 -4.5 16t-11.5 10h-57l14 53q8 3 18.5 6t24.5 3q35 0 60.5 -21.5t25.5 -61.5q0 -45 -34 -69t-87 -24z" />
<glyph unicode="&#x21b;" horiz-adv-x="403" d="M387 24q-44 -36 -114 -36q-41 0 -74.5 15t-56.5 51q-12 19 -17 42.5t-5 60.5v289h-96v64q27 3 47.5 9t35 21.5t22 44t9.5 75.5h69v-140h164v-74h-164v-290q0 -90 77 -90q23 0 41.5 6.5t32.5 17.5zM198 -200q-23 0 -44 3.5t-32 7.5v51q14 -9 34 -11.5t31 -2.5 q29 0 45.5 9.5t16.5 30.5q0 11 -4.5 16t-11.5 10h-57l14 53q8 3 18.5 6t24.5 3q35 0 60.5 -21.5t25.5 -61.5q0 -45 -34 -69t-87 -24z" />
<glyph unicode="&#x237;" horiz-adv-x="255" d="M177 -7q0 -89 -45 -132.5t-115 -43.5q-20 0 -41 4t-35 12l16 74q10 -5 23 -10t32 -5q42 0 60 26t18 71v531h87v-527z" />
<glyph unicode="&#x259;" horiz-adv-x="581" d="M129 214q2 -39 15.5 -67t35 -47t49 -28t57.5 -9q34 0 62 11t48.5 31.5t32.5 48t15 60.5h-315zM539 262q0 -58 -17.5 -108t-50 -87t-79.5 -58t-107 -21q-57 0 -102.5 19.5t-77.5 53.5t-49 80t-17 99q0 13 1 23t2 18h404q-1 41 -14 72.5t-36 53.5t-55 33t-69 11 q-48 0 -89 -19t-67 -55l-64 50q16 21 37.5 40t49 33.5t61.5 23t76 8.5q63 0 112 -20.5t82.5 -56.5t51 -85.5t17.5 -107.5z" />
<glyph unicode="&#x2c6;" horiz-adv-x="324" d="M199 725q26 -24 56 -47.5t65 -47.5l-32 -48l-123 73l-122 -73l-33 48q35 24 65 47.5t56 47.5h68z" />
<glyph unicode="&#x2c7;" horiz-adv-x="324" d="M131 584q-26 24 -56 47.5t-65 47.5l32 48l123 -73l122 73l33 -48q-35 -24 -65 -47.5t-56 -47.5h-68z" />
<glyph unicode="&#x2d8;" horiz-adv-x="324" d="M165 591q-67 0 -108 33.5t-49 83.5l61 15q8 -29 32 -48.5t64 -19.5t64 19.5t32 48.5l60 -15q-4 -25 -16.5 -46.5t-32.5 -37t-47 -24.5t-60 -9z" />
<glyph unicode="&#x2d9;" horiz-adv-x="320" d="M112 640q0 20 14 34t33 14q20 0 34 -14t14 -34q0 -19 -14 -33t-34 -14q-19 0 -33 13.5t-14 33.5z" />
<glyph unicode="&#x2da;" horiz-adv-x="320" d="M269 679q0 -21 -8 -39.5t-22.5 -32.5t-34 -22t-41.5 -8q-23 0 -42 8t-33.5 22t-22.5 32.5t-8 39.5t8 39.5t22.5 33t33.5 22.5t42 8q22 0 41.5 -8t34 -22.5t22.5 -33t8 -39.5zM219 679q0 23 -16.5 40t-39.5 17t-40 -17t-17 -40q0 -24 17 -40.5t40 -16.5t39.5 16.5 t16.5 40.5z" />
<glyph unicode="&#x2db;" horiz-adv-x="320" d="M228 24q-14 -11 -28 -22.5t-25 -24t-18 -26t-7 -27.5q0 -18 11 -28t31 -10q17 0 33 7t26 18v-67q-11 -11 -31 -19.5t-46 -8.5q-40 0 -67 22.5t-27 63.5q0 29 18 60t66 62h64z" />
<glyph unicode="&#x2dc;" horiz-adv-x="332" d="M328 679q-14 -35 -40.5 -59t-61.5 -24q-20 0 -37 7t-32.5 15t-29.5 15t-27 7q-18 0 -29 -13.5t-19 -30.5l-50 24q15 36 41 59.5t59 23.5q19 0 35.5 -7t32 -15t29.5 -15t28 -7q18 0 31 12.5t20 31.5z" />
<glyph unicode="&#x2dd;" horiz-adv-x="352" d="M47 590l93 150l65 -32l-83 -118h-75zM203 590l93 150l65 -32l-83 -118h-75z" />
<glyph unicode="&#x3bc;" d="M76 -174v694h87v-311q0 -68 28 -105t87 -37q30 0 57 10.5t47 31t31.5 51t11.5 70.5v290h87v-520h-82v73q-31 -45 -71.5 -65t-82.5 -20q-40 0 -69.5 16t-43.5 39v-217h-87z" />
<glyph unicode="&#x3c0;" horiz-adv-x="597" d="M493 452v-452h-69v452h-251v-452h-69v452h-70v68h529v-68h-70z" />
<glyph unicode="&#x1e80;" horiz-adv-x="992" d="M744 0h-99l-168 572l-168 -572h-99l-184 714h99l140 -574l170 574h87l170 -575l140 575h98zM445 758l-83 118l65 32l93 -150h-75z" />
<glyph unicode="&#x1e81;" horiz-adv-x="788" d="M616 0h-95l-126 408l-128 -408h-95l-144 520h93l105 -415l130 415h80l129 -415l106 415h89zM365 590l-83 118l65 32l93 -150h-75z" />
<glyph unicode="&#x1e82;" horiz-adv-x="992" d="M744 0h-99l-168 572l-168 -572h-99l-184 714h99l140 -574l170 574h87l170 -575l140 575h98zM461 758l93 150l65 -32l-83 -118h-75z" />
<glyph unicode="&#x1e83;" horiz-adv-x="788" d="M616 0h-95l-126 408l-128 -408h-95l-144 520h93l105 -415l130 415h80l129 -415l106 415h89zM350 590l93 150l65 -32l-83 -118h-75z" />
<glyph unicode="&#x1e84;" horiz-adv-x="992" d="M744 0h-99l-168 572l-168 -572h-99l-184 714h99l140 -574l170 574h87l170 -575l140 575h98zM350 808q0 20 14 34t33 14q20 0 34 -14t14 -34q0 -19 -14 -33t-34 -14q-19 0 -33 13.5t-14 33.5zM540 808q0 20 14 34t33 14q20 0 34 -14t14 -34q0 -19 -14 -33t-34 -14 q-19 0 -33 13.5t-14 33.5z" />
<glyph unicode="&#x1e85;" horiz-adv-x="788" d="M616 0h-95l-126 408l-128 -408h-95l-144 520h93l105 -415l130 415h80l129 -415l106 415h89zM253 640q0 20 14 34t33 14q20 0 34 -14t14 -34q0 -19 -14 -33t-34 -14q-19 0 -33 13.5t-14 33.5zM443 640q0 20 14 34t33 14q20 0 34 -14t14 -34q0 -19 -14 -33t-34 -14 q-19 0 -33 13.5t-14 33.5z" />
<glyph unicode="&#x1ef2;" horiz-adv-x="614" d="M356 299v-299h-96v298l-254 416h109l195 -327l194 327h106zM290 758l-83 118l65 32l93 -150h-75z" />
<glyph unicode="&#x1ef3;" horiz-adv-x="535" d="M312 -24q-15 -38 -31 -68t-37 -50.5t-48.5 -31t-63.5 -10.5q-27 0 -52 6t-44 19l30 70q11 -9 27 -14t33 -5q37 0 57.5 23t35.5 56l14 31l-220 518h100l166 -404l147 404h94zM246 590l-83 118l65 32l93 -150h-75z" />
<glyph unicode="&#x2000;" horiz-adv-x="494" />
<glyph unicode="&#x2001;" horiz-adv-x="989" />
<glyph unicode="&#x2002;" horiz-adv-x="494" />
<glyph unicode="&#x2003;" horiz-adv-x="989" />
<glyph unicode="&#x2004;" horiz-adv-x="329" />
<glyph unicode="&#x2005;" horiz-adv-x="247" />
<glyph unicode="&#x2006;" horiz-adv-x="164" />
<glyph unicode="&#x2007;" horiz-adv-x="164" />
<glyph unicode="&#x2008;" horiz-adv-x="123" />
<glyph unicode="&#x2009;" horiz-adv-x="197" />
<glyph unicode="&#x200a;" horiz-adv-x="54" />
<glyph unicode="&#x2010;" horiz-adv-x="382" d="M62 266v76h258v-76h-258z" />
<glyph unicode="&#x2011;" horiz-adv-x="382" d="M62 266v76h258v-76h-258z" />
<glyph unicode="&#x2012;" horiz-adv-x="382" d="M62 266v76h258v-76h-258z" />
<glyph unicode="&#x2013;" d="M62 266v76h476v-76h-476z" />
<glyph unicode="&#x2014;" horiz-adv-x="982" d="M62 266v76h858v-76h-858z" />
<glyph unicode="&#x2018;" horiz-adv-x="224" d="M111 611q26 0 45 -17t19 -43q0 -22 -15 -42t-45 -20q-29 0 -47.5 21.5t-18.5 63.5q0 45 27.5 84.5t72.5 66.5l26 -42q-27 -14 -45.5 -35t-18.5 -37z" />
<glyph unicode="&#x2019;" horiz-adv-x="214" d="M113 601q-26 0 -45 17t-19 43q0 22 15 42t45 20q29 0 47.5 -21.5t18.5 -63.5q0 -45 -27.5 -84.5t-72.5 -66.5l-26 42q27 14 45.5 35t18.5 37z" />
<glyph unicode="&#x201a;" horiz-adv-x="246" d="M123 -11q-26 0 -45 17t-19 43q0 22 15 42t45 20q29 0 47.5 -21.5t18.5 -63.5q0 -45 -27.5 -84.5t-72.5 -66.5l-26 42q27 14 45.5 35t18.5 37z" />
<glyph unicode="&#x201c;" horiz-adv-x="388" d="M274 611q26 0 45 -17t19 -43q0 -22 -15 -42t-45 -20q-29 0 -47.5 21.5t-18.5 63.5q0 45 27.5 84.5t72.5 66.5l26 -42q-27 -14 -45.5 -35t-18.5 -37zM111 611q26 0 45 -17t19 -43q0 -22 -15 -42t-45 -20q-29 0 -47.5 21.5t-18.5 63.5q0 45 27.5 84.5t72.5 66.5l26 -42 q-27 -14 -45.5 -35t-18.5 -37z" />
<glyph unicode="&#x201d;" horiz-adv-x="376" d="M113 601q-26 0 -45 17t-19 43q0 22 15 42t45 20q29 0 47.5 -21.5t18.5 -63.5q0 -45 -27.5 -84.5t-72.5 -66.5l-26 42q27 14 45.5 35t18.5 37zM276 601q-26 0 -45 17t-19 43q0 22 15 42t45 20q29 0 47.5 -21.5t18.5 -63.5q0 -45 -27.5 -84.5t-72.5 -66.5l-26 42 q27 14 45.5 35t18.5 37z" />
<glyph unicode="&#x201e;" horiz-adv-x="409" d="M123 -11q-26 0 -45 17t-19 43q0 22 15 42t45 20q29 0 47.5 -21.5t18.5 -63.5q0 -45 -27.5 -84.5t-72.5 -66.5l-26 42q27 14 45.5 35t18.5 37zM286 -11q-26 0 -45 17t-19 43q0 22 15 42t45 20q29 0 47.5 -21.5t18.5 -63.5q0 -45 -27.5 -84.5t-72.5 -66.5l-26 42 q27 14 45.5 35t18.5 37z" />
<glyph unicode="&#x2020;" horiz-adv-x="488" d="M286 444v-444h-84v444h-167v76h167v194h84v-194h167v-76h-167z" />
<glyph unicode="&#x2021;" horiz-adv-x="511" d="M297 194v-194h-84v194h-166v75h166v176h-166v75h166v194h84v-194h167v-75h-167v-176h167v-75h-167z" />
<glyph unicode="&#x2022;" horiz-adv-x="368" d="M318 333q0 -28 -10.5 -52.5t-29 -42.5t-43 -28.5t-51.5 -10.5q-28 0 -52.5 10.5t-42.5 28.5t-28.5 42.5t-10.5 52.5t10.5 52.5t28.5 42.5t42.5 28.5t52.5 10.5q27 0 51.5 -10.5t43 -28.5t29 -42.5t10.5 -52.5z" />
<glyph unicode="&#x2025;" horiz-adv-x="502" d="M62 53q0 26 18.5 44.5t44.5 18.5t44.5 -18.5t18.5 -44.5t-18.5 -44.5t-44.5 -18.5t-44.5 18.5t-18.5 44.5zM313 53q0 26 18.5 44.5t44.5 18.5t44.5 -18.5t18.5 -44.5t-18.5 -44.5t-44.5 -18.5t-44.5 18.5t-18.5 44.5z" />
<glyph unicode="&#x2026;" horiz-adv-x="753" d="M62 53q0 26 18.5 44.5t44.5 18.5t44.5 -18.5t18.5 -44.5t-18.5 -44.5t-44.5 -18.5t-44.5 18.5t-18.5 44.5zM313 53q0 26 18.5 44.5t44.5 18.5t44.5 -18.5t18.5 -44.5t-18.5 -44.5t-44.5 -18.5t-44.5 18.5t-18.5 44.5zM564 53q0 26 18.5 44.5t44.5 18.5t44.5 -18.5 t18.5 -44.5t-18.5 -44.5t-44.5 -18.5t-44.5 18.5t-18.5 44.5z" />
<glyph unicode="&#x202f;" horiz-adv-x="197" />
<glyph unicode="&#x2030;" horiz-adv-x="1103" d="M1062 137q0 -31 -12 -58t-32.5 -47.5t-47.5 -32.5t-58 -12t-58.5 12t-48 32.5t-32.5 47.5t-12 58t12 58.5t32.5 48t48 32.5t58.5 12t58 -12t47.5 -32.5t32.5 -48t12 -58.5zM996 137q0 18 -6.5 33.5t-18 27t-27 18t-32.5 6.5q-35 0 -60 -25t-25 -60q0 -17 6.5 -32.5 t18 -27t27 -18t33.5 -6.5q35 0 59.5 24.5t24.5 59.5zM347 576q0 -31 -12 -58t-32.5 -47.5t-47.5 -32.5t-58 -12t-58.5 12t-48 32.5t-32.5 47.5t-12 58t12 58.5t32.5 48t48 32.5t58.5 12t58 -12t47.5 -32.5t32.5 -48t12 -58.5zM281 576q0 18 -6.5 33.5t-18 27t-27 18 t-32.5 6.5q-35 0 -60 -25t-25 -60q0 -17 6.5 -32.5t18 -27t27 -18t33.5 -6.5q35 0 59.5 24.5t24.5 59.5zM181 0h-74l478 714h74zM708 137q0 -31 -12 -58t-32.5 -47.5t-47.5 -32.5t-58 -12t-58.5 12t-48 32.5t-32.5 47.5t-12 58t12 58.5t32.5 48t48 32.5t58.5 12t58 -12 t47.5 -32.5t32.5 -48t12 -58.5zM642 137q0 18 -6.5 33.5t-18 27t-27 18t-32.5 6.5q-35 0 -60 -25t-25 -60q0 -17 6.5 -32.5t18 -27t27 -18t33.5 -6.5q35 0 59.5 24.5t24.5 59.5z" />
<glyph unicode="&#x2039;" horiz-adv-x="283" d="M32 301l150 206l53 -42l-129 -178l129 -179l-53 -40l-150 204v29z" />
<glyph unicode="&#x203a;" horiz-adv-x="283" d="M250 272l-149 -204l-53 40l129 179l-129 178l53 42l149 -206v-29z" />
<glyph unicode="&#x2044;" horiz-adv-x="200" d="M-102 0h-74l478 714h74z" />
<glyph unicode="&#x205f;" horiz-adv-x="247" />
<glyph unicode="&#x2070;" horiz-adv-x="404" d="M362 589q0 -46 -9 -86t-28.5 -70t-50 -47t-73.5 -17q-42 0 -72.5 17t-49.5 47t-28 70t-9 86t9 86t28 69.5t49.5 46.5t72.5 17q43 0 73.5 -17t50 -46.5t28.5 -69.5t9 -86zM292 589q0 71 -20.5 114.5t-70.5 43.5q-49 0 -69 -43t-20 -115q0 -71 20 -115t69 -44q50 0 70.5 44 t20.5 115z" />
<glyph unicode="&#x2074;" horiz-adv-x="388" d="M300 474v-97h-67v97h-209v57q22 22 52.5 58.5t60.5 76t54.5 76t36.5 58.5h72v-264h66v-62h-66zM233 536v176q-26 -43 -61 -87t-73 -89h134z" />
<glyph unicode="&#x2075;" horiz-adv-x="382" d="M349 519q0 -28 -10.5 -55t-31 -48t-51.5 -34t-73 -13q-53 0 -91.5 19.5t-64.5 47.5l47 47q20 -26 47.5 -38t56.5 -12q19 0 37 5t31.5 15t22 25.5t8.5 36.5q0 38 -26.5 58.5t-66.5 20.5q-26 0 -49.5 -9.5t-41.5 -30.5l-40 19l13 227h259v-64h-200q-2 -27 -4.5 -53 t-5.5 -54q21 14 44.5 19t44.5 5q31 0 58 -10t46 -28t30 -42.5t11 -53.5z" />
<glyph unicode="&#x2076;" horiz-adv-x="387" d="M108 515q0 -37 24 -59.5t68 -22.5q45 0 68.5 22.5t23.5 60.5t-23.5 61t-68.5 23q-44 0 -68 -23.5t-24 -61.5zM273 800q-49 -37 -89 -82.5t-60 -93.5q20 19 47.5 26.5t46.5 7.5q31 0 57.5 -10t46 -28.5t30.5 -44.5t11 -58t-12 -59.5t-33 -47t-51 -30.5t-66 -11 q-75 0 -119.5 42.5t-44.5 120.5q0 41 11 78.5t29.5 70.5t43.5 63t54 56h98z" />
<glyph unicode="&#x2077;" horiz-adv-x="348" d="M339 745q-24 -29 -54 -71.5t-57.5 -91.5t-47.5 -102t-22 -103h-75q3 51 22 102.5t45 98.5t54 87.5t50 70.5h-239v64h324v-55z" />
<glyph unicode="&#x2078;" horiz-adv-x="402" d="M364 494q0 -30 -12.5 -53.5t-34 -39.5t-51.5 -24t-65 -8q-36 0 -65.5 8t-51.5 24t-34 39.5t-12 53.5q0 36 17.5 64t54.5 45q-29 14 -42.5 37t-13.5 55q0 54 41 83.5t106 29.5q66 0 106.5 -29.5t40.5 -83.5q0 -31 -16 -54t-42 -38q35 -17 54.5 -45.5t19.5 -63.5zM279 691 q0 30 -24 43t-54 13q-31 0 -54 -13t-23 -43q0 -32 23 -47t53 -15q31 0 55 15t24 47zM293 499q0 38 -27.5 55.5t-64.5 17.5q-38 0 -65.5 -17t-27.5 -55q0 -19 7.5 -32t20 -21.5t29.5 -12.5t36 -4q18 0 35 3.5t29.5 12t20 21.5t7.5 32z" />
<glyph unicode="&#x2079;" horiz-adv-x="387" d="M280 661q0 37 -24.5 60t-69.5 23t-68 -23t-23 -61t23 -60.5t68 -22.5t69.5 23t24.5 61zM115 377q48 36 89 81.5t59 92.5q-20 -18 -47 -25t-46 -7q-32 0 -58.5 10t-46 28t-30.5 44t-11 58q0 33 12 60t33 47t51 31t66 11q75 0 119.5 -42.5t44.5 -120.5q0 -41 -10.5 -78 t-29.5 -70.5t-44 -63t-53 -56.5h-98z" />
<glyph unicode="&#x2080;" horiz-adv-x="404" d="M362 126q0 -45 -9 -85t-28.5 -70t-50 -47.5t-73.5 -17.5q-42 0 -72.5 17t-49.5 47t-28 70t-9 86t9 86t28 69.5t49.5 46.5t72.5 17q43 0 73.5 -17t50 -47t28.5 -70t9 -85zM292 126q0 35 -5 64t-15.5 50t-28 32.5t-42.5 11.5q-49 0 -69 -43t-20 -115t20 -115.5t69 -43.5 q50 0 70.5 44t20.5 115z" />
<glyph unicode="&#x2081;" horiz-adv-x="367" d="M249 -86h-69v341q-18 -8 -48 -15t-60 -11l-10 54q48 9 81 21.5t54 32.5h52v-423z" />
<glyph unicode="&#x2082;" horiz-adv-x="384" d="M40 -86v54q52 39 93 71t69.5 59.5t44 54t15.5 55.5q0 36 -22.5 54t-56.5 18q-36 0 -63 -17t-42 -41l-51 37q26 35 63.5 60.5t94.5 25.5q34 0 61.5 -10t47 -28t30.5 -43t11 -55q0 -29 -10.5 -54.5t-33 -52.5t-57.5 -57t-85 -67h202v-64h-311z" />
<glyph unicode="&#x2083;" horiz-adv-x="390" d="M351 36q0 -29 -11.5 -53t-32.5 -41t-50.5 -26.5t-65.5 -9.5q-57 0 -98.5 21.5t-65.5 52.5l49 43q17 -23 45.5 -37.5t68.5 -14.5q46 0 67.5 19t21.5 48q0 28 -19.5 43.5t-54.5 15.5h-55v63h52q10 0 22 3t22 10t16.5 18t6.5 27q0 31 -23.5 46.5t-58.5 15.5q-33 0 -59.5 -13 t-43.5 -33l-47 44q31 33 68 50t84 17q67 0 108 -32.5t41 -86.5q0 -28 -12 -51t-39 -39q37 -14 50.5 -43t13.5 -57z" />
<glyph unicode="&#x2084;" horiz-adv-x="388" d="M300 11v-97h-67v97h-209v57q22 22 52.5 58.5t60.5 76t54.5 76t36.5 58.5h72v-264h66v-62h-66zM233 73v176q-26 -43 -61 -87t-73 -89h134z" />
<glyph unicode="&#x2085;" horiz-adv-x="382" d="M349 56q0 -28 -10.5 -55t-31 -48t-51.5 -34t-73 -13q-53 0 -91.5 19.5t-64.5 47.5l47 47q20 -26 47.5 -38t56.5 -12q19 0 37 5t31.5 15t22 25.5t8.5 36.5q0 38 -26.5 58.5t-66.5 20.5q-26 0 -49.5 -9.5t-41.5 -30.5l-40 19l13 227h259v-64h-200q-2 -27 -4.5 -53t-5.5 -54 q21 14 44.5 19t44.5 5q31 0 58 -10t46 -28t30 -42.5t11 -53.5z" />
<glyph unicode="&#x2086;" horiz-adv-x="387" d="M108 52q0 -37 24 -59.5t68 -22.5q45 0 68.5 22.5t23.5 60.5t-23.5 61t-68.5 23q-44 0 -68 -23.5t-24 -61.5zM273 337q-49 -37 -89 -82.5t-60 -93.5q20 19 47.5 26.5t46.5 7.5q31 0 57.5 -10t46 -28.5t30.5 -44.5t11 -58t-12 -59.5t-33 -47t-51 -30.5t-66 -11 q-75 0 -119.5 42.5t-44.5 120.5q0 41 11 78.5t29.5 70.5t43.5 63t54 56h98z" />
<glyph unicode="&#x2087;" horiz-adv-x="348" d="M339 282q-24 -29 -54 -71.5t-57.5 -91.5t-47.5 -102t-22 -103h-75q3 51 22 102.5t45 98.5t54 87.5t50 70.5h-239v64h324v-55z" />
<glyph unicode="&#x2088;" horiz-adv-x="402" d="M364 31q0 -30 -12.5 -53.5t-34 -39.5t-51.5 -24t-65 -8q-36 0 -65.5 8t-51.5 24t-34 39.5t-12 53.5q0 36 17.5 64t54.5 45q-29 14 -42.5 37t-13.5 55q0 54 41 83.5t106 29.5q66 0 106.5 -29.5t40.5 -83.5q0 -31 -16 -54t-42 -38q35 -17 54.5 -45.5t19.5 -63.5zM279 228 q0 30 -24 43t-54 13q-31 0 -54 -13t-23 -43q0 -32 23 -47t53 -15q31 0 55 15t24 47zM293 36q0 38 -27.5 55.5t-64.5 17.5q-38 0 -65.5 -17t-27.5 -55q0 -19 7.5 -32t20 -21.5t29.5 -12.5t36 -4q18 0 35 3.5t29.5 12t20 21.5t7.5 32z" />
<glyph unicode="&#x2089;" horiz-adv-x="387" d="M280 198q0 37 -24.5 60t-69.5 23t-68 -23t-23 -61t23 -60.5t68 -22.5t69.5 23t24.5 61zM115 -86q48 36 89 81.5t59 92.5q-20 -18 -47 -25t-46 -7q-32 0 -58.5 10t-46 28t-30.5 44t-11 58q0 33 12 60t33 47t51 31t66 11q75 0 119.5 -42.5t44.5 -120.5q0 -41 -10.5 -78 t-29.5 -70.5t-44 -63t-53 -56.5h-98z" />
<glyph unicode="&#x20ac;" d="M374 -12q-57 0 -106.5 19.5t-88 56t-65 88t-38.5 115.5h-72v52h65q-1 6 -1 16.5v19.5v21.5t2 19.5h-66v52h73q12 60 38 110.5t65.5 87.5t92 58t117.5 21q64 0 113 -18.5t80 -42.5l-39 -75q-62 50 -149 50q-88 0 -143.5 -50.5t-76.5 -140.5h297l-26 -52h-280 q-2 -10 -2 -19.5v-19.5v-21t1 -17h242l-26 -52h-208q17 -93 71 -143.5t136 -50.5q48 0 89 17t69 46l44 -70q-16 -17 -38.5 -31t-49.5 -24.5t-57.5 -16.5t-62.5 -6z" />
<glyph unicode="&#x2113;" horiz-adv-x="481" d="M442 72q-10 -14 -23.5 -29t-33 -27t-44.5 -20t-58 -8q-75 0 -113.5 43t-38.5 123v68q-20 -14 -37 -23t-31 -14l-30 70q20 8 45 22.5t53 32.5v248q0 30 8 60t25 54t45 39t68 15q36 0 62 -12t42.5 -32.5t24 -47.5t7.5 -56q0 -44 -15.5 -85.5t-43 -80.5t-64 -74t-78.5 -66 v-116q0 -45 20 -69t58 -24q37 0 60.5 19.5t34.5 37.5zM212 367q24 22 46 46.5t39.5 51t27.5 55t10 57.5q0 32 -14 54t-46 22q-18 0 -30.5 -8t-19.5 -20.5t-10 -29t-3 -33.5v-195z" />
<glyph unicode="&#x2117;" horiz-adv-x="831" d="M350 306v-152h-67v404h173q63 0 100.5 -34.5t37.5 -90.5q0 -26 -9 -49t-26 -40.5t-43 -27.5t-60 -10h-106zM526 432q0 39 -25 54.5t-72 15.5h-79v-141h79q48 0 72.5 15.5t24.5 55.5zM39 357q0 78 29.5 146.5t80.5 119.5t119.5 80.5t146.5 29.5t146.5 -29.5t119.5 -80.5 t80.5 -119.5t29.5 -146.5t-29.5 -146.5t-80.5 -119.5t-119.5 -80.5t-146.5 -29.5t-146.5 29.5t-119.5 80.5t-80.5 119.5t-29.5 146.5zM90 357q0 -68 25.5 -127t70 -103.5t103.5 -70t126 -25.5t126.5 25.5t104 70t70 103.5t25.5 127q0 67 -25.5 126t-70 103.5t-104 70 t-126.5 25.5t-126 -25.5t-103.5 -70t-70 -103.5t-25.5 -126z" />
<glyph unicode="&#x2122;" horiz-adv-x="658" d="M548 446v211l-72 -211h-52l-72 211v-211h-48v268h75l72 -216l73 216h73v-268h-49zM184 666v-220h-51v220h-89v48h231v-48h-91z" />
<glyph unicode="&#x2126;" horiz-adv-x="606" d="M303 727q59 0 107.5 -22.5t83 -62.5t53.5 -95.5t19 -122.5q0 -62 -15.5 -113.5t-38 -95t-49.5 -80t-49 -68.5h143v-67h-207l-17 63q38 52 68.5 96.5t52 87t33 85.5t11.5 93q0 52 -13.5 95.5t-39 75t-61.5 49t-81 17.5t-81 -17.5t-61.5 -49t-39 -75t-13.5 -95.5 q0 -50 11.5 -93t33 -85.5t52 -87t68.5 -96.5l-18 -63h-206v67h143q-24 34 -50.5 70.5t-49.5 80t-38 95t-15 114.5q0 65 19 120t54 95t83.5 62.5t107.5 22.5z" />
<glyph unicode="&#x212e;" horiz-adv-x="622" d="M161 273v-187q31 -30 68 -45.5t82 -15.5q65 0 113 29t86 95l36 -22q-24 -37 -48.5 -63t-52.5 -43t-61 -25t-73 -8q-61 0 -110 22t-83.5 60.5t-53.5 90.5t-19 112t19 112t53.5 90.5t83.5 60.5t110 22q60 0 109 -21t84 -59t54.5 -90t19.5 -115h-417zM462 310v150 q-67 62 -152 62q-45 0 -81.5 -16t-67.5 -46v-150h301z" />
<glyph unicode="&#x2202;" horiz-adv-x="592" d="M93 680q27 20 68 33.5t92 13.5q57 0 109.5 -21t92 -65t63 -111t23.5 -159q0 -61 -12.5 -128.5t-43.5 -124.5t-83 -94t-131 -37q-51 0 -93 17t-72 47.5t-46 73t-16 93.5q0 55 18.5 101t50.5 79t75 51t92 18q66 0 116.5 -30.5t73.5 -74.5q0 61 -12 114.5t-37.5 94t-66.5 64 t-99 23.5q-33 0 -65.5 -9t-63.5 -31zM270 58q40 0 72.5 14.5t55 39.5t34.5 58t12 70q0 72 -42 114t-113 42q-43 0 -74.5 -15.5t-52 -41t-30.5 -58.5t-10 -67q0 -75 40.5 -115.5t107.5 -40.5z" />
<glyph unicode="&#x2206;" horiz-adv-x="605" d="M573 0h-541v14l265 748h12l264 -748v-14zM126 68h353l-176 518z" />
<glyph unicode="&#x220f;" horiz-adv-x="603" d="M495 645v-645h-68v645h-251v-645h-69v645h-70v69h528v-69h-70z" />
<glyph unicode="&#x2211;" horiz-adv-x="597" d="M532 0h-479v24l303 333l-303 333v24h479v-69h-342l260 -288l-260 -289h342v-68z" />
<glyph unicode="&#x2212;" d="M62 266v76h476v-76h-476z" />
<glyph unicode="&#x221a;" horiz-adv-x="598" d="M600 724l-380 -778h-12l-189 383l61 30l133 -271l326 666z" />
<glyph unicode="&#x221e;" horiz-adv-x="794" d="M743 275q0 -34 -12.5 -63.5t-34.5 -51.5t-52 -35t-66 -13q-28 0 -56 10t-54 36l-71 71l-71 -71q-26 -26 -53.5 -36t-56.5 -10q-36 0 -66 13t-52.5 35t-35 51.5t-12.5 63.5t12.5 63.5t35 51.5t52.5 35t66 13q29 0 56.5 -10t53.5 -36l71 -71l71 71q26 26 54 36t56 10 q36 0 66 -13t52 -35t34.5 -51.5t12.5 -63.5zM677 275q0 20 -7.5 37.5t-20.5 30.5t-30.5 20.5t-36.5 7.5q-22 0 -40.5 -9t-35 -23t-32 -31t-31.5 -33l68 -67q14 -14 29.5 -21.5t37.5 -7.5q43 0 71 28t28 68zM283 342q-16 16 -32.5 22.5t-34.5 6.5q-43 0 -71 -28t-28 -68 q0 -20 7.5 -37.5t20.5 -30.5t30 -20.5t37 -7.5q22 0 40.5 9t35 23t32 31t31.5 33z" />
<glyph unicode="&#x222b;" horiz-adv-x="307" d="M244 690q-19 22 -42 22q-40 0 -40 -60q0 -17 2.5 -49.5t6.5 -73.5t8.5 -87.5t9.5 -91.5q5 -50 9.5 -96.5t8 -86.5t5.5 -70.5t2 -48.5q0 -62 -27.5 -93.5t-75.5 -31.5q-32 0 -53 11.5t-37 27.5l42 44q19 -22 42 -22q40 0 40 60q0 17 -2.5 49.5t-6.5 73.5t-9 87.5t-9 91.5 q-5 49 -9.5 96t-8 87t-5.5 70.5t-2 48.5q0 62 27.5 93.5t76.5 31.5q31 0 52.5 -11.5t36.5 -27.5z" />
<glyph unicode="&#x2248;" horiz-adv-x="576" d="M35 190q10 15 24 30.5t31.5 29t38 22t44.5 8.5q28 0 53.5 -9t63.5 -25q36 -16 61.5 -25t51.5 -9q32 0 58 14t48 36l32 -31q-11 -15 -24.5 -30.5t-30.5 -29t-38 -22t-45 -8.5q-28 0 -53.5 9t-63.5 25q-36 16 -61.5 24.5t-51.5 8.5q-32 0 -58 -14.5t-48 -35.5zM35 380 q10 14 24 29.5t31.5 28.5t38 21.5t44.5 8.5q28 0 53.5 -9t63.5 -25q36 -15 61.5 -24t51.5 -9q32 0 58 14t48 36l32 -32q-11 -15 -24.5 -30.5t-30.5 -29t-38 -22t-45 -8.5q-28 0 -53.5 9t-63.5 26q-36 15 -61.5 24t-51.5 9q-32 0 -58 -14.5t-48 -35.5z" />
<glyph unicode="&#x2260;" horiz-adv-x="576" d="M278 161l-57 -171h-58l57 171h-198v70h220l31 91h-251v71h275l57 171h58l-56 -171h197v-71h-221l-31 -91h252v-70h-275z" />
<glyph unicode="&#x2264;" d="M62 0v73h476v-73h-476zM476 632l38 -64l-311 -190l311 -190l-38 -64l-406 254z" />
<glyph unicode="&#x2265;" d="M61 0v73h476v-73h-476zM530 378l-407 -254l-38 64l311 190l-311 190l38 64z" />
<glyph unicode="&#x25ca;" horiz-adv-x="610" d="M306 -48h-12l-254 405l254 405h12l254 -405zM300 648l-179 -291l179 -292l179 292z" />
<glyph unicode="&#x25fc;" horiz-adv-x="520" d="M0 520h520v-520h-520v520z" />
<glyph unicode="&#xf6c3;" horiz-adv-x="228" d="M16 -173l66 117h88l-105 -144z" />
<glyph d="M550 357q0 -69 -12 -135.5t-41 -118.5t-77 -84t-120 -32t-120.5 32t-77 84t-40.5 118.5t-12 135.5t12 135.5t40.5 118.5t77 84t120.5 32t120 -32t77 -84t41 -118.5t12 -135.5zM453 357q0 59 -8 111.5t-26 91.5t-47 62t-72 23q-44 0 -73 -23t-47 -62t-25.5 -91.5 t-7.5 -111.5t7.5 -111.5t25.5 -92t47 -62.5t73 -23q43 0 72 23t47 62.5t26 92t8 111.5z" />
<glyph d="M410 0h-95v602q-13 -8 -33.5 -17.5t-46 -18t-53 -16t-54.5 -11.5l-16 73q78 17 134 42t89 60h75v-714z" />
<glyph d="M64 0v73q103 84 173 147t113 113t61.5 91t18.5 80q0 33 -12 58.5t-31.5 42.5t-45.5 25.5t-54 8.5q-51 0 -92 -24.5t-66 -65.5l-74 48q40 61 100 95.5t139 34.5q51 0 94 -14.5t74.5 -42.5t49.5 -68.5t18 -91.5q0 -50 -18.5 -96.5t-58 -96t-101 -105.5t-148.5 -125h335v-87 h-475z" />
<glyph d="M291 727q55 0 97.5 -15t71.5 -40.5t44.5 -60t15.5 -74.5q0 -50 -25.5 -89.5t-83.5 -64.5q66 -21 100 -68.5t34 -109.5q0 -44 -17 -83.5t-50 -69.5t-80.5 -47.5t-108.5 -17.5q-49 0 -88.5 11t-71 28.5t-55 39.5t-38.5 45l69 56q67 -93 187 -93q78 0 116.5 36.5t38.5 96.5 q0 57 -37 92.5t-120 35.5h-71v81h70q26 0 50.5 6t43.5 19.5t30.5 35t11.5 51.5t-11 51t-30 34.5t-44 20t-53 6.5q-50 0 -93 -19t-74 -57l-59 64q19 20 42 38t51.5 31.5t62.5 21.5t74 8z" />
<glyph d="M460 169v-169h-92v169h-329v74q30 31 64 72.5t68 87.5t66 93t58.5 89t46 75.5t28.5 53.5h90v-463h100v-82h-100zM368 251v314q-14 -28 -40 -69.5t-57.5 -86t-64.5 -86.5t-59 -72h221z" />
<glyph d="M550 231q0 -50 -18 -94t-52 -77.5t-83 -53t-111 -19.5q-48 0 -87.5 11t-71 29t-54 40t-37.5 44l69 56q67 -93 183 -93q80 0 122 42t42 111q0 72 -42 112t-114 40q-49 0 -87 -18.5t-64 -50.5l-58 27l23 377h401v-87h-324l-15 -212q32 25 71 35t75 10q50 0 92.5 -17 t73.5 -47.5t48.5 -72.5t17.5 -92z" />
<glyph d="M431 714q-33 -28 -69.5 -64.5t-71 -77t-62.5 -83t-44 -82.5q14 16 32.5 27.5t39 18.5t41.5 10t39 3q46 0 86.5 -16.5t70.5 -47t47 -74t17 -96.5q0 -54 -18 -99t-51 -77.5t-79 -50.5t-102 -18t-102 17.5t-79 51t-51 83t-18 112.5q0 66 19 127.5t52 119t77.5 111.5 t95.5 105h130zM154 229q0 -70 40.5 -114t112.5 -44q74 0 112.5 44t38.5 114q0 71 -38.5 114t-112.5 43q-72 0 -112.5 -43.5t-40.5 -113.5z" />
<glyph d="M557 636q-38 -47 -86 -116t-90.5 -152t-73.5 -177t-35 -191h-102q5 88 33.5 177.5t70 172t89 154t89.5 123.5h-407v87h512v-78z" />
<glyph d="M300 70q76 0 116 37t40 101q0 60 -37.5 96t-118.5 36q-82 0 -119.5 -37.5t-37.5 -96.5q0 -64 41 -100t116 -36zM300 418q25 0 48.5 5.5t42.5 18.5t30.5 34.5t11.5 53.5q0 30 -11 51.5t-29.5 35t-42.5 20t-50 6.5t-50.5 -6.5t-43 -20t-29.5 -35t-11 -51.5 q0 -32 11.5 -53.5t30.5 -34.5t43 -18.5t49 -5.5zM300 -13q-60 0 -107.5 16t-80 44.5t-50 67.5t-17.5 85q0 57 30.5 107t96.5 78q-48 21 -75.5 62t-27.5 95q0 43 18 77.5t49 58.5t73.5 36.5t90.5 12.5t90 -12.5t73 -36.5t49 -58.5t18 -77.5q0 -54 -27.5 -95t-75.5 -62 q67 -28 97 -78t30 -107q0 -46 -17.5 -85t-50 -67.5t-79.5 -44.5t-107 -16z" />
<glyph d="M169 0q33 27 70 63.5t71 77t62.5 83t44.5 82.5q-14 -16 -32.5 -27t-39.5 -18t-42 -10t-39 -3q-47 0 -87 16.5t-69.5 47t-46.5 73.5t-17 96q0 54 18 99.5t50.5 78t78.5 50.5t103 18q56 0 102 -17.5t78.5 -51.5t50.5 -83.5t18 -112.5q0 -66 -19 -127.5t-52 -118.5t-77 -111 t-95 -105h-131zM446 484q0 70 -40 114t-113 44q-74 0 -112.5 -44t-38.5 -114q0 -71 38.5 -113.5t112.5 -42.5q73 0 113 43.5t40 112.5z" />
<glyph horiz-adv-x="266" d="M188 0h-108l31 513h46zM71 661q0 26 18.5 44.5t44.5 18.5t44.5 -18.5t18.5 -44.5t-18.5 -44.5t-44.5 -18.5t-44.5 18.5t-18.5 44.5z" />
<glyph horiz-adv-x="511" d="M45 185q0 45 15.5 77.5t38.5 56.5t50.5 42t50.5 35.5t38.5 36.5t15.5 44v34h84v-36q0 -38 -14.5 -65t-36.5 -47.5t-47.5 -37.5t-47.5 -36.5t-36.5 -43.5t-14.5 -58q0 -24 8 -45t24.5 -36.5t41 -25t58.5 -9.5q48 0 85.5 17t70.5 46l52 -63q-45 -39 -97.5 -61.5 t-115.5 -22.5q-47 0 -88 14t-71 39.5t-47 62.5t-17 82zM357 659q0 -26 -18.5 -44.5t-44.5 -18.5t-44.5 18.5t-18.5 44.5t18.5 44.5t44.5 18.5t44.5 -18.5t18.5 -44.5z" />
<glyph horiz-adv-x="391" d="M61 294v78h269v-78h-269z" />
<glyph d="M62 295v76h476v-76h-476z" />
<glyph horiz-adv-x="935" d="M62 295v76h811v-76h-811z" />
<glyph horiz-adv-x="353" d="M103 0h-71l220 714h71z" />
<glyph horiz-adv-x="229" d="M81 -48v762h67v-762h-67z" />
<glyph horiz-adv-x="353" d="M250 0l-220 714h71l220 -714h-71z" />
<glyph horiz-adv-x="283" d="M207 -69q-88 97 -126.5 205.5t-38.5 220.5t38.5 220t126.5 205l56 -44q-77 -86 -109 -182t-32 -199t32 -199t109 -183z" />
<glyph horiz-adv-x="281" d="M18 -25q77 87 109 183t32 199t-32 199t-109 182l56 44q88 -97 126.5 -205t38.5 -220t-38.5 -220.5t-126.5 -205.5z" />
<glyph horiz-adv-x="317" d="M90 -54v822h197v-71h-117v-681h117v-70h-197z" />
<glyph horiz-adv-x="316" d="M29 -54v70h117v681h-117v71h197v-822h-197z" />
<glyph horiz-adv-x="330" d="M20 323v68h18q47 0 65 27.5t18 71.5v107q0 83 42 127t110 44h27v-69h-15q-48 0 -66.5 -27.5t-18.5 -72.5v-104q0 -54 -21.5 -88.5t-62.5 -49.5q41 -16 62.5 -50t21.5 -89v-104q0 -45 18.5 -72.5t66.5 -27.5h15v-68h-27q-68 0 -110 43.5t-42 126.5v107q0 44 -18 72t-65 28 h-18z" />
<glyph horiz-adv-x="330" d="M292 323q-47 0 -65 -28t-18 -72v-107q0 -83 -42 -126.5t-110 -43.5h-27v68h15q48 0 66.5 27.5t18.5 72.5v104q0 55 21.5 89t62.5 50q-41 15 -62.5 49.5t-21.5 88.5v104q0 45 -18.5 72.5t-66.5 27.5h-15v69h27q68 0 110 -44t42 -127v-107q0 -44 18 -71.5t65 -27.5h18v-68 h-18z" />
<glyph horiz-adv-x="255" d="M190 333q0 -26 -18 -44.5t-44 -18.5t-44.5 18.5t-18.5 44.5t18.5 45t44.5 19t44 -19t18 -45z" />
<glyph d="M338 295v-200h-77v200h-199v76h199v200h77v-200h200v-76h-200z" />
<glyph d="M62 295v76h476v-76h-476z" />
<glyph d="M362 520q0 -26 -18 -44.5t-44 -18.5t-44 18.5t-18 44.5q0 25 18 43.5t44 18.5t44 -18.5t18 -43.5zM62 295v76h476v-76h-476zM362 146q0 -25 -18 -43.5t-44 -18.5t-44 18.5t-18 43.5t18 44t44 19t44 -19t18 -44z" />
<glyph d="M62 393v76h476v-76h-476zM62 197v77h476v-77h-476z" />
<glyph d="M475 103l-175 176l-176 -176l-54 55l176 175l-176 175l54 55l176 -176l175 176l54 -55l-175 -175l175 -175z" />
<glyph d="M402 54l-281 279l281 281l52 -53l-226 -228l226 -226z" />
<glyph d="M198 54l-52 53l227 226l-227 228l52 53l281 -281z" />
<glyph horiz-adv-x="404" d="M362 503q0 -46 -9 -86t-28.5 -70t-50 -47t-73.5 -17q-42 0 -72.5 17t-49.5 47t-28 70t-9 86t9 86t28 69.5t49.5 46.5t72.5 17q43 0 73.5 -17t50 -46.5t28.5 -69.5t9 -86zM292 503q0 71 -20.5 114.5t-70.5 43.5q-49 0 -69 -43t-20 -115q0 -71 20 -115t69 -44q50 0 70.5 44 t20.5 115z" />
<glyph horiz-adv-x="367" d="M249 291h-69v341q-18 -8 -48 -15t-60 -11l-10 54q48 9 81 21.5t54 32.5h52v-423z" />
<glyph horiz-adv-x="384" d="M40 291v54q52 39 93 71t69.5 59.5t44 54t15.5 55.5q0 36 -22.5 54t-56.5 18q-36 0 -63 -17t-42 -41l-51 37q26 35 63.5 60.5t94.5 25.5q34 0 61.5 -10t47 -28t30.5 -43t11 -55q0 -29 -10.5 -54.5t-33 -52.5t-57.5 -57t-85 -67h202v-64h-311z" />
<glyph horiz-adv-x="390" d="M351 413q0 -29 -11.5 -53t-32.5 -41t-50.5 -26.5t-65.5 -9.5q-57 0 -98.5 21.5t-65.5 52.5l49 43q17 -23 45.5 -37.5t68.5 -14.5q46 0 67.5 19t21.5 48q0 28 -19.5 43.5t-54.5 15.5h-55v63h52q10 0 22 3t22 10t16.5 18t6.5 27q0 31 -23.5 46.5t-58.5 15.5 q-33 0 -59.5 -13t-43.5 -33l-47 44q31 33 68 50t84 17q67 0 108 -32.5t41 -86.5q0 -28 -12 -51t-39 -39q37 -14 50.5 -43t13.5 -57z" />
<glyph horiz-adv-x="388" d="M300 388v-97h-67v97h-209v57q22 22 52.5 58.5t60.5 76t54.5 76t36.5 58.5h72v-264h66v-62h-66zM233 450v176q-26 -43 -61 -87t-73 -89h134z" />
<glyph horiz-adv-x="382" d="M349 433q0 -28 -10.5 -55t-31 -48t-51.5 -34t-73 -13q-53 0 -91.5 19.5t-64.5 47.5l47 47q20 -26 47.5 -38t56.5 -12q19 0 37 5t31.5 15t22 25.5t8.5 36.5q0 38 -26.5 58.5t-66.5 20.5q-26 0 -49.5 -9.5t-41.5 -30.5l-40 19l13 227h259v-64h-200q-2 -27 -4.5 -53 t-5.5 -54q21 14 44.5 19t44.5 5q31 0 58 -10t46 -28t30 -42.5t11 -53.5z" />
<glyph horiz-adv-x="387" d="M108 429q0 -37 24 -59.5t68 -22.5q45 0 68.5 22.5t23.5 60.5t-23.5 61t-68.5 23q-44 0 -68 -23.5t-24 -61.5zM273 714q-49 -37 -89 -82.5t-60 -93.5q20 19 47.5 26.5t46.5 7.5q31 0 57.5 -10t46 -28.5t30.5 -44.5t11 -58t-12 -59.5t-33 -47t-51 -30.5t-66 -11 q-75 0 -119.5 42.5t-44.5 120.5q0 41 11 78.5t29.5 70.5t43.5 63t54 56h98z" />
<glyph horiz-adv-x="348" d="M339 659q-24 -29 -54 -71.5t-57.5 -91.5t-47.5 -102t-22 -103h-75q3 51 22 102.5t45 98.5t54 87.5t50 70.5h-239v64h324v-55z" />
<glyph horiz-adv-x="402" d="M364 408q0 -30 -12.5 -53.5t-34 -39.5t-51.5 -24t-65 -8q-36 0 -65.5 8t-51.5 24t-34 39.5t-12 53.5q0 36 17.5 64t54.5 45q-29 14 -42.5 37t-13.5 55q0 54 41 83.5t106 29.5q66 0 106.5 -29.5t40.5 -83.5q0 -31 -16 -54t-42 -38q35 -17 54.5 -45.5t19.5 -63.5zM279 605 q0 30 -24 43t-54 13q-31 0 -54 -13t-23 -43q0 -32 23 -47t53 -15q31 0 55 15t24 47zM293 413q0 38 -27.5 55.5t-64.5 17.5q-38 0 -65.5 -17t-27.5 -55q0 -19 7.5 -32t20 -21.5t29.5 -12.5t36 -4q18 0 35 3.5t29.5 12t20 21.5t7.5 32z" />
<glyph horiz-adv-x="387" d="M280 575q0 37 -24.5 60t-69.5 23t-68 -23t-23 -61t23 -60.5t68 -22.5t69.5 23t24.5 61zM115 291q48 36 89 81.5t59 92.5q-20 -18 -47 -25t-46 -7q-32 0 -58.5 10t-46 28t-30.5 44t-11 58q0 33 12 60t33 47t51 31t66 11q75 0 119.5 -42.5t44.5 -120.5q0 -41 -10.5 -78 t-29.5 -70.5t-44 -63t-53 -56.5h-98z" />
<glyph horiz-adv-x="404" d="M362 212q0 -45 -9 -85t-28.5 -70t-50 -47.5t-73.5 -17.5q-42 0 -72.5 17t-49.5 47t-28 70t-9 86t9 86t28 69.5t49.5 46.5t72.5 17q43 0 73.5 -17t50 -47t28.5 -70t9 -85zM292 212q0 35 -5 64t-15.5 50t-28 32.5t-42.5 11.5q-49 0 -69 -43t-20 -115t20 -115.5t69 -43.5 q50 0 70.5 44t20.5 115z" />
<glyph horiz-adv-x="367" d="M249 0h-69v341q-18 -8 -48 -15t-60 -11l-10 54q48 9 81 21.5t54 32.5h52v-423z" />
<glyph horiz-adv-x="384" d="M40 0v54q52 39 93 71t69.5 59.5t44 54t15.5 55.5q0 36 -22.5 54t-56.5 18q-36 0 -63 -17t-42 -41l-51 37q26 35 63.5 60.5t94.5 25.5q34 0 61.5 -10t47 -28t30.5 -43t11 -55q0 -29 -10.5 -54.5t-33 -52.5t-57.5 -57t-85 -67h202v-64h-311z" />
<glyph horiz-adv-x="390" d="M351 122q0 -29 -11.5 -53t-32.5 -41t-50.5 -26.5t-65.5 -9.5q-57 0 -98.5 21.5t-65.5 52.5l49 43q17 -23 45.5 -37.5t68.5 -14.5q46 0 67.5 19t21.5 48q0 28 -19.5 43.5t-54.5 15.5h-55v63h52q10 0 22 3t22 10t16.5 18t6.5 27q0 31 -23.5 46.5t-58.5 15.5 q-33 0 -59.5 -13t-43.5 -33l-47 44q31 33 68 50t84 17q67 0 108 -32.5t41 -86.5q0 -28 -12 -51t-39 -39q37 -14 50.5 -43t13.5 -57z" />
<glyph horiz-adv-x="388" d="M300 97v-97h-67v97h-209v57q22 22 52.5 58.5t60.5 76t54.5 76t36.5 58.5h72v-264h66v-62h-66zM233 159v176q-26 -43 -61 -87t-73 -89h134z" />
<glyph horiz-adv-x="382" d="M349 142q0 -28 -10.5 -55t-31 -48t-51.5 -34t-73 -13q-53 0 -91.5 19.5t-64.5 47.5l47 47q20 -26 47.5 -38t56.5 -12q19 0 37 5t31.5 15t22 25.5t8.5 36.5q0 38 -26.5 58.5t-66.5 20.5q-26 0 -49.5 -9.5t-41.5 -30.5l-40 19l13 227h259v-64h-200q-2 -27 -4.5 -53 t-5.5 -54q21 14 44.5 19t44.5 5q31 0 58 -10t46 -28t30 -42.5t11 -53.5z" />
<glyph horiz-adv-x="387" d="M108 138q0 -37 24 -59.5t68 -22.5q45 0 68.5 22.5t23.5 60.5t-23.5 61t-68.5 23q-44 0 -68 -23.5t-24 -61.5zM273 423q-49 -37 -89 -82.5t-60 -93.5q20 19 47.5 26.5t46.5 7.5q31 0 57.5 -10t46 -28.5t30.5 -44.5t11 -58t-12 -59.5t-33 -47t-51 -30.5t-66 -11 q-75 0 -119.5 42.5t-44.5 120.5q0 41 11 78.5t29.5 70.5t43.5 63t54 56h98z" />
<glyph horiz-adv-x="348" d="M339 368q-24 -29 -54 -71.5t-57.5 -91.5t-47.5 -102t-22 -103h-75q3 51 22 102.5t45 98.5t54 87.5t50 70.5h-239v64h324v-55z" />
<glyph horiz-adv-x="402" d="M364 117q0 -30 -12.5 -53.5t-34 -39.5t-51.5 -24t-65 -8q-36 0 -65.5 8t-51.5 24t-34 39.5t-12 53.5q0 36 17.5 64t54.5 45q-29 14 -42.5 37t-13.5 55q0 54 41 83.5t106 29.5q66 0 106.5 -29.5t40.5 -83.5q0 -31 -16 -54t-42 -38q35 -17 54.5 -45.5t19.5 -63.5zM279 314 q0 30 -24 43t-54 13q-31 0 -54 -13t-23 -43q0 -32 23 -47t53 -15q31 0 55 15t24 47zM293 122q0 38 -27.5 55.5t-64.5 17.5q-38 0 -65.5 -17t-27.5 -55q0 -19 7.5 -32t20 -21.5t29.5 -12.5t36 -4q18 0 35 3.5t29.5 12t20 21.5t7.5 32z" />
<glyph horiz-adv-x="387" d="M280 284q0 37 -24.5 60t-69.5 23t-68 -23t-23 -61t23 -60.5t68 -22.5t69.5 23t24.5 61zM115 0q48 36 89 81.5t59 92.5q-20 -18 -47 -25t-46 -7q-32 0 -58.5 10t-46 28t-30.5 44t-11 58q0 33 12 60t33 47t51 31t66 11q75 0 119.5 -42.5t44.5 -120.5q0 -41 -10.5 -78 t-29.5 -70.5t-44 -63t-53 -56.5h-98z" />
<glyph d="M555 259q0 -59 -18 -108.5t-51 -85.5t-80.5 -56.5t-106.5 -20.5t-106.5 20.5t-80.5 56.5t-50.5 85.5t-17.5 108.5t17.5 109t50.5 86.5t80.5 57t106.5 20.5t106.5 -20.5t80.5 -57t51 -86.5t18 -109zM462 259q0 41 -11 76.5t-31.5 61.5t-51 41t-69.5 15t-69.5 -15t-51 -41 t-31.5 -61.5t-11 -76.5t11 -76t31.5 -61t51 -41t69.5 -15t69.5 15t51 41t31.5 61t11 76zM251 590l93 150l65 -32l-83 -118h-75z" />
<glyph horiz-adv-x="243" d="M80 0v520h87v-520h-87zM74 640q0 20 14 34t33 14q20 0 34 -14t14 -34q0 -19 -14 -33t-34 -14q-19 0 -33 13.5t-14 33.5z" />
<glyph horiz-adv-x="232" d="M173 640q0 -49 -17.5 -87t-50.5 -73l-42 33q20 20 31.5 45.5t11.5 49.5q0 14 -3.5 24.5t-7.5 20t-7.5 20t-3.5 24.5v17h89v-74z" />
<glyph horiz-adv-x="324" d="M117 590l93 150l65 -32l-83 -118h-75z" />
<glyph horiz-adv-x="1250" d="M306 727q79 0 149 -31.5t115 -91.5l-68 -55q-34 48 -87 70.5t-113 22.5q-29 0 -55 -5.5t-45.5 -18.5t-31 -33t-11.5 -49q0 -31 13 -50.5t35 -32t51.5 -21t62.5 -16.5q52 -13 98.5 -28t82 -38.5t56.5 -59t21 -87.5q0 -48 -18.5 -88t-53 -68.5t-83.5 -44t-110 -15.5 q-97 0 -168 37.5t-113 100.5l71 58q38 -60 96.5 -86t120.5 -26q75 0 119 32.5t44 92.5q0 35 -15.5 56t-41 34.5t-60 22t-71.5 17.5q-42 10 -83 23.5t-74 36t-53.5 56.5t-20.5 85q0 47 18 84.5t50.5 63t76.5 39t96 13.5zM931 727q79 0 149 -31.5t115 -91.5l-68 -55 q-34 48 -87 70.5t-113 22.5q-29 0 -55 -5.5t-45.5 -18.5t-31 -33t-11.5 -49q0 -31 13 -50.5t35 -32t51.5 -21t62.5 -16.5q52 -13 98.5 -28t82 -38.5t56.5 -59t21 -87.5q0 -48 -18.5 -88t-53 -68.5t-83.5 -44t-110 -15.5q-97 0 -168 37.5t-113 100.5l71 58q38 -60 96.5 -86 t120.5 -26q75 0 119 32.5t44 92.5q0 35 -15.5 56t-41 34.5t-60 22t-71.5 17.5q-42 10 -83 23.5t-74 36t-53.5 56.5t-20.5 85q0 47 18 84.5t50.5 63t76.5 39t96 13.5z" />
</font>
</defs>
</svg>
