<?xml version="1.0" standalone="no"?>
<!DOCTYPE svg PUBLIC "-//W3C//DTD SVG 1.1//EN" "http://www.w3.org/Graphics/SVG/1.1/DTD/svg11.dtd" >
<svg xmlns="http://www.w3.org/2000/svg">
<metadata></metadata>
<defs>
<font id="allstate_sans_wbold" horiz-adv-x="620" >
<font-face units-per-em="1000" ascent="800" descent="-200" />
<missing-glyph horiz-adv-x="270" />
<glyph unicode="ff" horiz-adv-x="709" d="M694 602q-10 3 -25 6.5t-33 3.5q-24 0 -38 -11t-14 -38v-33h107v-114h-107v-416h-148v416h-184v-416h-148v416h-83v114h83v36q0 70 46.5 115t137.5 45q51 0 89 -12l-15 -112q-10 3 -25 6.5t-33 3.5q-24 0 -38 -11t-14 -38v-33h184v36q0 70 46.5 115t137.5 45q51 0 89 -12 z" />
<glyph unicode="fi" horiz-adv-x="649" d="M362 602q-10 3 -25 6.5t-33 3.5q-24 0 -38 -11t-14 -38v-33h107v-114h-107v-416h-148v416h-83v114h83v36q0 70 46.5 115t137.5 45q51 0 89 -12zM437 0v530h148v-530h-148zM428 663q0 31 22 54t60 23q39 0 61.5 -23t22.5 -54t-22.5 -54t-61.5 -23q-38 0 -60 23t-22 54z " />
<glyph unicode="fl" horiz-adv-x="652" d="M362 602q-10 3 -25 6.5t-33 3.5q-24 0 -38 -11t-14 -38v-33h107v-114h-107v-416h-148v416h-83v114h83v36q0 70 46.5 115t137.5 45q51 0 89 -12zM439 0v714h148v-714h-148z" />
<glyph horiz-adv-x="0" />
<glyph horiz-adv-x="0" />
<glyph horiz-adv-x="270" />
<glyph unicode=" "  horiz-adv-x="270" />
<glyph unicode="&#x09;" horiz-adv-x="270" />
<glyph unicode="&#xa0;" horiz-adv-x="270" />
<glyph unicode="!" horiz-adv-x="301" d="M202 228h-103l-36 486h175zM58 83q0 39 27 66t66 27q19 0 36 -7t29.5 -20t20 -30t7.5 -36q0 -20 -7.5 -36.5t-20 -29.5t-29.5 -20t-36 -7q-39 0 -66 27t-27 66z" />
<glyph unicode="&#x22;" horiz-adv-x="455" d="M155 416h-98v298h156zM369 416h-97v298h156z" />
<glyph unicode="#" d="M478 445l-31 -175h118v-85h-133l-33 -185h-95l34 185h-124l-33 -185h-96l33 185h-71v85h86l32 175h-118v85h133l33 184h95l-32 -184h123l33 184h95l-34 -184h72v-85h-87zM260 445l-30 -175h123l31 175h-124z" />
<glyph unicode="$" d="M289 -62v51q-45 3 -84 16.5t-72 33.5t-59 45t-43 53l97 80q26 -45 68 -74.5t93 -35.5v187q-33 7 -72.5 21t-74 38.5t-57.5 62t-23 92.5q0 45 17 83t47 65t71.5 43t91.5 18v50h60v-54q61 -8 119 -38t96 -83l-91 -77q-26 33 -56 52.5t-68 27.5v-169q41 -11 81.5 -27.5 t73 -42t53 -61.5t20.5 -87q0 -43 -15 -80.5t-44.5 -66.5t-72 -47.5t-96.5 -23.5v-52h-60zM441 191q0 38 -25.5 57t-66.5 30v-172q48 5 70 28t22 57zM200 521q0 -35 23.5 -52t65.5 -29v157q-38 -2 -63.5 -20t-25.5 -56z" />
<glyph unicode="%" horiz-adv-x="817" d="M370 566q0 -33 -12.5 -62t-34.5 -51t-51 -34.5t-62 -12.5t-62.5 12.5t-51.5 34.5t-34.5 51t-12.5 62t12.5 62.5t34.5 51.5t51.5 34.5t62.5 12.5t62 -12.5t51 -34.5t34.5 -51.5t12.5 -62.5zM279 566q0 29 -20 49t-49 20t-49.5 -20t-20.5 -49t20.5 -49t49.5 -20t49 20 t20 49zM224 0h-110l482 714h110zM772 147q0 -33 -12.5 -62t-34.5 -51t-51 -34.5t-62 -12.5t-62.5 12.5t-51.5 34.5t-34.5 51t-12.5 62t12.5 62.5t34.5 51.5t51.5 34.5t62.5 12.5t62 -12.5t51 -34.5t34.5 -51.5t12.5 -62.5zM681 147q0 29 -20 49t-49 20t-49.5 -20t-20.5 -49 t20.5 -49t49.5 -20t49 20t20 49z" />
<glyph unicode="&#x26;" horiz-adv-x="702" d="M677 341q-7 -66 -33 -123t-64 -99l99 -119h-173l-32 38q-44 -25 -92.5 -38t-99.5 -13t-97.5 13.5t-81.5 40t-55.5 65t-20.5 88.5q0 39 13 70t35 56t50.5 43.5t59.5 32.5q-16 20 -29 38t-22.5 36t-15 38t-5.5 44q0 40 17 72.5t46.5 55.5t69.5 35t86 12q43 0 81 -10.5 t66 -31.5t44.5 -52.5t16.5 -72.5q0 -36 -13 -66t-35 -54t-51.5 -43.5t-62.5 -35.5l122 -146q23 28 37 68t19 78zM302 108q23 0 49 5t47 19l-149 183q-32 -17 -54.5 -40.5t-22.5 -60.5q0 -24 10 -43.5t27 -33.5t41 -21.5t52 -7.5zM414 556q0 36 -23.5 52t-53.5 16 q-34 0 -59 -17.5t-25 -53.5q0 -31 16.5 -54.5t42.5 -52.5q21 10 39.5 21t32.5 23.5t22 28.5t8 37z" />
<glyph unicode="'" horiz-adv-x="240" d="M155 416h-98v298h156z" />
<glyph unicode="(" horiz-adv-x="305" d="M203 -134q-50 64 -83 125.5t-53 120t-28.5 114t-8.5 107.5t8.5 107.5t28.5 114t53 120t83 124.5l87 -57q-40 -57 -66 -109t-41.5 -102.5t-21.5 -99.5t-6 -98q0 -50 6 -98.5t21.5 -99t41.5 -103t66 -109.5z" />
<glyph unicode=")" horiz-adv-x="304" d="M102 799q50 -64 83 -125t53 -119.5t28 -114t8 -107.5t-8 -107.5t-28 -114t-53 -120t-83 -125.5l-87 57q39 57 65 109.5t41.5 103t22 99t6.5 98.5q0 49 -6.5 98t-22 99.5t-41.5 102.5t-65 109z" />
<glyph unicode="*" horiz-adv-x="470" d="M254 487q10 -27 16.5 -47t10.5 -38.5t5.5 -37t1.5 -40.5h-107q0 22 1.5 40.5t5.5 37t11 38.5t17 47q-18 -22 -32.5 -38t-28 -29t-28.5 -23.5t-34 -21.5l-53 93q19 11 35.5 19t34 13.5t38.5 9.5t49 9q-28 4 -49 8.5t-38.5 10t-34 13.5t-35.5 19l53 93q19 -11 34 -21.5 t28.5 -23.5t28 -29t32.5 -38q-10 27 -17 47t-11 38.5t-5.5 36.5t-1.5 41h107q0 -23 -1.5 -41t-5.5 -36.5t-10.5 -38.5t-16.5 -47q18 22 32.5 38t28 29t28.5 23.5t34 21.5l53 -93q-19 -11 -35.5 -19t-34 -13.5t-39 -10t-49.5 -8.5q28 -5 49.5 -9t39 -9.5t34 -13.5t35.5 -19 l-53 -93q-19 11 -34 21.5t-28.5 23.5t-28 29t-32.5 38z" />
<glyph unicode="+" d="M371 242v-196h-124v196h-196v124h196v196h124v-196h196v-124h-196z" />
<glyph unicode="," horiz-adv-x="280" d="M135 -3q-17 1 -32.5 7.5t-27.5 18t-19.5 27.5t-7.5 35q0 18 6.5 34t18 29t28.5 20.5t38 7.5q39 0 67 -28.5t28 -85.5q0 -63 -38 -116t-103 -90l-37 60q31 15 53.5 37.5t25.5 43.5z" />
<glyph unicode="-" horiz-adv-x="409" d="M53 224v131h303v-131h-303z" />
<glyph unicode="." horiz-adv-x="282" d="M48 83q0 39 27 66t66 27t66 -27t27 -66t-27 -66t-66 -27t-66 27t-27 66z" />
<glyph unicode="/" horiz-adv-x="403" d="M154 0h-123l220 714h123z" />
<glyph unicode="0" horiz-adv-x="644" d="M601 357q0 -70 -14 -136.5t-47 -118.5t-86.5 -83.5t-132.5 -31.5t-132 31.5t-85.5 83.5t-46 118.5t-13.5 136.5q0 69 13.5 135.5t46 118.5t85.5 84t132 32t132.5 -32t86.5 -84t47 -118.5t14 -135.5zM444 357q0 48 -5.5 92t-20 78t-38 54t-59.5 20t-59.5 -20t-37.5 -54 t-19.5 -78t-5.5 -92t5.5 -92t19.5 -78t37.5 -54t59.5 -20t59.5 20t38 54t20 78t5.5 92z" />
<glyph unicode="1" horiz-adv-x="464" d="M360 0h-153v544q-28 -14 -71 -26.5t-85 -17.5l-20 115q77 16 128.5 39.5t84.5 59.5h116v-714z" />
<glyph unicode="2" horiz-adv-x="601" d="M47 0v112q92 69 156.5 123.5t105.5 99.5t60 83t19 74q0 50 -31 76.5t-74 26.5q-38 0 -72 -21t-56 -66l-121 69q45 70 109 110t154 40q55 0 101.5 -15.5t80.5 -44.5t53 -70.5t19 -93.5q0 -47 -17 -91.5t-51.5 -89t-88 -90.5t-126.5 -96h292v-136h-513z" />
<glyph unicode="3" horiz-adv-x="611" d="M299 727q54 0 99.5 -13t79.5 -38t53 -60.5t19 -80.5q0 -58 -29.5 -95t-74.5 -60q62 -21 94.5 -66t32.5 -105q0 -46 -19.5 -86.5t-55.5 -70.5t-87.5 -47.5t-115.5 -17.5q-51 0 -93 11t-76.5 29.5t-61.5 43.5t-47 53l111 83q63 -88 166 -88q59 0 91 26t32 71 q0 43 -30.5 66.5t-90.5 23.5h-74v122h72q45 0 75 20t30 63q0 44 -32 64.5t-80 20.5t-88 -18.5t-67 -51.5l-85 95q43 46 105 76t147 30z" />
<glyph unicode="4" horiz-adv-x="623" d="M496 149v-149h-152v149h-314v114q29 30 61.5 69.5t64.5 83t62 88t55.5 84.5t43.5 73t27 53h152v-437h100v-128h-100zM347 277l2 234q-13 -25 -32.5 -55.5t-42 -61.5t-46 -61.5t-45.5 -55.5h164z" />
<glyph unicode="5" horiz-adv-x="611" d="M574 243q0 -53 -20 -100t-57.5 -81.5t-90.5 -54.5t-120 -20q-49 0 -90.5 11t-75.5 29.5t-60 43t-45 52.5l111 84q28 -43 68 -64.5t88 -21.5q63 0 99 32t36 86t-35.5 85t-90.5 31q-44 0 -76 -18t-52 -44l-95 37l25 384h441v-136h-321l-13 -143q26 20 62 29t71 9 q49 0 93 -16t77 -46t52 -72.5t19 -95.5z" />
<glyph unicode="6" horiz-adv-x="610" d="M480 714q-79 -60 -142 -129t-93 -133q22 21 54.5 29.5t60.5 8.5q48 0 88.5 -17t70.5 -48t47 -76t17 -100q0 -59 -19.5 -107t-55 -82.5t-85.5 -53.5t-110 -19q-62 0 -112 18t-85.5 53t-55 86.5t-19.5 118.5t17 128t47.5 117t71.5 107t89 99h214zM199 246q0 -57 28.5 -92.5 t84.5 -35.5t83.5 36t27.5 93q0 58 -27.5 92t-83.5 34t-84.5 -35t-28.5 -92z" />
<glyph unicode="7" horiz-adv-x="559" d="M540 605q-40 -51 -85.5 -118.5t-83.5 -146t-63 -165t-23 -175.5h-168q2 89 27.5 174.5t62.5 161t79.5 137.5t78.5 105h-344v136h519v-109z" />
<glyph unicode="8" horiz-adv-x="633" d="M317 106q51 0 83.5 26t32.5 80q0 53 -31 79.5t-85 26.5t-85.5 -27t-31.5 -79q0 -54 33 -80t84 -26zM316 430q19 0 36.5 4.5t31 15t21.5 27.5t8 42q0 24 -8 40.5t-21.5 27.5t-30.5 16t-36 5t-36.5 -5t-30.5 -16t-21 -27.5t-8 -40.5q0 -25 8 -42t21 -27.5t30.5 -15 t35.5 -4.5zM317 -13q-67 0 -118.5 17t-86 46t-52.5 69t-18 85q0 62 32 108t89 68q-42 20 -70 58t-28 98q0 46 20 82t54.5 60t80.5 36.5t97 12.5t96.5 -12.5t80 -36.5t55 -60t20.5 -82q0 -60 -28 -98t-70 -58q57 -22 88.5 -68t31.5 -108q0 -45 -17.5 -85t-52 -69t-86 -46 t-118.5 -17z" />
<glyph unicode="9" horiz-adv-x="611" d="M131 0q81 60 143 129t94 133q-23 -21 -55.5 -29.5t-60.5 -8.5q-48 0 -89 17t-70.5 48t-46.5 75.5t-17 99.5q0 59 19.5 107.5t54.5 83t85 53.5t112 19q61 0 111 -18t85.5 -53t55 -87t19.5 -119t-17.5 -127.5t-47.5 -116t-71 -107t-88 -99.5h-216zM413 467q0 57 -28.5 93 t-84.5 36t-84 -36t-28 -93q0 -58 28 -92t84 -34t84.5 34.5t28.5 91.5z" />
<glyph unicode=":" horiz-adv-x="325" d="M70 447q0 19 7 36t20 29.5t29.5 20t36.5 7.5q19 0 36 -7.5t29.5 -20t20 -29.5t7.5 -36q0 -20 -7.5 -37t-20 -29.5t-29.5 -20t-36 -7.5q-39 0 -66 27.5t-27 66.5zM70 83q0 39 27 66t66 27q19 0 36 -7t29.5 -20t20 -30t7.5 -36q0 -20 -7.5 -36.5t-20 -29.5t-29.5 -20 t-36 -7q-39 0 -66 27t-27 66z" />
<glyph unicode=";" horiz-adv-x="313" d="M70 447q0 19 7 36t20 29.5t29.5 20t36.5 7.5q19 0 36 -7.5t29.5 -20t20 -29.5t7.5 -36q0 -20 -7.5 -37t-20 -29.5t-29.5 -20t-36 -7.5q-39 0 -66 27.5t-27 66.5zM157 -3q-17 1 -32.5 7.5t-27.5 18t-19.5 27.5t-7.5 35q0 18 6.5 34t18 29t28.5 20.5t38 7.5q39 0 67 -28.5 t28 -85.5q0 -63 -38.5 -116t-102.5 -90l-37 60q31 15 53.5 37.5t25.5 43.5z" />
<glyph unicode="&#x3c;" d="M405 2l-304 303l304 304l87 -87l-217 -217l217 -217z" />
<glyph unicode="=" d="M52 348v123h515v-123h-515zM52 137v123h515v-123h-515z" />
<glyph unicode="&#x3e;" d="M213 2l-85 86l217 217l-217 217l85 87l304 -304z" />
<glyph unicode="?" horiz-adv-x="556" d="M511 516q0 -43 -14.5 -75t-37 -55.5t-48 -41t-48 -33.5t-37 -32t-14.5 -36v-15h-147v20q0 36 14 62.5t35 46.5t45 36.5t45 33t35 36t14 45.5q0 36 -27.5 61t-79.5 25q-36 0 -75 -14t-72 -46l-70 104q47 41 104.5 64t127.5 23q55 0 101 -15t79 -43t51.5 -66.5t18.5 -84.5z M148 83q0 39 27 66t66 27q19 0 36 -7t29.5 -20t20 -30t7.5 -36q0 -20 -7.5 -36.5t-20 -29.5t-29.5 -20t-36 -7q-39 0 -66 27t-27 66z" />
<glyph unicode="@" horiz-adv-x="857" d="M528 207q-23 -34 -55 -50t-72 -16q-41 0 -73.5 16t-55.5 43.5t-35 65t-12 80.5q0 44 12 82t35 65.5t55.5 43t73.5 15.5q59 0 101 -49v41h115v-274q0 -25 11 -43.5t41 -18.5q20 0 35.5 11t26 30t15.5 44.5t5 55.5q0 69 -21 126.5t-60.5 99t-97.5 65t-133 23.5 q-74 0 -132 -25t-98.5 -68t-62 -100t-21.5 -121q0 -65 21.5 -121.5t62 -99.5t98.5 -67.5t132 -24.5q45 0 86.5 11.5t75.5 34.5l30 -58q-41 -24 -91 -38t-105 -14q-90 0 -163 28.5t-124.5 79t-79 119.5t-27.5 150q0 80 27.5 149t79 120t124.5 80t164 29q88 0 160 -29 t122 -79.5t77.5 -119t27.5 -147.5q0 -47 -12 -85.5t-34.5 -66t-54.5 -43t-72 -15.5q-33 0 -67.5 14t-54.5 51zM502 346q0 45 -20 78t-61 33q-38 0 -58 -33t-20 -78t20 -77t59 -32q41 0 60.5 32t19.5 77z" />
<glyph unicode="A" horiz-adv-x="704" d="M535 0l-54 163h-265l-54 -163h-161l263 714h177l262 -714h-168zM349 565l-93 -276h184z" />
<glyph unicode="B" horiz-adv-x="698" d="M661 204q0 -45 -17.5 -82.5t-50.5 -64.5t-81.5 -42t-111.5 -15h-327v714h307q122 0 189 -49t67 -132q0 -54 -28 -93.5t-79 -62.5q68 -22 100 -67.5t32 -105.5zM480 508q0 40 -29.5 55.5t-74.5 15.5h-148v-150h148q46 0 75 19t29 60zM502 219q0 41 -29 63t-80 22h-165 v-170h167q51 0 79 22t28 63z" />
<glyph unicode="C" horiz-adv-x="712" d="M571 490q-32 54 -79 77t-98 23q-48 0 -84.5 -17.5t-62 -48t-38.5 -73t-13 -93.5t13 -94t38.5 -74t63.5 -48.5t87 -17.5q65 0 109 29.5t72 77.5l112 -82q-48 -75 -121.5 -118.5t-176.5 -43.5q-79 0 -144.5 27t-113 75.5t-74 116.5t-26.5 151t26.5 151t74 117t113 75.5 t142.5 26.5q100 0 172 -41.5t123 -113.5z" />
<glyph unicode="D" horiz-adv-x="758" d="M360 136q99 0 150 60t51 161q0 50 -13 90.5t-38 69.5t-63 45t-87 16h-132v-442h132zM73 0v714h287q86 0 153 -27t113.5 -75t70.5 -113.5t24 -141.5t-24 -141.5t-70.5 -113.5t-113.5 -75t-153 -27h-287z" />
<glyph unicode="E" horiz-adv-x="642" d="M73 0v714h518v-136h-363v-149h323v-125h-323v-168h373v-136h-528z" />
<glyph unicode="F" horiz-adv-x="615" d="M228 578v-149h323v-125h-323v-304h-155v714h517v-136h-362z" />
<glyph unicode="G" horiz-adv-x="767" d="M398 590q-49 0 -86.5 -17t-63 -48t-39 -74t-13.5 -95q0 -54 14 -97t40 -74t63 -47.5t84 -16.5q35 0 66 9.5t55.5 27.5t40.5 45t20 62h-177v125h328q3 -12 4.5 -30t1.5 -35q0 -73 -24.5 -135t-69 -107t-108 -70.5t-141.5 -25.5t-143.5 27t-113.5 76t-74.5 117t-26.5 150 q0 84 27.5 152t75.5 116.5t114.5 75t144.5 26.5q103 0 176 -43.5t121 -111.5l-116 -81q-32 54 -79 76.5t-101 22.5z" />
<glyph unicode="H" horiz-adv-x="761" d="M533 0v306h-305v-306h-155v714h155v-272h305v272h155v-714h-155z" />
<glyph unicode="I" horiz-adv-x="301" d="M73 0v714h155v-714h-155z" />
<glyph unicode="J" horiz-adv-x="561" d="M339 714h155v-464q0 -63 -17.5 -112t-50.5 -82.5t-79.5 -51t-104.5 -17.5q-90 0 -148.5 40t-86.5 101l122 66q34 -72 109 -72q51 0 76 29t25 85v478z" />
<glyph unicode="K" horiz-adv-x="713" d="M531 0l-198 310l-105 -124v-186h-155v714h155v-326l274 326h188l-248 -288l275 -426h-186z" />
<glyph unicode="L" horiz-adv-x="596" d="M73 0v714h155v-578h349v-136h-504z" />
<glyph unicode="M" horiz-adv-x="918" d="M693 0v502l-183 -502h-104l-182 499v-499h-151v714h216l171 -475l172 475h212v-714h-151z" />
<glyph unicode="N" horiz-adv-x="762" d="M688 0h-154l-312 482v-482h-149v714h163l304 -472v472h148v-714z" />
<glyph unicode="O" horiz-adv-x="785" d="M750 357q0 -78 -25.5 -145.5t-72 -117.5t-113 -78.5t-147.5 -28.5t-147 28.5t-112.5 78.5t-72 117.5t-25.5 145.5t25.5 145.5t72 117.5t112.5 78.5t147 28.5t147.5 -28.5t113 -78.5t72 -117.5t25.5 -145.5zM590 357q0 49 -13 91.5t-38.5 73.5t-62 49t-84.5 18t-84.5 -18 t-61.5 -49t-38 -73.5t-13 -91.5q0 -50 13 -92t38 -73.5t61.5 -49t84.5 -17.5t84.5 18t62 49t38.5 73.5t13 91.5z" />
<glyph unicode="P" horiz-adv-x="674" d="M370 378q60 0 92 26.5t32 76.5q0 49 -32.5 73t-91.5 24h-142v-200h142zM228 242v-242h-155v714h299q132 0 205.5 -62t73.5 -170q0 -54 -19 -98t-54.5 -75.5t-87.5 -49t-118 -17.5h-144z" />
<glyph unicode="Q" horiz-adv-x="785" d="M750 357q0 -81 -27 -150t-77 -119l56 -65l-101 -82l-62 76q-66 -30 -147 -30t-147 28.5t-112.5 78.5t-72 117.5t-25.5 145.5t25.5 145.5t72 117.5t112.5 78.5t147 28.5t147.5 -28.5t113 -78.5t72 -117.5t25.5 -145.5zM590 357q0 49 -13 91.5t-38.5 73.5t-62 49t-84.5 18 t-84.5 -18t-61.5 -49t-38 -73.5t-13 -91.5q0 -50 13 -92.5t38 -73.5t61.5 -49t84.5 -18q29 0 53 9l-74 94l91 74l82 -98q46 61 46 154z" />
<glyph unicode="R" horiz-adv-x="689" d="M494 0l-147 256h-119v-256h-155v714h309q67 0 118.5 -16.5t85.5 -46t51.5 -70.5t17.5 -90q0 -80 -43.5 -131.5t-109.5 -76.5l162 -283h-170zM497 482q0 46 -32 71t-87 25h-150v-196h146q55 0 89 26t34 74z" />
<glyph unicode="S" horiz-adv-x="662" d="M322 727q95 0 168 -36t118 -96l-109 -82q-25 35 -71.5 58.5t-104.5 23.5q-45 0 -78.5 -17t-33.5 -56q0 -21 10.5 -34t28.5 -22t43 -15t54 -12q54 -12 104.5 -26.5t89.5 -39t62 -61.5t23 -93q0 -53 -21 -95.5t-60 -73t-93.5 -47t-121.5 -16.5q-106 0 -185.5 40t-126.5 109 l114 85q35 -53 89 -78t117 -25q61 0 96 22.5t35 64.5q0 33 -30.5 50.5t-77 29.5t-100 24.5t-100 35.5t-77 62t-30.5 105q0 51 20 90.5t55.5 67.5t84.5 42.5t108 14.5z" />
<glyph unicode="T" horiz-adv-x="649" d="M401 578v-578h-154v578h-221v136h597v-136h-222z" />
<glyph unicode="U" horiz-adv-x="732" d="M665 272q0 -68 -21.5 -121t-61 -89.5t-95 -55.5t-122.5 -19t-122 19t-94 55.5t-60.5 89.5t-21.5 121v442h154v-442q0 -69 37 -107t107 -38t107.5 38t37.5 107v442h155v-442z" />
<glyph unicode="V" horiz-adv-x="668" d="M666 714l-248 -714h-168l-249 714h169l164 -533l163 533h169z" />
<glyph unicode="W" horiz-adv-x="979" d="M776 0h-162l-126 465l-128 -465h-162l-180 714h168l104 -483l135 483h128l136 -485l104 485h170z" />
<glyph unicode="X" horiz-adv-x="694" d="M507 0l-160 259l-163 -259h-186l250 373l-227 341h182l145 -235l143 235h181l-225 -341l249 -373h-189z" />
<glyph unicode="Y" horiz-adv-x="662" d="M409 298v-298h-155v296l-256 418h180l154 -273l155 273h177z" />
<glyph unicode="Z" horiz-adv-x="659" d="M37 0v121l359 457h-344v136h557v-114l-363 -464h373v-136h-582z" />
<glyph unicode="[" horiz-adv-x="330" d="M69 -118v902h244v-95h-119v-713h119v-94h-244z" />
<glyph unicode="\" horiz-adv-x="403" d="M249 0l-220 714h123l220 -714h-123z" />
<glyph unicode="]" horiz-adv-x="330" d="M17 -118v94h119v713h-119v95h244v-902h-244z" />
<glyph unicode="^" d="M508 396l-197 197l-197 -197l-87 86l232 232h104l231 -232z" />
<glyph unicode="_" horiz-adv-x="580" d="M0 -125v50h580v-50h-580z" />
<glyph unicode="`" horiz-adv-x="323" d="M151 580l-109 132l121 38l91 -170h-103z" />
<glyph unicode="a" horiz-adv-x="582" d="M358 259q-16 -17 -42.5 -21.5t-54.5 -9.5q-16 -3 -31 -6.5t-26.5 -11t-18.5 -19.5t-7 -31q0 -34 22 -49t55 -15q44 0 73.5 24.5t29.5 76.5v62zM217 -13q-40 0 -74 11t-59 32.5t-39 52.5t-14 72q0 49 19.5 78.5t49 46t63 23.5t61.5 10q25 3 49 5.5t43 8.5t30.5 16t11.5 28 q0 27 -25 39.5t-63 12.5q-40 0 -82 -13t-82 -39l-55 108q52 32 109.5 47.5t118.5 15.5q51 0 93 -11t72 -34t46 -57.5t16 -82.5v-224q0 -20 7 -28.5t21 -8.5q15 0 25 8l15 -95q-12 -8 -36 -13.5t-45 -5.5q-35 0 -65.5 17t-43.5 52q-26 -36 -71.5 -54t-95.5 -18z" />
<glyph unicode="b" horiz-adv-x="655" d="M213 714v-246q65 74 165 74q56 0 101 -21t76.5 -58t48.5 -87.5t17 -110.5q0 -59 -17 -109.5t-48.5 -88t-76.5 -58.5t-101 -21q-99 0 -165 75v-63h-148v714h148zM213 264q0 -31 8 -58t24 -46.5t40 -31t56 -11.5q31 0 54.5 11.5t39 31.5t23 46.5t7.5 57.5q0 30 -7.5 57.5 t-23 48t-39 32.5t-54.5 12q-32 0 -55.5 -12t-40 -32.5t-24.5 -47.5t-8 -58z" />
<glyph unicode="c" horiz-adv-x="556" d="M303 542q43 0 78 -10t63 -27t49.5 -40t36.5 -49l-105 -74q-21 33 -45.5 53t-66.5 20q-30 0 -53 -11t-39 -31t-24 -47.5t-8 -60.5q0 -68 33 -109.5t95 -41.5q42 0 73 20t56 54l93 -86q-17 -21 -39.5 -41.5t-51.5 -37t-65 -26.5t-80 -10q-62 0 -112 21t-85.5 58t-54.5 87.5 t-19 110.5t19 111t54.5 88t85.5 58t112 21z" />
<glyph unicode="d" horiz-adv-x="655" d="M442 0v63q-65 -75 -165 -75q-56 0 -101.5 21t-77 58t-48.5 87.5t-17 109.5q0 60 17 110.5t48.5 88t77 58.5t101.5 21q99 0 165 -75v247h148v-714h-148zM442 264q0 31 -8 58.5t-24.5 47.5t-40.5 32t-55 12q-32 0 -55 -12t-38.5 -32.5t-23 -47.5t-7.5 -58q0 -30 7.5 -57 t23 -47t38.5 -31.5t55 -11.5t56 11.5t40 31.5t24 46.5t8 57.5z" />
<glyph unicode="e" horiz-adv-x="601" d="M424 325q-4 55 -36 80.5t-80 25.5q-49 0 -80 -27.5t-36 -78.5h232zM32 261q0 60 18.5 111.5t53.5 89t86.5 59t116.5 21.5q62 0 111 -19.5t83 -54.5t52 -84t18 -108q0 -13 -1 -24.5t-2 -21.5h-376q2 -56 39.5 -86t95.5 -30q48 0 82.5 15.5t63.5 47.5l92 -86 q-44 -49 -104.5 -76.5t-142.5 -27.5q-71 0 -124.5 20.5t-89.5 57t-54 87t-18 109.5z" />
<glyph unicode="f" horiz-adv-x="377" d="M362 602q-10 3 -25 6.5t-33 3.5q-24 0 -38 -11t-14 -38v-33h107v-114h-107v-416h-148v416h-83v114h83v36q0 70 46.5 115t137.5 45q51 0 89 -12z" />
<glyph unicode="g" horiz-adv-x="655" d="M591 104q0 -64 -12.5 -114.5t-46.5 -88.5q-22 -24 -50 -40.5t-59.5 -26.5t-65 -14t-66.5 -4q-69 0 -126 15t-102 44l52 114q32 -23 76.5 -36t93.5 -13q33 0 61.5 7t50 22t33.5 39.5t12 59.5v34q-29 -35 -70.5 -55t-96.5 -20t-99.5 20t-76 55t-48.5 82t-17 100t17.5 100 t49 82t76 55.5t99.5 20.5q104 0 166 -74v62h149v-426zM442 286q0 27 -8 51.5t-24.5 42.5t-40.5 28.5t-55 10.5t-54 -10.5t-38.5 -28.5t-23 -42.5t-7.5 -52.5t8 -52.5t23.5 -43t38.5 -29.5t53 -11q31 0 54.5 11t40 29.5t25 43.5t8.5 53z" />
<glyph unicode="h" horiz-adv-x="616" d="M65 0v714h148v-247q32 36 73 55.5t88 19.5q45 0 79 -15t56.5 -40.5t34 -61t11.5 -75.5v-350h-149v316q0 17 -3.5 34t-13 30.5t-26 21.5t-43.5 8q-45 0 -76 -28.5t-31 -81.5v-300h-148z" />
<glyph unicode="i" horiz-adv-x="278" d="M65 0v530h148v-530h-148zM56 663q0 31 22 54t60 23q39 0 61.5 -23t22.5 -54t-22.5 -54t-61.5 -23q-38 0 -60 23t-22 54z" />
<glyph unicode="j" horiz-adv-x="288" d="M224 10q0 -99 -50 -146.5t-128 -47.5q-32 0 -58.5 7t-43.5 18l32 108q18 -13 45 -13q54 0 54 68v526h149v-520zM67 663q0 31 21.5 54t60.5 23t61 -23t22 -54t-22.5 -54t-60.5 -23q-39 0 -60.5 23t-21.5 54z" />
<glyph unicode="k" horiz-adv-x="612" d="M415 530h175l-195 -206l218 -324h-177l-142 225l-82 -89v-136h-148v714h148v-407z" />
<glyph unicode="l" horiz-adv-x="278" d="M65 0v714h148v-714h-148z" />
<glyph unicode="m" horiz-adv-x="935" d="M66 530h148v-62q65 74 155 74q58 0 95 -24.5t54 -66.5q36 49 83.5 70t95.5 21q45 0 78.5 -14.5t55 -40.5t32.5 -61t11 -75v-351h-149v317q0 17 -3 34t-12 30t-25 21t-42 8q-43 0 -71 -28t-28 -81v-301h-148v317q0 17 -3 34t-12 30t-25.5 21t-42.5 8q-44 0 -71.5 -28 t-27.5 -81v-301h-148v530z" />
<glyph unicode="n" horiz-adv-x="616" d="M65 0v530h148v-63q32 36 73 55.5t88 19.5q45 0 79 -15t56.5 -40.5t34 -61t11.5 -75.5v-350h-149v316q0 17 -3.5 34t-13 30.5t-26 21.5t-43.5 8q-45 0 -76 -28.5t-31 -81.5v-300h-148z" />
<glyph unicode="o" horiz-adv-x="627" d="M595 263q0 -62 -20 -112.5t-56.5 -86.5t-89 -56t-116.5 -20q-65 0 -116.5 20t-88.5 56t-56.5 86.5t-19.5 112.5q0 63 19.5 114t56.5 88t88.5 57t116.5 20q64 0 116.5 -20t89 -57t56.5 -88t20 -114zM437 264q0 68 -31.5 110.5t-92.5 42.5q-60 0 -92 -42.5t-32 -110.5 q0 -67 32 -109t92 -42q61 0 92.5 42t31.5 109z" />
<glyph unicode="p" horiz-adv-x="655" d="M213 530v-63q65 75 165 75q56 0 101 -21t76.5 -58.5t48.5 -88t17 -109.5q0 -60 -17 -110.5t-48.5 -87.5t-76.5 -58t-101 -21q-99 0 -165 74v-236h-148v704h148zM213 265q0 -31 8 -58t24.5 -47t40 -31.5t55.5 -11.5q31 0 54.5 11.5t39 32t23 47.5t7.5 57t-7.5 57.5 t-23 47.5t-39 32t-54.5 12q-32 0 -56 -12t-40 -32t-24 -47t-8 -58z" />
<glyph unicode="q" horiz-adv-x="655" d="M442 -174v237q-65 -75 -165 -75q-56 0 -101.5 21t-77 58t-48.5 87.5t-17 109.5q0 60 17 110.5t48.5 88t77 58.5t101.5 21q99 0 165 -75v63h148v-704h-148zM442 264q0 31 -8 58.5t-24.5 47.5t-40.5 32t-55 12q-32 0 -55 -12t-38.5 -32.5t-23 -47.5t-7.5 -58q0 -30 7.5 -57 t23 -47t38.5 -31.5t55 -11.5t56 11.5t40 31.5t24 46.5t8 57.5z" />
<glyph unicode="r" horiz-adv-x="419" d="M383 377q-11 6 -25 10t-31 4q-51 0 -82.5 -37.5t-31.5 -100.5v-253h-148v530h148v-82q25 43 62 67.5t80 24.5q17 0 35 -4t28 -9z" />
<glyph unicode="s" horiz-adv-x="540" d="M509 168q0 -42 -17.5 -76t-49 -57t-75 -35.5t-95.5 -12.5q-88 0 -152 31t-103 78l96 78q27 -36 67.5 -55.5t93.5 -19.5q46 0 69 14.5t23 39.5q0 18 -10.5 27.5t-27.5 15t-38.5 8.5t-43.5 7q-37 6 -72.5 17t-63 30t-44.5 48t-17 70q0 40 16 71t45 52t68.5 32t86.5 11 q79 0 136.5 -28t92.5 -67l-87 -73q-23 26 -59 42.5t-82 16.5q-78 0 -78 -47q0 -15 9 -24t24.5 -15t36 -9.5t44.5 -7.5q41 -6 78.5 -16.5t66 -29t45.5 -46.5t17 -70z" />
<glyph unicode="t" horiz-adv-x="440" d="M429 28q-26 -18 -60.5 -29t-80.5 -11q-51 0 -87.5 15.5t-61.5 50.5q-32 45 -32 121v241h-89v107q30 3 52.5 11.5t37.5 25t23 42t10 62.5h115v-134h151v-114h-151v-235q0 -36 16.5 -50t42.5 -14q42 0 74 24z" />
<glyph unicode="u" horiz-adv-x="614" d="M550 530v-530h-148v62q-32 -35 -73 -54.5t-89 -19.5q-45 0 -79 14.5t-56.5 40.5t-33.5 61t-11 76v350h148v-275q0 -22 1 -45.5t8.5 -43.5t25 -33t51.5 -13q58 0 83 37.5t25 111.5v261h148z" />
<glyph unicode="v" horiz-adv-x="573" d="M362 0h-152l-207 530h166l119 -357l118 357h164z" />
<glyph unicode="w" horiz-adv-x="828" d="M661 0h-150l-97 344l-98 -344h-150l-148 530h163l74 -343l99 343h122l99 -343l75 343h160z" />
<glyph unicode="x" horiz-adv-x="588" d="M403 0l-110 181l-110 -181h-179l191 275l-173 255h175l98 -164l98 164h174l-174 -255l189 -275h-179z" />
<glyph unicode="y" horiz-adv-x="571" d="M359 -17q-16 -41 -34 -72.5t-42 -52.5t-54.5 -31.5t-70.5 -10.5q-35 0 -68 8t-59 25l43 111q26 -23 63 -23q26 0 42.5 14.5t27.5 38.5l12 25l-218 515h170l125 -336l113 336h159z" />
<glyph unicode="z" horiz-adv-x="537" d="M34 0v107l248 294h-236v129h446v-102l-253 -300h261v-128h-466z" />
<glyph unicode="{" horiz-adv-x="377" d="M14 286v93h42q24 0 37.5 8.5t20.5 22t8.5 31.5t1.5 37v139q0 45 13.5 77t37.5 52t57.5 29t74.5 9h54v-94h-37q-24 0 -38.5 -7.5t-23 -20.5t-11.5 -31.5t-3 -40.5v-111q0 -54 -22.5 -91.5t-71.5 -54.5q53 -17 73.5 -58.5t20.5 -100.5v-112q0 -40 16.5 -63.5t59.5 -23.5h37 v-93h-54q-41 0 -74.5 9t-57.5 28.5t-37.5 51.5t-13.5 77v138q0 20 -1.5 38.5t-8.5 32t-20.5 21.5t-37.5 8h-42z" />
<glyph unicode="|" horiz-adv-x="244" d="M65 -108v822h114v-822h-114z" />
<glyph unicode="}" horiz-adv-x="377" d="M321 285q-41 0 -54.5 -22t-13.5 -56v-160q0 -45 -13.5 -77t-38 -51.5t-58 -28.5t-73.5 -9h-55v94h38q43 0 59 23.5t16 63.5v111q0 59 21 100.5t74 58.5q-53 18 -74 59t-21 100v111q0 40 -16 63.5t-59 23.5h-38v94h55q40 0 73.5 -9t58 -29t38 -52t13.5 -77v-159 q0 -33 13.5 -55.5t54.5 -22.5h42v-94h-42z" />
<glyph unicode="~" d="M38 258q29 55 66 93.5t86 46.5q16 3 35 3q19 -2 47 -13t55.5 -24t52 -23.5t37.5 -10.5q51 0 98 63l68 -43q-28 -54 -65 -92.5t-87 -46.5q-8 -2 -16.5 -3t-17.5 0q-19 1 -46.5 12.5t-55 24t-52.5 23t-39 10.5q-52 0 -97 -63z" />
<glyph unicode="&#xa1;" horiz-adv-x="299" d="M57 448q0 19 7 36t20 29.5t29.5 20t36.5 7.5q19 0 36 -7.5t29.5 -20t20 -29.5t7.5 -36q0 -20 -7.5 -36.5t-20 -29.5t-29.5 -20t-36 -7q-39 0 -66 27t-27 66zM99 295h102l37 -469h-175z" />
<glyph unicode="&#xa2;" d="M441 349q-15 26 -35.5 44t-49.5 23v-302q32 6 55.5 25t41.5 44l97 -80q-30 -42 -77.5 -73.5t-116.5 -39.5v-84h-60v84q-57 4 -102 26.5t-77 59t-49 85t-17 105.5t17.5 105.5t49.5 85.5t77 59.5t101 26.5v83h60v-84q36 -5 65.5 -17t53.5 -29.5t42 -38t31 -42.5zM198 267 q0 -60 25.5 -99.5t72.5 -50.5v299q-45 -11 -71.5 -50t-26.5 -99z" />
<glyph unicode="&#xa3;" d="M605 153q-17 -78 -64 -121.5t-112 -43.5q-29 0 -55 7.5t-51 17t-50.5 17t-53.5 7.5q-32 0 -68.5 -12t-77.5 -38l-52 117q57 28 82.5 61t25.5 71q0 12 -2.5 26.5t-7.5 29.5h-99v95h65q-10 27 -17.5 54.5t-7.5 61.5q0 52 19.5 93.5t54.5 70.5t82.5 44.5t104.5 15.5 q92 0 158 -41t110 -119l-127 -64q-20 36 -50 60.5t-79 24.5q-47 0 -78.5 -25.5t-31.5 -76.5q0 -25 7 -49t18 -50h183v-95h-160v-12q0 -34 -12 -70.5t-37 -62.5q20 8 40 11t31 3q16 0 33 -4.5t33 -9.5t31 -9.5t28 -4.5q45 0 66 56z" />
<glyph unicode="&#xa4;" horiz-adv-x="575" d="M178 303q0 -23 8.5 -42.5t23 -34.5t34.5 -23.5t43 -8.5q22 0 42 8.5t34.5 23.5t23 34.5t8.5 42.5t-8.5 43t-23 34.5t-34.5 23t-42 8.5q-23 0 -43 -8.5t-34.5 -23t-23 -34.5t-8.5 -43zM87 303q0 27 7 51.5t19 46.5l-76 76l76 77l77 -77q44 25 97 25t96 -26l77 78l76 -77 l-77 -77q27 -44 27 -97q0 -26 -7 -50.5t-19 -44.5l76 -77l-76 -77l-77 76q-20 -12 -45 -19t-51 -7t-51 7t-47 19l-76 -76l-76 77l76 75q-12 22 -19 46.5t-7 50.5z" />
<glyph unicode="&#xa5;" d="M428 379h133v-67h-167l-13 -27v-51h180v-68h-180v-166h-155v166h-182v68h182v50l-13 28h-169v67h135l-160 335h176l110 -284l108 284h176z" />
<glyph unicode="&#xa6;" horiz-adv-x="258" d="M88 444v318h82v-318h-82zM88 -60v318h82v-318h-82z" />
<glyph unicode="&#xa7;" horiz-adv-x="598" d="M268 146q-39 24 -79 53.5t-72.5 66.5t-53 83.5t-20.5 106.5q0 57 19.5 106t56.5 86t89.5 58t117.5 21q134 0 230 -87l-80 -101q-29 29 -66 45.5t-82 16.5q-63 0 -103 -36l107 -65q43 -26 82.5 -56t70.5 -67t49.5 -82.5t18.5 -102.5t-19.5 -106.5t-56 -86.5t-88.5 -58 t-118 -21t-124 22t-105 65l79 101q29 -29 66.5 -45.5t82.5 -16.5q33 0 57.5 9.5t43.5 26.5zM426 206q0 34 -11.5 61t-33.5 51t-54 47t-71 51l-82 58q-3 -15 -3 -31q0 -36 11.5 -63t33.5 -51t53.5 -47t71.5 -51l82 -57q3 19 3 32z" />
<glyph unicode="&#xa8;" horiz-adv-x="323" d="M-6 644q0 28 19.5 48t46.5 20q28 0 47.5 -19.5t19.5 -48.5q0 -27 -19.5 -46.5t-47.5 -19.5q-27 0 -46.5 19.5t-19.5 46.5zM195 644q0 28 19.5 48t46.5 20q28 0 47.5 -19.5t19.5 -48.5q0 -27 -19.5 -46.5t-47.5 -19.5q-27 0 -46.5 19.5t-19.5 46.5z" />
<glyph unicode="&#xa9;" horiz-adv-x="795" d="M590 243q-35 -59 -85 -87.5t-107 -28.5q-44 0 -83 17t-68 46t-45.5 68t-16.5 84t16.5 84t45.5 68t68 45.5t83 16.5q57 0 105.5 -27t84.5 -87l-90 -59q-19 33 -44.5 48t-54.5 15q-21 0 -39.5 -8t-32.5 -22.5t-22 -33.5t-8 -40t8 -40.5t22 -34t32.5 -23t39.5 -8.5 q62 0 100 66zM37 342q0 75 28.5 140.5t77.5 114t114.5 77t139.5 28.5t139.5 -28.5t114.5 -77t77.5 -114t28.5 -140.5t-28.5 -140.5t-77.5 -114t-114.5 -77t-139.5 -28.5t-139.5 28.5t-114.5 77t-77.5 114t-28.5 140.5zM107 342q0 -60 23 -113t62 -92.5t92 -62.5t113 -23 t113 23t92.5 62.5t62.5 92.5t23 113t-23 113t-62.5 92t-92.5 62t-113 23t-113 -23t-92 -62t-62 -92t-23 -113z" />
<glyph unicode="&#xaa;" horiz-adv-x="445" d="M410 376q-11 -7 -30 -9.5t-31 -2.5q-25 0 -45.5 8.5t-30.5 29.5q-21 -23 -50.5 -32t-61.5 -9q-54 0 -89.5 28t-35.5 82q0 37 16 58t39.5 31.5t51.5 14t51.5 6t39.5 7.5t16 18q0 17 -19 23t-37 6q-26 0 -56 -8.5t-56 -25.5l-35 80q35 22 78 31.5t82 9.5q72 0 113 -30 t41 -99v-133q0 -10 3 -14t13 -4q2 0 8 1t11 4zM251 529q-11 -8 -24.5 -11t-32.5 -6q-22 -4 -37 -10t-15 -27q0 -19 13 -26.5t30 -7.5q29 0 47.5 14t18.5 44v30z" />
<glyph unicode="&#xab;" horiz-adv-x="501" d="M20 302l163 208l73 -55l-115 -180l115 -180l-73 -54l-163 207v54zM230 302l163 208l72 -55l-114 -180l114 -180l-72 -54l-163 207v54z" />
<glyph unicode="&#xac;" horiz-adv-x="576" d="M428 53v197h-395v108h502v-305h-107z" />
<glyph unicode="&#xad;" horiz-adv-x="413" d="M53 215v132h307v-132h-307z" />
<glyph unicode="&#xae;" horiz-adv-x="444" d="M406 542q0 -38 -14.5 -71.5t-39.5 -58t-58.5 -39t-71.5 -14.5t-71.5 14.5t-58.5 39t-39 58t-14 71.5t14 71.5t39 58.5t58.5 39.5t71.5 14.5t71.5 -14.5t58.5 -39.5t39.5 -58.5t14.5 -71.5zM379 542q0 33 -12.5 61.5t-34 49.5t-50 33.5t-60.5 12.5q-33 0 -61.5 -12.5 t-49.5 -33.5t-33 -49.5t-12 -61.5q0 -32 12 -60.5t33 -49.5t49.5 -33.5t61.5 -12.5q32 0 60.5 12.5t50 33.5t34 49.5t12.5 60.5zM313 447h-60l-24 64h-33v-64h-53v192h94q35 0 54 -17.5t19 -45.5q0 -22 -9.5 -36.5t-25.5 -20.5zM255 575q0 13 -8 18t-19 5h-32v-48h36 q9 0 16 6t7 19z" />
<glyph unicode="&#xaf;" horiz-adv-x="340" d="M5 601v80h330v-80h-330z" />
<glyph unicode="&#xb0;" horiz-adv-x="380" d="M350 566q0 -33 -12.5 -62t-34.5 -51t-51 -34.5t-62 -12.5t-62.5 12.5t-51.5 34.5t-34.5 51t-12.5 62t12.5 62.5t34.5 51.5t51.5 34.5t62.5 12.5t62 -12.5t51 -34.5t34.5 -51.5t12.5 -62.5zM259 566q0 29 -20 49t-49 20t-49.5 -20t-20.5 -49t20.5 -49t49.5 -20t49 20 t20 49z" />
<glyph unicode="&#xb1;" d="M51 0v123h516v-123h-516zM371 345v-171h-124v171h-196v122h196v173h124v-173h196v-122h-196z" />
<glyph unicode="&#xb2;" horiz-adv-x="414" d="M38 371v80q56 39 96 69t65 54t36.5 44.5t11.5 41.5q0 23 -15.5 36.5t-39.5 13.5q-25 0 -46 -15t-35 -41l-88 49q29 45 72 75t105 30q37 0 67.5 -10t52.5 -28.5t34 -45t12 -59.5q0 -49 -36.5 -96.5t-117.5 -100.5h170v-97h-344z" />
<glyph unicode="&#xb3;" horiz-adv-x="419" d="M386 497q0 -28 -12 -52.5t-35.5 -42.5t-57 -28.5t-75.5 -10.5q-65 0 -109 23t-74 56l77 63q14 -19 39.5 -32t62.5 -13q34 0 51 12t17 32q0 19 -15.5 28t-40.5 9h-56v92h54q18 0 33.5 9t15.5 29t-17 29.5t-43 9.5q-27 0 -52.5 -9.5t-45.5 -29.5l-65 69q35 32 75 50t94 18 q34 0 64.5 -7.5t52.5 -23t35 -38.5t13 -54q0 -59 -52 -90q34 -14 50 -41t16 -57z" />
<glyph unicode="&#xb4;" horiz-adv-x="323" d="M80 580l91 170l121 -38l-109 -132h-103z" />
<glyph unicode="&#xb6;" horiz-adv-x="575" d="M448 -91v714h-58v-714h-97v368h-40q-47 0 -87 15.5t-69.5 44t-46 69t-16.5 90.5t17 90t47 68.5t70 44t85 15.5h250v-805h-55z" />
<glyph unicode="&#xb7;" horiz-adv-x="276" d="M230 304q0 -19 -7 -35.5t-19.5 -29t-29.5 -20t-36 -7.5q-38 0 -65 27t-27 65q0 19 7.5 36t20 29.5t29 20t35.5 7.5t36 -7.5t29.5 -20t19.5 -29.5t7 -36z" />
<glyph unicode="&#xb8;" horiz-adv-x="323" d="M107 -200q-50 0 -78 13v61q13 -10 31 -13t30 -3q25 0 39 8.5t14 23.5q0 7 -3 10.5t-6 5.5h-57l18 60q10 6 25 9.5t31 3.5q45 0 75 -22t30 -61q0 -46 -42 -71t-107 -25z" />
<glyph unicode="&#xb9;" horiz-adv-x="400" d="M294 371h-111v312q-20 -8 -48.5 -15t-56.5 -10l-14 86q55 8 89 22t58 34h83v-429z" />
<glyph unicode="&#xba;" horiz-adv-x="442" d="M412 542q0 -41 -13.5 -74t-38.5 -57t-60.5 -37t-79.5 -13t-79 13t-59.5 37t-38 57t-13.5 74q0 40 13.5 73t38 57t59.5 37t79 13t79.5 -13t60.5 -37t38.5 -57t13.5 -73zM296 542q0 38 -19 63t-57 25q-36 0 -55.5 -25t-19.5 -63q0 -39 19.5 -63.5t55.5 -24.5q38 0 57 24.5 t19 63.5z" />
<glyph unicode="&#xbb;" horiz-adv-x="501" d="M481 248l-163 -207l-73 54l115 180l-115 180l73 55l163 -208v-54zM271 248l-162 -207l-73 54l115 180l-115 180l73 55l162 -208v-54z" />
<glyph unicode="&#xbc;" horiz-adv-x="1049" d="M294 285h-111v312q-20 -8 -48.5 -15t-56.5 -10l-14 86q55 8 89 22t58 34h83v-429zM332 0h-110l482 714h110zM948 85v-85h-108v85h-200v81q25 23 55 58t58.5 73t51 73.5t32.5 58.5h111v-251h64v-93h-64zM842 178l3 128q-20 -32 -45 -64t-54 -64h96z" />
<glyph unicode="&#xbd;" horiz-adv-x="1049" d="M294 285h-111v312q-20 -8 -48.5 -15t-56.5 -10l-14 86q55 8 89 22t58 34h83v-429zM332 0h-110l482 714h110zM656 0v81q56 39 96 68.5t65 53.5t36.5 45t11.5 42q0 23 -15.5 36t-39.5 13q-25 0 -46 -14.5t-35 -41.5l-88 49q29 45 72 75t105 30q75 0 120.5 -38t45.5 -105 q0 -49 -36.5 -96.5t-117.5 -100.5h170v-97h-344z" />
<glyph unicode="&#xbe;" horiz-adv-x="1049" d="M386 411q0 -28 -12 -52.5t-35.5 -42.5t-57 -28.5t-75.5 -10.5q-65 0 -109 23t-74 56l77 63q14 -19 39.5 -32t62.5 -13q34 0 51 12t17 32q0 19 -15.5 28t-40.5 9h-56v92h54q18 0 33.5 9t15.5 29t-17 29.5t-43 9.5q-27 0 -52.5 -9.5t-45.5 -29.5l-65 69q35 32 75 50t94 18 q34 0 64.5 -7.5t52.5 -23t35 -38.5t13 -54q0 -59 -52 -90q34 -14 50 -41t16 -57zM349 0h-110l482 714h110zM948 85v-85h-108v85h-200v81q25 23 55 58t58.5 73t51 73.5t32.5 58.5h111v-251h64v-93h-64zM842 178l3 128q-20 -32 -45 -64t-54 -64h96z" />
<glyph unicode="&#xbf;" horiz-adv-x="556" d="M52 25q0 43 15 74t37 54t48 40t48 32.5t37 31t15 35.5v11h147v-16q0 -36 -14 -62t-35 -45.5t-45 -35t-45 -32t-35 -35.5t-14 -45q0 -35 27.5 -60t80.5 -25q35 0 74 14t72 46l70 -104q-47 -41 -104.5 -64t-127.5 -23q-56 0 -102 15t-79 43t-51.5 66t-18.5 85zM416 448 q0 -39 -27 -66t-66 -27q-19 0 -36 7t-29.5 20t-20 29.5t-7.5 36.5q0 19 7.5 36t20 29.5t29.5 20t36 7.5t36 -7.5t29.5 -20t20 -29.5t7.5 -36z" />
<glyph unicode="&#xc0;" horiz-adv-x="695" d="M535 0l-54 163h-265l-54 -163h-161l263 714h177l262 -714h-168zM349 565l-93 -276h184zM304 748l-109 132l121 38l91 -170h-103z" />
<glyph unicode="&#xc1;" horiz-adv-x="695" d="M535 0l-54 163h-265l-54 -163h-161l263 714h177l262 -714h-168zM349 565l-93 -276h184zM286 748l91 170l121 -38l-109 -132h-103z" />
<glyph unicode="&#xc2;" horiz-adv-x="695" d="M535 0l-54 163h-265l-54 -163h-161l263 714h177l262 -714h-168zM349 565l-93 -276h184zM405 909q24 -26 54 -52.5t67 -55.5l-43 -58l-130 66l-131 -66l-43 58q37 29 67.5 55.5t53.5 52.5h105z" />
<glyph unicode="&#xc3;" horiz-adv-x="695" d="M535 0l-54 163h-265l-54 -163h-161l263 714h177l262 -714h-168zM349 565l-93 -276h184zM543 858q-8 -20 -20 -38.5t-28 -33t-35 -23.5t-41 -9q-21 0 -38.5 7t-32.5 15t-29 15t-29 7q-34 0 -52 -44l-71 40q8 20 20 38.5t28 33t35 23.5t41 9q20 0 37 -7t32.5 -15.5 t29.5 -15.5t29 -7q35 0 54 45z" />
<glyph unicode="&#xc4;" horiz-adv-x="695" d="M535 0l-54 163h-265l-54 -163h-161l263 714h177l262 -714h-168zM349 565l-93 -276h184zM186 812q0 28 19.5 48t46.5 20q28 0 47.5 -19.5t19.5 -48.5q0 -27 -19.5 -46.5t-47.5 -19.5q-27 0 -46.5 19.5t-19.5 46.5zM387 812q0 28 19.5 48t46.5 20q28 0 47.5 -19.5 t19.5 -48.5q0 -27 -19.5 -46.5t-47.5 -19.5q-27 0 -46.5 19.5t-19.5 46.5z" />
<glyph unicode="&#xc5;" horiz-adv-x="704" d="M349 568l-94 -279h185zM303 763q0 -20 14.5 -34.5t34.5 -14.5t34.5 14.5t14.5 34.5t-14.5 34t-34.5 14t-34.5 -14t-14.5 -34zM233 763q0 44 33 75t86 31t86 -31t33 -75q0 -37 -25 -64l256 -699h-166l-55 163h-266l-55 -163h-159l257 699q-25 27 -25 64z" />
<glyph unicode="&#xc6;" horiz-adv-x="974" d="M452 0v163h-218l-84 -163h-162l371 714h562v-135h-314v-150h275v-124h-275v-170h324v-135h-479zM452 581l-30 -32l-130 -262h160v294z" />
<glyph unicode="&#xc7;" horiz-adv-x="712" d="M571 490q-32 54 -79 77t-98 23q-48 0 -84.5 -17.5t-62 -48t-38.5 -73t-13 -93.5t13 -94t38.5 -74t63.5 -48.5t87 -17.5q65 0 109 29.5t72 77.5l112 -82q-48 -75 -121.5 -118.5t-176.5 -43.5q-79 0 -144.5 27t-113 75.5t-74 116.5t-26.5 151t26.5 151t74 117t113 75.5 t142.5 26.5q100 0 172 -41.5t123 -113.5zM320 -200q-50 0 -78 13v61q13 -10 31 -13t30 -3q25 0 39 8.5t14 23.5q0 7 -3 10.5t-6 5.5h-57l18 60q10 6 25 9.5t31 3.5q45 0 75 -22t30 -61q0 -46 -42 -71t-107 -25z" />
<glyph unicode="&#xc8;" horiz-adv-x="642" d="M73 0v714h518v-136h-363v-149h323v-125h-323v-168h373v-136h-528zM294 748l-109 132l121 38l91 -170h-103z" />
<glyph unicode="&#xc9;" horiz-adv-x="642" d="M73 0v714h518v-136h-363v-149h323v-125h-323v-168h373v-136h-528zM271 748l91 170l121 -38l-109 -132h-103z" />
<glyph unicode="&#xca;" horiz-adv-x="642" d="M73 0v714h518v-136h-363v-149h323v-125h-323v-168h373v-136h-528zM383 915q24 -26 54 -52.5t67 -55.5l-43 -58l-130 66l-131 -66l-43 58q37 29 67.5 55.5t53.5 52.5h105z" />
<glyph unicode="&#xcb;" horiz-adv-x="642" d="M73 0v714h518v-136h-363v-149h323v-125h-323v-168h373v-136h-528zM164 812q0 28 19.5 48t46.5 20q28 0 47.5 -19.5t19.5 -48.5q0 -27 -19.5 -46.5t-47.5 -19.5q-27 0 -46.5 19.5t-19.5 46.5zM365 812q0 28 19.5 48t46.5 20q28 0 47.5 -19.5t19.5 -48.5q0 -27 -19.5 -46.5 t-47.5 -19.5q-27 0 -46.5 19.5t-19.5 46.5z" />
<glyph unicode="&#xcc;" horiz-adv-x="301" d="M73 0v714h155v-714h-155zM117 748l-109 132l121 38l91 -170h-103z" />
<glyph unicode="&#xcd;" horiz-adv-x="301" d="M73 0v714h155v-714h-155zM82 748l91 170l121 -38l-109 -132h-103z" />
<glyph unicode="&#xce;" horiz-adv-x="301" d="M73 0v714h155v-714h-155zM202 906q24 -26 54 -52.5t67 -55.5l-43 -58l-130 66l-131 -66l-43 58q37 29 67.5 55.5t53.5 52.5h105z" />
<glyph unicode="&#xcf;" horiz-adv-x="301" d="M73 0v714h155v-714h-155zM-17 812q0 28 19.5 48t46.5 20q28 0 47.5 -19.5t19.5 -48.5q0 -27 -19.5 -46.5t-47.5 -19.5q-27 0 -46.5 19.5t-19.5 46.5zM184 812q0 28 19.5 48t46.5 20q28 0 47.5 -19.5t19.5 -48.5q0 -27 -19.5 -46.5t-47.5 -19.5q-27 0 -46.5 19.5 t-19.5 46.5z" />
<glyph unicode="&#xd0;" horiz-adv-x="772" d="M87 0v322h-59v80h59v312h287q86 0 153 -27t113.5 -75t70.5 -113.5t24 -141.5t-24 -141.5t-70.5 -113.5t-113.5 -75t-153 -27h-287zM374 136q99 0 150 60t51 161q0 50 -13 90.5t-38 69.5t-63 45t-87 16h-132v-176h138v-80h-138v-186h132z" />
<glyph unicode="&#xd1;" horiz-adv-x="762" d="M688 0h-154l-312 482v-482h-149v714h163l304 -472v472h148v-714zM565 858q-8 -20 -20 -38.5t-28 -33t-35 -23.5t-41 -9q-21 0 -38.5 7t-32.5 15t-29 15t-29 7q-34 0 -52 -44l-71 40q8 20 20 38.5t28 33t35 23.5t41 9q20 0 37 -7t32.5 -15.5t29.5 -15.5t29 -7q35 0 54 45z " />
<glyph unicode="&#xd2;" horiz-adv-x="785" d="M750 357q0 -78 -25.5 -145.5t-72 -117.5t-113 -78.5t-147.5 -28.5t-147 28.5t-112.5 78.5t-72 117.5t-25.5 145.5t25.5 145.5t72 117.5t112.5 78.5t147 28.5t147.5 -28.5t113 -78.5t72 -117.5t25.5 -145.5zM590 357q0 49 -13 91.5t-38.5 73.5t-62 49t-84.5 18t-84.5 -18 t-61.5 -49t-38 -73.5t-13 -91.5q0 -50 13 -92t38 -73.5t61.5 -49t84.5 -17.5t84.5 18t62 49t38.5 73.5t13 91.5zM356 748l-109 132l121 38l91 -170h-103z" />
<glyph unicode="&#xd3;" horiz-adv-x="785" d="M750 357q0 -78 -25.5 -145.5t-72 -117.5t-113 -78.5t-147.5 -28.5t-147 28.5t-112.5 78.5t-72 117.5t-25.5 145.5t25.5 145.5t72 117.5t112.5 78.5t147 28.5t147.5 -28.5t113 -78.5t72 -117.5t25.5 -145.5zM590 357q0 49 -13 91.5t-38.5 73.5t-62 49t-84.5 18t-84.5 -18 t-61.5 -49t-38 -73.5t-13 -91.5q0 -50 13 -92t38 -73.5t61.5 -49t84.5 -17.5t84.5 18t62 49t38.5 73.5t13 91.5zM318 748l91 170l121 -38l-109 -132h-103z" />
<glyph unicode="&#xd4;" horiz-adv-x="785" d="M750 357q0 -78 -25.5 -145.5t-72 -117.5t-113 -78.5t-147.5 -28.5t-147 28.5t-112.5 78.5t-72 117.5t-25.5 145.5t25.5 145.5t72 117.5t112.5 78.5t147 28.5t147.5 -28.5t113 -78.5t72 -117.5t25.5 -145.5zM590 357q0 49 -13 91.5t-38.5 73.5t-62 49t-84.5 18t-84.5 -18 t-61.5 -49t-38 -73.5t-13 -91.5q0 -50 13 -92t38 -73.5t61.5 -49t84.5 -17.5t84.5 18t62 49t38.5 73.5t13 91.5zM445 915q24 -26 54 -52.5t67 -55.5l-43 -58l-130 66l-131 -66l-43 58q37 29 67.5 55.5t53.5 52.5h105z" />
<glyph unicode="&#xd5;" horiz-adv-x="785" d="M750 357q0 -78 -25.5 -145.5t-72 -117.5t-113 -78.5t-147.5 -28.5t-147 28.5t-112.5 78.5t-72 117.5t-25.5 145.5t25.5 145.5t72 117.5t112.5 78.5t147 28.5t147.5 -28.5t113 -78.5t72 -117.5t25.5 -145.5zM590 357q0 49 -13 91.5t-38.5 73.5t-62 49t-84.5 18t-84.5 -18 t-61.5 -49t-38 -73.5t-13 -91.5q0 -50 13 -92t38 -73.5t61.5 -49t84.5 -17.5t84.5 18t62 49t38.5 73.5t13 91.5zM584 858q-8 -20 -20 -38.5t-28 -33t-35 -23.5t-41 -9q-21 0 -38.5 7t-32.5 15t-29 15t-29 7q-34 0 -52 -44l-71 40q8 20 20 38.5t28 33t35 23.5t41 9 q20 0 37 -7t32.5 -15.5t29.5 -15.5t29 -7q35 0 54 45z" />
<glyph unicode="&#xd6;" horiz-adv-x="785" d="M750 357q0 -78 -25.5 -145.5t-72 -117.5t-113 -78.5t-147.5 -28.5t-147 28.5t-112.5 78.5t-72 117.5t-25.5 145.5t25.5 145.5t72 117.5t112.5 78.5t147 28.5t147.5 -28.5t113 -78.5t72 -117.5t25.5 -145.5zM590 357q0 49 -13 91.5t-38.5 73.5t-62 49t-84.5 18t-84.5 -18 t-61.5 -49t-38 -73.5t-13 -91.5q0 -50 13 -92t38 -73.5t61.5 -49t84.5 -17.5t84.5 18t62 49t38.5 73.5t13 91.5zM225 812q0 28 19.5 48t46.5 20q28 0 47.5 -19.5t19.5 -48.5q0 -27 -19.5 -46.5t-47.5 -19.5q-27 0 -46.5 19.5t-19.5 46.5zM426 812q0 28 19.5 48t46.5 20 q28 0 47.5 -19.5t19.5 -48.5q0 -27 -19.5 -46.5t-47.5 -19.5q-27 0 -46.5 19.5t-19.5 46.5z" />
<glyph unicode="&#xd7;" d="M482 45l-172 172l-173 -172l-87 87l172 172l-172 172l87 87l173 -171l172 171l87 -87l-171 -172l171 -172z" />
<glyph unicode="&#xd8;" horiz-adv-x="785" d="M635 636q55 -51 85 -122.5t30 -156.5q0 -78 -25.5 -145.5t-72 -117.5t-113 -78.5t-147.5 -28.5q-48 0 -90 10t-78 28l-17 -25h-110l52 76q-56 51 -85 123.5t-29 157.5q0 78 25.5 145.5t72 117.5t112.5 78.5t147 28.5q48 0 90 -10t79 -29l18 26h110zM590 357q0 44 -11 82 t-31 67l-244 -362q19 -9 40.5 -14t47.5 -5q48 0 84.5 18t62 49t38.5 73.5t13 91.5zM195 357q0 -90 41 -151l244 362q-38 21 -88 21q-48 0 -84.5 -18t-61.5 -49t-38 -73.5t-13 -91.5z" />
<glyph unicode="&#xd9;" horiz-adv-x="732" d="M665 272q0 -68 -21.5 -121t-61 -89.5t-95 -55.5t-122.5 -19t-122 19t-94 55.5t-60.5 89.5t-21.5 121v442h154v-442q0 -69 37 -107t107 -38t107.5 38t37.5 107v442h155v-442zM331 748l-109 132l121 38l91 -170h-103z" />
<glyph unicode="&#xda;" horiz-adv-x="732" d="M665 272q0 -68 -21.5 -121t-61 -89.5t-95 -55.5t-122.5 -19t-122 19t-94 55.5t-60.5 89.5t-21.5 121v442h154v-442q0 -69 37 -107t107 -38t107.5 38t37.5 107v442h155v-442zM295 748l91 170l121 -38l-109 -132h-103z" />
<glyph unicode="&#xdb;" horiz-adv-x="732" d="M665 272q0 -68 -21.5 -121t-61 -89.5t-95 -55.5t-122.5 -19t-122 19t-94 55.5t-60.5 89.5t-21.5 121v442h154v-442q0 -69 37 -107t107 -38t107.5 38t37.5 107v442h155v-442zM417 915q24 -26 54 -52.5t67 -55.5l-43 -58l-130 66l-131 -66l-43 58q37 29 67.5 55.5 t53.5 52.5h105z" />
<glyph unicode="&#xdc;" horiz-adv-x="732" d="M665 272q0 -68 -21.5 -121t-61 -89.5t-95 -55.5t-122.5 -19t-122 19t-94 55.5t-60.5 89.5t-21.5 121v442h154v-442q0 -69 37 -107t107 -38t107.5 38t37.5 107v442h155v-442zM198 812q0 28 19.5 48t46.5 20q28 0 47.5 -19.5t19.5 -48.5q0 -27 -19.5 -46.5t-47.5 -19.5 q-27 0 -46.5 19.5t-19.5 46.5zM399 812q0 28 19.5 48t46.5 20q28 0 47.5 -19.5t19.5 -48.5q0 -27 -19.5 -46.5t-47.5 -19.5q-27 0 -46.5 19.5t-19.5 46.5z" />
<glyph unicode="&#xdd;" horiz-adv-x="662" d="M409 298v-298h-155v296l-256 418h180l154 -273l155 273h177zM265 748l91 170l121 -38l-109 -132h-103z" />
<glyph unicode="&#xde;" horiz-adv-x="673" d="M227 162v-162h-154v714h154v-81h147q64 0 115.5 -16t87 -46t54.5 -73t19 -97t-19 -98t-54.5 -75.5t-86.5 -48.5t-116 -17h-147zM373 297q57 0 89 26.5t32 76.5q0 49 -32 73.5t-89 24.5h-146v-201h146z" />
<glyph unicode="&#xdf;" horiz-adv-x="653" d="M622 205q0 -50 -18 -90t-50 -68t-76.5 -43t-96.5 -15q-36 0 -70.5 5t-59.5 15l28 127q14 -7 34 -12t45 -5q45 0 76 25t31 75q0 26 -9.5 44t-26 29t-39.5 16t-51 5h-58v122h52q43 0 72 20t29 62q0 23 -9 39t-24 26.5t-34.5 15t-41.5 4.5q-54 0 -83.5 -26t-29.5 -76v-500 h-148v502q0 105 67.5 164.5t196.5 59.5q55 0 102 -12.5t81 -37t53 -60.5t19 -84t-24 -87t-67 -62q27 -8 50.5 -22.5t41.5 -36t28 -51t10 -68.5z" />
<glyph unicode="&#xe0;" horiz-adv-x="585" d="M358 259q-16 -17 -42.5 -21.5t-54.5 -9.5q-16 -3 -31 -6.5t-26.5 -11t-18.5 -19.5t-7 -31q0 -34 22 -49t55 -15q44 0 73.5 24.5t29.5 76.5v62zM217 -13q-40 0 -74 11t-59 32.5t-39 52.5t-14 72q0 49 19.5 78.5t49 46t63 23.5t61.5 10q25 3 49 5.5t43 8.5t30.5 16t11.5 28 q0 27 -25 39.5t-63 12.5q-40 0 -82 -13t-82 -39l-55 108q52 32 109.5 47.5t118.5 15.5q51 0 93 -11t72 -34t46 -57.5t16 -82.5v-224q0 -20 7 -28.5t21 -8.5q15 0 25 8l15 -95q-12 -8 -36 -13.5t-45 -5.5q-35 0 -65.5 17t-43.5 52q-26 -36 -71.5 -54t-95.5 -18zM254 580 l-109 132l121 38l91 -170h-103z" />
<glyph unicode="&#xe1;" horiz-adv-x="585" d="M358 259q-16 -17 -42.5 -21.5t-54.5 -9.5q-16 -3 -31 -6.5t-26.5 -11t-18.5 -19.5t-7 -31q0 -34 22 -49t55 -15q44 0 73.5 24.5t29.5 76.5v62zM217 -13q-40 0 -74 11t-59 32.5t-39 52.5t-14 72q0 49 19.5 78.5t49 46t63 23.5t61.5 10q25 3 49 5.5t43 8.5t30.5 16t11.5 28 q0 27 -25 39.5t-63 12.5q-40 0 -82 -13t-82 -39l-55 108q52 32 109.5 47.5t118.5 15.5q51 0 93 -11t72 -34t46 -57.5t16 -82.5v-224q0 -20 7 -28.5t21 -8.5q15 0 25 8l15 -95q-12 -8 -36 -13.5t-45 -5.5q-35 0 -65.5 17t-43.5 52q-26 -36 -71.5 -54t-95.5 -18zM210 580 l91 170l121 -38l-109 -132h-103z" />
<glyph unicode="&#xe2;" horiz-adv-x="585" d="M358 259q-16 -17 -42.5 -21.5t-54.5 -9.5q-16 -3 -31 -6.5t-26.5 -11t-18.5 -19.5t-7 -31q0 -34 22 -49t55 -15q44 0 73.5 24.5t29.5 76.5v62zM217 -13q-40 0 -74 11t-59 32.5t-39 52.5t-14 72q0 49 19.5 78.5t49 46t63 23.5t61.5 10q25 3 49 5.5t43 8.5t30.5 16t11.5 28 q0 27 -25 39.5t-63 12.5q-40 0 -82 -13t-82 -39l-55 108q52 32 109.5 47.5t118.5 15.5q51 0 93 -11t72 -34t46 -57.5t16 -82.5v-224q0 -20 7 -28.5t21 -8.5q15 0 25 8l15 -95q-12 -8 -36 -13.5t-45 -5.5q-35 0 -65.5 17t-43.5 52q-26 -36 -71.5 -54t-95.5 -18zM327 738 q24 -26 54 -52.5t67 -55.5l-43 -58l-130 66l-131 -66l-43 58q37 29 67.5 55.5t53.5 52.5h105z" />
<glyph unicode="&#xe3;" horiz-adv-x="585" d="M358 259q-16 -17 -42.5 -21.5t-54.5 -9.5q-16 -3 -31 -6.5t-26.5 -11t-18.5 -19.5t-7 -31q0 -34 22 -49t55 -15q44 0 73.5 24.5t29.5 76.5v62zM217 -13q-40 0 -74 11t-59 32.5t-39 52.5t-14 72q0 49 19.5 78.5t49 46t63 23.5t61.5 10q25 3 49 5.5t43 8.5t30.5 16t11.5 28 q0 27 -25 39.5t-63 12.5q-40 0 -82 -13t-82 -39l-55 108q52 32 109.5 47.5t118.5 15.5q51 0 93 -11t72 -34t46 -57.5t16 -82.5v-224q0 -20 7 -28.5t21 -8.5q15 0 25 8l15 -95q-12 -8 -36 -13.5t-45 -5.5q-35 0 -65.5 17t-43.5 52q-26 -36 -71.5 -54t-95.5 -18zM471 690 q-8 -20 -20 -38.5t-28 -33t-35 -23.5t-41 -9q-21 0 -38.5 7t-32.5 15t-29 15t-29 7q-34 0 -52 -44l-71 40q8 20 20 38.5t28 33t35 23.5t41 9q20 0 37 -7t32.5 -15.5t29.5 -15.5t29 -7q35 0 54 45z" />
<glyph unicode="&#xe4;" horiz-adv-x="585" d="M358 259q-16 -17 -42.5 -21.5t-54.5 -9.5q-16 -3 -31 -6.5t-26.5 -11t-18.5 -19.5t-7 -31q0 -34 22 -49t55 -15q44 0 73.5 24.5t29.5 76.5v62zM217 -13q-40 0 -74 11t-59 32.5t-39 52.5t-14 72q0 49 19.5 78.5t49 46t63 23.5t61.5 10q25 3 49 5.5t43 8.5t30.5 16t11.5 28 q0 27 -25 39.5t-63 12.5q-40 0 -82 -13t-82 -39l-55 108q52 32 109.5 47.5t118.5 15.5q51 0 93 -11t72 -34t46 -57.5t16 -82.5v-224q0 -20 7 -28.5t21 -8.5q15 0 25 8l15 -95q-12 -8 -36 -13.5t-45 -5.5q-35 0 -65.5 17t-43.5 52q-26 -36 -71.5 -54t-95.5 -18zM111 644 q0 28 19.5 48t46.5 20q28 0 47.5 -19.5t19.5 -48.5q0 -27 -19.5 -46.5t-47.5 -19.5q-27 0 -46.5 19.5t-19.5 46.5zM312 644q0 28 19.5 48t46.5 20q28 0 47.5 -19.5t19.5 -48.5q0 -27 -19.5 -46.5t-47.5 -19.5q-27 0 -46.5 19.5t-19.5 46.5z" />
<glyph unicode="&#xe5;" horiz-adv-x="585" d="M358 259q-16 -17 -42.5 -21.5t-54.5 -9.5q-16 -3 -31 -6.5t-26.5 -11t-18.5 -19.5t-7 -31q0 -34 22 -49t55 -15q44 0 73.5 24.5t29.5 76.5v62zM217 -13q-40 0 -74 11t-59 32.5t-39 52.5t-14 72q0 49 19.5 78.5t49 46t63 23.5t61.5 10q25 3 49 5.5t43 8.5t30.5 16t11.5 28 q0 27 -25 39.5t-63 12.5q-40 0 -82 -13t-82 -39l-55 108q52 32 109.5 47.5t118.5 15.5q51 0 93 -11t72 -34t46 -57.5t16 -82.5v-224q0 -20 7 -28.5t21 -8.5q15 0 25 8l15 -95q-12 -8 -36 -13.5t-45 -5.5q-35 0 -65.5 17t-43.5 52q-26 -36 -71.5 -54t-95.5 -18zM399 675 q0 -23 -9 -42.5t-25.5 -33.5t-39 -22.5t-49.5 -8.5q-54 0 -88 31t-34 76q0 22 9 41.5t25 34t38.5 23t49.5 8.5t49.5 -8.5t39 -23t25.5 -34t9 -41.5zM327 674q0 21 -15 36t-36 15t-36 -15t-15 -36t15 -36t36 -15t36 15t15 36z" />
<glyph unicode="&#xe6;" horiz-adv-x="915" d="M357 262q-11 -13 -28.5 -19.5t-37 -10t-40 -6.5t-36.5 -10t-26.5 -20t-10.5 -36q0 -34 21.5 -49t55.5 -15q43 0 72.5 24.5t29.5 76.5v65zM876 86q-47 -51 -108 -75t-132 -24q-72 0 -122.5 23.5t-85.5 65.5q-29 -42 -79 -65.5t-119 -23.5q-92 0 -146 43t-54 124 q0 42 14.5 69.5t37.5 44.5t51 26t56 14q33 5 63.5 8t54 8t37 15t13.5 30q0 30 -27 42t-61 12q-39 0 -81.5 -13t-81.5 -39l-55 108q51 32 108.5 47.5t113.5 15.5q123 0 175 -70q35 37 78 53.5t97 16.5q61 0 109.5 -19.5t82.5 -55t52 -85t18 -109.5q0 -25 -3 -43h-377 q3 -57 40 -87t99 -30q43 0 77.5 15t64.5 46zM738 325q-4 54 -36 80t-80 26q-49 0 -80.5 -27.5t-35.5 -78.5h232z" />
<glyph unicode="&#xe7;" horiz-adv-x="556" d="M303 542q43 0 78 -10t63 -27t49.5 -40t36.5 -49l-105 -74q-21 33 -45.5 53t-66.5 20q-30 0 -53 -11t-39 -31t-24 -47.5t-8 -60.5q0 -68 33 -109.5t95 -41.5q42 0 73 20t56 54l93 -86q-17 -21 -39.5 -41.5t-51.5 -37t-65 -26.5t-80 -10q-62 0 -112 21t-85.5 58t-54.5 87.5 t-19 110.5t19 111t54.5 88t85.5 58t112 21zM245 -200q-50 0 -78 13v61q13 -10 31 -13t30 -3q25 0 39 8.5t14 23.5q0 7 -3 10.5t-6 5.5h-57l18 60q10 6 25 9.5t31 3.5q45 0 75 -22t30 -61q0 -46 -42 -71t-107 -25z" />
<glyph unicode="&#xe8;" horiz-adv-x="610" d="M424 325q-4 55 -36 80.5t-80 25.5q-49 0 -80 -27.5t-36 -78.5h232zM32 261q0 60 18.5 111.5t53.5 89t86.5 59t116.5 21.5q62 0 111 -19.5t83 -54.5t52 -84t18 -108q0 -13 -1 -24.5t-2 -21.5h-376q2 -56 39.5 -86t95.5 -30q48 0 82.5 15.5t63.5 47.5l92 -86 q-44 -49 -104.5 -76.5t-142.5 -27.5q-71 0 -124.5 20.5t-89.5 57t-54 87t-18 109.5zM273 580l-109 132l121 38l91 -170h-103z" />
<glyph unicode="&#xe9;" horiz-adv-x="610" d="M424 325q-4 55 -36 80.5t-80 25.5q-49 0 -80 -27.5t-36 -78.5h232zM32 261q0 60 18.5 111.5t53.5 89t86.5 59t116.5 21.5q62 0 111 -19.5t83 -54.5t52 -84t18 -108q0 -13 -1 -24.5t-2 -21.5h-376q2 -56 39.5 -86t95.5 -30q48 0 82.5 15.5t63.5 47.5l92 -86 q-44 -49 -104.5 -76.5t-142.5 -27.5q-71 0 -124.5 20.5t-89.5 57t-54 87t-18 109.5zM243 580l91 170l121 -38l-109 -132h-103z" />
<glyph unicode="&#xea;" horiz-adv-x="610" d="M424 325q-4 55 -36 80.5t-80 25.5q-49 0 -80 -27.5t-36 -78.5h232zM32 261q0 60 18.5 111.5t53.5 89t86.5 59t116.5 21.5q62 0 111 -19.5t83 -54.5t52 -84t18 -108q0 -13 -1 -24.5t-2 -21.5h-376q2 -56 39.5 -86t95.5 -30q48 0 82.5 15.5t63.5 47.5l92 -86 q-44 -49 -104.5 -76.5t-142.5 -27.5q-71 0 -124.5 20.5t-89.5 57t-54 87t-18 109.5zM362 738q24 -26 54 -52.5t67 -55.5l-43 -58l-130 66l-131 -66l-43 58q37 29 67.5 55.5t53.5 52.5h105z" />
<glyph unicode="&#xeb;" horiz-adv-x="610" d="M424 325q-4 55 -36 80.5t-80 25.5q-49 0 -80 -27.5t-36 -78.5h232zM32 261q0 60 18.5 111.5t53.5 89t86.5 59t116.5 21.5q62 0 111 -19.5t83 -54.5t52 -84t18 -108q0 -13 -1 -24.5t-2 -21.5h-376q2 -56 39.5 -86t95.5 -30q48 0 82.5 15.5t63.5 47.5l92 -86 q-44 -49 -104.5 -76.5t-142.5 -27.5q-71 0 -124.5 20.5t-89.5 57t-54 87t-18 109.5zM144 644q0 28 19.5 48t46.5 20q28 0 47.5 -19.5t19.5 -48.5q0 -27 -19.5 -46.5t-47.5 -19.5q-27 0 -46.5 19.5t-19.5 46.5zM345 644q0 28 19.5 48t46.5 20q28 0 47.5 -19.5t19.5 -48.5 q0 -27 -19.5 -46.5t-47.5 -19.5q-27 0 -46.5 19.5t-19.5 46.5z" />
<glyph unicode="&#xec;" horiz-adv-x="278" d="M65 0v530h148v-530h-148zM104 580l-109 132l121 38l91 -170h-103z" />
<glyph unicode="&#xed;" horiz-adv-x="278" d="M72 580l91 170l121 -38l-109 -132h-103zM65 0v530h148v-530h-148z" />
<glyph unicode="&#xee;" horiz-adv-x="278" d="M65 0v530h148v-530h-148zM191 738q24 -26 54 -52.5t67 -55.5l-43 -58l-130 66l-131 -66l-43 58q37 29 67.5 55.5t53.5 52.5h105z" />
<glyph unicode="&#xef;" horiz-adv-x="278" d="M65 0v530h148v-530h-148zM-28 644q0 28 19.5 48t46.5 20q28 0 47.5 -19.5t19.5 -48.5q0 -27 -19.5 -46.5t-47.5 -19.5q-27 0 -46.5 19.5t-19.5 46.5zM173 644q0 28 19.5 48t46.5 20q28 0 47.5 -19.5t19.5 -48.5q0 -27 -19.5 -46.5t-47.5 -19.5q-27 0 -46.5 19.5 t-19.5 46.5z" />
<glyph unicode="&#xf0;" horiz-adv-x="635" d="M276 501q35 0 68 -10t60 -30q-17 30 -40 56.5t-50 49.5l-121 -49l-22 57l82 33q-20 13 -39 23.5t-39 19.5l123 75q26 -14 51.5 -29.5t48.5 -33.5l122 49l23 -56l-92 -38q65 -65 103 -148t38 -180q0 -70 -19.5 -129t-63.5 -101q-35 -35 -85 -53.5t-113 -18.5 q-61 0 -112 18t-87.5 51.5t-57 82t-20.5 108.5q0 52 17 98t48.5 80.5t76.5 54.5t100 20zM443 244q0 28 -8.5 52.5t-25 43t-40.5 29t-55 10.5q-30 0 -53 -10.5t-38.5 -29t-23.5 -43t-8 -52.5q0 -57 31 -95t93 -38q31 0 55 10t40.5 28t24.5 42.5t8 52.5z" />
<glyph unicode="&#xf1;" horiz-adv-x="612" d="M65 0v530h148v-63q32 36 73 55.5t88 19.5q45 0 79 -15t56.5 -40.5t34 -61t11.5 -75.5v-350h-149v316q0 17 -3.5 34t-13 30.5t-26 21.5t-43.5 8q-45 0 -76 -28.5t-31 -81.5v-300h-148zM514 690q-8 -20 -20 -38.5t-28 -33t-35 -23.5t-41 -9q-21 0 -38.5 7t-32.5 15t-29 15 t-29 7q-34 0 -52 -44l-71 40q8 20 20 38.5t28 33t35 23.5t41 9q20 0 37 -7t32.5 -15.5t29.5 -15.5t29 -7q35 0 54 45z" />
<glyph unicode="&#xf2;" horiz-adv-x="627" d="M277 580l-109 132l121 38l91 -170h-103zM595 263q0 -62 -20 -112.5t-56.5 -86.5t-89 -56t-116.5 -20q-65 0 -116.5 20t-88.5 56t-56.5 86.5t-19.5 112.5q0 63 19.5 114t56.5 88t88.5 57t116.5 20q64 0 116.5 -20t89 -57t56.5 -88t20 -114zM437 264q0 68 -31.5 110.5 t-92.5 42.5q-60 0 -92 -42.5t-32 -110.5q0 -67 32 -109t92 -42q61 0 92.5 42t31.5 109z" />
<glyph unicode="&#xf3;" horiz-adv-x="627" d="M256 580l91 170l121 -38l-109 -132h-103zM595 263q0 -62 -20 -112.5t-56.5 -86.5t-89 -56t-116.5 -20q-65 0 -116.5 20t-88.5 56t-56.5 86.5t-19.5 112.5q0 63 19.5 114t56.5 88t88.5 57t116.5 20q64 0 116.5 -20t89 -57t56.5 -88t20 -114zM437 264q0 68 -31.5 110.5 t-92.5 42.5q-60 0 -92 -42.5t-32 -110.5q0 -67 32 -109t92 -42q61 0 92.5 42t31.5 109z" />
<glyph unicode="&#xf4;" horiz-adv-x="627" d="M371 738q24 -26 54 -52.5t67 -55.5l-43 -58l-130 66l-131 -66l-43 58q37 29 67.5 55.5t53.5 52.5h105zM595 263q0 -62 -20 -112.5t-56.5 -86.5t-89 -56t-116.5 -20q-65 0 -116.5 20t-88.5 56t-56.5 86.5t-19.5 112.5q0 63 19.5 114t56.5 88t88.5 57t116.5 20 q64 0 116.5 -20t89 -57t56.5 -88t20 -114zM437 264q0 68 -31.5 110.5t-92.5 42.5q-60 0 -92 -42.5t-32 -110.5q0 -67 32 -109t92 -42q61 0 92.5 42t31.5 109z" />
<glyph unicode="&#xf5;" horiz-adv-x="627" d="M501 690q-8 -20 -20 -38.5t-28 -33t-35 -23.5t-41 -9q-21 0 -38.5 7t-32.5 15t-29 15t-29 7q-34 0 -52 -44l-71 40q8 20 20 38.5t28 33t35 23.5t41 9q20 0 37 -7t32.5 -15.5t29.5 -15.5t29 -7q35 0 54 45zM595 263q0 -62 -20 -112.5t-56.5 -86.5t-89 -56t-116.5 -20 q-65 0 -116.5 20t-88.5 56t-56.5 86.5t-19.5 112.5q0 63 19.5 114t56.5 88t88.5 57t116.5 20q64 0 116.5 -20t89 -57t56.5 -88t20 -114zM437 264q0 68 -31.5 110.5t-92.5 42.5q-60 0 -92 -42.5t-32 -110.5q0 -67 32 -109t92 -42q61 0 92.5 42t31.5 109z" />
<glyph unicode="&#xf6;" horiz-adv-x="627" d="M146 644q0 28 19.5 48t46.5 20q28 0 47.5 -19.5t19.5 -48.5q0 -27 -19.5 -46.5t-47.5 -19.5q-27 0 -46.5 19.5t-19.5 46.5zM347 644q0 28 19.5 48t46.5 20q28 0 47.5 -19.5t19.5 -48.5q0 -27 -19.5 -46.5t-47.5 -19.5q-27 0 -46.5 19.5t-19.5 46.5zM595 263 q0 -62 -20 -112.5t-56.5 -86.5t-89 -56t-116.5 -20q-65 0 -116.5 20t-88.5 56t-56.5 86.5t-19.5 112.5q0 63 19.5 114t56.5 88t88.5 57t116.5 20q64 0 116.5 -20t89 -57t56.5 -88t20 -114zM437 264q0 68 -31.5 110.5t-92.5 42.5q-60 0 -92 -42.5t-32 -110.5q0 -67 32 -109 t92 -42q61 0 92.5 42t31.5 109z" />
<glyph unicode="&#xf7;" d="M394 504q0 -35 -24.5 -59.5t-59.5 -24.5q-36 0 -60.5 24.5t-24.5 59.5t24.5 60t60.5 25q17 0 32.5 -6.5t27 -18t18 -27t6.5 -33.5zM52 242v124h515v-124h-515zM394 104q0 -18 -6.5 -33.5t-18 -27t-27 -18t-32.5 -6.5q-36 0 -60.5 25t-24.5 60t24.5 59.5t60.5 24.5 q35 0 59.5 -24.5t24.5 -59.5z" />
<glyph unicode="&#xf8;" horiz-adv-x="627" d="M516 467q38 -37 58.5 -88.5t20.5 -115.5q0 -62 -20 -112.5t-56.5 -86.5t-89 -56t-116.5 -20q-80 0 -142 31l-15 -19h-92l47 61q-38 36 -58.5 87.5t-20.5 114.5t19.5 114t56.5 88t88.5 57t116.5 20q42 0 77.5 -8.5t64.5 -24.5l16 21h93zM189 264q0 -46 17 -80l167 217 q-27 16 -60 16q-60 0 -92 -42.5t-32 -110.5zM437 264q0 23 -4 43t-12 37l-167 -217q26 -14 59 -14q61 0 92.5 42t31.5 109z" />
<glyph unicode="&#xf9;" horiz-adv-x="614" d="M550 530v-530h-148v62q-32 -35 -73 -54.5t-89 -19.5q-45 0 -79 14.5t-56.5 40.5t-33.5 61t-11 76v350h148v-275q0 -22 1 -45.5t8.5 -43.5t25 -33t51.5 -13q58 0 83 37.5t25 111.5v261h148zM260 580l-109 132l121 38l91 -170h-103z" />
<glyph unicode="&#xfa;" horiz-adv-x="614" d="M550 530v-530h-148v62q-32 -35 -73 -54.5t-89 -19.5q-45 0 -79 14.5t-56.5 40.5t-33.5 61t-11 76v350h148v-275q0 -22 1 -45.5t8.5 -43.5t25 -33t51.5 -13q58 0 83 37.5t25 111.5v261h148zM251 580l91 170l121 -38l-109 -132h-103z" />
<glyph unicode="&#xfb;" horiz-adv-x="614" d="M550 530v-530h-148v62q-32 -35 -73 -54.5t-89 -19.5q-45 0 -79 14.5t-56.5 40.5t-33.5 61t-11 76v350h148v-275q0 -22 1 -45.5t8.5 -43.5t25 -33t51.5 -13q58 0 83 37.5t25 111.5v261h148zM358 738q24 -26 54 -52.5t67 -55.5l-43 -58l-130 66l-131 -66l-43 58 q37 29 67.5 55.5t53.5 52.5h105z" />
<glyph unicode="&#xfc;" horiz-adv-x="614" d="M550 530v-530h-148v62q-32 -35 -73 -54.5t-89 -19.5q-45 0 -79 14.5t-56.5 40.5t-33.5 61t-11 76v350h148v-275q0 -22 1 -45.5t8.5 -43.5t25 -33t51.5 -13q58 0 83 37.5t25 111.5v261h148zM136 644q0 28 19.5 48t46.5 20q28 0 47.5 -19.5t19.5 -48.5q0 -27 -19.5 -46.5 t-47.5 -19.5q-27 0 -46.5 19.5t-19.5 46.5zM337 644q0 28 19.5 48t46.5 20q28 0 47.5 -19.5t19.5 -48.5q0 -27 -19.5 -46.5t-47.5 -19.5q-27 0 -46.5 19.5t-19.5 46.5z" />
<glyph unicode="&#xfd;" horiz-adv-x="571" d="M359 -17q-16 -41 -34 -72.5t-42 -52.5t-54.5 -31.5t-70.5 -10.5q-35 0 -68 8t-59 25l43 111q26 -23 63 -23q26 0 42.5 14.5t27.5 38.5l12 25l-218 515h170l125 -336l113 336h159zM239 580l91 170l121 -38l-109 -132h-103z" />
<glyph unicode="&#xfe;" horiz-adv-x="653" d="M212 714v-247q65 75 165 75q56 0 101 -21.5t76.5 -59t48.5 -88t17 -109.5t-17 -109.5t-48.5 -87.5t-76.5 -58t-101 -21q-100 0 -165 74v-236h-148v888h148zM212 265q0 -31 8 -58t24.5 -47t40 -31.5t55.5 -11.5q31 0 54.5 11.5t38.5 32t22.5 47.5t7.5 57t-7.5 57 t-22.5 47.5t-38.5 32t-54.5 11.5q-32 0 -56 -11.5t-40 -31.5t-24 -47t-8 -58z" />
<glyph unicode="&#xff;" horiz-adv-x="571" d="M359 -17q-16 -41 -34 -72.5t-42 -52.5t-54.5 -31.5t-70.5 -10.5q-35 0 -68 8t-59 25l43 111q26 -23 63 -23q26 0 42.5 14.5t27.5 38.5l12 25l-218 515h170l125 -336l113 336h159zM125 644q0 28 19.5 48t46.5 20q28 0 47.5 -19.5t19.5 -48.5q0 -27 -19.5 -46.5 t-47.5 -19.5q-27 0 -46.5 19.5t-19.5 46.5zM326 644q0 28 19.5 48t46.5 20q28 0 47.5 -19.5t19.5 -48.5q0 -27 -19.5 -46.5t-47.5 -19.5q-27 0 -46.5 19.5t-19.5 46.5z" />
<glyph unicode="&#x100;" horiz-adv-x="695" d="M535 0l-54 163h-265l-54 -163h-161l263 714h177l262 -714h-168zM349 565l-93 -276h184zM188 769v80h330v-80h-330z" />
<glyph unicode="&#x101;" horiz-adv-x="585" d="M358 259q-16 -17 -42.5 -21.5t-54.5 -9.5q-16 -3 -31 -6.5t-26.5 -11t-18.5 -19.5t-7 -31q0 -34 22 -49t55 -15q44 0 73.5 24.5t29.5 76.5v62zM217 -13q-40 0 -74 11t-59 32.5t-39 52.5t-14 72q0 49 19.5 78.5t49 46t63 23.5t61.5 10q25 3 49 5.5t43 8.5t30.5 16t11.5 28 q0 27 -25 39.5t-63 12.5q-40 0 -82 -13t-82 -39l-55 108q52 32 109.5 47.5t118.5 15.5q51 0 93 -11t72 -34t46 -57.5t16 -82.5v-224q0 -20 7 -28.5t21 -8.5q15 0 25 8l15 -95q-12 -8 -36 -13.5t-45 -5.5q-35 0 -65.5 17t-43.5 52q-26 -36 -71.5 -54t-95.5 -18zM118 601v80 h330v-80h-330z" />
<glyph unicode="&#x102;" horiz-adv-x="695" d="M535 0l-54 163h-265l-54 -163h-161l263 714h177l262 -714h-168zM349 565l-93 -276h184zM353 747q-37 0 -66.5 10.5t-51 29t-35 43.5t-18.5 54l75 21q11 -28 34.5 -43.5t61.5 -15.5t61.5 15.5t34.5 43.5l74 -21q-5 -29 -18 -54t-34.5 -43.5t-51 -29t-66.5 -10.5z" />
<glyph unicode="&#x103;" horiz-adv-x="585" d="M358 259q-16 -17 -42.5 -21.5t-54.5 -9.5q-16 -3 -31 -6.5t-26.5 -11t-18.5 -19.5t-7 -31q0 -34 22 -49t55 -15q44 0 73.5 24.5t29.5 76.5v62zM217 -13q-40 0 -74 11t-59 32.5t-39 52.5t-14 72q0 49 19.5 78.5t49 46t63 23.5t61.5 10q25 3 49 5.5t43 8.5t30.5 16t11.5 28 q0 27 -25 39.5t-63 12.5q-40 0 -82 -13t-82 -39l-55 108q52 32 109.5 47.5t118.5 15.5q51 0 93 -11t72 -34t46 -57.5t16 -82.5v-224q0 -20 7 -28.5t21 -8.5q15 0 25 8l15 -95q-12 -8 -36 -13.5t-45 -5.5q-35 0 -65.5 17t-43.5 52q-26 -36 -71.5 -54t-95.5 -18zM281 579 q-37 0 -66.5 10.5t-51 29t-35 43.5t-18.5 54l75 21q11 -28 34.5 -43.5t61.5 -15.5t61.5 15.5t34.5 43.5l74 -21q-5 -29 -18 -54t-34.5 -43.5t-51 -29t-66.5 -10.5z" />
<glyph unicode="&#x104;" horiz-adv-x="704" d="M616 0q-13 -11 -21 -24t-8 -28q0 -37 40 -37q17 0 34.5 7t30.5 19v-94q-12 -11 -38 -19t-57 -8q-54 0 -85.5 25.5t-31.5 67.5q0 53 54 95l-53 159h-265l-54 -163h-161l263 714h177l262 -714h-87zM349 565l-93 -276h184z" />
<glyph unicode="&#x105;" horiz-adv-x="582" d="M217 -13q-40 0 -74 11t-59 32.5t-39 52.5t-14 72q0 48 19 77.5t47.5 46t62.5 24t64 10.5q25 3 47 5.5t39.5 6.5t29 11.5t14.5 21.5q2 8 1 14t-3 13q-6 20 -28 29t-54 9q-40 0 -82 -13t-82 -39l-55 108q52 32 109.5 47.5t118.5 15.5q96 0 156.5 -38.5t69.5 -120.5 q1 -10 1 -20v-21v-209q0 -20 7 -28.5t21 -8.5q15 0 25 8l15 -95q-12 -8 -36 -13.5t-45 -5.5q-4 0 -8 0.5t-8 0.5q-9 -9 -14.5 -20t-5.5 -23q0 -37 40 -37q17 0 34.5 7t30.5 19v-94q-13 -11 -38.5 -19t-57.5 -8q-53 0 -83 25.5t-30 67.5q0 60 63 105q-11 8 -19 19t-13 26 q-26 -36 -71.5 -54t-95.5 -18zM358 259q-17 -18 -47 -23t-59.5 -10t-51.5 -18.5t-22 -47.5t22 -49t55 -15q44 0 73.5 24.5t29.5 76.5v62z" />
<glyph unicode="&#x106;" horiz-adv-x="712" d="M571 490q-32 54 -79 77t-98 23q-48 0 -84.5 -17.5t-62 -48t-38.5 -73t-13 -93.5t13 -94t38.5 -74t63.5 -48.5t87 -17.5q65 0 109 29.5t72 77.5l112 -82q-48 -75 -121.5 -118.5t-176.5 -43.5q-79 0 -144.5 27t-113 75.5t-74 116.5t-26.5 151t26.5 151t74 117t113 75.5 t142.5 26.5q100 0 172 -41.5t123 -113.5zM316 748l91 170l121 -38l-109 -132h-103z" />
<glyph unicode="&#x107;" horiz-adv-x="556" d="M303 542q43 0 78 -10t63 -27t49.5 -40t36.5 -49l-105 -74q-21 33 -45.5 53t-66.5 20q-30 0 -53 -11t-39 -31t-24 -47.5t-8 -60.5q0 -68 33 -109.5t95 -41.5q42 0 73 20t56 54l93 -86q-17 -21 -39.5 -41.5t-51.5 -37t-65 -26.5t-80 -10q-62 0 -112 21t-85.5 58t-54.5 87.5 t-19 110.5t19 111t54.5 88t85.5 58t112 21zM237 580l91 170l121 -38l-109 -132h-103z" />
<glyph unicode="&#x108;" horiz-adv-x="712" d="M571 490q-32 54 -79 77t-98 23q-48 0 -84.5 -17.5t-62 -48t-38.5 -73t-13 -93.5t13 -94t38.5 -74t63.5 -48.5t87 -17.5q65 0 109 29.5t72 77.5l112 -82q-48 -75 -121.5 -118.5t-176.5 -43.5q-79 0 -144.5 27t-113 75.5t-74 116.5t-26.5 151t26.5 151t74 117t113 75.5 t142.5 26.5q100 0 172 -41.5t123 -113.5zM441 915q24 -26 54 -52.5t67 -55.5l-43 -58l-130 66l-131 -66l-43 58q37 29 67.5 55.5t53.5 52.5h105z" />
<glyph unicode="&#x109;" horiz-adv-x="556" d="M303 542q43 0 78 -10t63 -27t49.5 -40t36.5 -49l-105 -74q-21 33 -45.5 53t-66.5 20q-30 0 -53 -11t-39 -31t-24 -47.5t-8 -60.5q0 -68 33 -109.5t95 -41.5q42 0 73 20t56 54l93 -86q-17 -21 -39.5 -41.5t-51.5 -37t-65 -26.5t-80 -10q-62 0 -112 21t-85.5 58t-54.5 87.5 t-19 110.5t19 111t54.5 88t85.5 58t112 21zM354 738q24 -26 54 -52.5t67 -55.5l-43 -58l-130 66l-131 -66l-43 58q37 29 67.5 55.5t53.5 52.5h105z" />
<glyph unicode="&#x10a;" horiz-adv-x="712" d="M571 490q-32 54 -79 77t-98 23q-48 0 -84.5 -17.5t-62 -48t-38.5 -73t-13 -93.5t13 -94t38.5 -74t63.5 -48.5t87 -17.5q65 0 109 29.5t72 77.5l112 -82q-48 -75 -121.5 -118.5t-176.5 -43.5q-79 0 -144.5 27t-113 75.5t-74 116.5t-26.5 151t26.5 151t74 117t113 75.5 t142.5 26.5q100 0 172 -41.5t123 -113.5zM319 816q0 29 20 49t49 20t49.5 -20t20.5 -49t-20.5 -49.5t-49.5 -20.5t-49 20.5t-20 49.5z" />
<glyph unicode="&#x10b;" horiz-adv-x="556" d="M303 542q43 0 78 -10t63 -27t49.5 -40t36.5 -49l-105 -74q-21 33 -45.5 53t-66.5 20q-30 0 -53 -11t-39 -31t-24 -47.5t-8 -60.5q0 -68 33 -109.5t95 -41.5q42 0 73 20t56 54l93 -86q-17 -21 -39.5 -41.5t-51.5 -37t-65 -26.5t-80 -10q-62 0 -112 21t-85.5 58t-54.5 87.5 t-19 110.5t19 111t54.5 88t85.5 58t112 21zM229 648q0 29 20 49t49 20t49.5 -20t20.5 -49t-20.5 -49.5t-49.5 -20.5t-49 20.5t-20 49.5z" />
<glyph unicode="&#x10c;" horiz-adv-x="712" d="M571 490q-32 54 -79 77t-98 23q-48 0 -84.5 -17.5t-62 -48t-38.5 -73t-13 -93.5t13 -94t38.5 -74t63.5 -48.5t87 -17.5q65 0 109 29.5t72 77.5l112 -82q-48 -75 -121.5 -118.5t-176.5 -43.5q-79 0 -144.5 27t-113 75.5t-74 116.5t-26.5 151t26.5 151t74 117t113 75.5 t142.5 26.5q100 0 172 -41.5t123 -113.5zM334 746q-24 26 -54 52.5t-67 55.5l43 58l131 -66l130 66l43 -58q-37 -29 -67 -55.5t-54 -52.5h-105z" />
<glyph unicode="&#x10d;" horiz-adv-x="556" d="M303 542q43 0 78 -10t63 -27t49.5 -40t36.5 -49l-105 -74q-21 33 -45.5 53t-66.5 20q-30 0 -53 -11t-39 -31t-24 -47.5t-8 -60.5q0 -68 33 -109.5t95 -41.5q42 0 73 20t56 54l93 -86q-17 -21 -39.5 -41.5t-51.5 -37t-65 -26.5t-80 -10q-62 0 -112 21t-85.5 58t-54.5 87.5 t-19 110.5t19 111t54.5 88t85.5 58t112 21zM246 578q-24 26 -54 52.5t-67 55.5l43 58l131 -66l130 66l43 -58q-37 -29 -67 -55.5t-54 -52.5h-105z" />
<glyph unicode="&#x10e;" horiz-adv-x="758" d="M360 136q99 0 150 60t51 161q0 50 -13 90.5t-38 69.5t-63 45t-87 16h-132v-442h132zM73 0v714h287q86 0 153 -27t113.5 -75t70.5 -113.5t24 -141.5t-24 -141.5t-70.5 -113.5t-113.5 -75t-153 -27h-287zM304 746q-24 26 -54 52.5t-67 55.5l43 58l131 -66l130 66l43 -58 q-37 -29 -67 -55.5t-54 -52.5h-105z" />
<glyph unicode="&#x10f;" horiz-adv-x="760" d="M442 0v63q-65 -75 -165 -75q-56 0 -101.5 21t-77 58t-48.5 87.5t-17 109.5q0 60 17 110.5t48.5 88t77 58.5t101.5 21q99 0 165 -75v247h148v-714h-148zM442 264q0 31 -8 58.5t-24.5 47.5t-40.5 32t-55 12q-32 0 -55 -12t-38.5 -32.5t-23 -47.5t-7.5 -58q0 -30 7.5 -57 t23 -47t38.5 -31.5t55 -11.5t56 11.5t40 31.5t24 46.5t8 57.5zM818 629q0 -67 -22.5 -117t-75.5 -98l-63 55q22 22 36.5 48t14.5 58q0 17 -5 29t-10.5 24.5t-10.5 27t-5 35.5v23h141v-85z" />
<glyph unicode="&#x110;" horiz-adv-x="778" d="M93 0v322h-59v80h59v312h287q86 0 153 -27t113.5 -75t70.5 -113.5t24 -141.5t-24 -141.5t-70.5 -113.5t-113.5 -75t-153 -27h-287zM380 136q99 0 150 60t51 161q0 50 -13 90.5t-38 69.5t-63 45t-87 16h-132v-176h138v-80h-138v-186h132z" />
<glyph unicode="&#x111;" horiz-adv-x="654" d="M441 0v63q-32 -38 -74 -56.5t-90 -18.5q-57 0 -102 21t-76.5 58.5t-48.5 88t-17 109.5q0 60 17 110.5t48.5 87.5t76.5 58t102 21q48 0 90 -18.5t74 -56.5v121h-121v79h121v47h149v-47h61v-79h-61v-588h-149zM441 264q0 31 -8 58t-24 47.5t-40 32t-56 11.5q-31 0 -54 -12 t-38.5 -32t-23 -47t-7.5 -58q0 -30 7.5 -57t23 -47t38.5 -31.5t54 -11.5q32 0 56 11.5t40 31.5t24 46.5t8 57.5z" />
<glyph unicode="&#x112;" horiz-adv-x="642" d="M73 0v714h518v-136h-363v-149h323v-125h-323v-168h373v-136h-528zM167 769v80h330v-80h-330z" />
<glyph unicode="&#x113;" horiz-adv-x="610" d="M424 325q-4 55 -36 80.5t-80 25.5q-49 0 -80 -27.5t-36 -78.5h232zM32 261q0 60 18.5 111.5t53.5 89t86.5 59t116.5 21.5q62 0 111 -19.5t83 -54.5t52 -84t18 -108q0 -13 -1 -24.5t-2 -21.5h-376q2 -56 39.5 -86t95.5 -30q48 0 82.5 15.5t63.5 47.5l92 -86 q-44 -49 -104.5 -76.5t-142.5 -27.5q-71 0 -124.5 20.5t-89.5 57t-54 87t-18 109.5zM146 601v80h330v-80h-330z" />
<glyph unicode="&#x114;" horiz-adv-x="642" d="M73 0v714h518v-136h-363v-149h323v-125h-323v-168h373v-136h-528zM331 747q-37 0 -66.5 10.5t-51 29t-35 43.5t-18.5 54l75 21q11 -28 34.5 -43.5t61.5 -15.5t61.5 15.5t34.5 43.5l74 -21q-5 -29 -18 -54t-34.5 -43.5t-51 -29t-66.5 -10.5z" />
<glyph unicode="&#x115;" horiz-adv-x="610" d="M424 325q-4 55 -36 80.5t-80 25.5q-49 0 -80 -27.5t-36 -78.5h232zM32 261q0 60 18.5 111.5t53.5 89t86.5 59t116.5 21.5q62 0 111 -19.5t83 -54.5t52 -84t18 -108q0 -13 -1 -24.5t-2 -21.5h-376q2 -56 39.5 -86t95.5 -30q48 0 82.5 15.5t63.5 47.5l92 -86 q-44 -49 -104.5 -76.5t-142.5 -27.5q-71 0 -124.5 20.5t-89.5 57t-54 87t-18 109.5zM309 579q-37 0 -66.5 10.5t-51 29t-35 43.5t-18.5 54l75 21q11 -28 34.5 -43.5t61.5 -15.5t61.5 15.5t34.5 43.5l74 -21q-5 -29 -18 -54t-34.5 -43.5t-51 -29t-66.5 -10.5z" />
<glyph unicode="&#x116;" horiz-adv-x="642" d="M73 0v714h518v-136h-363v-149h323v-125h-323v-168h373v-136h-528zM262 816q0 29 20 49t49 20t49.5 -20t20.5 -49t-20.5 -49.5t-49.5 -20.5t-49 20.5t-20 49.5z" />
<glyph unicode="&#x117;" horiz-adv-x="610" d="M424 325q-4 55 -36 80.5t-80 25.5q-49 0 -80 -27.5t-36 -78.5h232zM32 261q0 60 18.5 111.5t53.5 89t86.5 59t116.5 21.5q62 0 111 -19.5t83 -54.5t52 -84t18 -108q0 -13 -1 -24.5t-2 -21.5h-376q2 -56 39.5 -86t95.5 -30q48 0 82.5 15.5t63.5 47.5l92 -86 q-44 -49 -104.5 -76.5t-142.5 -27.5q-71 0 -124.5 20.5t-89.5 57t-54 87t-18 109.5zM238 648q0 29 20 49t49 20t49.5 -20t20.5 -49t-20.5 -49.5t-49.5 -20.5t-49 20.5t-20 49.5z" />
<glyph unicode="&#x118;" horiz-adv-x="642" d="M525 0q-13 -11 -21 -24t-8 -28q0 -37 41 -37q16 0 33.5 7t30.5 19v-94q-12 -11 -38 -19t-57 -8q-54 0 -85.5 25.5t-31.5 67.5q0 51 49 91h-365v714h518v-136h-363v-149h323v-125h-323v-168h373v-136h-76z" />
<glyph unicode="&#x119;" horiz-adv-x="601" d="M32 261q0 60 18.5 111.5t53.5 89t86 59t117 21.5q62 0 111 -19.5t83 -54.5t52 -84t18 -108q0 -14 -1 -25t-2 -21h-376q2 -57 39.5 -86.5t98.5 -29.5q87 0 143 63l92 -86q-21 -24 -46 -41.5t-47.5 -33t-37.5 -31.5t-15 -37q0 -37 41 -37q16 0 34 7t30 19v-94 q-12 -11 -38 -19t-57 -8q-53 0 -85 25.5t-32 67.5q0 41 36 80q-7 -1 -15 -1.5t-16 -0.5q-71 0 -124 20.5t-89 57t-54 87t-18 109.5zM424 325q-4 55 -36 80.5t-79 25.5q-50 0 -81 -27.5t-36 -78.5h232z" />
<glyph unicode="&#x11a;" horiz-adv-x="642" d="M73 0v714h518v-136h-363v-149h323v-125h-323v-168h373v-136h-528zM278 746q-24 26 -54 52.5t-67 55.5l43 58l131 -66l130 66l43 -58q-37 -29 -67 -55.5t-54 -52.5h-105z" />
<glyph unicode="&#x11b;" horiz-adv-x="610" d="M424 325q-4 55 -36 80.5t-80 25.5q-49 0 -80 -27.5t-36 -78.5h232zM32 261q0 60 18.5 111.5t53.5 89t86.5 59t116.5 21.5q62 0 111 -19.5t83 -54.5t52 -84t18 -108q0 -13 -1 -24.5t-2 -21.5h-376q2 -56 39.5 -86t95.5 -30q48 0 82.5 15.5t63.5 47.5l92 -86 q-44 -49 -104.5 -76.5t-142.5 -27.5q-71 0 -124.5 20.5t-89.5 57t-54 87t-18 109.5zM257 578q-24 26 -54 52.5t-67 55.5l43 58l131 -66l130 66l43 -58q-37 -29 -67 -55.5t-54 -52.5h-105z" />
<glyph unicode="&#x11c;" horiz-adv-x="767" d="M398 590q-49 0 -86.5 -17t-63 -48t-39 -74t-13.5 -95q0 -54 14 -97t40 -74t63 -47.5t84 -16.5q35 0 66 9.5t55.5 27.5t40.5 45t20 62h-177v125h328q3 -12 4.5 -30t1.5 -35q0 -73 -24.5 -135t-69 -107t-108 -70.5t-141.5 -25.5t-143.5 27t-113.5 76t-74.5 117t-26.5 150 q0 84 27.5 152t75.5 116.5t114.5 75t144.5 26.5q103 0 176 -43.5t121 -111.5l-116 -81q-32 54 -79 76.5t-101 22.5zM447 906q24 -26 54 -52.5t67 -55.5l-43 -58l-130 66l-131 -66l-43 58q37 29 67.5 55.5t53.5 52.5h105z" />
<glyph unicode="&#x11d;" horiz-adv-x="655" d="M591 104q0 -64 -12.5 -114.5t-46.5 -88.5q-22 -24 -50 -40.5t-59.5 -26.5t-65 -14t-66.5 -4q-69 0 -126 15t-102 44l52 114q32 -23 76.5 -36t93.5 -13q33 0 61.5 7t50 22t33.5 39.5t12 59.5v34q-29 -35 -70.5 -55t-96.5 -20t-99.5 20t-76 55t-48.5 82t-17 100t17.5 100 t49 82t76 55.5t99.5 20.5q104 0 166 -74v62h149v-426zM442 286q0 27 -8 51.5t-24.5 42.5t-40.5 28.5t-55 10.5t-54 -10.5t-38.5 -28.5t-23 -42.5t-7.5 -52.5t8 -52.5t23.5 -43t38.5 -29.5t53 -11q31 0 54.5 11t40 29.5t25 43.5t8.5 53zM365 738q24 -26 54 -52.5t67 -55.5 l-43 -58l-130 66l-131 -66l-43 58q37 29 67.5 55.5t53.5 52.5h105z" />
<glyph unicode="&#x11e;" horiz-adv-x="767" d="M398 590q-49 0 -86.5 -17t-63 -48t-39 -74t-13.5 -95q0 -54 14 -97t40 -74t63 -47.5t84 -16.5q35 0 66 9.5t55.5 27.5t40.5 45t20 62h-177v125h328q3 -12 4.5 -30t1.5 -35q0 -73 -24.5 -135t-69 -107t-108 -70.5t-141.5 -25.5t-143.5 27t-113.5 76t-74.5 117t-26.5 150 q0 84 27.5 152t75.5 116.5t114.5 75t144.5 26.5q103 0 176 -43.5t121 -111.5l-116 -81q-32 54 -79 76.5t-101 22.5zM395 747q-37 0 -66.5 10.5t-51 29t-35 43.5t-18.5 54l75 21q11 -28 34.5 -43.5t61.5 -15.5t61.5 15.5t34.5 43.5l74 -21q-5 -29 -18 -54t-34.5 -43.5 t-51 -29t-66.5 -10.5z" />
<glyph unicode="&#x11f;" horiz-adv-x="655" d="M591 104q0 -64 -12.5 -114.5t-46.5 -88.5q-22 -24 -50 -40.5t-59.5 -26.5t-65 -14t-66.5 -4q-69 0 -126 15t-102 44l52 114q32 -23 76.5 -36t93.5 -13q33 0 61.5 7t50 22t33.5 39.5t12 59.5v34q-29 -35 -70.5 -55t-96.5 -20t-99.5 20t-76 55t-48.5 82t-17 100t17.5 100 t49 82t76 55.5t99.5 20.5q104 0 166 -74v62h149v-426zM442 286q0 27 -8 51.5t-24.5 42.5t-40.5 28.5t-55 10.5t-54 -10.5t-38.5 -28.5t-23 -42.5t-7.5 -52.5t8 -52.5t23.5 -43t38.5 -29.5t53 -11q31 0 54.5 11t40 29.5t25 43.5t8.5 53zM307 579q-37 0 -66.5 10.5t-51 29 t-35 43.5t-18.5 54l75 21q11 -28 34.5 -43.5t61.5 -15.5t61.5 15.5t34.5 43.5l74 -21q-5 -29 -18 -54t-34.5 -43.5t-51 -29t-66.5 -10.5z" />
<glyph unicode="&#x120;" horiz-adv-x="767" d="M398 590q-49 0 -86.5 -17t-63 -48t-39 -74t-13.5 -95q0 -54 14 -97t40 -74t63 -47.5t84 -16.5q35 0 66 9.5t55.5 27.5t40.5 45t20 62h-177v125h328q3 -12 4.5 -30t1.5 -35q0 -73 -24.5 -135t-69 -107t-108 -70.5t-141.5 -25.5t-143.5 27t-113.5 76t-74.5 117t-26.5 150 q0 84 27.5 152t75.5 116.5t114.5 75t144.5 26.5q103 0 176 -43.5t121 -111.5l-116 -81q-32 54 -79 76.5t-101 22.5zM323 816q0 29 20 49t49 20t49.5 -20t20.5 -49t-20.5 -49.5t-49.5 -20.5t-49 20.5t-20 49.5z" />
<glyph unicode="&#x121;" horiz-adv-x="655" d="M591 104q0 -64 -12.5 -114.5t-46.5 -88.5q-22 -24 -50 -40.5t-59.5 -26.5t-65 -14t-66.5 -4q-69 0 -126 15t-102 44l52 114q32 -23 76.5 -36t93.5 -13q33 0 61.5 7t50 22t33.5 39.5t12 59.5v34q-29 -35 -70.5 -55t-96.5 -20t-99.5 20t-76 55t-48.5 82t-17 100t17.5 100 t49 82t76 55.5t99.5 20.5q104 0 166 -74v62h149v-426zM442 286q0 27 -8 51.5t-24.5 42.5t-40.5 28.5t-55 10.5t-54 -10.5t-38.5 -28.5t-23 -42.5t-7.5 -52.5t8 -52.5t23.5 -43t38.5 -29.5t53 -11q31 0 54.5 11t40 29.5t25 43.5t8.5 53zM236 648q0 29 20 49t49 20t49.5 -20 t20.5 -49t-20.5 -49.5t-49.5 -20.5t-49 20.5t-20 49.5z" />
<glyph unicode="&#x122;" horiz-adv-x="767" d="M398 590q-49 0 -86.5 -17t-63 -48t-39 -74t-13.5 -95q0 -54 14 -97t40 -74t63 -47.5t84 -16.5q35 0 66 9.5t55.5 27.5t40.5 45t20 62h-177v125h328q3 -12 4.5 -30t1.5 -35q0 -73 -24.5 -135t-69 -107t-108 -70.5t-141.5 -25.5t-143.5 27t-113.5 76t-74.5 117t-26.5 150 q0 84 27.5 152t75.5 116.5t114.5 75t144.5 26.5q103 0 176 -43.5t121 -111.5l-116 -81q-32 54 -79 76.5t-101 22.5zM252 -165l68 122h144l-129 -157z" />
<glyph unicode="&#x123;" horiz-adv-x="665" d="M591 104q0 -64 -12.5 -114.5t-46.5 -88.5q-22 -24 -50 -40.5t-59.5 -26.5t-65 -14t-66.5 -4q-69 0 -126 15t-102 44l52 114q32 -23 76.5 -36t93.5 -13q33 0 61.5 7t50 22t33.5 39.5t12 59.5v34q-29 -35 -70.5 -55t-96.5 -20t-99.5 20t-76 55t-48.5 82t-17 100t17.5 100 t49 82t76 55.5t99.5 20.5q104 0 166 -74v62h149v-426zM442 286q0 27 -8 51.5t-24.5 42.5t-40.5 28.5t-55 10.5t-54 -10.5t-38.5 -28.5t-23 -42.5t-7.5 -52.5t8 -52.5t23.5 -43t38.5 -29.5t53 -11q31 0 54.5 11t40 29.5t25 43.5t8.5 53zM444 709.99l-67.9961 -121.993 h-143.991l128.992 156.991z" />
<glyph unicode="&#x124;" horiz-adv-x="761" d="M533 0v306h-305v-306h-155v714h155v-272h305v272h155v-714h-155zM432 906q24 -26 54 -52.5t67 -55.5l-43 -58l-130 66l-131 -66l-43 58q37 29 67.5 55.5t53.5 52.5h105z" />
<glyph unicode="&#x125;" horiz-adv-x="616" d="M65 0v714h148v-247q32 36 73 55.5t88 19.5q45 0 79 -15t56.5 -40.5t34 -61t11.5 -75.5v-350h-149v316q0 17 -3.5 34t-13 30.5t-26 21.5t-43.5 8q-45 0 -76 -28.5t-31 -81.5v-300h-148zM192 885q24 -26 54 -52.5t67 -55.5l-43 -58l-130 66l-131 -66l-43 58 q37 29 67.5 55.5t53.5 52.5h105z" />
<glyph unicode="&#x126;" horiz-adv-x="761" d="M533 0v306h-305v-306h-155v574h-38v74h38v66h155v-66h305v66h155v-66h37v-74h-37v-574h-155zM533 442v132h-305v-132h305z" />
<glyph unicode="&#x127;" horiz-adv-x="616" d="M64 0v587h-61v80h61v47h148v-47h121v-80h-121v-120q32 36 73 55.5t89 19.5q45 0 78.5 -15t56 -40.5t34 -61t11.5 -75.5v-350h-149v316q0 17 -3.5 34t-13 30.5t-26 21.5t-43.5 8q-44 0 -75.5 -28.5t-31.5 -81.5v-300h-148z" />
<glyph unicode="&#x128;" horiz-adv-x="301" d="M73 0v714h155v-714h-155zM341 858q-8 -20 -20 -38.5t-28 -33t-35 -23.5t-41 -9q-21 0 -38.5 7t-32.5 15t-29 15t-29 7q-34 0 -52 -44l-71 40q8 20 20 38.5t28 33t35 23.5t41 9q20 0 37 -7t32.5 -15.5t29.5 -15.5t29 -7q35 0 54 45z" />
<glyph unicode="&#x129;" horiz-adv-x="278" d="M331 690q-8 -20 -20 -38.5t-28 -33t-35 -23.5t-41 -9q-21 0 -38.5 7t-32.5 15t-29 15t-29 7q-34 0 -52 -44l-71 40q8 20 20 38.5t28 33t35 23.5t41 9q20 0 37 -7t32.5 -15.5t29.5 -15.5t29 -7q35 0 54 45zM65 0v530h148v-530h-148z" />
<glyph unicode="&#x12a;" horiz-adv-x="301" d="M73 0v714h155v-714h-155zM-14 769v80h330v-80h-330z" />
<glyph unicode="&#x12b;" horiz-adv-x="278" d="M-26 601v80h330v-80h-330zM65 0v530h148v-530h-148z" />
<glyph unicode="&#x12c;" horiz-adv-x="301" d="M73 0v714h155v-714h-155zM151 747q-37 0 -66.5 10.5t-51 29t-35 43.5t-18.5 54l75 21q11 -28 34.5 -43.5t61.5 -15.5t61.5 15.5t34.5 43.5l74 -21q-5 -29 -18 -54t-34.5 -43.5t-51 -29t-66.5 -10.5z" />
<glyph unicode="&#x12d;" horiz-adv-x="278" d="M65 0v530h148v-530h-148zM140 579q-37 0 -66.5 10.5t-51 29t-35 43.5t-18.5 54l75 21q11 -28 34.5 -43.5t61.5 -15.5t61.5 15.5t34.5 43.5l74 -21q-5 -29 -18 -54t-34.5 -43.5t-51 -29t-66.5 -10.5z" />
<glyph unicode="&#x12e;" horiz-adv-x="301" d="M160 0q-13 -11 -21 -24t-8 -28q0 -37 40 -37q17 0 34.5 7t30.5 19v-94q-12 -11 -38 -19t-57 -8q-54 0 -85.5 25.5t-31.5 67.5q0 52 49 92v713h155v-714h-68z" />
<glyph unicode="&#x12f;" horiz-adv-x="278" d="M162 0q-23 -11 -37.5 -25t-14.5 -32q0 -17 14 -26t37 -9q18 0 35 6t26 14v-88q-11 -9 -31 -15t-45 -6q-57 0 -92 26.5t-35 69.5q0 28 15 50t31 37v528h148v-530h-51zM56 663q0 31 22 54t60 23q39 0 61.5 -23t22.5 -54t-22.5 -54t-61.5 -23q-38 0 -60 23t-22 54z" />
<glyph unicode="&#x130;" horiz-adv-x="301" d="M73 0v714h155v-714h-155zM81 816q0 29 20 49t49 20t49.5 -20t20.5 -49t-20.5 -49.5t-49.5 -20.5t-49 20.5t-20 49.5z" />
<glyph unicode="&#x131;" horiz-adv-x="278" d="M65 0v530h148v-530h-148z" />
<glyph unicode="&#x134;" horiz-adv-x="561" d="M339 714h155v-464q0 -63 -17.5 -112t-50.5 -82.5t-79.5 -51t-104.5 -17.5q-90 0 -148.5 40t-86.5 101l122 66q34 -72 109 -72q51 0 76 29t25 85v478zM468 906q24 -26 54 -52.5t67 -55.5l-43 -58l-130 66l-131 -66l-43 58q37 29 67.5 55.5t53.5 52.5h105z" />
<glyph unicode="&#x135;" horiz-adv-x="288" d="M200 738q24 -26 54 -52.5t67 -55.5l-43 -58l-130 66l-131 -66l-43 58q37 29 67.5 55.5t53.5 52.5h105zM224 12q0 -99 -51 -146.5t-135 -47.5q-29 0 -59 6.5t-51 20.5l38 110q11 -6 23.5 -10.5t29.5 -4.5q56 0 56 68v522h149v-518z" />
<glyph unicode="&#x136;" horiz-adv-x="713" d="M531 0l-198 310l-105 -124v-186h-155v714h155v-326l274 326h188l-248 -288l275 -426h-186zM238 -165l68 122h144l-129 -157z" />
<glyph unicode="&#x137;" horiz-adv-x="612" d="M415 530h175l-195 -206l218 -324h-177l-142 225l-82 -89v-136h-148v714h148v-407zM205 -165l68 122h144l-129 -157z" />
<glyph unicode="&#x138;" horiz-adv-x="616" d="M418 530h176l-198 -206l221 -324h-177l-145 225l-83 -89v-136h-148v530h148v-223z" />
<glyph unicode="&#x139;" horiz-adv-x="596" d="M73 0v714h155v-578h349v-136h-504zM86 748l91 170l121 -38l-109 -132h-103z" />
<glyph unicode="&#x13a;" horiz-adv-x="278" d="M65 0v714h148v-714h-148zM63 738l91 170l121 -38l-109 -132h-103z" />
<glyph unicode="&#x13b;" horiz-adv-x="596" d="M73 0v714h155v-578h349v-136h-504zM193 -165l68 122h144l-129 -157z" />
<glyph unicode="&#x13c;" horiz-adv-x="278" d="M65 0v714h148v-714h-148zM0 -165l68 122h144l-129 -157z" />
<glyph unicode="&#x13d;" horiz-adv-x="596" d="M73 0v714h155v-578h349v-136h-504zM462 629q0 -67 -22.5 -117t-75.5 -98l-63 55q22 22 36.5 48t14.5 58q0 17 -5 29t-10.5 24.5t-10.5 27t-5 35.5v23h141v-85z" />
<glyph unicode="&#x13e;" horiz-adv-x="390" d="M65 0v714h148v-714h-148zM447 629q0 -67 -22.5 -117t-75.5 -98l-63 55q22 22 36.5 48t14.5 58q0 17 -5 29t-10.5 24.5t-10.5 27t-5 35.5v23h141v-85z" />
<glyph unicode="&#x13f;" horiz-adv-x="596" d="M73 0v714h155v-578h349v-136h-504zM520 333q0 -19 -7 -35.5t-19.5 -29t-29.5 -20t-36 -7.5q-38 0 -65 27t-27 65q0 19 7.5 36t20 29.5t29 20t35.5 7.5t36 -7.5t29.5 -20t19.5 -29.5t7 -36z" />
<glyph unicode="&#x140;" horiz-adv-x="538" d="M65 0v714h148v-714h-148zM500 304q0 -19 -7 -35.5t-19.5 -29t-29.5 -20t-36 -7.5q-38 0 -65 27t-27 65q0 19 7.5 36t20 29.5t29 20t35.5 7.5t36 -7.5t29.5 -20t19.5 -29.5t7 -36z" />
<glyph unicode="&#x141;" horiz-adv-x="636" d="M114 0v279l-96 -40v123l96 40v312h154v-250l185 78v-123l-185 -78v-205h350v-136h-504z" />
<glyph unicode="&#x142;" horiz-adv-x="347" d="M250 374v-374h-149v322l-98 -38v118l98 38v274h149v-222l100 39v-118z" />
<glyph unicode="&#x143;" horiz-adv-x="762" d="M688 0h-154l-312 482v-482h-149v714h163l304 -472v472h148v-714zM324 748l91 170l121 -38l-109 -132h-103z" />
<glyph unicode="&#x144;" horiz-adv-x="612" d="M65 0v530h148v-63q32 36 73 55.5t88 19.5q45 0 79 -15t56.5 -40.5t34 -61t11.5 -75.5v-350h-149v316q0 17 -3.5 34t-13 30.5t-26 21.5t-43.5 8q-45 0 -76 -28.5t-31 -81.5v-300h-148zM252 580l91 170l121 -38l-109 -132h-103z" />
<glyph unicode="&#x145;" horiz-adv-x="762" d="M688 0h-154l-312 482v-482h-149v714h163l304 -472v472h148v-714zM251 -165l68 122h144l-129 -157z" />
<glyph unicode="&#x146;" horiz-adv-x="613" d="M65 0v530h148v-63q32 36 73 55.5t88 19.5q45 0 79 -15t56.5 -40.5t34 -61t11.5 -75.5v-350h-149v316q0 17 -3.5 34t-13 30.5t-26 21.5t-43.5 8q-45 0 -76 -28.5t-31 -81.5v-300h-148zM178 -165l68 122h144l-129 -157z" />
<glyph unicode="&#x147;" horiz-adv-x="762" d="M688 0h-154l-312 482v-482h-149v714h163l304 -472v472h148v-714zM329 746q-24 26 -54 52.5t-67 55.5l43 58l131 -66l130 66l43 -58q-37 -29 -67 -55.5t-54 -52.5h-105z" />
<glyph unicode="&#x148;" horiz-adv-x="612" d="M65 0v530h148v-63q32 36 73 55.5t88 19.5q45 0 79 -15t56.5 -40.5t34 -61t11.5 -75.5v-350h-149v316q0 17 -3.5 34t-13 30.5t-26 21.5t-43.5 8q-45 0 -76 -28.5t-31 -81.5v-300h-148zM256 578q-24 26 -54 52.5t-67 55.5l43 58l131 -66l130 66l43 -58q-37 -29 -67 -55.5 t-54 -52.5h-105z" />
<glyph unicode="&#x14a;" horiz-adv-x="762" d="M688 46q0 -58 -16 -101t-45.5 -71.5t-70.5 -43t-91 -14.5q-32 0 -62.5 7.5t-52.5 21.5l44 117q13 -8 29.5 -13t32.5 -5q24 0 45 13.5t31 45.5l-310 479v-482h-149v714h163l304 -472v472h148v-668z" />
<glyph unicode="&#x14b;" horiz-adv-x="613" d="M554 14q0 -88 -46 -142t-139 -54q-30 0 -61.5 6.5t-57.5 20.5l42 109q23 -13 52 -13q32 0 46.5 16.5t14.5 45.5v313q0 17 -3.5 34t-13 30.5t-26 21.5t-43.5 8q-44 0 -75.5 -28.5t-31.5 -81.5v-300h-148v530h148v-63q32 36 73 55.5t89 19.5q45 0 78.5 -15t56 -40.5t34 -61 t11.5 -75.5v-336z" />
<glyph unicode="&#x14c;" horiz-adv-x="785" d="M750 357q0 -78 -25.5 -145.5t-72 -117.5t-113 -78.5t-147.5 -28.5t-147 28.5t-112.5 78.5t-72 117.5t-25.5 145.5t25.5 145.5t72 117.5t112.5 78.5t147 28.5t147.5 -28.5t113 -78.5t72 -117.5t25.5 -145.5zM590 357q0 49 -13 91.5t-38.5 73.5t-62 49t-84.5 18t-84.5 -18 t-61.5 -49t-38 -73.5t-13 -91.5q0 -50 13 -92t38 -73.5t61.5 -49t84.5 -17.5t84.5 18t62 49t38.5 73.5t13 91.5zM229 769v80h330v-80h-330z" />
<glyph unicode="&#x14d;" horiz-adv-x="627" d="M595 263q0 -62 -20 -112.5t-56.5 -86.5t-89 -56t-116.5 -20q-65 0 -116.5 20t-88.5 56t-56.5 86.5t-19.5 112.5q0 63 19.5 114t56.5 88t88.5 57t116.5 20q64 0 116.5 -20t89 -57t56.5 -88t20 -114zM437 264q0 68 -31.5 110.5t-92.5 42.5q-60 0 -92 -42.5t-32 -110.5 q0 -67 32 -109t92 -42q61 0 92.5 42t31.5 109zM152 601v80h330v-80h-330z" />
<glyph unicode="&#x14e;" horiz-adv-x="785" d="M750 357q0 -78 -25.5 -145.5t-72 -117.5t-113 -78.5t-147.5 -28.5t-147 28.5t-112.5 78.5t-72 117.5t-25.5 145.5t25.5 145.5t72 117.5t112.5 78.5t147 28.5t147.5 -28.5t113 -78.5t72 -117.5t25.5 -145.5zM590 357q0 49 -13 91.5t-38.5 73.5t-62 49t-84.5 18t-84.5 -18 t-61.5 -49t-38 -73.5t-13 -91.5q0 -50 13 -92t38 -73.5t61.5 -49t84.5 -17.5t84.5 18t62 49t38.5 73.5t13 91.5zM393 747q-37 0 -66.5 10.5t-51 29t-35 43.5t-18.5 54l75 21q11 -28 34.5 -43.5t61.5 -15.5t61.5 15.5t34.5 43.5l74 -21q-5 -29 -18 -54t-34.5 -43.5t-51 -29 t-66.5 -10.5z" />
<glyph unicode="&#x14f;" horiz-adv-x="627" d="M595 263q0 -62 -20 -112.5t-56.5 -86.5t-89 -56t-116.5 -20q-65 0 -116.5 20t-88.5 56t-56.5 86.5t-19.5 112.5q0 63 19.5 114t56.5 88t88.5 57t116.5 20q64 0 116.5 -20t89 -57t56.5 -88t20 -114zM437 264q0 68 -31.5 110.5t-92.5 42.5q-60 0 -92 -42.5t-32 -110.5 q0 -67 32 -109t92 -42q61 0 92.5 42t31.5 109zM318 579q-37 0 -66.5 10.5t-51 29t-35 43.5t-18.5 54l75 21q11 -28 34.5 -43.5t61.5 -15.5t61.5 15.5t34.5 43.5l74 -21q-5 -29 -18 -54t-34.5 -43.5t-51 -29t-66.5 -10.5z" />
<glyph unicode="&#x150;" horiz-adv-x="785" d="M750 357q0 -78 -25.5 -145.5t-72 -117.5t-113 -78.5t-147.5 -28.5t-147 28.5t-112.5 78.5t-72 117.5t-25.5 145.5t25.5 145.5t72 117.5t112.5 78.5t147 28.5t147.5 -28.5t113 -78.5t72 -117.5t25.5 -145.5zM590 357q0 49 -13 91.5t-38.5 73.5t-62 49t-84.5 18t-84.5 -18 t-61.5 -49t-38 -73.5t-13 -91.5q0 -50 13 -92t38 -73.5t61.5 -49t84.5 -17.5t84.5 18t62 49t38.5 73.5t13 91.5zM237 748l91 170l108 -38l-108 -132h-91zM418 748l91 170l108 -38l-108 -132h-91z" />
<glyph unicode="&#x151;" horiz-adv-x="627" d="M595 263q0 -62 -20 -112.5t-56.5 -86.5t-89 -56t-116.5 -20q-65 0 -116.5 20t-88.5 56t-56.5 86.5t-19.5 112.5q0 63 19.5 114t56.5 88t88.5 57t116.5 20q64 0 116.5 -20t89 -57t56.5 -88t20 -114zM437 264q0 68 -31.5 110.5t-92.5 42.5q-60 0 -92 -42.5t-32 -110.5 q0 -67 32 -109t92 -42q61 0 92.5 42t31.5 109zM167 580l91 170l108 -38l-108 -132h-91zM348 580l91 170l108 -38l-108 -132h-91z" />
<glyph unicode="&#x152;" horiz-adv-x="1045" d="M391 0q-86 0 -153 27t-113.5 75t-70.5 113.5t-24 141.5t24 141.5t70.5 113.5t113.5 75t153 27h603v-136h-340v-149h301v-125h-301v-168h350v-136h-613zM500 136v442h-109q-99 0 -149.5 -60.5t-50.5 -160.5q0 -101 50.5 -161t149.5 -60h109z" />
<glyph unicode="&#x153;" horiz-adv-x="989" d="M959 272q0 -24 -3 -42h-377q3 -55 40 -86t96 -31q46 0 80 15t64 46l91 -88q-47 -49 -106.5 -74t-137.5 -25q-70 0 -121 23t-83 65q-34 -41 -84 -64.5t-115 -23.5q-63 0 -113 21t-85 58t-54 87.5t-19 109.5q0 60 19 111t54 88.5t85 58.5t113 21q65 0 116 -23.5t85 -64.5 q32 41 80 64.5t111 23.5q62 0 111 -19.5t83 -55t52 -85.5t18 -110zM427 264q0 68 -30 111t-89 43q-58 0 -88.5 -43t-30.5 -111q0 -67 30.5 -109.5t88.5 -42.5q59 0 89 42.5t30 109.5zM812 325q-5 54 -36.5 80t-79.5 26q-49 0 -80.5 -27.5t-35.5 -78.5h232z" />
<glyph unicode="&#x154;" horiz-adv-x="689" d="M494 0l-147 256h-119v-256h-155v714h309q67 0 118.5 -16.5t85.5 -46t51.5 -70.5t17.5 -90q0 -80 -43.5 -131.5t-109.5 -76.5l162 -283h-170zM497 482q0 46 -32 71t-87 25h-150v-196h146q55 0 89 26t34 74zM278 748l91 170l121 -38l-109 -132h-103z" />
<glyph unicode="&#x155;" horiz-adv-x="419" d="M382 377q-11 6 -25 10t-31 4q-51 0 -82.5 -37.5t-31.5 -100.5v-253h-148v530h148v-82q25 43 62 67.5t80 24.5q17 0 35 -4t28 -9zM130 577l91 170l121 -38l-109 -132h-103z" />
<glyph unicode="&#x156;" horiz-adv-x="689" d="M494 0l-147 256h-119v-256h-155v714h309q67 0 118.5 -16.5t85.5 -46t51.5 -70.5t17.5 -90q0 -80 -43.5 -131.5t-109.5 -76.5l162 -283h-170zM497 482q0 46 -32 71t-87 25h-150v-196h146q55 0 89 26t34 74zM217 -165l68 122h144l-129 -157z" />
<glyph unicode="&#x157;" horiz-adv-x="419" d="M382 377q-11 6 -25 10t-31 4q-51 0 -82.5 -37.5t-31.5 -100.5v-253h-148v530h148v-82q25 43 62 67.5t80 24.5q17 0 35 -4t28 -9zM3 -165l68 122h144l-129 -157z" />
<glyph unicode="&#x158;" horiz-adv-x="689" d="M494 0l-147 256h-119v-256h-155v714h309q67 0 118.5 -16.5t85.5 -46t51.5 -70.5t17.5 -90q0 -80 -43.5 -131.5t-109.5 -76.5l162 -283h-170zM497 482q0 46 -32 71t-87 25h-150v-196h146q55 0 89 26t34 74zM294 746q-24 26 -54 52.5t-67 55.5l43 58l131 -66l130 66l43 -58 q-37 -29 -67 -55.5t-54 -52.5h-105z" />
<glyph unicode="&#x159;" horiz-adv-x="419" d="M382 377q-11 6 -25 10t-31 4q-51 0 -82.5 -37.5t-31.5 -100.5v-253h-148v530h148v-82q25 43 62 67.5t80 24.5q17 0 35 -4t28 -9zM175 578q-24 26 -54 52.5t-67 55.5l43 58l131 -66l130 66l43 -58q-37 -29 -67 -55.5t-54 -52.5h-105z" />
<glyph unicode="&#x15a;" horiz-adv-x="662" d="M322 727q95 0 168 -36t118 -96l-109 -82q-25 35 -71.5 58.5t-104.5 23.5q-45 0 -78.5 -17t-33.5 -56q0 -21 10.5 -34t28.5 -22t43 -15t54 -12q54 -12 104.5 -26.5t89.5 -39t62 -61.5t23 -93q0 -53 -21 -95.5t-60 -73t-93.5 -47t-121.5 -16.5q-106 0 -185.5 40t-126.5 109 l114 85q35 -53 89 -78t117 -25q61 0 96 22.5t35 64.5q0 33 -30.5 50.5t-77 29.5t-100 24.5t-100 35.5t-77 62t-30.5 105q0 51 20 90.5t55.5 67.5t84.5 42.5t108 14.5zM243 748l91 170l121 -38l-109 -132h-103z" />
<glyph unicode="&#x15b;" horiz-adv-x="540" d="M509 168q0 -42 -17.5 -76t-49 -57t-75 -35.5t-95.5 -12.5q-88 0 -152 31t-103 78l96 78q27 -36 67.5 -55.5t93.5 -19.5q46 0 69 14.5t23 39.5q0 18 -10.5 27.5t-27.5 15t-38.5 8.5t-43.5 7q-37 6 -72.5 17t-63 30t-44.5 48t-17 70q0 40 16 71t45 52t68.5 32t86.5 11 q79 0 136.5 -28t92.5 -67l-87 -73q-23 26 -59 42.5t-82 16.5q-78 0 -78 -47q0 -15 9 -24t24.5 -15t36 -9.5t44.5 -7.5q41 -6 78.5 -16.5t66 -29t45.5 -46.5t17 -70zM204 580l91 170l121 -38l-109 -132h-103z" />
<glyph unicode="&#x15c;" horiz-adv-x="662" d="M322 727q95 0 168 -36t118 -96l-109 -82q-25 35 -71.5 58.5t-104.5 23.5q-45 0 -78.5 -17t-33.5 -56q0 -21 10.5 -34t28.5 -22t43 -15t54 -12q54 -12 104.5 -26.5t89.5 -39t62 -61.5t23 -93q0 -53 -21 -95.5t-60 -73t-93.5 -47t-121.5 -16.5q-106 0 -185.5 40t-126.5 109 l114 85q35 -53 89 -78t117 -25q61 0 96 22.5t35 64.5q0 33 -30.5 50.5t-77 29.5t-100 24.5t-100 35.5t-77 62t-30.5 105q0 51 20 90.5t55.5 67.5t84.5 42.5t108 14.5zM376 915q24 -26 54 -52.5t67 -55.5l-43 -58l-130 66l-131 -66l-43 58q37 29 67.5 55.5t53.5 52.5h105z " />
<glyph unicode="&#x15d;" horiz-adv-x="540" d="M509 168q0 -42 -17.5 -76t-49 -57t-75 -35.5t-95.5 -12.5q-88 0 -152 31t-103 78l96 78q27 -36 67.5 -55.5t93.5 -19.5q46 0 69 14.5t23 39.5q0 18 -10.5 27.5t-27.5 15t-38.5 8.5t-43.5 7q-37 6 -72.5 17t-63 30t-44.5 48t-17 70q0 40 16 71t45 52t68.5 32t86.5 11 q79 0 136.5 -28t92.5 -67l-87 -73q-23 26 -59 42.5t-82 16.5q-78 0 -78 -47q0 -15 9 -24t24.5 -15t36 -9.5t44.5 -7.5q41 -6 78.5 -16.5t66 -29t45.5 -46.5t17 -70zM322 738q24 -26 54 -52.5t67 -55.5l-43 -58l-130 66l-131 -66l-43 58q37 29 67.5 55.5t53.5 52.5h105z" />
<glyph unicode="&#x15e;" horiz-adv-x="662" d="M322 727q95 0 168 -36t118 -96l-109 -82q-25 35 -71.5 58.5t-104.5 23.5q-45 0 -78.5 -17t-33.5 -56q0 -21 10.5 -34t28.5 -22t43 -15t54 -12q54 -12 104.5 -26.5t89.5 -39t62 -61.5t23 -93q0 -53 -21 -95.5t-60 -73t-93.5 -47t-121.5 -16.5q-106 0 -185.5 40t-126.5 109 l114 85q35 -53 89 -78t117 -25q61 0 96 22.5t35 64.5q0 33 -30.5 50.5t-77 29.5t-100 24.5t-100 35.5t-77 62t-30.5 105q0 51 20 90.5t55.5 67.5t84.5 42.5t108 14.5zM267 -200q-50 0 -78 13v61q13 -10 31 -13t30 -3q25 0 39 8.5t14 23.5q0 7 -3 10.5t-6 5.5h-57l18 60 q10 6 25 9.5t31 3.5q45 0 75 -22t30 -61q0 -46 -42 -71t-107 -25z" />
<glyph unicode="&#x15f;" horiz-adv-x="540" d="M509 168q0 -42 -17.5 -76t-49 -57t-75 -35.5t-95.5 -12.5q-88 0 -152 31t-103 78l96 78q27 -36 67.5 -55.5t93.5 -19.5q46 0 69 14.5t23 39.5q0 18 -10.5 27.5t-27.5 15t-38.5 8.5t-43.5 7q-37 6 -72.5 17t-63 30t-44.5 48t-17 70q0 40 16 71t45 52t68.5 32t86.5 11 q79 0 136.5 -28t92.5 -67l-87 -73q-23 26 -59 42.5t-82 16.5q-78 0 -78 -47q0 -15 9 -24t24.5 -15t36 -9.5t44.5 -7.5q41 -6 78.5 -16.5t66 -29t45.5 -46.5t17 -70zM216 -201q-50 0 -78 13v61q13 -10 31 -13t30 -3q25 0 39 8.5t14 23.5q0 7 -3 10.5t-6 5.5h-57l18 60 q10 6 25 9.5t31 3.5q45 0 75 -22t30 -61q0 -46 -42 -71t-107 -25z" />
<glyph unicode="&#x160;" horiz-adv-x="662" d="M322 727q95 0 168 -36t118 -96l-109 -82q-25 35 -71.5 58.5t-104.5 23.5q-45 0 -78.5 -17t-33.5 -56q0 -21 10.5 -34t28.5 -22t43 -15t54 -12q54 -12 104.5 -26.5t89.5 -39t62 -61.5t23 -93q0 -53 -21 -95.5t-60 -73t-93.5 -47t-121.5 -16.5q-106 0 -185.5 40t-126.5 109 l114 85q35 -53 89 -78t117 -25q61 0 96 22.5t35 64.5q0 33 -30.5 50.5t-77 29.5t-100 24.5t-100 35.5t-77 62t-30.5 105q0 51 20 90.5t55.5 67.5t84.5 42.5t108 14.5zM265 746q-24 26 -54 52.5t-67 55.5l43 58l131 -66l130 66l43 -58q-37 -29 -67 -55.5t-54 -52.5h-105z" />
<glyph unicode="&#x161;" horiz-adv-x="540" d="M212 588q-24 26 -54 52.5t-67 55.5l43 58l131 -66l130 66l43 -58q-37 -29 -67 -55.5t-54 -52.5h-105zM509 168q0 -42 -17.5 -76t-49 -57t-75 -35.5t-95.5 -12.5q-88 0 -152 31t-103 78l96 78q27 -36 67.5 -55.5t93.5 -19.5q46 0 69 14.5t23 39.5q0 18 -10.5 27.5 t-27.5 15t-38.5 8.5t-43.5 7q-37 6 -72.5 17t-63 30t-44.5 48t-17 70q0 40 16 71t45 52t68.5 32t86.5 11q79 0 136.5 -28t92.5 -67l-87 -73q-23 26 -59 42.5t-82 16.5q-78 0 -78 -47q0 -15 9 -24t24.5 -15t36 -9.5t44.5 -7.5q41 -6 78.5 -16.5t66 -29t45.5 -46.5t17 -70z " />
<glyph unicode="&#x162;" horiz-adv-x="649" d="M401 578v-578h-154v578h-221v136h597v-136h-222zM188 -165l68 122h144l-129 -157z" />
<glyph unicode="&#x163;" horiz-adv-x="441" d="M426 28q-26 -18 -60.5 -29t-80.5 -11q-51 0 -87.5 15.5t-61.5 50.5q-32 45 -32 121v241h-89v107q30 3 52.5 11.5t37.5 25t23 42t10 62.5h115v-134h151v-114h-151v-235q0 -36 16.5 -50t42.5 -14q42 0 74 24zM125 -165l68 122h144l-129 -157z" />
<glyph unicode="&#x164;" horiz-adv-x="649" d="M401 578v-578h-154v578h-221v136h597v-136h-222zM275 746q-24 26 -54 52.5t-67 55.5l43 58l131 -66l130 66l43 -58q-37 -29 -67 -55.5t-54 -52.5h-105z" />
<glyph unicode="&#x165;" horiz-adv-x="440" d="M429 28q-26 -18 -60.5 -29t-80.5 -11q-51 0 -87.5 15.5t-61.5 50.5q-32 45 -32 121v241h-89v107q30 3 52.5 11.5t37.5 25t23 42t10 62.5h115v-134h151v-114h-151v-235q0 -36 16.5 -50t42.5 -14q42 0 74 24zM393.89 659.169q0 -48.2705 -18.8398 -84.2939 q-18.8408 -36.0234 -63.2197 -70.6055l-52.752 39.626q18.4209 15.8496 30.5625 34.582q12.1416 18.7314 12.1416 41.7861q0 12.248 -4.18652 20.8936t-8.79199 17.6514t-8.79199 19.4521q-4.1875 10.4463 -4.1875 25.5762v16.5713h118.065v-61.2393z" />
<glyph unicode="&#x166;" horiz-adv-x="648" d="M401 327v-327h-154v327h-113v78h113v174h-221v135h596v-135h-221v-174h113v-78h-113z" />
<glyph unicode="&#x167;" horiz-adv-x="440" d="M429 28q-26 -18 -60.5 -29t-80.5 -11q-51 0 -87.5 15.5t-61.5 50.5q-32 45 -32 121v73h-76v79h76v89h-89v107q30 3 52.5 11.5t37.5 25t23 42t10 62.5h115v-134h151v-114h-151v-89h108v-79h-108v-67q0 -36 16.5 -50t42.5 -14q42 0 74 24z" />
<glyph unicode="&#x168;" horiz-adv-x="732" d="M665 272q0 -68 -21.5 -121t-61 -89.5t-95 -55.5t-122.5 -19t-122 19t-94 55.5t-60.5 89.5t-21.5 121v442h154v-442q0 -69 37 -107t107 -38t107.5 38t37.5 107v442h155v-442zM553 858q-8 -20 -20 -38.5t-28 -33t-35 -23.5t-41 -9q-21 0 -38.5 7t-32.5 15t-29 15t-29 7 q-34 0 -52 -44l-71 40q8 20 20 38.5t28 33t35 23.5t41 9q20 0 37 -7t32.5 -15.5t29.5 -15.5t29 -7q35 0 54 45z" />
<glyph unicode="&#x169;" horiz-adv-x="614" d="M550 530v-530h-148v62q-32 -35 -73 -54.5t-89 -19.5q-45 0 -79 14.5t-56.5 40.5t-33.5 61t-11 76v350h148v-275q0 -22 1 -45.5t8.5 -43.5t25 -33t51.5 -13q58 0 83 37.5t25 111.5v261h148zM498 690q-8 -20 -20 -38.5t-28 -33t-35 -23.5t-41 -9q-21 0 -38.5 7t-32.5 15 t-29 15t-29 7q-34 0 -52 -44l-71 40q8 20 20 38.5t28 33t35 23.5t41 9q20 0 37 -7t32.5 -15.5t29.5 -15.5t29 -7q35 0 54 45z" />
<glyph unicode="&#x16a;" horiz-adv-x="732" d="M665 272q0 -68 -21.5 -121t-61 -89.5t-95 -55.5t-122.5 -19t-122 19t-94 55.5t-60.5 89.5t-21.5 121v442h154v-442q0 -69 37 -107t107 -38t107.5 38t37.5 107v442h155v-442zM203 769v80h330v-80h-330z" />
<glyph unicode="&#x16b;" horiz-adv-x="614" d="M550 530v-530h-148v62q-32 -35 -73 -54.5t-89 -19.5q-45 0 -79 14.5t-56.5 40.5t-33.5 61t-11 76v350h148v-275q0 -22 1 -45.5t8.5 -43.5t25 -33t51.5 -13q58 0 83 37.5t25 111.5v261h148zM142 601v80h330v-80h-330z" />
<glyph unicode="&#x16c;" horiz-adv-x="732" d="M665 272q0 -68 -21.5 -121t-61 -89.5t-95 -55.5t-122.5 -19t-122 19t-94 55.5t-60.5 89.5t-21.5 121v442h154v-442q0 -69 37 -107t107 -38t107.5 38t37.5 107v442h155v-442zM366 747q-37 0 -66.5 10.5t-51 29t-35 43.5t-18.5 54l75 21q11 -28 34.5 -43.5t61.5 -15.5 t61.5 15.5t34.5 43.5l74 -21q-5 -29 -18 -54t-34.5 -43.5t-51 -29t-66.5 -10.5z" />
<glyph unicode="&#x16d;" horiz-adv-x="614" d="M550 530v-530h-148v62q-32 -35 -73 -54.5t-89 -19.5q-45 0 -79 14.5t-56.5 40.5t-33.5 61t-11 76v350h148v-275q0 -22 1 -45.5t8.5 -43.5t25 -33t51.5 -13q58 0 83 37.5t25 111.5v261h148zM305 579q-37 0 -66.5 10.5t-51 29t-35 43.5t-18.5 54l75 21q11 -28 34.5 -43.5 t61.5 -15.5t61.5 15.5t34.5 43.5l74 -21q-5 -29 -18 -54t-34.5 -43.5t-51 -29t-66.5 -10.5z" />
<glyph unicode="&#x16e;" horiz-adv-x="732" d="M665 272q0 -68 -21.5 -121t-61 -89.5t-95 -55.5t-122.5 -19t-122 19t-94 55.5t-60.5 89.5t-21.5 121v442h154v-442q0 -69 37 -107t107 -38t107.5 38t37.5 107v442h155v-442zM488 843q0 -23 -9 -42.5t-25.5 -33.5t-39 -22.5t-49.5 -8.5q-54 0 -88 31t-34 76q0 22 9 41.5 t25 34t38.5 23t49.5 8.5t49.5 -8.5t39 -23t25.5 -34t9 -41.5zM416 842q0 21 -15 36t-36 15t-36 -15t-15 -36t15 -36t36 -15t36 15t15 36z" />
<glyph unicode="&#x16f;" horiz-adv-x="614" d="M550 530v-530h-148v62q-32 -35 -73 -54.5t-89 -19.5q-45 0 -79 14.5t-56.5 40.5t-33.5 61t-11 76v350h148v-275q0 -22 1 -45.5t8.5 -43.5t25 -33t51.5 -13q58 0 83 37.5t25 111.5v261h148zM427 675q0 -23 -9 -42.5t-25.5 -33.5t-39 -22.5t-49.5 -8.5q-54 0 -88 31t-34 76 q0 22 9 41.5t25 34t38.5 23t49.5 8.5t49.5 -8.5t39 -23t25.5 -34t9 -41.5zM355 674q0 21 -15 36t-36 15t-36 -15t-15 -36t15 -36t36 -15t36 15t15 36z" />
<glyph unicode="&#x170;" horiz-adv-x="732" d="M665 272q0 -68 -21.5 -121t-61 -89.5t-95 -55.5t-122.5 -19t-122 19t-94 55.5t-60.5 89.5t-21.5 121v442h154v-442q0 -69 37 -107t107 -38t107.5 38t37.5 107v442h155v-442zM213 748l91 170l108 -38l-108 -132h-91zM394 748l91 170l108 -38l-108 -132h-91z" />
<glyph unicode="&#x171;" horiz-adv-x="614" d="M550 530v-530h-148v62q-32 -35 -73 -54.5t-89 -19.5q-45 0 -79 14.5t-56.5 40.5t-33.5 61t-11 76v350h148v-275q0 -22 1 -45.5t8.5 -43.5t25 -33t51.5 -13q58 0 83 37.5t25 111.5v261h148zM157 580l91 170l108 -38l-108 -132h-91zM338 580l91 170l108 -38l-108 -132h-91z " />
<glyph unicode="&#x172;" horiz-adv-x="732" d="M665 272q0 -68 -21.5 -121t-61 -89.5t-95 -55.5t-122.5 -19t-122 19t-94 55.5t-60.5 89.5t-21.5 121v442h154v-442q0 -69 37 -107t107 -38t107.5 38t37.5 107v442h155v-442zM541 30q-30 -19 -52 -37.5t-22 -44.5q0 -37 41 -37q16 0 34 7t30 19v-94q-12 -11 -37.5 -19 t-57.5 -8q-54 0 -85 25.5t-31 67.5q0 38 25.5 67.5t67.5 53.5h87z" />
<glyph unicode="&#x173;" horiz-adv-x="614" d="M550 530v-530h-68q-13 -11 -21 -24t-8 -28q0 -37 40 -37q17 0 34.5 7t30.5 19v-94q-12 -11 -38 -19t-57 -8q-54 0 -85.5 25.5t-31.5 67.5q0 29 14.5 52.5t41.5 43.5v57q-32 -35 -73 -54.5t-89 -19.5q-45 0 -79 14.5t-56.5 40.5t-33.5 61t-11 76v350h148v-287 q0 -21 1.5 -42.5t9.5 -39.5t25.5 -29.5t49.5 -11.5q56 0 82 36t26 106v268h148z" />
<glyph unicode="&#x174;" horiz-adv-x="992" d="M776 0h-162l-126 465l-128 -465h-162l-180 714h168l104 -483l135 483h128l136 -485l104 485h170zM544 915q24 -26 54 -52.5t67 -55.5l-43 -58l-130 66l-131 -66l-43 58q37 29 67.5 55.5t53.5 52.5h105z" />
<glyph unicode="&#x175;" horiz-adv-x="828" d="M661 0h-150l-97 344l-98 -344h-150l-148 530h163l74 -343l99 343h122l99 -343l75 343h160zM467 738q24 -26 54 -52.5t67 -55.5l-43 -58l-130 66l-131 -66l-43 58q37 29 67.5 55.5t53.5 52.5h105z" />
<glyph unicode="&#x176;" horiz-adv-x="662" d="M409 298v-298h-155v296l-256 418h180l154 -273l155 273h177zM384 915q24 -26 54 -52.5t67 -55.5l-43 -58l-130 66l-131 -66l-43 58q37 29 67.5 55.5t53.5 52.5h105z" />
<glyph unicode="&#x177;" horiz-adv-x="571" d="M359 -17q-16 -41 -34 -72.5t-42 -52.5t-54.5 -31.5t-70.5 -10.5q-35 0 -68 8t-59 25l43 111q26 -23 63 -23q26 0 42.5 14.5t27.5 38.5l12 25l-218 515h170l125 -336l113 336h159zM338 738q24 -26 54 -52.5t67 -55.5l-43 -58l-130 66l-131 -66l-43 58q37 29 67.5 55.5 t53.5 52.5h105z" />
<glyph unicode="&#x178;" horiz-adv-x="662" d="M409 298v-298h-155v296l-256 418h180l154 -273l155 273h177zM163 812q0 28 19.5 48t46.5 20q28 0 47.5 -19.5t19.5 -48.5q0 -27 -19.5 -46.5t-47.5 -19.5q-27 0 -46.5 19.5t-19.5 46.5zM364 812q0 28 19.5 48t46.5 20q28 0 47.5 -19.5t19.5 -48.5q0 -27 -19.5 -46.5 t-47.5 -19.5q-27 0 -46.5 19.5t-19.5 46.5z" />
<glyph unicode="&#x179;" horiz-adv-x="659" d="M37 0v121l359 457h-344v136h557v-114l-363 -464h373v-136h-582zM253 748l91 170l121 -38l-109 -132h-103z" />
<glyph unicode="&#x17a;" horiz-adv-x="537" d="M34 0v107l248 294h-236v129h446v-102l-253 -300h261v-128h-466zM203 580l91 170l121 -38l-109 -132h-103z" />
<glyph unicode="&#x17b;" horiz-adv-x="659" d="M37 0v121l359 457h-344v136h557v-114l-363 -464h373v-136h-582zM262 816q0 29 20 49t49 20t49.5 -20t20.5 -49t-20.5 -49.5t-49.5 -20.5t-49 20.5t-20 49.5z" />
<glyph unicode="&#x17c;" horiz-adv-x="537" d="M34 0v107l248 294h-236v129h446v-102l-253 -300h261v-128h-466zM195 648q0 29 20 49t49 20t49.5 -20t20.5 -49t-20.5 -49.5t-49.5 -20.5t-49 20.5t-20 49.5z" />
<glyph unicode="&#x17d;" horiz-adv-x="659" d="M37 0v121l359 457h-344v136h557v-114l-363 -464h373v-136h-582zM266 746q-24 26 -54 52.5t-67 55.5l43 58l131 -66l130 66l43 -58q-37 -29 -67 -55.5t-54 -52.5h-105z" />
<glyph unicode="&#x17e;" horiz-adv-x="537" d="M34 0v107l248 294h-236v129h446v-102l-253 -300h261v-128h-466zM211 578q-24 26 -54 52.5t-67 55.5l43 58l131 -66l130 66l43 -58q-37 -29 -67 -55.5t-54 -52.5h-105z" />
<glyph unicode="&#x192;" d="M550 584q-15 8 -27.5 12.5t-31.5 4.5q-31 0 -48.5 -15.5t-22.5 -44.5l-11 -67h125l-21 -115h-125l-51 -292q-7 -40 -21.5 -73.5t-39.5 -58t-60 -38t-82 -13.5q-39 0 -68.5 8t-52.5 20l49 114q16 -8 29 -12.5t32 -4.5q29 0 46.5 16t22.5 45l51 289h-106l21 115h106l12 70 q6 40 21 73.5t40 58t60 38t82 13.5q39 0 68 -8.5t52 -19.5z" />
<glyph unicode="&#x1fa;" horiz-adv-x="704" d="M368 1000h125l-93 -113h-97zM349 568l-94 -279h185zM303 763q0 -20 14.5 -34.5t34.5 -14.5t34.5 14.5t14.5 34.5t-14.5 34t-34.5 14t-34.5 -14t-14.5 -34zM233 763q0 44 33 75t86 31t86 -31t33 -75q0 -37 -25 -64l256 -699h-166l-55 163h-266l-55 -163h-159l257 699 q-25 27 -25 64z" />
<glyph unicode="&#x1fb;" horiz-adv-x="585" d="M358 259q-16 -17 -42.5 -21.5t-54.5 -9.5q-16 -3 -31 -6.5t-26.5 -11t-18.5 -19.5t-7 -31q0 -34 22 -49t55 -15q44 0 73.5 24.5t29.5 76.5v62zM217 -13q-40 0 -74 11t-59 32.5t-39 52.5t-14 72q0 49 19.5 78.5t49 46t63 23.5t61.5 10q25 3 49 5.5t43 8.5t30.5 16t11.5 28 q0 27 -25 39.5t-63 12.5q-40 0 -82 -13t-82 -39l-55 108q52 32 109.5 47.5t118.5 15.5q51 0 93 -11t72 -34t46 -57.5t16 -82.5v-224q0 -20 7 -28.5t21 -8.5q15 0 25 8l15 -95q-12 -8 -36 -13.5t-45 -5.5q-35 0 -65.5 17t-43.5 52q-26 -36 -71.5 -54t-95.5 -18zM399 668 q0 -23 -9 -42.5t-25.5 -33.5t-39 -22.5t-49.5 -8.5q-54 0 -88 31t-34 76q0 22 9 41.5t25 34t38.5 23t49.5 8.5t49.5 -8.5t39 -23t25.5 -34t9 -41.5zM327 667q0 21 -15 36t-36 15t-36 -15t-15 -36t15 -36t36 -15t36 15t15 36zM201 797l91 170l121 -38l-109 -132h-103z" />
<glyph unicode="&#x1fc;" horiz-adv-x="959" d="M437 0v163h-218l-84 -163h-162l371 714h562v-135h-314v-150h275v-124h-275v-170h324v-135h-479zM437 581l-30 -32l-130 -262h160v294zM441 748l91 170l121 -38l-109 -132h-103z" />
<glyph unicode="&#x1fd;" horiz-adv-x="915" d="M357 262q-11 -13 -28.5 -19.5t-37 -10t-40 -6.5t-36.5 -10t-26.5 -20t-10.5 -36q0 -34 21.5 -49t55.5 -15q43 0 72.5 24.5t29.5 76.5v65zM876 86q-47 -51 -108 -75t-132 -24q-72 0 -122.5 23.5t-85.5 65.5q-29 -42 -79 -65.5t-119 -23.5q-92 0 -146 43t-54 124 q0 42 14.5 69.5t37.5 44.5t51 26t56 14q33 5 63.5 8t54 8t37 15t13.5 30q0 30 -27 42t-61 12q-39 0 -81.5 -13t-81.5 -39l-55 108q51 32 108.5 47.5t113.5 15.5q123 0 175 -70q35 37 78 53.5t97 16.5q61 0 109.5 -19.5t82.5 -55t52 -85t18 -109.5q0 -25 -3 -43h-377 q3 -57 40 -87t99 -30q43 0 77.5 15t64.5 46zM738 325q-4 54 -36 80t-80 26q-49 0 -80.5 -27.5t-35.5 -78.5h232zM381 580l91 170l121 -38l-109 -132h-103z" />
<glyph unicode="&#x1fe;" horiz-adv-x="785" d="M326 748l91 170l121 -38l-109 -132h-103zM635 636q55 -51 85 -122.5t30 -156.5q0 -78 -25.5 -145.5t-72 -117.5t-113 -78.5t-147.5 -28.5q-48 0 -90 10t-78 28l-17 -25h-110l52 76q-56 51 -85 123.5t-29 157.5q0 78 25.5 145.5t72 117.5t112.5 78.5t147 28.5q48 0 90 -10 t79 -29l18 26h110zM590 357q0 44 -11 82t-31 67l-244 -362q19 -9 40.5 -14t47.5 -5q48 0 84.5 18t62 49t38.5 73.5t13 91.5zM195 357q0 -90 41 -151l244 362q-38 21 -88 21q-48 0 -84.5 -18t-61.5 -49t-38 -73.5t-13 -91.5z" />
<glyph unicode="&#x1ff;" horiz-adv-x="627" d="M245 580l91 170l121 -38l-109 -132h-103zM516 467q38 -37 58.5 -88.5t20.5 -115.5q0 -62 -20 -112.5t-56.5 -86.5t-89 -56t-116.5 -20q-80 0 -142 31l-15 -19h-92l47 61q-38 36 -58.5 87.5t-20.5 114.5t19.5 114t56.5 88t88.5 57t116.5 20q42 0 77.5 -8.5t64.5 -24.5 l16 21h93zM189 264q0 -46 17 -80l167 217q-27 16 -60 16q-60 0 -92 -42.5t-32 -110.5zM437 264q0 23 -4 43t-12 37l-167 -217q26 -14 59 -14q61 0 92.5 42t31.5 109z" />
<glyph unicode="&#x218;" horiz-adv-x="662" d="M322 727q95 0 168 -36t118 -96l-109 -82q-25 35 -71.5 58.5t-104.5 23.5q-45 0 -78.5 -17t-33.5 -56q0 -21 10.5 -34t28.5 -22t43 -15t54 -12q54 -12 104.5 -26.5t89.5 -39t62 -61.5t23 -93q0 -53 -21 -95.5t-60 -73t-93.5 -47t-121.5 -16.5q-106 0 -185.5 40t-126.5 109 l114 85q35 -53 89 -78t117 -25q61 0 96 22.5t35 64.5q0 33 -30.5 50.5t-77 29.5t-100 24.5t-100 35.5t-77 62t-30.5 105q0 51 20 90.5t55.5 67.5t84.5 42.5t108 14.5zM183 -165l68 122h144l-129 -157z" />
<glyph unicode="&#x219;" horiz-adv-x="540" d="M509 168q0 -42 -17.5 -76t-49 -57t-75 -35.5t-95.5 -12.5q-88 0 -152 31t-103 78l96 78q27 -36 67.5 -55.5t93.5 -19.5q46 0 69 14.5t23 39.5q0 18 -10.5 27.5t-27.5 15t-38.5 8.5t-43.5 7q-37 6 -72.5 17t-63 30t-44.5 48t-17 70q0 40 16 71t45 52t68.5 32t86.5 11 q79 0 136.5 -28t92.5 -67l-87 -73q-23 26 -59 42.5t-82 16.5q-78 0 -78 -47q0 -15 9 -24t24.5 -15t36 -9.5t44.5 -7.5q41 -6 78.5 -16.5t66 -29t45.5 -46.5t17 -70zM145 -165l68 122h144l-129 -157z" />
<glyph unicode="&#x21a;" horiz-adv-x="649" d="M401 578v-578h-154v578h-221v136h597v-136h-222zM271 -200q-50 0 -78 13v61q13 -10 31 -13t30 -3q25 0 39 8.5t14 23.5q0 7 -3 10.5t-6 5.5h-57l18 60q10 6 25 9.5t31 3.5q45 0 75 -22t30 -61q0 -46 -42 -71t-107 -25z" />
<glyph unicode="&#x21b;" horiz-adv-x="440" d="M429 28q-26 -18 -60.5 -29t-80.5 -11q-51 0 -87.5 15.5t-61.5 50.5q-32 45 -32 121v241h-89v107q30 3 52.5 11.5t37.5 25t23 42t10 62.5h115v-134h151v-114h-151v-235q0 -36 16.5 -50t42.5 -14q42 0 74 24zM195 -200q-50 0 -78 13v61q13 -10 31 -13t30 -3q25 0 39 8.5 t14 23.5q0 7 -3 10.5t-6 5.5h-57l18 60q10 6 25 9.5t31 3.5q45 0 75 -22t30 -61q0 -46 -42 -71t-107 -25z" />
<glyph unicode="&#x237;" horiz-adv-x="288" d="M224 12q0 -99 -51 -146.5t-135 -47.5q-29 0 -59 6.5t-51 20.5l38 110q11 -6 23.5 -10.5t29.5 -4.5q56 0 56 68v522h149v-518z" />
<glyph unicode="&#x259;" horiz-adv-x="605" d="M169 207q7 -54 40.5 -81t82.5 -27q52 0 84.5 28.5t38.5 79.5h-246zM574 265q0 -60 -19 -111t-55 -88t-87.5 -57.5t-116.5 -20.5q-64 0 -114 20t-84.5 56t-52.5 84.5t-18 105.5q0 12 1 24.5t4 22.5h384q-6 56 -41.5 84t-89.5 28q-38 0 -71.5 -15t-55.5 -50l-118 64 q37 60 99.5 95t150.5 35q64 0 116.5 -19.5t89.5 -56t57.5 -87.5t20.5 -114z" />
<glyph unicode="&#x2c6;" horiz-adv-x="339" d="M223 738q24 -26 54 -52.5t67 -55.5l-43 -58l-130 66l-131 -66l-43 58q37 29 67.5 55.5t53.5 52.5h105z" />
<glyph unicode="&#x2c7;" horiz-adv-x="339" d="M118 578q-24 26 -54 52.5t-67 55.5l43 58l131 -66l130 66l43 -58q-37 -29 -67 -55.5t-54 -52.5h-105z" />
<glyph unicode="&#x2d8;" horiz-adv-x="339" d="M171 579q-37 0 -66.5 10.5t-51 29t-35 43.5t-18.5 54l75 21q11 -28 34.5 -43.5t61.5 -15.5t61.5 15.5t34.5 43.5l74 -21q-5 -29 -18 -54t-34.5 -43.5t-51 -29t-66.5 -10.5z" />
<glyph unicode="&#x2d9;" horiz-adv-x="323" d="M92 648q0 29 20 49t49 20t49.5 -20t20.5 -49t-20.5 -49.5t-49.5 -20.5t-49 20.5t-20 49.5z" />
<glyph unicode="&#x2da;" horiz-adv-x="323" d="M287 675q0 -23 -9 -42.5t-25.5 -33.5t-39 -22.5t-49.5 -8.5q-54 0 -88 31t-34 76q0 22 9 41.5t25 34t38.5 23t49.5 8.5t49.5 -8.5t39 -23t25.5 -34t9 -41.5zM215 674q0 21 -15 36t-36 15t-36 -15t-15 -36t15 -36t36 -15t36 15t15 36z" />
<glyph unicode="&#x2db;" horiz-adv-x="323" d="M240 30q-30 -19 -52 -37.5t-22 -44.5q0 -37 41 -37q16 0 34 7t30 19v-94q-12 -11 -37.5 -19t-57.5 -8q-54 0 -85 25.5t-31 67.5q0 38 25.5 67.5t67.5 53.5h87z" />
<glyph unicode="&#x2dc;" horiz-adv-x="367" d="M374 690q-8 -20 -20 -38.5t-28 -33t-35 -23.5t-41 -9q-21 0 -38.5 7t-32.5 15t-29 15t-29 7q-34 0 -52 -44l-71 40q8 20 20 38.5t28 33t35 23.5t41 9q20 0 37 -7t32.5 -15.5t29.5 -15.5t29 -7q35 0 54 45z" />
<glyph unicode="&#x2dd;" horiz-adv-x="405" d="M53 580l91 170l108 -38l-108 -132h-91zM234 580l91 170l108 -38l-108 -132h-91z" />
<glyph unicode="&#x3bc;" d="M63 -174v704h148v-320q0 -42 19.5 -69t64.5 -27q56 0 79 36.5t23 114.5v265h148v-530h-137v54q-21 -32 -52.5 -48.5t-66.5 -16.5q-25 0 -44.5 7.5t-33.5 20.5v-191h-148z" />
<glyph unicode="&#x3c0;" horiz-adv-x="590" d="M492 443v-443h-87v443h-220v-443h-87v443h-70v87h534v-87h-70z" />
<glyph unicode="&#x1e80;" horiz-adv-x="992" d="M776 0h-162l-126 465l-128 -465h-162l-180 714h168l104 -483l135 483h128l136 -485l104 485h170zM442 748l-109 132l121 38l91 -170h-103z" />
<glyph unicode="&#x1e81;" horiz-adv-x="828" d="M661 0h-150l-97 344l-98 -344h-150l-148 530h163l74 -343l99 343h122l99 -343l75 343h160zM372 580l-109 132l121 38l91 -170h-103z" />
<glyph unicode="&#x1e82;" horiz-adv-x="992" d="M776 0h-162l-126 465l-128 -465h-162l-180 714h168l104 -483l135 483h128l136 -485l104 485h170zM439 748l91 170l121 -38l-109 -132h-103z" />
<glyph unicode="&#x1e83;" horiz-adv-x="828" d="M661 0h-150l-97 344l-98 -344h-150l-148 530h163l74 -343l99 343h122l99 -343l75 343h160zM354 580l91 170l121 -38l-109 -132h-103z" />
<glyph unicode="&#x1e84;" horiz-adv-x="992" d="M776 0h-162l-126 465l-128 -465h-162l-180 714h168l104 -483l135 483h128l136 -485l104 485h170zM327 812q0 28 19.5 48t46.5 20q28 0 47.5 -19.5t19.5 -48.5q0 -27 -19.5 -46.5t-47.5 -19.5q-27 0 -46.5 19.5t-19.5 46.5zM528 812q0 28 19.5 48t46.5 20q28 0 47.5 -19.5 t19.5 -48.5q0 -27 -19.5 -46.5t-47.5 -19.5q-27 0 -46.5 19.5t-19.5 46.5z" />
<glyph unicode="&#x1e85;" horiz-adv-x="828" d="M661 0h-150l-97 344l-98 -344h-150l-148 530h163l74 -343l99 343h122l99 -343l75 343h160zM247 644q0 28 19.5 48t46.5 20q28 0 47.5 -19.5t19.5 -48.5q0 -27 -19.5 -46.5t-47.5 -19.5q-27 0 -46.5 19.5t-19.5 46.5zM448 644q0 28 19.5 48t46.5 20q28 0 47.5 -19.5 t19.5 -48.5q0 -27 -19.5 -46.5t-47.5 -19.5q-27 0 -46.5 19.5t-19.5 46.5z" />
<glyph unicode="&#x1ef2;" horiz-adv-x="662" d="M409 298v-298h-155v296l-256 418h180l154 -273l155 273h177zM291 748l-109 132l121 38l91 -170h-103z" />
<glyph unicode="&#x1ef3;" horiz-adv-x="571" d="M359 -17q-16 -41 -34 -72.5t-42 -52.5t-54.5 -31.5t-70.5 -10.5q-35 0 -68 8t-59 25l43 111q26 -23 63 -23q26 0 42.5 14.5t27.5 38.5l12 25l-218 515h170l125 -336l113 336h159zM249 580l-109 132l121 38l91 -170h-103z" />
<glyph unicode="&#x2000;" horiz-adv-x="500" />
<glyph unicode="&#x2001;" horiz-adv-x="1000" />
<glyph unicode="&#x2002;" horiz-adv-x="500" />
<glyph unicode="&#x2003;" horiz-adv-x="1000" />
<glyph unicode="&#x2004;" horiz-adv-x="333" />
<glyph unicode="&#x2005;" horiz-adv-x="250" />
<glyph unicode="&#x2006;" horiz-adv-x="166" />
<glyph unicode="&#x2007;" horiz-adv-x="166" />
<glyph unicode="&#x2008;" horiz-adv-x="125" />
<glyph unicode="&#x2009;" horiz-adv-x="200" />
<glyph unicode="&#x200a;" horiz-adv-x="55" />
<glyph unicode="&#x2010;" horiz-adv-x="409" d="M53 224v131h303v-131h-303z" />
<glyph unicode="&#x2011;" horiz-adv-x="409" d="M53 224v131h303v-131h-303z" />
<glyph unicode="&#x2012;" horiz-adv-x="409" d="M53 224v131h303v-131h-303z" />
<glyph unicode="&#x2013;" d="M52 242v124h515v-124h-515z" />
<glyph unicode="&#x2014;" horiz-adv-x="931" d="M53 242v124h825v-124h-825z" />
<glyph unicode="&#x2018;" horiz-adv-x="261" d="M137 590q16 -1 32 -7.5t28 -18t19.5 -27.5t7.5 -35q0 -18 -6 -34t-18 -29t-28.5 -20.5t-37.5 -7.5q-40 0 -68 29t-28 85q0 61 38 113t104 88l36 -62q-31 -14 -54 -35t-25 -39z" />
<glyph unicode="&#x2019;" horiz-adv-x="243" d="M120 546q-16 1 -31.5 7.5t-28 18t-20 27.5t-7.5 35q0 17 6.5 33.5t18 29t28.5 20.5t38 8q39 0 67 -29t28 -85q0 -61 -38 -113t-104 -88l-36 62q31 14 54 35t25 39z" />
<glyph unicode="&#x201a;" horiz-adv-x="277" d="M133 -5q-17 1 -32.5 7.5t-27.5 18t-19.5 27.5t-7.5 36q0 17 6 33.5t18 29t28.5 20t37.5 7.5q40 0 68 -29t28 -84q0 -62 -38.5 -114t-104.5 -87l-35 61q31 14 53.5 35t25.5 39z" />
<glyph unicode="&#x201c;" horiz-adv-x="495" d="M371 590q16 -1 31.5 -7.5t28 -18t20 -27.5t7.5 -35q0 -18 -6.5 -34t-18 -29t-28.5 -20.5t-38 -7.5q-39 0 -67 29t-28 85q0 61 38 113t104 88l36 -62q-31 -14 -54 -34.5t-25 -39.5zM137 590q16 -1 32 -7.5t28 -18t19.5 -27.5t7.5 -35q0 -18 -6 -34t-18 -29t-28.5 -20.5 t-37.5 -7.5q-40 0 -68 29t-28 85q0 61 38 113t104 88l36 -62q-31 -14 -54 -34.5t-25 -39.5z" />
<glyph unicode="&#x201d;" horiz-adv-x="476" d="M120 546q-16 1 -31.5 7.5t-28 18t-20 27.5t-7.5 35q0 17 6.5 33.5t18 29t28.5 20.5t38 8q39 0 67 -29t28 -85q0 -61 -38 -113t-104 -88l-36 62q31 14 54 35t25 39zM354 546q-17 1 -32.5 7.5t-27.5 18t-19.5 27.5t-7.5 35q0 17 6.5 33.5t18 29t28.5 20.5t38 8q39 0 67 -29 t28 -85q0 -61 -38 -113t-104 -88l-36 62q31 14 54 35t25 39z" />
<glyph unicode="&#x201e;" horiz-adv-x="508" d="M133 -5q-17 1 -32.5 7.5t-27.5 18t-19.5 27.5t-7.5 36q0 17 6 33.5t18 29t28.5 20t37.5 7.5q40 0 68 -29t28 -84q0 -62 -38.5 -114t-104.5 -87l-35 61q31 14 53.5 35t25.5 39zM363 -5q-17 1 -32.5 7.5t-27.5 18t-19.5 27.5t-7.5 36q0 17 6 33.5t18 29t28.5 20t37.5 7.5 q40 0 68 -29t28 -84q0 -62 -38 -114t-104 -87l-36 61q31 14 54 35t25 39z" />
<glyph unicode="&#x2020;" horiz-adv-x="529" d="M335 415v-415h-140v415h-160v115h160v184h140v-184h159v-115h-159z" />
<glyph unicode="&#x2021;" horiz-adv-x="549" d="M344 181v-181h-139v181h-160v114h160v121h-160v114h160v184h139v-184h160v-114h-160v-121h160v-114h-160z" />
<glyph unicode="&#x2022;" horiz-adv-x="414" d="M371 333q0 -34 -13 -63.5t-35.5 -52t-52.5 -35.5t-64 -13t-63.5 13t-52 35.5t-35.5 52t-13 63.5t13 64t35.5 52.5t52 35.5t63.5 13t64 -13t52.5 -35.5t35.5 -52.5t13 -64z" />
<glyph unicode="&#x2025;" horiz-adv-x="565" d="M48 83q0 39 27 66t66 27t66 -27t27 -66t-27 -66t-66 -27t-66 27t-27 66zM330 83q0 19 7.5 36t20 30t29.5 20t36 7q39 0 66 -27t27 -66t-27 -66t-66 -27q-19 0 -36 7t-29.5 20t-20 29.5t-7.5 36.5z" />
<glyph unicode="&#x2026;" horiz-adv-x="847" d="M48 83q0 39 27 66t66 27t66 -27t27 -66t-27 -66t-66 -27t-66 27t-27 66zM330 83q0 19 7.5 36t20 30t29.5 20t36 7q39 0 66 -27t27 -66t-27 -66t-66 -27q-19 0 -36 7t-29.5 20t-20 29.5t-7.5 36.5zM613 83q0 39 27 66t66 27q19 0 36 -7t29.5 -20t20 -30t7.5 -36 q0 -20 -7.5 -36.5t-20 -29.5t-29.5 -20t-36 -7q-39 0 -66 27t-27 66z" />
<glyph unicode="&#x202f;" horiz-adv-x="200" />
<glyph unicode="&#x2030;" horiz-adv-x="1190" d="M370 566q0 -33 -12.5 -62t-34.5 -51t-51 -34.5t-62 -12.5t-62.5 12.5t-51.5 34.5t-34.5 51t-12.5 62t12.5 62.5t34.5 51.5t51.5 34.5t62.5 12.5t62 -12.5t51 -34.5t34.5 -51.5t12.5 -62.5zM279 566q0 29 -20 49t-49 20t-49.5 -20t-20.5 -49t20.5 -49t49.5 -20t49 20 t20 49zM224 0h-110l482 714h110zM772 147q0 -33 -12.5 -62t-34.5 -51t-51 -34.5t-62 -12.5t-62.5 12.5t-51.5 34.5t-34.5 51t-12.5 62t12.5 62.5t34.5 51.5t51.5 34.5t62.5 12.5t62 -12.5t51 -34.5t34.5 -51.5t12.5 -62.5zM681 147q0 29 -20 49t-49 20t-49.5 -20t-20.5 -49 t20.5 -49t49.5 -20t49 20t20 49zM1144 147q0 -33 -12.5 -62t-34.5 -51t-51 -34.5t-62 -12.5t-62.5 12.5t-51.5 34.5t-34.5 51t-12.5 62t12.5 62.5t34.5 51.5t51.5 34.5t62.5 12.5t62 -12.5t51 -34.5t34.5 -51.5t12.5 -62.5zM1053 147q0 29 -20 49t-49 20t-49.5 -20 t-20.5 -49t20.5 -49t49.5 -20t49 20t20 49z" />
<glyph unicode="&#x2039;" horiz-adv-x="292" d="M20 302l163 208l73 -55l-115 -180l115 -180l-73 -54l-163 207v54z" />
<glyph unicode="&#x203a;" horiz-adv-x="292" d="M271 248l-162 -207l-73 54l115 180l-115 180l73 55l162 -208v-54z" />
<glyph unicode="&#x2044;" horiz-adv-x="200" d="M-86 0h-110l482 714h110z" />
<glyph unicode="&#x205f;" horiz-adv-x="250" />
<glyph unicode="&#x2070;" horiz-adv-x="425" d="M390 586q0 -47 -10.5 -87.5t-32.5 -70.5t-56 -47.5t-80 -17.5t-79 17.5t-54.5 47.5t-31.5 70.5t-10 87.5t10 87.5t31.5 70.5t54.5 47t79 17t80 -17t56 -47t32.5 -70.5t10.5 -87.5zM276 586q0 28 -3 51.5t-10.5 41t-20 27.5t-31.5 10q-18 0 -30.5 -10t-19.5 -27.5t-10 -41 t-3 -51.5q0 -27 3 -51t10 -42t19.5 -28t30.5 -10q19 0 31.5 10t20 28t10.5 42t3 51z" />
<glyph unicode="&#x2074;" horiz-adv-x="416" d="M330 456v-85h-108v85h-200v80q25 23 55 58.5t58.5 73t51 73t32.5 59.5h111v-251h64v-93h-64zM224 549l3 128q-20 -32 -45 -64t-54 -64h96z" />
<glyph unicode="&#x2075;" horiz-adv-x="410" d="M379 518q0 -30 -11.5 -57.5t-34.5 -49.5t-57.5 -35t-80.5 -13q-57 0 -99 19.5t-72 50.5l69 67q19 -24 43.5 -34t50.5 -10q31 0 54 14t23 46q0 29 -20 43.5t-50 14.5q-49 0 -79 -36l-66 25l15 237h291v-92h-200q-1 -15 -4 -37.5t-6 -38.5q18 12 39.5 17t43.5 5 q31 0 59 -9.5t48 -27.5t32 -43t12 -56z" />
<glyph unicode="&#x2076;" horiz-adv-x="410" d="M146 522q0 -31 16.5 -50.5t48.5 -19.5q31 0 47 19.5t16 51.5t-16 51.5t-47 19.5q-32 0 -48.5 -20.5t-16.5 -51.5zM325 800q-54 -38 -90 -71.5t-58 -75.5q14 11 33 15t32 4q64 0 105.5 -39.5t41.5 -108.5q0 -35 -13 -64.5t-36.5 -51t-56 -33.5t-72.5 -12 q-82 0 -130.5 43.5t-48.5 126.5q0 82 39 148t98 119h156z" />
<glyph unicode="&#x2077;" horiz-adv-x="374" d="M366 724q-30 -36 -59.5 -77.5t-52.5 -87t-37 -93t-13 -95.5h-125q1 51 16.5 99.5t37.5 91t47.5 78.5t47.5 63h-211v97h349v-76z" />
<glyph unicode="&#x2078;" horiz-adv-x="425" d="M392 494q0 -63 -48.5 -97t-130.5 -34q-83 0 -131 34t-48 97q0 30 14 58t48 45q-22 14 -35 35.5t-13 52.5q0 60 44 91.5t121 31.5q78 0 121 -31.5t43 -91.5q0 -31 -14.5 -52.5t-34.5 -35.5q34 -17 49 -45t15 -58zM266 681q0 23 -16.5 33.5t-36.5 10.5q-22 0 -38 -10.5 t-16 -33.5q0 -26 16 -37t37 -11t37.5 11t16.5 37zM280 500q0 29 -20.5 42.5t-46.5 13.5q-27 0 -47.5 -13.5t-20.5 -42.5t20.5 -42t47.5 -13q26 0 46.5 13t20.5 42z" />
<glyph unicode="&#x2079;" horiz-adv-x="411" d="M265 648q0 32 -17 51t-49 19q-31 0 -46.5 -19.5t-15.5 -51.5t15.5 -51t46.5 -19q32 0 49 20t17 51zM86 371q54 37 90.5 70.5t57.5 75.5q-14 -11 -33 -14.5t-32 -3.5q-64 0 -105.5 39t-41.5 108q0 36 13 66t36 51t56 33t72 12q83 0 131.5 -43.5t48.5 -127.5 q0 -82 -39 -147t-98 -119h-156z" />
<glyph unicode="&#x2080;" horiz-adv-x="425" d="M390 130q0 -47 -10.5 -88t-32.5 -71t-56 -47.5t-80 -17.5t-79 17.5t-54.5 47.5t-31.5 71t-10 88t10 87.5t31.5 70t54.5 46.5t79 17t80 -17t56 -47t32.5 -70.5t10.5 -86.5zM276 130q0 27 -3 51t-10.5 41.5t-20 27.5t-31.5 10q-18 0 -30.5 -10t-19.5 -27.5t-10 -41.5 t-3 -51q0 -28 3 -52t10 -42t19.5 -28t30.5 -10q19 0 31.5 10.5t20 28.5t10.5 42t3 51z" />
<glyph unicode="&#x2081;" horiz-adv-x="400" d="M294 -86h-111v312q-20 -8 -48.5 -14.5t-56.5 -10.5l-14 86q55 9 89 22.5t58 33.5h83v-429z" />
<glyph unicode="&#x2082;" horiz-adv-x="414" d="M38 -86v81q56 39 96 68.5t65 53.5t36.5 45t11.5 42q0 23 -15.5 36t-39.5 13q-25 0 -46 -14.5t-35 -41.5l-88 49q29 45 72 75t105 30q75 0 120.5 -38t45.5 -105q0 -49 -36.5 -96.5t-117.5 -100.5h170v-97h-344z" />
<glyph unicode="&#x2083;" horiz-adv-x="419" d="M386 40q0 -27 -12 -51.5t-35.5 -43t-57 -29t-75.5 -10.5q-65 0 -109 23t-74 56l77 63q14 -19 39.5 -31.5t62.5 -12.5q34 0 51 11.5t17 31.5q0 19 -15.5 28t-40.5 9h-56v93h54q18 0 33.5 8.5t15.5 28.5t-17 30t-43 10q-27 0 -52.5 -10t-45.5 -30l-65 69q35 32 75 50t94 18 q34 0 64.5 -7.5t52.5 -23t35 -38.5t13 -53q0 -61 -52 -90q34 -14 50 -41t16 -58z" />
<glyph unicode="&#x2084;" horiz-adv-x="416" d="M330 -1v-85h-108v85h-200v81q25 23 55 58t58.5 73t51 73.5t32.5 58.5h111v-251h64v-93h-64zM224 92l3 128q-20 -32 -45 -64t-54 -64h96z" />
<glyph unicode="&#x2085;" horiz-adv-x="410" d="M379 62q0 -30 -11.5 -58t-34.5 -49.5t-57.5 -35t-80.5 -13.5q-57 0 -99 19.5t-72 51.5l69 66q19 -24 43.5 -34t50.5 -10q31 0 54 14t23 46q0 29 -20 44t-50 15q-48 0 -79 -37l-66 26l15 236h291v-91h-200q-1 -15 -4 -37.5t-6 -39.5q18 12 39.5 17t43.5 5q31 0 59 -9.5 t48 -27t32 -42.5t12 -56z" />
<glyph unicode="&#x2086;" horiz-adv-x="410" d="M146 65q0 -31 16.5 -50t48.5 -19q31 0 47 19t16 51t-16 51.5t-47 19.5q-32 0 -48.5 -20.5t-16.5 -51.5zM325 343q-54 -37 -90 -71t-58 -76q14 11 33 15t32 4q32 0 59 -10t46.5 -29.5t30.5 -47t11 -61.5q0 -36 -13 -65.5t-36.5 -50.5t-56 -33t-72.5 -12q-82 0 -130.5 43.5 t-48.5 127.5q0 82 39 147t98 119h156z" />
<glyph unicode="&#x2087;" horiz-adv-x="374" d="M366 267q-30 -36 -59.5 -77.5t-52.5 -86.5t-37 -93t-13 -96h-125q1 52 16.5 100t37.5 90.5t47.5 78.5t47.5 63h-211v97h349v-76z" />
<glyph unicode="&#x2088;" horiz-adv-x="425" d="M392 37q0 -63 -48.5 -97t-130.5 -34q-83 0 -131 34t-48 97q0 31 14 59t48 45q-22 13 -35 34.5t-13 53.5q0 60 44 91t121 31q78 0 121 -31t43 -91q0 -31 -14.5 -52.5t-34.5 -35.5q34 -17 49 -45t15 -59zM266 224q0 24 -16.5 34.5t-36.5 10.5q-22 0 -38 -10.5t-16 -34.5 q0 -26 16 -37t37 -11t37.5 11t16.5 37zM280 43q0 30 -20.5 43t-46.5 13q-27 0 -47.5 -13t-20.5 -43q0 -29 20.5 -41.5t47.5 -12.5q26 0 46.5 12.5t20.5 41.5z" />
<glyph unicode="&#x2089;" horiz-adv-x="411" d="M265 192q0 31 -17 50.5t-49 19.5q-31 0 -46.5 -19.5t-15.5 -51.5t15.5 -51.5t46.5 -19.5q32 0 49 20.5t17 51.5zM86 -86q54 37 90.5 71t57.5 75q-14 -11 -33 -14.5t-32 -3.5q-64 0 -105.5 39.5t-41.5 108.5q0 36 13 65.5t36 51t56 33t72 11.5q83 0 131.5 -43.5 t48.5 -126.5q0 -41 -10.5 -78t-29 -70t-43.5 -62.5t-54 -56.5h-156z" />
<glyph unicode="&#x20ac;" d="M391 -12q-57 0 -107 17.5t-90 51.5t-68 85t-40 119h-70v66h61q-1 6 -1 14v16v15t2 14h-62v64h71q12 64 40.5 115t70 86.5t94 54.5t112.5 19q63 0 112 -18t82 -42l-60 -120q-27 24 -58.5 35t-65.5 11q-64 0 -106 -36t-62 -105h245l-32 -64h-225q-2 -7 -2 -14v-15v-15.5 t1 -14.5h196l-33 -66h-152q15 -72 57 -105.5t99 -33.5q47 0 79.5 19t54.5 40l68 -112q-38 -38 -91.5 -59.5t-119.5 -21.5z" />
<glyph unicode="&#x2113;" horiz-adv-x="552" d="M515 85q-13 -17 -30.5 -34t-41.5 -31t-55 -23t-70 -9q-86 0 -131 45.5t-45 133.5v44q-19 -8 -37 -16t-36 -13l-37 99q56 19 110 47v202q0 40 9.5 75.5t30.5 62.5t54 42.5t79 15.5q41 0 72 -12.5t51.5 -35t31 -53t10.5 -66.5q0 -74 -49.5 -148.5t-163.5 -140.5v-97 q0 -38 18.5 -53.5t46.5 -15.5q19 0 35 6t28.5 15t22 19.5t15.5 19.5zM267 400q48 40 71 82t23 79q0 59 -46 59q-26 0 -37 -21t-11 -51v-148z" />
<glyph unicode="&#x2117;" horiz-adv-x="795" d="M364 268v-124h-112v397h185q39 0 68 -11t47.5 -29.5t28 -43.5t9.5 -53t-9 -52.5t-28 -43t-48.5 -29.5t-70.5 -11h-70zM477 403q0 26 -15.5 40t-46.5 14h-51v-108h51q62 0 62 54zM37 342q0 75 28.5 140.5t77.5 114t114.5 77t139.5 28.5t139.5 -28.5t114.5 -77t77.5 -114 t28.5 -140.5t-28.5 -140.5t-77.5 -114t-114.5 -77t-139.5 -28.5t-139.5 28.5t-114.5 77t-77.5 114t-28.5 140.5zM107 342q0 -60 23 -113t62 -92.5t92 -62.5t113 -23t113 23t92.5 62.5t62.5 92.5t23 113t-23 113t-62.5 92t-92.5 62t-113 23t-113 -23t-92 -62t-62 -92 t-23 -113z" />
<glyph unicode="&#x2122;" horiz-adv-x="732" d="M602 419v205l-67 -205h-55l-67 205v-205h-72v295h103l64 -204l65 204h101v-295h-72zM212 641v-222h-76v222h-93v73h263v-73h-94z" />
<glyph unicode="&#x2126;" horiz-adv-x="618" d="M309 727q60 0 109 -22.5t84 -62.5t54.5 -96t19.5 -122q0 -59 -14 -108.5t-35 -91t-46 -76.5t-46 -66h128v-82h-210l-16 78q36 50 64 93t48 84t30.5 83t10.5 90q0 47 -13 87t-36.5 69.5t-57 46t-74.5 16.5t-74.5 -16.5t-57 -46t-36 -69.5t-12.5 -87q0 -48 10.5 -90t30 -83 t48 -84t64.5 -93l-17 -78h-210v82h129q-22 32 -47 67.5t-46 77t-35 90.5t-14 109q0 65 19.5 120.5t54.5 95.5t84 62.5t109 22.5z" />
<glyph unicode="&#x212e;" horiz-adv-x="614" d="M159 273v-187q31 -30 68 -45.5t82 -15.5q65 0 113 29t86 95l36 -22q-24 -37 -48.5 -63t-52.5 -43t-61 -25t-73 -8q-61 0 -110 22t-83.5 60.5t-53.5 90.5t-19 112t19 112t53.5 90.5t83.5 60.5t110 22q60 0 109 -21t84 -59t54.5 -90t19.5 -115h-417zM460 310v150 q-67 62 -152 62q-45 0 -81.5 -16t-67.5 -46v-150h301z" />
<glyph unicode="&#x2202;" horiz-adv-x="604" d="M101 679q30 22 72.5 35t92.5 13q62 0 115 -22.5t92 -66.5t61 -109.5t22 -150.5q0 -63 -14 -131.5t-47 -126.5t-87 -95.5t-134 -37.5q-53 0 -96 17.5t-73 49t-46 74t-16 93.5q0 56 19 101.5t51.5 78t76.5 50.5t94 18q63 0 112.5 -26.5t72.5 -67.5q0 57 -11.5 106t-36 85 t-63.5 56t-93 20q-32 0 -64 -8.5t-62 -29.5zM276 73q37 0 67 13.5t51 37t32.5 54.5t11.5 66q0 66 -37.5 102.5t-102.5 36.5q-40 0 -69.5 -14t-49 -37t-29 -53t-9.5 -62q0 -66 36.5 -105t98.5 -39z" />
<glyph unicode="&#x2206;" horiz-adv-x="617" d="M586 0h-555v14l272 748h12l271 -748v-14zM153 87h311l-155 452z" />
<glyph unicode="&#x220f;" horiz-adv-x="609" d="M501 626v-626h-87v626h-219v-626h-87v626h-70v88h533v-88h-70z" />
<glyph unicode="&#x2211;" horiz-adv-x="589" d="M535 0h-494v24l288 333l-288 333v24h494v-88h-319l230 -269l-230 -270h319v-87z" />
<glyph unicode="&#x2212;" d="M52 242v124h515v-124h-515z" />
<glyph unicode="&#x221a;" horiz-adv-x="588" d="M594 718l-382 -772h-12l-189 375l78 39l116 -233l311 629z" />
<glyph unicode="&#x221e;" horiz-adv-x="793" d="M749 275q0 -36 -13.5 -67t-36.5 -54t-54.5 -36.5t-67.5 -13.5q-32 0 -61.5 10.5t-56.5 37.5l-62 63l-63 -63q-27 -27 -55.5 -37.5t-61.5 -10.5q-36 0 -68 13.5t-55 36.5t-36.5 54t-13.5 67t13.5 67t36.5 54t55 36.5t68 13.5q33 0 61.5 -10.5t55.5 -37.5l63 -63l62 63 q27 27 56.5 37.5t61.5 10.5q36 0 67.5 -13.5t54.5 -36.5t36.5 -54t13.5 -67zM662 275q0 35 -24.5 59.5t-59.5 24.5q-19 0 -35.5 -8t-30.5 -20.5t-27.5 -27.5t-26.5 -28l59 -58q24 -26 60 -26t60.5 24.5t24.5 59.5zM277 334q-26 25 -60 25q-36 0 -60.5 -24.5t-24.5 -59.5 q0 -18 6.5 -33t17.5 -26.5t26.5 -18t32.5 -6.5q19 0 35.5 8t31 21t27.5 27.5t27 28.5z" />
<glyph unicode="&#x222b;" horiz-adv-x="321" d="M259 678q-16 19 -38 19q-40 0 -40 -53q0 -17 2.5 -48.5t6.5 -71.5l8.5 -85t9.5 -89q5 -50 9.5 -96.5t8 -86t5.5 -71t2 -49.5q0 -60 -30.5 -92t-83.5 -32q-36 0 -60 11.5t-41 27.5l46 55q16 -18 38 -18q40 0 40 53q0 16 -2.5 47.5t-6.5 71.5t-9 85.5t-9 89.5 q-5 49 -9.5 96t-8 86.5t-5.5 71t-2 49.5q0 60 30.5 92t84.5 32q35 0 59 -11.5t41 -27.5z" />
<glyph unicode="&#x2248;" horiz-adv-x="576" d="M28 193q11 15 25.5 31.5t33 31t40.5 23.5t48 9q29 0 54.5 -9t63.5 -25q35 -15 60 -23.5t48 -8.5q29 0 56 12t53 34l38 -43q-11 -15 -25.5 -32t-33 -31t-40.5 -23.5t-48 -9.5q-29 0 -54.5 9t-63.5 26q-35 15 -60 23.5t-48 8.5q-29 0 -56.5 -12.5t-52.5 -35.5zM28 386 q11 15 25.5 31.5t33 30.5t40.5 23t48 9q29 0 54.5 -9t63.5 -25q35 -15 60 -24t48 -9q29 0 56 12.5t53 35.5l38 -45q-11 -15 -25.5 -31.5t-33 -30.5t-40.5 -23.5t-48 -9.5q-29 0 -54.5 9t-63.5 26q-35 15 -60 23.5t-48 8.5q-29 0 -56.5 -13t-52.5 -34z" />
<glyph unicode="&#x2260;" horiz-adv-x="576" d="M284 143l-51 -153h-82l52 153h-181v92h210l28 82h-238v93h269l51 154h82l-51 -154h180v-93h-211l-28 -82h239v-92h-269z" />
<glyph unicode="&#x2264;" d="M51 0v113h516v-113h-516zM495 668l55 -109l-276 -150l276 -151l-55 -109l-439 260z" />
<glyph unicode="&#x2265;" d="M52 0v113h516v-113h-516zM563 409l-439 -260l-56 109l277 151l-277 150l56 109z" />
<glyph unicode="&#x25ca;" horiz-adv-x="606" d="M306 -48h-12l-262 405l262 405h12l262 -405zM300 617l-162 -260l162 -261l162 261z" />
<glyph unicode="&#x25fc;" horiz-adv-x="530" d="M0 530h530v-530h-530v530z" />
<glyph unicode="&#xf6c3;" horiz-adv-x="255" d="M0 -165l68 122h144l-129 -157z" />
<glyph d="M583 356q0 -70 -14.5 -136.5t-47 -118t-85 -83t-127.5 -31.5q-76 0 -128 31.5t-84 83t-46 118t-14 136.5t14 136.5t46 118.5t84 84t128 32q75 0 127.5 -32t85 -84t47 -118.5t14.5 -136.5zM426 357q0 51 -5.5 95.5t-19 77.5t-36.5 52t-57 19t-56.5 -19t-35.5 -52 t-18.5 -77.5t-5.5 -95.5t5.5 -95.5t18.5 -77.5t35.5 -52t56.5 -19t57 19t36.5 52t19 77.5t5.5 95.5z" />
<glyph d="M442 0h-153v544q-14 -7 -34.5 -14t-44.5 -13.5t-49 -12t-48 -8.5l-20 115q84 17 140.5 41t92.5 62h116v-714z" />
<glyph d="M58 0v112q92 69 156.5 123.5t105.5 99.5t60 83t19 74q0 50 -31 76.5t-74 26.5q-38 0 -72 -21t-56 -66l-121 69q45 70 109 110t154 40q55 0 101.5 -15.5t80.5 -44.5t53 -70.5t19 -93.5q0 -47 -17 -91.5t-51.5 -89t-88 -90.5t-126.5 -96h292v-136h-513z" />
<glyph d="M306 727q54 0 99.5 -13t79.5 -38t53 -60.5t19 -80.5q0 -58 -29.5 -95t-74.5 -60q62 -21 94.5 -66t32.5 -105q0 -46 -19.5 -86.5t-55.5 -70.5t-87.5 -47.5t-115.5 -17.5q-51 0 -93 11t-76.5 29.5t-61.5 43.5t-47 53l111 83q63 -88 166 -88q59 0 91 26t32 71 q0 43 -30.5 66.5t-90.5 23.5h-74v122h72q45 0 75 20t30 63q0 44 -32 64.5t-80 20.5t-88 -18.5t-67 -51.5l-85 95q43 46 105 76t147 30z" />
<glyph d="M492 149v-149h-152v149h-314v114q29 30 61.5 69.5t64.5 83t62 88t55.5 84.5t43.5 73t27 53h152v-437h100v-128h-100zM343 277l2 234q-13 -25 -32.5 -55.5t-42 -61.5t-46 -61.5t-45.5 -55.5h164z" />
<glyph d="M580 243q0 -53 -20 -100t-57.5 -81.5t-90.5 -54.5t-120 -20q-49 0 -90.5 11t-75.5 29.5t-60 43t-45 52.5l111 84q28 -43 68 -64.5t88 -21.5q63 0 99 32t36 86t-35.5 85t-90.5 31q-44 0 -76 -18t-52 -44l-95 37l25 384h441v-136h-321l-13 -143q26 20 62 29t71 9 q49 0 93 -16t77 -46t52 -72.5t19 -95.5z" />
<glyph d="M483 714q-79 -60 -142 -129t-93 -133q22 21 54.5 29.5t60.5 8.5q48 0 88.5 -17t70.5 -48t47 -76t17 -100q0 -59 -19.5 -107t-55 -82.5t-85.5 -53.5t-110 -19q-62 0 -112 18t-85.5 53t-55 86.5t-19.5 118.5t17 128t47.5 117t71.5 107t89 99h214zM202 246q0 -57 28.5 -92.5 t84.5 -35.5t83.5 36t27.5 93q0 58 -27.5 92t-83.5 34t-84.5 -35t-28.5 -92z" />
<glyph d="M568 605q-40 -51 -85.5 -118.5t-83.5 -146t-63 -165t-24 -175.5h-168q2 89 28 174.5t63 161t79.5 137.5t77.5 105h-357v136h533v-109z" />
<glyph d="M310 106q51 0 83.5 26t32.5 80q0 53 -31 79.5t-85 26.5t-85.5 -27t-31.5 -79q0 -54 33 -80t84 -26zM309 430q19 0 36.5 4.5t31 15t21.5 27.5t8 42q0 24 -8 40.5t-21.5 27.5t-30.5 16t-36 5t-36.5 -5t-30.5 -16t-21 -27.5t-8 -40.5q0 -25 8 -42t21 -27.5t30.5 -15 t35.5 -4.5zM310 -13q-67 0 -118.5 17t-86 46t-52.5 69t-18 85q0 62 32 108t89 68q-42 20 -70 58t-28 98q0 46 20 82t54.5 60t80.5 36.5t97 12.5t96.5 -12.5t80 -36.5t55 -60t20.5 -82q0 -60 -28 -98t-70 -58q57 -22 88.5 -68t31.5 -108q0 -45 -17.5 -85t-52 -69t-86 -46 t-118.5 -17z" />
<glyph d="M136 0q81 60 143 129t94 133q-23 -21 -55.5 -29.5t-60.5 -8.5q-48 0 -89 17t-70.5 48t-46.5 75.5t-17 99.5q0 59 19.5 107.5t54.5 83t85 53.5t112 19q61 0 111 -18t85.5 -53t55 -87t19.5 -119t-17.5 -127.5t-47.5 -116t-71 -107t-88 -99.5h-216zM418 467q0 57 -28.5 93 t-84.5 36t-84 -36t-28 -93q0 -58 28 -92t84 -34t84.5 34.5t28.5 91.5z" />
<glyph horiz-adv-x="295" d="M238 0h-175l36 486h103zM58 631q0 39 27 66t66 27q19 0 36 -7t29.5 -20t20 -30t7.5 -36q0 -20 -7.5 -36.5t-20 -29.5t-29.5 -20t-36 -7q-39 0 -66 27t-27 66z" />
<glyph horiz-adv-x="556" d="M44 198q0 43 15 75t37 55.5t48 41t48 33.5t37 32t15 36v15h147v-20q0 -37 -14 -63t-35 -46.5t-45 -36.5t-45 -32.5t-35 -36t-14 -45.5q0 -36 27.5 -61t79.5 -25q36 0 75 14t72 46l70 -105q-47 -40 -104.5 -63t-127.5 -23q-56 0 -102 15t-79 43t-51.5 66t-18.5 85z M408 631q0 -20 -7.5 -36.5t-20 -29.5t-29.5 -20t-36 -7t-36 7t-29.5 20t-20 29.5t-7.5 36.5q0 19 7.5 36t20 29.5t29.5 20t36 7.5t36 -7.5t29.5 -20t20 -29.5t7.5 -36z" />
<glyph horiz-adv-x="410" d="M51 267v132h307v-132h-307z" />
<glyph d="M52 271v124h515v-124h-515z" />
<glyph horiz-adv-x="913" d="M52 271v124h809v-124h-809z" />
<glyph horiz-adv-x="361" d="M131 0h-121l220 714h121z" />
<glyph horiz-adv-x="246" d="M66 -48v762h114v-762h-114z" />
<glyph horiz-adv-x="361" d="M230 0l-220 714h120l220 -714h-120z" />
<glyph horiz-adv-x="298" d="M206 -76q-50 59 -83 116t-53 111.5t-28.5 106t-8.5 99.5t8.5 99.5t28.5 106t53 111.5t83 116l87 -57q-40 -53 -66 -101t-41.5 -94.5t-21.5 -91t-6 -89.5t6 -89.5t21.5 -91t41.5 -95t66 -100.5z" />
<glyph horiz-adv-x="297" d="M24 -19q40 52 66 100.5t41.5 95t22 91t6.5 89.5t-6.5 89.5t-22 91t-41.5 94.5t-66 101l88 57q50 -59 83 -116t53 -111.5t28 -106t8 -99.5t-8 -99.5t-28 -106t-53 -111.5t-83 -116z" />
<glyph horiz-adv-x="335" d="M70 -54v822h243v-95h-119v-633h119v-94h-243z" />
<glyph horiz-adv-x="335" d="M21 -54v94h119v633h-119v95h244v-822h-244z" />
<glyph horiz-adv-x="384" d="M15 310v94h42q41 0 54.5 22t13.5 56v119q0 81 44.5 124t116.5 43h77v-94h-38q-42 0 -58.5 -23.5t-16.5 -63.5v-84q0 -54 -22.5 -91.5t-71.5 -54.5q49 -17 71.5 -55t22.5 -92v-83q0 -40 16.5 -63.5t58.5 -23.5h38v-94h-77q-72 0 -116.5 42.5t-44.5 123.5v120 q0 34 -13.5 56t-54.5 22h-42z" />
<glyph horiz-adv-x="384" d="M327 310q-41 0 -54.5 -22t-13.5 -56v-120q0 -81 -44.5 -123.5t-116.5 -42.5h-76v94h37q43 0 59 23.5t16 63.5v83q0 54 23 92t72 55q-49 17 -72 54.5t-23 91.5v84q0 40 -16.5 63.5t-58.5 23.5h-37v94h76q72 0 116.5 -43t44.5 -124v-119q0 -34 13.5 -56t54.5 -22h43v-94 h-43z" />
<glyph horiz-adv-x="276" d="M230 333q0 -19 -7 -35.5t-19.5 -29t-29.5 -20t-36 -7.5q-38 0 -65 27t-27 65q0 19 7.5 36t20 29.5t29 20t35.5 7.5t36 -7.5t29.5 -20t19.5 -29.5t7 -36z" />
<glyph d="M371 271v-196h-123v196h-196v124h196v196h123v-196h196v-124h-196z" />
<glyph d="M52 271v124h515v-124h-515z" />
<glyph d="M394 533q0 -35 -24.5 -59.5t-59.5 -24.5q-36 0 -60.5 24.5t-24.5 59.5t24.5 60t60.5 25q17 0 32.5 -6.5t27 -18t18 -27t6.5 -33.5zM52 271v124h515v-124h-515zM394 133q0 -18 -6.5 -33.5t-18 -27t-27 -18t-32.5 -6.5q-36 0 -60.5 25t-24.5 60t24.5 59.5t60.5 24.5 q35 0 59.5 -24.5t24.5 -59.5z" />
<glyph d="M52 377v123h515v-123h-515zM52 166v123h515v-123h-515z" />
<glyph d="M481 74l-172 172l-173 -172l-86 87l172 172l-172 172l86 87l173 -171l172 171l87 -87l-171 -172l171 -172z" />
<glyph d="M407 30l-304 303l304 304l87 -86l-217 -218l217 -216z" />
<glyph d="M212 30l-86 87l218 216l-218 218l86 86l304 -304z" />
<glyph horiz-adv-x="425" d="M390 500q0 -47 -10.5 -87.5t-32.5 -70.5t-56 -47.5t-80 -17.5t-79 17.5t-54.5 47.5t-31.5 70.5t-10 87.5t10 87.5t31.5 70.5t54.5 47t79 17t80 -17t56 -47t32.5 -70.5t10.5 -87.5zM276 500q0 28 -3 51.5t-10.5 41t-20 27.5t-31.5 10q-18 0 -30.5 -10t-19.5 -27.5t-10 -41 t-3 -51.5q0 -27 3 -51t10 -42t19.5 -28t30.5 -10q19 0 31.5 10t20 28t10.5 42t3 51z" />
<glyph horiz-adv-x="400" d="M294 285h-111v312q-20 -8 -48.5 -15t-56.5 -10l-14 86q55 8 89 22t58 34h83v-429z" />
<glyph horiz-adv-x="414" d="M38 285v80q56 39 96 69t65 54t36.5 44.5t11.5 41.5q0 23 -15.5 36.5t-39.5 13.5q-25 0 -46 -15t-35 -41l-88 49q29 45 72 75t105 30q37 0 67.5 -10t52.5 -28.5t34 -45t12 -59.5q0 -49 -36.5 -96.5t-117.5 -100.5h170v-97h-344z" />
<glyph horiz-adv-x="419" d="M386 411q0 -28 -12 -52.5t-35.5 -42.5t-57 -28.5t-75.5 -10.5q-65 0 -109 23t-74 56l77 63q14 -19 39.5 -32t62.5 -13q34 0 51 12t17 32q0 19 -15.5 28t-40.5 9h-56v92h54q18 0 33.5 9t15.5 29t-17 29.5t-43 9.5q-27 0 -52.5 -9.5t-45.5 -29.5l-65 69q35 32 75 50t94 18 q34 0 64.5 -7.5t52.5 -23t35 -38.5t13 -54q0 -59 -52 -90q34 -14 50 -41t16 -57z" />
<glyph horiz-adv-x="416" d="M330 370v-85h-108v85h-200v80q25 23 55 58.5t58.5 73t51 73t32.5 59.5h111v-251h64v-93h-64zM224 463l3 128q-20 -32 -45 -64t-54 -64h96z" />
<glyph horiz-adv-x="410" d="M379 432q0 -30 -11.5 -57.5t-34.5 -49.5t-57.5 -35t-80.5 -13q-57 0 -99 19.5t-72 50.5l69 67q19 -24 43.5 -34t50.5 -10q31 0 54 14t23 46q0 29 -20 43.5t-50 14.5q-49 0 -79 -36l-66 25l15 237h291v-92h-200q-1 -15 -4 -37.5t-6 -38.5q18 12 39.5 17t43.5 5 q31 0 59 -9.5t48 -27.5t32 -43t12 -56z" />
<glyph horiz-adv-x="410" d="M146 436q0 -31 16.5 -50.5t48.5 -19.5q31 0 47 19.5t16 51.5t-16 51.5t-47 19.5q-32 0 -48.5 -20.5t-16.5 -51.5zM325 714q-54 -38 -90 -71.5t-58 -75.5q14 11 33 15t32 4q64 0 105.5 -39.5t41.5 -108.5q0 -35 -13 -64.5t-36.5 -51t-56 -33.5t-72.5 -12 q-82 0 -130.5 43.5t-48.5 126.5q0 82 39 148t98 119h156z" />
<glyph horiz-adv-x="374" d="M366 638q-30 -36 -59.5 -77.5t-52.5 -87t-37 -93t-13 -95.5h-125q1 51 16.5 99.5t37.5 91t47.5 78.5t47.5 63h-211v97h349v-76z" />
<glyph horiz-adv-x="425" d="M392 408q0 -63 -48.5 -97t-130.5 -34q-83 0 -131 34t-48 97q0 30 14 58t48 45q-22 14 -35 35.5t-13 52.5q0 60 44 91.5t121 31.5q78 0 121 -31.5t43 -91.5q0 -31 -14.5 -52.5t-34.5 -35.5q34 -17 49 -45t15 -58zM266 595q0 23 -16.5 33.5t-36.5 10.5q-22 0 -38 -10.5 t-16 -33.5q0 -26 16 -37t37 -11t37.5 11t16.5 37zM280 414q0 29 -20.5 42.5t-46.5 13.5q-27 0 -47.5 -13.5t-20.5 -42.5t20.5 -42t47.5 -13q26 0 46.5 13t20.5 42z" />
<glyph horiz-adv-x="411" d="M265 562q0 32 -17 51t-49 19q-31 0 -46.5 -19.5t-15.5 -51.5t15.5 -51t46.5 -19q32 0 49 20t17 51zM86 285q54 37 90.5 70.5t57.5 75.5q-14 -11 -33 -14.5t-32 -3.5q-64 0 -105.5 39t-41.5 108q0 36 13 66t36 51t56 33t72 12q83 0 131.5 -43.5t48.5 -127.5 q0 -82 -39 -147t-98 -119h-156z" />
<glyph horiz-adv-x="425" d="M390 216q0 -47 -10.5 -88t-32.5 -71t-56 -47.5t-80 -17.5t-79 17.5t-54.5 47.5t-31.5 71t-10 88t10 87.5t31.5 70t54.5 46.5t79 17t80 -17t56 -47t32.5 -70.5t10.5 -86.5zM276 216q0 27 -3 51t-10.5 41.5t-20 27.5t-31.5 10q-18 0 -30.5 -10t-19.5 -27.5t-10 -41.5 t-3 -51q0 -28 3 -52t10 -42t19.5 -28t30.5 -10q19 0 31.5 10.5t20 28.5t10.5 42t3 51z" />
<glyph horiz-adv-x="400" d="M294 0h-111v312q-20 -8 -48.5 -14.5t-56.5 -10.5l-14 86q55 9 89 22.5t58 33.5h83v-429z" />
<glyph horiz-adv-x="414" d="M38 0v81q56 39 96 68.5t65 53.5t36.5 45t11.5 42q0 23 -15.5 36t-39.5 13q-25 0 -46 -14.5t-35 -41.5l-88 49q29 45 72 75t105 30q75 0 120.5 -38t45.5 -105q0 -49 -36.5 -96.5t-117.5 -100.5h170v-97h-344z" />
<glyph horiz-adv-x="419" d="M386 126q0 -27 -12 -51.5t-35.5 -43t-57 -29t-75.5 -10.5q-65 0 -109 23t-74 56l77 63q14 -19 39.5 -31.5t62.5 -12.5q34 0 51 11.5t17 31.5q0 19 -15.5 28t-40.5 9h-56v93h54q18 0 33.5 8.5t15.5 28.5t-17 30t-43 10q-27 0 -52.5 -10t-45.5 -30l-65 69q35 32 75 50 t94 18q34 0 64.5 -7.5t52.5 -23t35 -38.5t13 -53q0 -61 -52 -90q34 -14 50 -41t16 -58z" />
<glyph horiz-adv-x="416" d="M330 85v-85h-108v85h-200v81q25 23 55 58t58.5 73t51 73.5t32.5 58.5h111v-251h64v-93h-64zM224 178l3 128q-20 -32 -45 -64t-54 -64h96z" />
<glyph horiz-adv-x="410" d="M379 148q0 -30 -11.5 -58t-34.5 -49.5t-57.5 -35t-80.5 -13.5q-57 0 -99 19.5t-72 51.5l69 66q19 -24 43.5 -34t50.5 -10q31 0 54 14t23 46q0 29 -20 44t-50 15q-48 0 -79 -37l-66 26l15 236h291v-91h-200q-1 -15 -4 -37.5t-6 -39.5q18 12 39.5 17t43.5 5q31 0 59 -9.5 t48 -27t32 -42.5t12 -56z" />
<glyph horiz-adv-x="410" d="M146 151q0 -31 16.5 -50t48.5 -19q31 0 47 19t16 51t-16 51.5t-47 19.5q-32 0 -48.5 -20.5t-16.5 -51.5zM325 429q-54 -37 -90 -71t-58 -76q14 11 33 15t32 4q32 0 59 -10t46.5 -29.5t30.5 -47t11 -61.5q0 -36 -13 -65.5t-36.5 -50.5t-56 -33t-72.5 -12 q-82 0 -130.5 43.5t-48.5 127.5q0 82 39 147t98 119h156z" />
<glyph horiz-adv-x="374" d="M366 353q-30 -36 -59.5 -77.5t-52.5 -86.5t-37 -93t-13 -96h-125q1 52 16.5 100t37.5 90.5t47.5 78.5t47.5 63h-211v97h349v-76z" />
<glyph horiz-adv-x="425" d="M392 123q0 -63 -48.5 -97t-130.5 -34q-83 0 -131 34t-48 97q0 31 14 59t48 45q-22 13 -35 34.5t-13 53.5q0 60 44 91t121 31q78 0 121 -31t43 -91q0 -31 -14.5 -52.5t-34.5 -35.5q34 -17 49 -45t15 -59zM266 310q0 24 -16.5 34.5t-36.5 10.5q-22 0 -38 -10.5t-16 -34.5 q0 -26 16 -37t37 -11t37.5 11t16.5 37zM280 129q0 30 -20.5 43t-46.5 13q-27 0 -47.5 -13t-20.5 -43q0 -29 20.5 -41.5t47.5 -12.5q26 0 46.5 12.5t20.5 41.5z" />
<glyph horiz-adv-x="411" d="M265 278q0 31 -17 50.5t-49 19.5q-31 0 -46.5 -19.5t-15.5 -51.5t15.5 -51.5t46.5 -19.5q32 0 49 20.5t17 51.5zM86 0q54 37 90.5 71t57.5 75q-14 -11 -33 -14.5t-32 -3.5q-64 0 -105.5 39.5t-41.5 108.5q0 36 13 65.5t36 51t56 33t72 11.5q83 0 131.5 -43.5t48.5 -126.5 q0 -41 -10.5 -78t-29 -70t-43.5 -62.5t-54 -56.5h-156z" />
<glyph horiz-adv-x="627" d="M595 263q0 -62 -20 -112.5t-56.5 -86.5t-89 -56t-116.5 -20q-65 0 -116.5 20t-88.5 56t-56.5 86.5t-19.5 112.5q0 63 19.5 114t56.5 88t88.5 57t116.5 20q64 0 116.5 -20t89 -57t56.5 -88t20 -114zM437 264q0 68 -31.5 110.5t-92.5 42.5q-60 0 -92 -42.5t-32 -110.5 q0 -67 32 -109t92 -42q61 0 92.5 42t31.5 109zM250 580l91 170l121 -38l-109 -132h-103z" />
<glyph horiz-adv-x="276" d="M65 0v530h148v-530h-148zM69 648q0 29 20 49t49 20t49.5 -20t20.5 -49t-20.5 -49.5t-49.5 -20.5t-49 20.5t-20 49.5z" />
<glyph horiz-adv-x="271" d="M222 629q0 -67 -22.5 -117t-75.5 -98l-63 55q22 22 36.5 48t14.5 58q0 17 -5 29t-10.5 24.5t-10.5 27t-5 35.5v23h141v-85z" />
<glyph horiz-adv-x="339" d="M103 580l91 170l121 -38l-109 -132h-103z" />
<glyph horiz-adv-x="1324" d="M322 727q95 0 168 -36t118 -96l-109 -82q-25 35 -71.5 58.5t-104.5 23.5q-45 0 -78.5 -17t-33.5 -56q0 -21 10.5 -34t28.5 -22t43 -15t54 -12q54 -12 104.5 -26.5t89.5 -39t62 -61.5t23 -93q0 -53 -21 -95.5t-60 -73t-93.5 -47t-121.5 -16.5q-106 0 -185.5 40t-126.5 109 l114 85q35 -53 89 -78t117 -25q61 0 96 22.5t35 64.5q0 33 -30.5 50.5t-77 29.5t-100 24.5t-100 35.5t-77 62t-30.5 105q0 51 20 90.5t55.5 67.5t84.5 42.5t108 14.5zM984 727q95 0 168 -36t118 -96l-109 -82q-25 35 -71.5 58.5t-104.5 23.5q-45 0 -78.5 -17t-33.5 -56 q0 -21 10.5 -34t28.5 -22t43 -15t54 -12q54 -12 104.5 -26.5t89.5 -39t62 -61.5t23 -93q0 -53 -21 -95.5t-60 -73t-93.5 -47t-121.5 -16.5q-106 0 -185.5 40t-126.5 109l114 85q35 -53 89 -78t117 -25q61 0 96 22.5t35 64.5q0 33 -30.5 50.5t-77 29.5t-100 24.5t-100 35.5 t-77 62t-30.5 105q0 51 20 90.5t55.5 67.5t84.5 42.5t108 14.5z" />
</font>
</defs>
</svg>
